M48
; DRILL file {KiCad 8.0.4} date 2024-09-16T15:21:58-0600
; FORMAT={-:-/ absolute / metric / decimal}
; #@! TF.CreationDate,2024-09-16T15:21:58-06:00
; #@! TF.GenerationSoftware,Kicad,Pcbnew,8.0.4
; #@! TF.FileFunction,NonPlated,1,2,NPTH
FMAT,2
METRIC
; #@! TA.AperFunction,NonPlated,NPTH,ComponentDrill
T1C0.900
; #@! TA.AperFunction,NonPlated,NPTH,ComponentDrill
T2C1.702
; #@! TA.AperFunction,NonPlated,NPTH,ComponentDrill
T3C2.400
; #@! TA.AperFunction,NonPlated,NPTH,ComponentDrill
T4C3.000
; #@! TA.AperFunction,NonPlated,NPTH,ComponentDrill
T5C3.988
%
G90
G05
T1
X276.326Y-164.506
X276.847Y-167.461
T2
X144.899Y-104.446
X144.899Y-123.446
X144.899Y-142.446
X144.899Y-161.446
X155.059Y-104.446
X155.059Y-123.446
X155.059Y-142.446
X155.059Y-161.446
X163.899Y-98.731
X163.899Y-117.731
X163.899Y-136.731
X163.899Y-155.731
X174.059Y-98.731
X174.059Y-117.731
X174.059Y-136.731
X174.059Y-155.731
X183.456Y-150.703
X184.45Y-131.729
X185.445Y-112.755
X186.439Y-93.781
X193.491Y-173.014
X193.602Y-151.234
X194.597Y-132.26
X195.591Y-113.286
X196.585Y-94.312
X202.38Y-152.648
X203.375Y-133.674
X203.464Y-174.952
X204.369Y-114.7
X205.363Y-95.726
X212.142Y-176.639
X212.526Y-153.18
X213.521Y-134.206
X214.515Y-115.232
X215.509Y-96.258
X221.105Y-158.399
X222.099Y-139.425
X222.115Y-178.578
X223.094Y-120.451
X224.088Y-101.477
X231.031Y-179.037
X231.251Y-158.93
X232.245Y-139.956
X233.24Y-120.982
X234.234Y-102.008
X240.027Y-160.392
X241.004Y-180.976
X241.021Y-141.418
X242.015Y-122.444
X243.01Y-103.47
X250.173Y-160.923
X251.167Y-141.949
X252.161Y-122.975
X253.156Y-104.001
X258.281Y-174.016
X259.681Y-148.404
X266.287Y-180.271
X269.827Y-148.936
T3
X151.979Y-170.971
X156.979Y-92.921
X180.403Y-124.031
X227.658Y-130.428
X248.554Y-94.748
X252.699Y-187.617
T4
X146.169Y-101.906
X146.169Y-120.906
X146.169Y-139.906
X146.169Y-158.906
X152.519Y-99.366
X152.519Y-118.366
X152.519Y-137.366
X152.519Y-156.366
X165.169Y-96.191
X165.169Y-115.191
X165.169Y-134.191
X165.169Y-153.191
X171.519Y-93.651
X171.519Y-112.651
X171.519Y-131.651
X171.519Y-150.651
X184.857Y-148.233
X185.852Y-129.259
X186.846Y-110.285
X187.84Y-91.311
X191.332Y-146.028
X192.326Y-127.054
X193.32Y-108.08
X194.315Y-89.106
X195.222Y-170.763
X201.94Y-169.481
X203.781Y-150.178
X204.776Y-131.204
X205.77Y-112.23
X206.765Y-93.256
X210.256Y-147.974
X211.25Y-129.0
X212.244Y-110.026
X213.239Y-91.052
X213.873Y-174.388
X220.591Y-173.106
X222.506Y-155.929
X223.5Y-136.955
X224.495Y-117.981
X225.489Y-99.007
X228.98Y-153.724
X229.975Y-134.75
X230.969Y-115.776
X231.963Y-96.802
X232.762Y-176.786
X239.48Y-175.505
X241.428Y-157.922
X242.422Y-138.948
X243.416Y-119.974
X244.411Y-101.0
X247.902Y-155.717
X248.896Y-136.743
X249.891Y-117.769
X250.885Y-98.795
X260.845Y-172.797
X261.082Y-145.934
X267.413Y-174.704
X267.556Y-143.73
T5
X149.979Y-104.446
X149.979Y-123.446
X149.979Y-142.446
X149.979Y-161.446
X168.979Y-98.731
X168.979Y-117.731
X168.979Y-136.731
X168.979Y-155.731
X188.529Y-150.968
X189.524Y-131.995
X190.518Y-113.021
X191.512Y-94.047
X198.477Y-173.983
X207.453Y-152.914
X208.448Y-133.94
X209.442Y-114.966
X210.436Y-95.992
X217.128Y-177.608
X226.178Y-158.664
X227.172Y-139.69
X228.167Y-120.716
X229.161Y-101.743
X236.018Y-180.007
X245.1Y-160.657
X246.094Y-141.683
X247.088Y-122.71
X248.083Y-103.736
X262.284Y-177.144
X264.754Y-148.67
M30
