M48
; DRILL file {KiCad 8.0.4} date 2024-09-16T15:21:58-0600
; FORMAT={-:-/ absolute / metric / decimal}
; #@! TF.CreationDate,2024-09-16T15:21:58-06:00
; #@! TF.GenerationSoftware,Kicad,Pcbnew,8.0.4
; #@! TF.FileFunction,Plated,1,2,PTH
FMAT,2
METRIC
; #@! TA.AperFunction,Plated,PTH,ViaDrill
T1C0.400
; #@! TA.AperFunction,Plated,PTH,ComponentDrill
T2C0.750
; #@! TA.AperFunction,Plated,PTH,ComponentDrill
T3C0.991
; #@! TA.AperFunction,Plated,PTH,ComponentDrill
T4C1.092
%
G90
G05
T1
X220.229Y-107.196
X257.229Y-115.696
T2
X261.339Y-156.502
X261.444Y-154.504
T3
X157.979Y-104.136
X157.979Y-111.756
X157.979Y-123.136
X157.979Y-130.756
X157.979Y-142.136
X157.979Y-149.756
X157.979Y-161.136
X157.979Y-168.756
X176.979Y-98.421
X176.979Y-106.041
X176.979Y-117.421
X176.979Y-125.041
X176.979Y-136.421
X176.979Y-144.041
X176.979Y-155.421
X176.979Y-163.041
X196.136Y-158.687
X196.534Y-151.078
X197.13Y-139.713
X197.529Y-132.104
X198.124Y-120.739
X198.523Y-113.13
X199.119Y-101.765
X199.518Y-94.156
X204.936Y-182.685
X206.39Y-175.205
X215.06Y-160.633
X215.458Y-153.023
X216.054Y-141.659
X216.453Y-134.049
X217.048Y-122.685
X217.447Y-115.075
X218.043Y-103.711
X218.442Y-96.101
X223.587Y-186.31
X225.041Y-178.83
X233.784Y-166.383
X234.183Y-158.774
X234.779Y-147.409
X235.178Y-139.8
X235.773Y-128.435
X236.172Y-120.826
X236.768Y-109.461
X237.166Y-101.852
X242.476Y-188.709
X243.93Y-181.229
X252.706Y-168.376
X253.105Y-160.767
X253.7Y-149.402
X254.099Y-141.793
X254.695Y-130.428
X255.094Y-122.819
X255.689Y-111.454
X256.088Y-103.845
X264.087Y-187.829
X268.779Y-181.825
X272.36Y-156.388
X272.759Y-148.779
T4
X261.033Y-126.615
X261.166Y-124.078
X261.299Y-121.542
X261.432Y-119.005
X261.565Y-116.469
X261.698Y-113.932
X261.831Y-111.396
X261.964Y-108.859
X262.097Y-106.323
X262.229Y-103.786
X262.362Y-101.249
X262.495Y-98.713
X263.835Y-121.675
X266.372Y-121.808
X268.908Y-121.94
X276.252Y-127.412
X276.385Y-124.876
X276.518Y-122.339
X276.651Y-119.803
X276.784Y-117.266
X276.917Y-114.73
X277.05Y-112.193
X277.183Y-109.657
X277.316Y-107.12
X277.449Y-104.584
X277.582Y-102.047
X277.714Y-99.511
M30
