%TF.GenerationSoftware,KiCad,Pcbnew,8.0.4*%
%TF.CreationDate,2024-09-16T15:22:01-06:00*%
%TF.ProjectId,left_board,6c656674-5f62-46f6-9172-642e6b696361,v1.0.0*%
%TF.SameCoordinates,Original*%
%TF.FileFunction,Paste,Bot*%
%TF.FilePolarity,Positive*%
%FSLAX46Y46*%
G04 Gerber Fmt 4.6, Leading zero omitted, Abs format (unit mm)*
G04 Created by KiCad (PCBNEW 8.0.4) date 2024-09-16 15:22:01*
%MOMM*%
%LPD*%
G01*
G04 APERTURE LIST*
G04 Aperture macros list*
%AMRotRect*
0 Rectangle, with rotation*
0 The origin of the aperture is its center*
0 $1 length*
0 $2 width*
0 $3 Rotation angle, in degrees counterclockwise*
0 Add horizontal line*
21,1,$1,$2,0,0,$3*%
G04 Aperture macros list end*
%ADD10RotRect,0.900000X0.900000X280.000000*%
%ADD11RotRect,0.900000X1.250000X280.000000*%
%ADD12RotRect,0.900000X1.200000X87.000000*%
%ADD13RotRect,2.550000X2.500000X357.000000*%
%ADD14RotRect,0.900000X1.200000X79.000000*%
%ADD15R,2.550000X2.500000*%
%ADD16R,1.200000X0.900000*%
%ADD17RotRect,2.550000X2.500000X349.000000*%
%ADD18RotRect,0.900000X1.200000X52.000000*%
%ADD19RotRect,2.550000X2.500000X322.000000*%
G04 APERTURE END LIST*
D10*
%TO.C,T1*%
X277027359Y-162148845D03*
X274860782Y-162530871D03*
X278312356Y-169436423D03*
X276145779Y-169818449D03*
D11*
X274152385Y-164128151D03*
X274673329Y-167082573D03*
X274933801Y-168559784D03*
%TD*%
D12*
%TO.C,D13*%
X215172738Y-158475696D03*
X215345446Y-155180218D03*
%TD*%
D13*
%TO.C,S22*%
X239151594Y-138776155D03*
X252193811Y-136916183D03*
%TD*%
%TO.C,S11*%
X183575529Y-110113247D03*
X196617746Y-108253275D03*
%TD*%
D14*
%TO.C,D25*%
X205347796Y-180564768D03*
X205977466Y-177325398D03*
%TD*%
D15*
%TO.C,S7*%
X161894120Y-115190988D03*
X174821120Y-112650988D03*
%TD*%
D12*
%TO.C,D19*%
X235886215Y-126278130D03*
X236058923Y-122982652D03*
%TD*%
D13*
%TO.C,S18*%
X220229968Y-136783142D03*
X233272185Y-134923170D03*
%TD*%
%TO.C,S12*%
X184569913Y-91139285D03*
X197612130Y-89279313D03*
%TD*%
%TO.C,S16*%
X203494024Y-93084863D03*
X216536241Y-91224891D03*
%TD*%
D12*
%TO.C,D14*%
X216167121Y-139501735D03*
X216339829Y-136206257D03*
%TD*%
%TO.C,D21*%
X252819074Y-166219065D03*
X252991782Y-162923587D03*
%TD*%
D16*
%TO.C,D7*%
X176979120Y-122880988D03*
X176979120Y-119580988D03*
%TD*%
D15*
%TO.C,S2*%
X142894120Y-139905988D03*
X155821120Y-137365988D03*
%TD*%
D16*
%TO.C,D6*%
X176979120Y-141880988D03*
X176979120Y-138580988D03*
%TD*%
D14*
%TO.C,D27*%
X242888140Y-186588476D03*
X243517810Y-183349106D03*
%TD*%
D15*
%TO.C,S5*%
X161894120Y-153190988D03*
X174821120Y-150650988D03*
%TD*%
D13*
%TO.C,S19*%
X221224352Y-117809181D03*
X234266569Y-115949209D03*
%TD*%
D14*
%TO.C,D26*%
X223998712Y-184190139D03*
X224628382Y-180950769D03*
%TD*%
D12*
%TO.C,D18*%
X234891832Y-145252091D03*
X235064540Y-141956613D03*
%TD*%
%TO.C,D24*%
X255802224Y-109297181D03*
X255974932Y-106001703D03*
%TD*%
D13*
%TO.C,S29*%
X257811539Y-145762315D03*
X270853756Y-143902343D03*
%TD*%
D17*
%TO.C,S25*%
X192007271Y-170137701D03*
X205181421Y-170110956D03*
%TD*%
D12*
%TO.C,D29*%
X272473403Y-154231264D03*
X272646111Y-150935786D03*
%TD*%
D15*
%TO.C,S8*%
X161894120Y-96190988D03*
X174821120Y-93650988D03*
%TD*%
%TO.C,S1*%
X142894120Y-158905988D03*
X155821120Y-156365988D03*
%TD*%
D13*
%TO.C,S13*%
X200510874Y-150006747D03*
X213553091Y-148146775D03*
%TD*%
D16*
%TO.C,D3*%
X157979120Y-128595988D03*
X157979120Y-125295988D03*
%TD*%
D12*
%TO.C,D22*%
X253813457Y-147245104D03*
X253986165Y-143949626D03*
%TD*%
D16*
%TO.C,D8*%
X176979120Y-103880988D03*
X176979120Y-100580988D03*
%TD*%
D12*
%TO.C,D15*%
X217161504Y-120527773D03*
X217334212Y-117232295D03*
%TD*%
D15*
%TO.C,S6*%
X161894120Y-134190988D03*
X174821120Y-131650988D03*
%TD*%
D17*
%TO.C,S26*%
X210658187Y-173763071D03*
X223832337Y-173736326D03*
%TD*%
D12*
%TO.C,D12*%
X199231776Y-99608234D03*
X199404484Y-96312756D03*
%TD*%
%TO.C,D10*%
X197243010Y-137556157D03*
X197415718Y-134260679D03*
%TD*%
D13*
%TO.C,S23*%
X240145977Y-119802193D03*
X253188194Y-117942221D03*
%TD*%
D15*
%TO.C,S3*%
X142894120Y-120905988D03*
X155821120Y-118365988D03*
%TD*%
%TO.C,S4*%
X142894120Y-101905988D03*
X155821120Y-99365988D03*
%TD*%
D12*
%TO.C,D23*%
X254807840Y-128271142D03*
X254980548Y-124975664D03*
%TD*%
D13*
%TO.C,S9*%
X181586763Y-148061169D03*
X194628980Y-146201197D03*
%TD*%
D17*
%TO.C,S27*%
X229547615Y-176161408D03*
X242721765Y-176134663D03*
%TD*%
D12*
%TO.C,D17*%
X233897449Y-164226052D03*
X234070157Y-160930574D03*
%TD*%
D13*
%TO.C,S15*%
X202499641Y-112058824D03*
X215541858Y-110198852D03*
%TD*%
%TO.C,S20*%
X222218735Y-98835219D03*
X235260952Y-96975247D03*
%TD*%
D16*
%TO.C,D2*%
X157979120Y-147595988D03*
X157979120Y-144295988D03*
%TD*%
D13*
%TO.C,S17*%
X219235585Y-155757103D03*
X232277802Y-153897131D03*
%TD*%
%TO.C,S14*%
X201505257Y-131032786D03*
X214547474Y-129172814D03*
%TD*%
%TO.C,S21*%
X238157211Y-157750116D03*
X251199428Y-155890144D03*
%TD*%
D16*
%TO.C,D1*%
X157979120Y-166595988D03*
X157979120Y-163295988D03*
%TD*%
D18*
%TO.C,D28*%
X265417110Y-186127273D03*
X267448792Y-183526837D03*
%TD*%
D16*
%TO.C,D4*%
X157979120Y-109595988D03*
X157979120Y-106295988D03*
%TD*%
%TO.C,D5*%
X176979120Y-160880988D03*
X176979120Y-157580988D03*
%TD*%
D19*
%TO.C,S28*%
X258264404Y-170780217D03*
X270014799Y-176737326D03*
%TD*%
D12*
%TO.C,D20*%
X236880598Y-107304168D03*
X237053306Y-104008690D03*
%TD*%
%TO.C,D9*%
X196248626Y-156530118D03*
X196421334Y-153234640D03*
%TD*%
%TO.C,D11*%
X198237393Y-118582196D03*
X198410101Y-115286718D03*
%TD*%
D13*
%TO.C,S24*%
X241140360Y-100828232D03*
X254182577Y-98968260D03*
%TD*%
%TO.C,S10*%
X182581146Y-129087208D03*
X195623363Y-127227236D03*
%TD*%
D12*
%TO.C,D16*%
X218155887Y-101553812D03*
X218328595Y-98258334D03*
%TD*%
M02*
