%TF.GenerationSoftware,KiCad,Pcbnew,8.0.4*%
%TF.CreationDate,2024-09-16T15:22:01-06:00*%
%TF.ProjectId,left_board,6c656674-5f62-46f6-9172-642e6b696361,v1.0.0*%
%TF.SameCoordinates,Original*%
%TF.FileFunction,Copper,L1,Top*%
%TF.FilePolarity,Positive*%
%FSLAX46Y46*%
G04 Gerber Fmt 4.6, Leading zero omitted, Abs format (unit mm)*
G04 Created by KiCad (PCBNEW 8.0.4) date 2024-09-16 15:22:01*
%MOMM*%
%LPD*%
G01*
G04 APERTURE LIST*
G04 Aperture macros list*
%AMHorizOval*
0 Thick line with rounded ends*
0 $1 width*
0 $2 $3 position (X,Y) of the first rounded end (center of the circle)*
0 $4 $5 position (X,Y) of the second rounded end (center of the circle)*
0 Add line between two ends*
20,1,$1,$2,$3,$4,$5,0*
0 Add two circle primitives to create the rounded ends*
1,1,$1,$2,$3*
1,1,$1,$4,$5*%
%AMRotRect*
0 Rectangle, with rotation*
0 The origin of the aperture is its center*
0 $1 length*
0 $2 width*
0 $3 Rotation angle, in degrees counterclockwise*
0 Add horizontal line*
21,1,$1,$2,0,0,$3*%
G04 Aperture macros list end*
%TA.AperFunction,WasherPad*%
%ADD10C,1.000000*%
%TD*%
%TA.AperFunction,ComponentPad*%
%ADD11RotRect,1.778000X1.778000X87.000000*%
%TD*%
%TA.AperFunction,SMDPad,CuDef*%
%ADD12RotRect,0.900000X1.200000X87.000000*%
%TD*%
%TA.AperFunction,ComponentPad*%
%ADD13C,1.905000*%
%TD*%
%TA.AperFunction,ComponentPad*%
%ADD14RotRect,1.778000X1.778000X79.000000*%
%TD*%
%TA.AperFunction,SMDPad,CuDef*%
%ADD15RotRect,0.900000X1.200000X79.000000*%
%TD*%
%TA.AperFunction,ComponentPad*%
%ADD16C,1.752600*%
%TD*%
%TA.AperFunction,ComponentPad*%
%ADD17R,1.778000X1.778000*%
%TD*%
%TA.AperFunction,SMDPad,CuDef*%
%ADD18R,1.200000X0.900000*%
%TD*%
%TA.AperFunction,ComponentPad*%
%ADD19RotRect,1.200000X1.700000X87.000000*%
%TD*%
%TA.AperFunction,ComponentPad*%
%ADD20HorizOval,1.200000X-0.249657X0.013084X0.249657X-0.013084X0*%
%TD*%
%TA.AperFunction,ComponentPad*%
%ADD21RotRect,1.778000X1.778000X52.000000*%
%TD*%
%TA.AperFunction,SMDPad,CuDef*%
%ADD22RotRect,0.900000X1.200000X52.000000*%
%TD*%
%TA.AperFunction,ViaPad*%
%ADD23C,0.800000*%
%TD*%
%TA.AperFunction,Conductor*%
%ADD24C,0.250000*%
%TD*%
G04 APERTURE END LIST*
D10*
%TO.P,T1,*%
%TO.N,*%
X276326097Y-164506435D03*
X276847041Y-167460859D03*
%TD*%
D11*
%TO.P,D13,1*%
%TO.N,P115*%
X215059692Y-160632736D03*
D12*
X215172738Y-158475696D03*
%TO.P,D13,2*%
%TO.N,three_bottom*%
X215345446Y-155180218D03*
D13*
X215458492Y-153023178D03*
%TD*%
D14*
%TO.P,D25,1*%
%TO.N,P113*%
X204935649Y-182685083D03*
D15*
X205347796Y-180564768D03*
%TO.P,D25,2*%
%TO.N,near_thumb*%
X205977466Y-177325398D03*
D13*
X206389613Y-175205083D03*
%TD*%
D11*
%TO.P,D19,1*%
%TO.N,P029*%
X235773169Y-128435170D03*
D12*
X235886215Y-126278130D03*
%TO.P,D19,2*%
%TO.N,four_qwerty*%
X236058923Y-122982652D03*
D13*
X236171969Y-120825612D03*
%TD*%
D16*
%TO.P,MCU1,1*%
%TO.N,P006*%
X262495331Y-98712965D03*
%TO.P,MCU1,2*%
%TO.N,P008*%
X262362398Y-101249484D03*
%TO.P,MCU1,3*%
%TO.N,GND*%
X262229465Y-103786003D03*
%TO.P,MCU1,4*%
X262096531Y-106322522D03*
%TO.P,MCU1,5*%
%TO.N,P017*%
X261963598Y-108859041D03*
%TO.P,MCU1,6*%
%TO.N,P020*%
X261830665Y-111395561D03*
%TO.P,MCU1,7*%
%TO.N,P022*%
X261697731Y-113932080D03*
%TO.P,MCU1,8*%
%TO.N,P024*%
X261564798Y-116468599D03*
%TO.P,MCU1,9*%
%TO.N,P100*%
X261431865Y-119005118D03*
%TO.P,MCU1,10*%
%TO.N,P011*%
X261298931Y-121541637D03*
%TO.P,MCU1,11*%
%TO.N,P104*%
X261165998Y-124078156D03*
%TO.P,MCU1,12*%
%TO.N,P106*%
X261033065Y-126614675D03*
%TO.P,MCU1,13*%
%TO.N,P009*%
X276252179Y-127412275D03*
%TO.P,MCU1,14*%
%TO.N,P010*%
X276385112Y-124875756D03*
%TO.P,MCU1,15*%
%TO.N,P111*%
X276518045Y-122339237D03*
%TO.P,MCU1,16*%
%TO.N,P113*%
X276650979Y-119802718D03*
%TO.P,MCU1,17*%
%TO.N,P115*%
X276783912Y-117266199D03*
%TO.P,MCU1,18*%
%TO.N,P002*%
X276916845Y-114729679D03*
%TO.P,MCU1,19*%
%TO.N,P029*%
X277049779Y-112193160D03*
%TO.P,MCU1,20*%
%TO.N,P031*%
X277182712Y-109656641D03*
%TO.P,MCU1,21*%
%TO.N,VCC*%
X277315645Y-107120122D03*
%TO.P,MCU1,22*%
%TO.N,RST*%
X277448579Y-104583603D03*
%TO.P,MCU1,23*%
%TO.N,GND*%
X277581512Y-102047084D03*
%TO.P,MCU1,24*%
%TO.N,RAW*%
X277714445Y-99510565D03*
%TO.P,MCU1,31*%
%TO.N,P101*%
X263835450Y-121674570D03*
%TO.P,MCU1,32*%
%TO.N,P102*%
X266371969Y-121807503D03*
%TO.P,MCU1,33*%
%TO.N,P107*%
X268908488Y-121940437D03*
%TD*%
D11*
%TO.P,D14,1*%
%TO.N,P002*%
X216054075Y-141658775D03*
D12*
X216167121Y-139501735D03*
%TO.P,D14,2*%
%TO.N,three_home*%
X216339829Y-136206257D03*
D13*
X216452875Y-134049217D03*
%TD*%
D11*
%TO.P,D21,1*%
%TO.N,P115*%
X252706028Y-168376105D03*
D12*
X252819074Y-166219065D03*
%TO.P,D21,2*%
%TO.N,five_bottom*%
X252991782Y-162923587D03*
D13*
X253104828Y-160766547D03*
%TD*%
D17*
%TO.P,D7,1*%
%TO.N,P029*%
X176979120Y-125040988D03*
D18*
X176979120Y-122880988D03*
%TO.P,D7,2*%
%TO.N,one_qwerty*%
X176979120Y-119580988D03*
D13*
X176979120Y-117420988D03*
%TD*%
D17*
%TO.P,D6,1*%
%TO.N,P002*%
X176979120Y-144040988D03*
D18*
X176979120Y-141880988D03*
%TO.P,D6,2*%
%TO.N,one_home*%
X176979120Y-138580988D03*
D13*
X176979120Y-136420988D03*
%TD*%
D14*
%TO.P,D27,1*%
%TO.N,P113*%
X242475993Y-188708791D03*
D15*
X242888140Y-186588476D03*
%TO.P,D27,2*%
%TO.N,far_thumb*%
X243517810Y-183349106D03*
D13*
X243929957Y-181228791D03*
%TD*%
D19*
%TO.P,JST1,1*%
%TO.N,pos*%
X261339320Y-156501663D03*
D20*
%TO.P,JST1,2*%
%TO.N,GND*%
X261443992Y-154504403D03*
%TD*%
D14*
%TO.P,D26,1*%
%TO.N,P113*%
X223586565Y-186310454D03*
D15*
X223998712Y-184190139D03*
%TO.P,D26,2*%
%TO.N,home_thumb*%
X224628382Y-180950769D03*
D13*
X225040529Y-178830454D03*
%TD*%
D11*
%TO.P,D18,1*%
%TO.N,P002*%
X234778786Y-147409131D03*
D12*
X234891832Y-145252091D03*
%TO.P,D18,2*%
%TO.N,four_home*%
X235064540Y-141956613D03*
D13*
X235177586Y-139799573D03*
%TD*%
D11*
%TO.P,D24,1*%
%TO.N,P031*%
X255689178Y-111454221D03*
D12*
X255802224Y-109297181D03*
%TO.P,D24,2*%
%TO.N,five_number*%
X255974932Y-106001703D03*
D13*
X256087978Y-103844663D03*
%TD*%
D11*
%TO.P,D29,1*%
%TO.N,P002*%
X272360357Y-156388304D03*
D12*
X272473403Y-154231264D03*
%TO.P,D29,2*%
%TO.N,curly_square*%
X272646111Y-150935786D03*
D13*
X272759157Y-148778746D03*
%TD*%
D17*
%TO.P,D3,1*%
%TO.N,P029*%
X157979120Y-130755988D03*
D18*
X157979120Y-128595988D03*
%TO.P,D3,2*%
%TO.N,function_keys_qwerty*%
X157979120Y-125295988D03*
D13*
X157979120Y-123135988D03*
%TD*%
D11*
%TO.P,D22,1*%
%TO.N,P002*%
X253700411Y-149402144D03*
D12*
X253813457Y-147245104D03*
%TO.P,D22,2*%
%TO.N,five_home*%
X253986165Y-143949626D03*
D13*
X254099211Y-141792586D03*
%TD*%
D17*
%TO.P,D8,1*%
%TO.N,P031*%
X176979120Y-106040988D03*
D18*
X176979120Y-103880988D03*
%TO.P,D8,2*%
%TO.N,one_number*%
X176979120Y-100580988D03*
D13*
X176979120Y-98420988D03*
%TD*%
D11*
%TO.P,D15,1*%
%TO.N,P029*%
X217048458Y-122684813D03*
D12*
X217161504Y-120527773D03*
%TO.P,D15,2*%
%TO.N,three_qwerty*%
X217334212Y-117232295D03*
D13*
X217447258Y-115075255D03*
%TD*%
D11*
%TO.P,D12,1*%
%TO.N,P031*%
X199118730Y-101765274D03*
D12*
X199231776Y-99608234D03*
%TO.P,D12,2*%
%TO.N,two_number*%
X199404484Y-96312756D03*
D13*
X199517530Y-94155716D03*
%TD*%
D11*
%TO.P,D10,1*%
%TO.N,P002*%
X197129964Y-139713197D03*
D12*
X197243010Y-137556157D03*
%TO.P,D10,2*%
%TO.N,two_home*%
X197415718Y-134260679D03*
D13*
X197528764Y-132103639D03*
%TD*%
D11*
%TO.P,D23,1*%
%TO.N,P029*%
X254694794Y-130428182D03*
D12*
X254807840Y-128271142D03*
%TO.P,D23,2*%
%TO.N,five_qwerty*%
X254980548Y-124975664D03*
D13*
X255093594Y-122818624D03*
%TD*%
D11*
%TO.P,D17,1*%
%TO.N,P115*%
X233784403Y-166383092D03*
D12*
X233897449Y-164226052D03*
%TO.P,D17,2*%
%TO.N,four_bottom*%
X234070157Y-160930574D03*
D13*
X234183203Y-158773534D03*
%TD*%
D17*
%TO.P,D2,1*%
%TO.N,P002*%
X157979120Y-149755988D03*
D18*
X157979120Y-147595988D03*
%TO.P,D2,2*%
%TO.N,function_keys_home*%
X157979120Y-144295988D03*
D13*
X157979120Y-142135988D03*
%TD*%
D17*
%TO.P,D1,1*%
%TO.N,P115*%
X157979120Y-168755988D03*
D18*
X157979120Y-166595988D03*
%TO.P,D1,2*%
%TO.N,function_keys_bottom*%
X157979120Y-163295988D03*
D13*
X157979120Y-161135988D03*
%TD*%
D21*
%TO.P,D28,1*%
%TO.N,P113*%
X264087281Y-187829376D03*
D22*
X265417110Y-186127273D03*
%TO.P,D28,2*%
%TO.N,space_thumb*%
X267448792Y-183526837D03*
D13*
X268778621Y-181824734D03*
%TD*%
D17*
%TO.P,D4,1*%
%TO.N,P031*%
X157979120Y-111755988D03*
D18*
X157979120Y-109595988D03*
%TO.P,D4,2*%
%TO.N,function_keys_number*%
X157979120Y-106295988D03*
D13*
X157979120Y-104135988D03*
%TD*%
D17*
%TO.P,D5,1*%
%TO.N,P115*%
X176979120Y-163040988D03*
D18*
X176979120Y-160880988D03*
%TO.P,D5,2*%
%TO.N,one_bottom*%
X176979120Y-157580988D03*
D13*
X176979120Y-155420988D03*
%TD*%
D11*
%TO.P,D20,1*%
%TO.N,P031*%
X236767552Y-109461208D03*
D12*
X236880598Y-107304168D03*
%TO.P,D20,2*%
%TO.N,four_number*%
X237053306Y-104008690D03*
D13*
X237166352Y-101851650D03*
%TD*%
D11*
%TO.P,D9,1*%
%TO.N,P115*%
X196135580Y-158687158D03*
D12*
X196248626Y-156530118D03*
%TO.P,D9,2*%
%TO.N,two_bottom*%
X196421334Y-153234640D03*
D13*
X196534380Y-151077600D03*
%TD*%
D11*
%TO.P,D11,1*%
%TO.N,P029*%
X198124347Y-120739236D03*
D12*
X198237393Y-118582196D03*
%TO.P,D11,2*%
%TO.N,two_qwerty*%
X198410101Y-115286718D03*
D13*
X198523147Y-113129678D03*
%TD*%
D11*
%TO.P,D16,1*%
%TO.N,P031*%
X218042841Y-103710852D03*
D12*
X218155887Y-101553812D03*
%TO.P,D16,2*%
%TO.N,three_number*%
X218328595Y-98258334D03*
D13*
X218441641Y-96101294D03*
%TD*%
D23*
%TO.N,P100*%
X257229120Y-115695988D03*
X220229120Y-107195988D03*
%TD*%
D24*
%TO.N,function_keys_bottom*%
X157979120Y-161135988D02*
X157979120Y-163295988D01*
%TO.N,function_keys_home*%
X157979120Y-142135988D02*
X157979120Y-144295988D01*
%TO.N,function_keys_qwerty*%
X157979120Y-125295988D02*
X157979120Y-123135988D01*
%TO.N,function_keys_number*%
X157979120Y-106295988D02*
X157979120Y-104135988D01*
%TO.N,one_bottom*%
X176979120Y-157580988D02*
X176979120Y-155420988D01*
%TO.N,one_home*%
X176979120Y-138580988D02*
X176979120Y-136420988D01*
%TO.N,one_qwerty*%
X176979120Y-119580988D02*
X176979120Y-117420988D01*
%TO.N,one_number*%
X176979120Y-100580988D02*
X176979120Y-98420988D01*
%TO.N,two_bottom*%
X196421334Y-153234640D02*
X196534380Y-151077600D01*
%TO.N,two_home*%
X197528764Y-132103639D02*
X197415718Y-134260679D01*
%TO.N,two_qwerty*%
X198410101Y-115286718D02*
X198523147Y-113129678D01*
%TO.N,two_number*%
X199404484Y-96312756D02*
X199517530Y-94155716D01*
%TO.N,P100*%
X238229120Y-113445988D02*
X257229120Y-115695988D01*
X220229120Y-107195988D02*
X238229120Y-113445988D01*
%TO.N,three_bottom*%
X215345446Y-155180218D02*
X215458492Y-153023178D01*
%TO.N,three_home*%
X216339829Y-136206257D02*
X216452875Y-134049217D01*
%TO.N,three_qwerty*%
X217334212Y-117232295D02*
X217447258Y-115075255D01*
%TO.N,three_number*%
X218328595Y-98258334D02*
X218441641Y-96101294D01*
%TO.N,four_bottom*%
X234070157Y-160930574D02*
X234183203Y-158773534D01*
%TO.N,four_home*%
X235064540Y-141956613D02*
X235177586Y-139799573D01*
%TO.N,four_qwerty*%
X236058923Y-122982652D02*
X236171969Y-120825612D01*
%TO.N,four_number*%
X237053306Y-104008690D02*
X237166352Y-101851650D01*
%TO.N,five_bottom*%
X252991782Y-162923587D02*
X253104828Y-160766547D01*
%TO.N,five_home*%
X253986165Y-143949626D02*
X254099211Y-141792586D01*
%TO.N,five_qwerty*%
X254980548Y-124975664D02*
X255093594Y-122818624D01*
%TO.N,five_number*%
X255974932Y-106001703D02*
X256087978Y-103844663D01*
%TO.N,near_thumb*%
X205977466Y-177325398D02*
X206389613Y-175205083D01*
%TO.N,home_thumb*%
X224628382Y-180950769D02*
X225040529Y-178830454D01*
%TO.N,far_thumb*%
X243517810Y-183349106D02*
X243929957Y-181228791D01*
%TO.N,space_thumb*%
X267448792Y-183526837D02*
X268778621Y-181824734D01*
%TO.N,curly_square*%
X272646111Y-150935786D02*
X272759157Y-148778746D01*
%TO.N,P115*%
X272479120Y-130445988D02*
X272979120Y-116695988D01*
X274229120Y-157945988D02*
X275729120Y-130695988D01*
X157979120Y-166595988D02*
X157979120Y-168755988D01*
X215172738Y-158475696D02*
X226229120Y-162445988D01*
X176979120Y-163040988D02*
X176979120Y-160880988D01*
X196248626Y-156530118D02*
X215172738Y-158475696D01*
X233784403Y-166383092D02*
X233897449Y-164226052D01*
X226229120Y-162445988D02*
X233897449Y-164226052D01*
X196135580Y-158687158D02*
X196248626Y-156530118D01*
X272979120Y-116695988D02*
X276783912Y-117266199D01*
X252819074Y-166219065D02*
X274229120Y-157945988D01*
X275729120Y-130695988D02*
X272479120Y-130445988D01*
X233897449Y-164226052D02*
X252819074Y-166219065D01*
X252706028Y-168376105D02*
X252819074Y-166219065D01*
X157979120Y-166595988D02*
X176979120Y-160880988D01*
X215059692Y-160632736D02*
X215172738Y-158475696D01*
X176979120Y-160880988D02*
X196248626Y-156530118D01*
%TO.N,P002*%
X176979120Y-141880988D02*
X197243010Y-137556157D01*
X157979120Y-147595988D02*
X157979120Y-149755988D01*
X272360357Y-156388304D02*
X272473403Y-154231264D01*
X197243010Y-137556157D02*
X216167121Y-139501735D01*
X253813457Y-147245104D02*
X255185635Y-147989473D01*
X216167121Y-139501735D02*
X234891832Y-145252091D01*
X197129964Y-139713197D02*
X197243010Y-137556157D01*
X234891832Y-145252091D02*
X253813457Y-147245104D01*
X258729120Y-127695988D02*
X259479120Y-115195988D01*
X253700411Y-149402144D02*
X253813457Y-147245104D01*
X255979120Y-140945988D02*
X258729120Y-127695988D01*
X255185635Y-147989473D02*
X255979120Y-140945988D01*
X259479120Y-115195988D02*
X266229120Y-115195988D01*
X234778786Y-147409131D02*
X234891832Y-145252091D01*
X216054075Y-141658775D02*
X216167121Y-139501735D01*
X157979120Y-147595988D02*
X176979120Y-141880988D01*
X262479120Y-151945988D02*
X272473403Y-154231264D01*
X176979120Y-144040988D02*
X176979120Y-141880988D01*
X266229120Y-115195988D02*
X276916845Y-114729679D01*
X255185635Y-147989473D02*
X262479120Y-151945988D01*
%TO.N,P029*%
X257729120Y-128445988D02*
X258729120Y-112695988D01*
X187979120Y-120195988D02*
X198237393Y-118582196D01*
X198124347Y-120739236D02*
X198237393Y-118582196D01*
X235886215Y-126278130D02*
X254807840Y-128271142D01*
X176979120Y-122880988D02*
X187979120Y-120195988D01*
X157979120Y-128595988D02*
X176979120Y-122880988D01*
X198237393Y-118582196D02*
X217161504Y-120527773D01*
X258729120Y-112695988D02*
X277049779Y-112193160D01*
X254694794Y-130428182D02*
X254807840Y-128271142D01*
X254807840Y-128271142D02*
X257729120Y-128445988D01*
X228229120Y-124195988D02*
X235886215Y-126278130D01*
X176979120Y-125040988D02*
X176979120Y-122880988D01*
X217048458Y-122684813D02*
X217161504Y-120527773D01*
X157979120Y-130755988D02*
X157979120Y-128595988D01*
X235773169Y-128435170D02*
X235886215Y-126278130D01*
X217161504Y-120527773D02*
X228229120Y-124195988D01*
%TO.N,P031*%
X218155887Y-101553812D02*
X228229120Y-104945988D01*
X255689178Y-111454221D02*
X255802224Y-109297181D01*
X176979120Y-103880988D02*
X199231776Y-99608234D01*
X199231776Y-99608234D02*
X218155887Y-101553812D01*
X157979120Y-111755988D02*
X157979120Y-109595988D01*
X199118730Y-101765274D02*
X199231776Y-99608234D01*
X218042841Y-103710852D02*
X218155887Y-101553812D01*
X228229120Y-104945988D02*
X236880598Y-107304168D01*
X157979120Y-109595988D02*
X176979120Y-103880988D01*
X176979120Y-106040988D02*
X176979120Y-103880988D01*
X261729120Y-110195988D02*
X277182712Y-109656641D01*
X255802224Y-109297181D02*
X261729120Y-110195988D01*
X236767552Y-109461208D02*
X236880598Y-107304168D01*
X236880598Y-107304168D02*
X255802224Y-109297181D01*
%TO.N,P113*%
X242475993Y-188708791D02*
X242888140Y-186588476D01*
X274729120Y-158445988D02*
X276479120Y-129945988D01*
X264729120Y-173695988D02*
X265229120Y-162445988D01*
X265229120Y-162445988D02*
X274729120Y-158445988D01*
X223586565Y-186310454D02*
X223998712Y-184190139D01*
X265479120Y-177695988D02*
X264729120Y-173695988D01*
X204935649Y-182685083D02*
X205347796Y-180564768D01*
X276479120Y-129945988D02*
X273229120Y-129695988D01*
X205347796Y-180564768D02*
X223998712Y-184190139D01*
X264087281Y-187829376D02*
X265417110Y-186127273D01*
X273479120Y-119695988D02*
X276650979Y-119802718D01*
X252729120Y-185195988D02*
X265417110Y-186127273D01*
X263979120Y-180445988D02*
X265479120Y-177695988D01*
X265417110Y-186127273D02*
X263979120Y-180445988D01*
X223998712Y-184190139D02*
X242888140Y-186588476D01*
X273229120Y-129695988D02*
X273479120Y-119695988D01*
X242888140Y-186588476D02*
X252729120Y-185195988D01*
%TO.N,GND*%
X262229465Y-103786003D02*
X277581512Y-102047084D01*
X262096531Y-106322522D02*
X262229465Y-103786003D01*
%TD*%
M02*
