%TF.GenerationSoftware,KiCad,Pcbnew,8.0.4*%
%TF.CreationDate,2024-09-16T15:21:11-06:00*%
%TF.ProjectId,right_board,72696768-745f-4626-9f61-72642e6b6963,v1.0.0*%
%TF.SameCoordinates,Original*%
%TF.FileFunction,Legend,Top*%
%TF.FilePolarity,Positive*%
%FSLAX46Y46*%
G04 Gerber Fmt 4.6, Leading zero omitted, Abs format (unit mm)*
G04 Created by KiCad (PCBNEW 8.0.4) date 2024-09-16 15:21:11*
%MOMM*%
%LPD*%
G01*
G04 APERTURE LIST*
%ADD10C,0.000000*%
%ADD11C,0.400000*%
%ADD12C,0.150000*%
%ADD13C,0.300000*%
%ADD14C,0.100000*%
%ADD15C,0.381000*%
%ADD16C,2.400000*%
%ADD17C,1.752600*%
G04 APERTURE END LIST*
D10*
G36*
X243253959Y-180144046D02*
G01*
X243269758Y-180145097D01*
X243285719Y-180146813D01*
X243301898Y-180149234D01*
X243318348Y-180152402D01*
X243335123Y-180156356D01*
X243352278Y-180161138D01*
X243386361Y-180176350D01*
X243417445Y-180194069D01*
X243445572Y-180214087D01*
X243470783Y-180236198D01*
X243493117Y-180260194D01*
X243512617Y-180285869D01*
X243529322Y-180313015D01*
X243543274Y-180341426D01*
X243554513Y-180370896D01*
X243563079Y-180401217D01*
X243569014Y-180432182D01*
X243572358Y-180463584D01*
X243573151Y-180495218D01*
X243571435Y-180526874D01*
X243567250Y-180558348D01*
X243560637Y-180589432D01*
X243551637Y-180619919D01*
X243540290Y-180649602D01*
X243526637Y-180678275D01*
X243510718Y-180705730D01*
X243492575Y-180731761D01*
X243472247Y-180756160D01*
X243449777Y-180778722D01*
X243425204Y-180799238D01*
X243398569Y-180817503D01*
X243369913Y-180833309D01*
X243339276Y-180846450D01*
X243306699Y-180856718D01*
X243272224Y-180863907D01*
X243235890Y-180867810D01*
X243197738Y-180868220D01*
X243157809Y-180864929D01*
X243125533Y-180859310D01*
X243094716Y-180851226D01*
X243065409Y-180840820D01*
X243037659Y-180828231D01*
X243011518Y-180813601D01*
X242987033Y-180797070D01*
X242964253Y-180778779D01*
X242943229Y-180758869D01*
X242924009Y-180737480D01*
X242906642Y-180714753D01*
X242891177Y-180690829D01*
X242877664Y-180665849D01*
X242866153Y-180639953D01*
X242856691Y-180613282D01*
X242849328Y-180585977D01*
X242844114Y-180558178D01*
X242843245Y-180550075D01*
X242841097Y-180530027D01*
X242840327Y-180501664D01*
X242841852Y-180473230D01*
X242844003Y-180457471D01*
X243157811Y-180457471D01*
X243157811Y-180550075D01*
X243287456Y-180485253D01*
X243157811Y-180457471D01*
X242844003Y-180457471D01*
X242845723Y-180444865D01*
X242851988Y-180416710D01*
X242860697Y-180388907D01*
X242871898Y-180361595D01*
X242885641Y-180334915D01*
X242901974Y-180309009D01*
X242920948Y-180284017D01*
X242942611Y-180260079D01*
X242967013Y-180237337D01*
X242994202Y-180215931D01*
X243024228Y-180196002D01*
X243057140Y-180177691D01*
X243092987Y-180161138D01*
X243126918Y-180154681D01*
X243159546Y-180149418D01*
X243175508Y-180147335D01*
X243191306Y-180145674D01*
X243206997Y-180144473D01*
X243222633Y-180143775D01*
X243238269Y-180143619D01*
X243253959Y-180144046D01*
G37*
G36*
X243435622Y-179429565D02*
G01*
X243574528Y-179586992D01*
X243954205Y-179411044D01*
X244278321Y-179651815D01*
X244695039Y-179466607D01*
X245009894Y-179716638D01*
X245232144Y-179633294D01*
X245648862Y-179383262D01*
X245519217Y-179735158D01*
X245700663Y-179730817D01*
X245819058Y-179730275D01*
X245880902Y-179731835D01*
X245942880Y-179735158D01*
X246003774Y-179740652D01*
X246062361Y-179748723D01*
X246117422Y-179759779D01*
X246143248Y-179766553D01*
X246167735Y-179774226D01*
X246190730Y-179782848D01*
X246212079Y-179792471D01*
X246231632Y-179803145D01*
X246249234Y-179814921D01*
X246264734Y-179827850D01*
X246277979Y-179841983D01*
X246288816Y-179857371D01*
X246297092Y-179874064D01*
X246300899Y-179885775D01*
X246303671Y-179898298D01*
X246305460Y-179911578D01*
X246306316Y-179925557D01*
X246306291Y-179940181D01*
X246305434Y-179955394D01*
X246301433Y-179987360D01*
X246294718Y-180021008D01*
X246285697Y-180055891D01*
X246274777Y-180091560D01*
X246262365Y-180127568D01*
X246248868Y-180163468D01*
X246234692Y-180198812D01*
X246205934Y-180266041D01*
X246158185Y-180374127D01*
X246484471Y-180377021D01*
X246625855Y-180378034D01*
X246761271Y-180376442D01*
X246897121Y-180370510D01*
X246967209Y-180365373D01*
X247039807Y-180358500D01*
X247115715Y-180349674D01*
X247195733Y-180338677D01*
X247280662Y-180325293D01*
X247371301Y-180309304D01*
X247422269Y-180501783D01*
X247445651Y-180592013D01*
X247466509Y-180678852D01*
X247484004Y-180762761D01*
X247497293Y-180844202D01*
X247505536Y-180923634D01*
X247507502Y-180962742D01*
X247507892Y-181001520D01*
X247506599Y-181040027D01*
X247503519Y-181078321D01*
X247498547Y-181116459D01*
X247491577Y-181154498D01*
X247482505Y-181192496D01*
X247471225Y-181230512D01*
X247457633Y-181268602D01*
X247441622Y-181306824D01*
X247423088Y-181345237D01*
X247401926Y-181383897D01*
X247378031Y-181422862D01*
X247351297Y-181462190D01*
X247321619Y-181501938D01*
X247288893Y-181542165D01*
X247253013Y-181582927D01*
X247213874Y-181624283D01*
X247257269Y-181637398D01*
X247300582Y-181652372D01*
X247343732Y-181669109D01*
X247386638Y-181687514D01*
X247429219Y-181707493D01*
X247471393Y-181728951D01*
X247513078Y-181751792D01*
X247554194Y-181775922D01*
X247594658Y-181801246D01*
X247634390Y-181827669D01*
X247673309Y-181855095D01*
X247711331Y-181883430D01*
X247748378Y-181912579D01*
X247784366Y-181942447D01*
X247819214Y-181972939D01*
X247852842Y-182003960D01*
X247056446Y-182133606D01*
X247103548Y-182141627D01*
X247154150Y-182151765D01*
X247207628Y-182163965D01*
X247263357Y-182178172D01*
X247320715Y-182194332D01*
X247379076Y-182212392D01*
X247437817Y-182232296D01*
X247496314Y-182253991D01*
X247553943Y-182277423D01*
X247610080Y-182302536D01*
X247664101Y-182329277D01*
X247715381Y-182357592D01*
X247763298Y-182387426D01*
X247807226Y-182418726D01*
X247846542Y-182451435D01*
X247864276Y-182468303D01*
X247880622Y-182485502D01*
X247898185Y-182505856D01*
X247916072Y-182528530D01*
X247934177Y-182553239D01*
X247952391Y-182579698D01*
X247970604Y-182607621D01*
X247988709Y-182636725D01*
X248024159Y-182697334D01*
X248057872Y-182759245D01*
X248088981Y-182820179D01*
X248116618Y-182877858D01*
X248139914Y-182930002D01*
X247630591Y-182772575D01*
X247664375Y-182789947D01*
X247696409Y-182807374D01*
X247726897Y-182824909D01*
X247756041Y-182842607D01*
X247784046Y-182860521D01*
X247811115Y-182878708D01*
X247837452Y-182897220D01*
X247863260Y-182916111D01*
X247914101Y-182955251D01*
X247965269Y-182996561D01*
X248075091Y-183087429D01*
X248180836Y-183180700D01*
X248282510Y-183279709D01*
X248379735Y-183384117D01*
X248472131Y-183493585D01*
X248559319Y-183607774D01*
X248640917Y-183726343D01*
X248716547Y-183848956D01*
X248785828Y-183975271D01*
X248848381Y-184104951D01*
X248903826Y-184237656D01*
X248951783Y-184373047D01*
X248991872Y-184510784D01*
X249023714Y-184650529D01*
X249046928Y-184791943D01*
X249061135Y-184934686D01*
X249065955Y-185078419D01*
X249065955Y-185300669D01*
X249064563Y-185370863D01*
X249062720Y-185406374D01*
X249060023Y-185442035D01*
X249056403Y-185477749D01*
X249051794Y-185513423D01*
X249046126Y-185548961D01*
X249039332Y-185584269D01*
X249031345Y-185619251D01*
X249022095Y-185653812D01*
X249011517Y-185687858D01*
X248999541Y-185721294D01*
X248986101Y-185754024D01*
X248971127Y-185785954D01*
X248954553Y-185816989D01*
X248936310Y-185847033D01*
X248584414Y-185495137D01*
X248655803Y-185658497D01*
X248717967Y-185805361D01*
X248772101Y-185941808D01*
X248819398Y-186073913D01*
X248840855Y-186140237D01*
X248861052Y-186207755D01*
X248880135Y-186277226D01*
X248898256Y-186349411D01*
X248915563Y-186425068D01*
X248932205Y-186504957D01*
X248964092Y-186680471D01*
X249006921Y-186902721D01*
X249011278Y-186932211D01*
X249014644Y-186961539D01*
X249016790Y-186990541D01*
X249017484Y-187019055D01*
X249016495Y-187046918D01*
X249013595Y-187073966D01*
X249008551Y-187100038D01*
X249005153Y-187112657D01*
X249001133Y-187124971D01*
X248877564Y-186941644D01*
X248808075Y-186838965D01*
X248734896Y-186734876D01*
X248697262Y-186683693D01*
X248659112Y-186633825D01*
X248620583Y-186585830D01*
X248581810Y-186540262D01*
X248542928Y-186497679D01*
X248504073Y-186458637D01*
X248465381Y-186423691D01*
X248426987Y-186393398D01*
X248493402Y-186543301D01*
X248534585Y-186638220D01*
X248576311Y-186738349D01*
X248614999Y-186837609D01*
X248632084Y-186885014D01*
X248647067Y-186929924D01*
X248659499Y-186971577D01*
X248668934Y-187009216D01*
X248674923Y-187042080D01*
X248677018Y-187069409D01*
X248674190Y-187102668D01*
X248666112Y-187142750D01*
X248653395Y-187188666D01*
X248636649Y-187239424D01*
X248616484Y-187294035D01*
X248593512Y-187351508D01*
X248541584Y-187471079D01*
X248485750Y-187590217D01*
X248430893Y-187700998D01*
X248381896Y-187795501D01*
X248343642Y-187865804D01*
X248305097Y-187934502D01*
X248265779Y-188001708D01*
X248225566Y-188067449D01*
X248184335Y-188131752D01*
X248141964Y-188194644D01*
X248098333Y-188256152D01*
X248053317Y-188316304D01*
X248006796Y-188375127D01*
X247958647Y-188432647D01*
X247908748Y-188488893D01*
X247856977Y-188543890D01*
X247803211Y-188597666D01*
X247747330Y-188650249D01*
X247689211Y-188701665D01*
X247628731Y-188751942D01*
X247565769Y-188801106D01*
X245871112Y-189745668D01*
X245786936Y-189802208D01*
X245696032Y-189866343D01*
X245601221Y-189936122D01*
X245505325Y-190009590D01*
X245411165Y-190084795D01*
X245321563Y-190159783D01*
X245239341Y-190232600D01*
X245201879Y-190267584D01*
X245167320Y-190301293D01*
X244787642Y-190680971D01*
X244787642Y-190523544D01*
X244738458Y-190549229D01*
X244691511Y-190577533D01*
X244646654Y-190608251D01*
X244603736Y-190641180D01*
X244562609Y-190676117D01*
X244523124Y-190712857D01*
X244485130Y-190751199D01*
X244448480Y-190790938D01*
X244413023Y-190831870D01*
X244378610Y-190873793D01*
X244312323Y-190959795D01*
X244185715Y-191134730D01*
X243157809Y-192570096D01*
X243048439Y-192383838D01*
X242935704Y-192199968D01*
X242819713Y-192018269D01*
X242700576Y-191838523D01*
X242578400Y-191660513D01*
X242453294Y-191484022D01*
X242325366Y-191308833D01*
X242319802Y-191301419D01*
X242741091Y-191301419D01*
X242768873Y-191329201D01*
X242768873Y-191301419D01*
X242741091Y-191301419D01*
X242319802Y-191301419D01*
X242194725Y-191134730D01*
X242068118Y-190958493D01*
X242035347Y-190914637D01*
X242001830Y-190871351D01*
X241967418Y-190828879D01*
X241931961Y-190787465D01*
X241895311Y-190747353D01*
X241857317Y-190708788D01*
X241817831Y-190672013D01*
X241776704Y-190637273D01*
X241733787Y-190604812D01*
X241688929Y-190574874D01*
X241665727Y-190560927D01*
X241641983Y-190547703D01*
X241617680Y-190535232D01*
X241592798Y-190523544D01*
X241592798Y-190680971D01*
X241213121Y-190301293D01*
X241178562Y-190267584D01*
X241157234Y-190247666D01*
X241631415Y-190247666D01*
X241631725Y-190253907D01*
X241632358Y-190260302D01*
X241633320Y-190266877D01*
X241634616Y-190273657D01*
X241636252Y-190280668D01*
X241638232Y-190287934D01*
X241643244Y-190303338D01*
X241649694Y-190320070D01*
X241657623Y-190338336D01*
X241685404Y-190116085D01*
X241666359Y-190148044D01*
X241658240Y-190162254D01*
X241651112Y-190175554D01*
X241645014Y-190188149D01*
X241639988Y-190200243D01*
X241636075Y-190212038D01*
X241634548Y-190217887D01*
X241633314Y-190223737D01*
X241632379Y-190229615D01*
X241631748Y-190235546D01*
X241631424Y-190241554D01*
X241631415Y-190247666D01*
X241157234Y-190247666D01*
X241141100Y-190232600D01*
X241058878Y-190159783D01*
X240969276Y-190084795D01*
X240875116Y-190009590D01*
X240779220Y-189936122D01*
X240684410Y-189866343D01*
X240593506Y-189802208D01*
X240509330Y-189745668D01*
X238814675Y-188801106D01*
X238751814Y-188750416D01*
X238691612Y-188699006D01*
X238633906Y-188646810D01*
X238578534Y-188593760D01*
X238525331Y-188539786D01*
X238474137Y-188484823D01*
X238424787Y-188428802D01*
X238377120Y-188371654D01*
X238330971Y-188313313D01*
X238286179Y-188253711D01*
X238242581Y-188192779D01*
X238200014Y-188130449D01*
X238158315Y-188066655D01*
X238117321Y-188001328D01*
X238036799Y-187865804D01*
X237995507Y-187795501D01*
X237944340Y-187700998D01*
X237888181Y-187590217D01*
X237831913Y-187471079D01*
X237805264Y-187410852D01*
X237780420Y-187351508D01*
X237757990Y-187294035D01*
X237738585Y-187239424D01*
X237728920Y-187208315D01*
X238064581Y-187208315D01*
X238090696Y-187279303D01*
X238120270Y-187352991D01*
X238153073Y-187428822D01*
X238188874Y-187506240D01*
X238227441Y-187584689D01*
X238268546Y-187663613D01*
X238311956Y-187742455D01*
X238357442Y-187820660D01*
X238404773Y-187897671D01*
X238453718Y-187972932D01*
X238504047Y-188045887D01*
X238555528Y-188115980D01*
X238607932Y-188182655D01*
X238661028Y-188245355D01*
X238714585Y-188303524D01*
X238768373Y-188356607D01*
X238841523Y-188421796D01*
X238915147Y-188482237D01*
X238989287Y-188538392D01*
X239063983Y-188590722D01*
X239139275Y-188639687D01*
X239215206Y-188685749D01*
X239291815Y-188729370D01*
X239369142Y-188771010D01*
X239526117Y-188850194D01*
X239686456Y-188926991D01*
X239850485Y-189005089D01*
X240018529Y-189088179D01*
X240851967Y-189569721D01*
X240509332Y-188291783D01*
X240435248Y-187430564D01*
X240457826Y-187149949D01*
X240766452Y-187149949D01*
X240767212Y-187175444D01*
X240768623Y-187199054D01*
X240767031Y-187409439D01*
X240769780Y-187605933D01*
X240777738Y-187792878D01*
X240791773Y-187974614D01*
X240812754Y-188155481D01*
X240841548Y-188339821D01*
X240879024Y-188531975D01*
X240926049Y-188736283D01*
X240963381Y-188881556D01*
X240988232Y-188971339D01*
X241016339Y-189065028D01*
X241047050Y-189156981D01*
X241063179Y-189200543D01*
X241079714Y-189241555D01*
X241096576Y-189279311D01*
X241113681Y-189313106D01*
X241130950Y-189342235D01*
X241148299Y-189365992D01*
X241161604Y-189381404D01*
X241177039Y-189396395D01*
X241194346Y-189410980D01*
X241213267Y-189425171D01*
X241233544Y-189438982D01*
X241254921Y-189452428D01*
X241277138Y-189465520D01*
X241299939Y-189478274D01*
X241346259Y-189502817D01*
X241391820Y-189526167D01*
X241434559Y-189548432D01*
X241454226Y-189559192D01*
X241472414Y-189569720D01*
X241503551Y-189585678D01*
X241534415Y-189602313D01*
X241564955Y-189619653D01*
X241595114Y-189637727D01*
X241624840Y-189656560D01*
X241654077Y-189676179D01*
X241682772Y-189696613D01*
X241710870Y-189717887D01*
X241738316Y-189740030D01*
X241765057Y-189763068D01*
X241791039Y-189787028D01*
X241816207Y-189811938D01*
X241840506Y-189837825D01*
X241863883Y-189864716D01*
X241886284Y-189892637D01*
X241907653Y-189921616D01*
X241920877Y-189940501D01*
X241932810Y-189958961D01*
X241943518Y-189977008D01*
X241953069Y-189994651D01*
X241961528Y-190011901D01*
X241968961Y-190028767D01*
X241975434Y-190045260D01*
X241981013Y-190061391D01*
X241985765Y-190077169D01*
X241989756Y-190092604D01*
X241993051Y-190107707D01*
X241995718Y-190122488D01*
X241999428Y-190151124D01*
X242001415Y-190178593D01*
X242002208Y-190204977D01*
X242002337Y-190230358D01*
X242002717Y-190278432D01*
X242004026Y-190301290D01*
X242006786Y-190323469D01*
X242008876Y-190334329D01*
X242011527Y-190345051D01*
X242014806Y-190355643D01*
X242018778Y-190366117D01*
X242021808Y-190373355D01*
X242025658Y-190381152D01*
X242035617Y-190398275D01*
X242048262Y-190417189D01*
X242063199Y-190437596D01*
X242080036Y-190459196D01*
X242098378Y-190481691D01*
X242138006Y-190528174D01*
X242218022Y-190618752D01*
X242252116Y-190658073D01*
X242266307Y-190675197D01*
X242278070Y-190690231D01*
X242750351Y-191301419D01*
X242741111Y-191247607D01*
X242730793Y-191195510D01*
X242707178Y-191096152D01*
X242680010Y-191002736D01*
X242649789Y-190914651D01*
X242617018Y-190831287D01*
X242582199Y-190752033D01*
X242545833Y-190676279D01*
X242508423Y-190603414D01*
X242358375Y-190328640D01*
X242323271Y-190261066D01*
X242290134Y-190192718D01*
X242259466Y-190122987D01*
X242231768Y-190051262D01*
X242214459Y-189993294D01*
X242197476Y-189931310D01*
X242181143Y-189866506D01*
X242165788Y-189800073D01*
X242151734Y-189733206D01*
X242139309Y-189667099D01*
X242128837Y-189602945D01*
X242120643Y-189541939D01*
X242119110Y-189527221D01*
X242117930Y-189511010D01*
X242116302Y-189475090D01*
X242113698Y-189396087D01*
X242113024Y-189384513D01*
X242416977Y-189384513D01*
X242419322Y-189501213D01*
X242422204Y-189554919D01*
X242426183Y-189605786D01*
X242431228Y-189654008D01*
X242437305Y-189699779D01*
X242444382Y-189743290D01*
X242452427Y-189784737D01*
X242461409Y-189824311D01*
X242471294Y-189862207D01*
X242493647Y-189933735D01*
X242519228Y-190000869D01*
X242547781Y-190065153D01*
X242579046Y-190128136D01*
X242612766Y-190191363D01*
X242686542Y-190324734D01*
X242726082Y-190397972D01*
X242767046Y-190477639D01*
X242809177Y-190565283D01*
X242852216Y-190662450D01*
X243185591Y-191653315D01*
X243328201Y-191245857D01*
X243657873Y-191245857D01*
X243684331Y-191221612D01*
X243711536Y-191194273D01*
X243739365Y-191164222D01*
X243767696Y-191131838D01*
X243825374Y-191061589D01*
X243883596Y-190986565D01*
X243997759Y-190834347D01*
X244051748Y-190763230D01*
X244102373Y-190699492D01*
X244127929Y-190666954D01*
X244160974Y-190626711D01*
X244237806Y-190533962D01*
X244275734Y-190486882D01*
X244309430Y-190442950D01*
X244323775Y-190423011D01*
X244335963Y-190404877D01*
X244345628Y-190388886D01*
X244352404Y-190375378D01*
X244357217Y-190364930D01*
X244361282Y-190354413D01*
X244367434Y-190333109D01*
X244371388Y-190311344D01*
X244373674Y-190288995D01*
X244375855Y-190218874D01*
X244697800Y-190218874D01*
X244698009Y-190224805D01*
X244698512Y-190230683D01*
X244699313Y-190236534D01*
X244700418Y-190242383D01*
X244701831Y-190248256D01*
X244703558Y-190254178D01*
X244705604Y-190260174D01*
X244707974Y-190266271D01*
X244710673Y-190272493D01*
X244713705Y-190278866D01*
X244720793Y-190292167D01*
X244729278Y-190306376D01*
X244739201Y-190321698D01*
X244750603Y-190338336D01*
X244722821Y-190116085D01*
X244716317Y-190134350D01*
X244710721Y-190151083D01*
X244706075Y-190166486D01*
X244702419Y-190180763D01*
X244699794Y-190194118D01*
X244698881Y-190200513D01*
X244698241Y-190206754D01*
X244697879Y-190212866D01*
X244697800Y-190218874D01*
X244375855Y-190218874D01*
X244376712Y-190191327D01*
X244378591Y-190164231D01*
X244381976Y-190135819D01*
X244387395Y-190105969D01*
X244395378Y-190074559D01*
X244406454Y-190041467D01*
X244413317Y-190024252D01*
X244421152Y-190006571D01*
X244430024Y-189988408D01*
X244440001Y-189969748D01*
X244451147Y-189950577D01*
X244463529Y-189930878D01*
X244485315Y-189900162D01*
X244508891Y-189870504D01*
X244534095Y-189841877D01*
X244560764Y-189814254D01*
X244588735Y-189787608D01*
X244617846Y-189761911D01*
X244647933Y-189737137D01*
X244678834Y-189713258D01*
X244710386Y-189690247D01*
X244742427Y-189668077D01*
X244774793Y-189646721D01*
X244807322Y-189626152D01*
X244872218Y-189587266D01*
X244919483Y-189560461D01*
X245519217Y-189560461D01*
X246352654Y-189078920D01*
X246688634Y-188921637D01*
X246849136Y-188845003D01*
X247005514Y-188765223D01*
X247082360Y-188723101D01*
X247158420Y-188678931D01*
X247233774Y-188632292D01*
X247308504Y-188582763D01*
X247382691Y-188529925D01*
X247456417Y-188473357D01*
X247529763Y-188412637D01*
X247602811Y-188347346D01*
X247656599Y-188294264D01*
X247710156Y-188236094D01*
X247763252Y-188173394D01*
X247815656Y-188106720D01*
X247867138Y-188036627D01*
X247917467Y-187963672D01*
X247966412Y-187888411D01*
X248013742Y-187811399D01*
X248059228Y-187733195D01*
X248102639Y-187654352D01*
X248143743Y-187575428D01*
X248182311Y-187496979D01*
X248218111Y-187419561D01*
X248250914Y-187343731D01*
X248280488Y-187270043D01*
X248306603Y-187199055D01*
X247891765Y-187147977D01*
X247689175Y-187123036D01*
X247488213Y-187096032D01*
X247287685Y-187065122D01*
X247086398Y-187028460D01*
X246883157Y-186984202D01*
X246780432Y-186958648D01*
X246676770Y-186930503D01*
X246610656Y-186911810D01*
X246550687Y-186893822D01*
X246496063Y-186876378D01*
X246445983Y-186859313D01*
X246399647Y-186842465D01*
X246356254Y-186825671D01*
X246275099Y-186791596D01*
X246196114Y-186755784D01*
X246112897Y-186716934D01*
X246019044Y-186673742D01*
X245908154Y-186624908D01*
X245903682Y-186651681D01*
X245900594Y-186679783D01*
X245898753Y-186709025D01*
X245898025Y-186739216D01*
X245898274Y-186770167D01*
X245899364Y-186801688D01*
X245903524Y-186865679D01*
X245926675Y-187106450D01*
X245926675Y-187615773D01*
X245926919Y-187701192D01*
X245924288Y-187790382D01*
X245918943Y-187882774D01*
X245911048Y-187977797D01*
X245888259Y-188173460D01*
X245857222Y-188372812D01*
X245819240Y-188571296D01*
X245775615Y-188764354D01*
X245727649Y-188947428D01*
X245676644Y-189115960D01*
X245519217Y-189560461D01*
X244919483Y-189560461D01*
X244935811Y-189551201D01*
X244956950Y-189539245D01*
X244978604Y-189527615D01*
X245022917Y-189504898D01*
X245067663Y-189482181D01*
X245089860Y-189470551D01*
X245111758Y-189458596D01*
X245133223Y-189446207D01*
X245154117Y-189433275D01*
X245174307Y-189419691D01*
X245193655Y-189405349D01*
X245212027Y-189390138D01*
X245229286Y-189373950D01*
X245237456Y-189365456D01*
X245245298Y-189356677D01*
X245252793Y-189347600D01*
X245259926Y-189338211D01*
X245274223Y-189315878D01*
X245289226Y-189287604D01*
X245304771Y-189254175D01*
X245320696Y-189216378D01*
X245353035Y-189130828D01*
X245384941Y-189037247D01*
X245415109Y-188941930D01*
X245442240Y-188851170D01*
X245482175Y-188708502D01*
X245511399Y-188585322D01*
X245536688Y-188462305D01*
X245558234Y-188339397D01*
X245576226Y-188216543D01*
X245590854Y-188093688D01*
X245602307Y-187970780D01*
X245610777Y-187847763D01*
X245616451Y-187724583D01*
X245620177Y-187477518D01*
X245615005Y-187229151D01*
X245602452Y-186979047D01*
X245584040Y-186726773D01*
X245093236Y-187365742D01*
X244583913Y-187782461D01*
X244602423Y-187788834D01*
X244619784Y-187795789D01*
X244636039Y-187803310D01*
X244651232Y-187811382D01*
X244665408Y-187819990D01*
X244678611Y-187829118D01*
X244690885Y-187838752D01*
X244702273Y-187848876D01*
X244712821Y-187859474D01*
X244722572Y-187870532D01*
X244731569Y-187882035D01*
X244739858Y-187893966D01*
X244747482Y-187906311D01*
X244754486Y-187919054D01*
X244766807Y-187945676D01*
X244777176Y-187973708D01*
X244785943Y-188003029D01*
X244793463Y-188033516D01*
X244800087Y-188065048D01*
X244824685Y-188199180D01*
X244830897Y-188238292D01*
X244835645Y-188277455D01*
X244838928Y-188316611D01*
X244840746Y-188355702D01*
X244841098Y-188394672D01*
X244839986Y-188433462D01*
X244837409Y-188472014D01*
X244833366Y-188510272D01*
X244827859Y-188548176D01*
X244820887Y-188585671D01*
X244812449Y-188622697D01*
X244802547Y-188659198D01*
X244791179Y-188695115D01*
X244778347Y-188730392D01*
X244764049Y-188764970D01*
X244748287Y-188798792D01*
X244731059Y-188831799D01*
X244712366Y-188863935D01*
X244692209Y-188895142D01*
X244670586Y-188925363D01*
X244647498Y-188954538D01*
X244622945Y-188982612D01*
X244596928Y-189009525D01*
X244569445Y-189035222D01*
X244540497Y-189059643D01*
X244510084Y-189082731D01*
X244478206Y-189104429D01*
X244444863Y-189124679D01*
X244410055Y-189143423D01*
X244373782Y-189160604D01*
X244336044Y-189176163D01*
X244296841Y-189190044D01*
X244291560Y-189307771D01*
X244282372Y-189430381D01*
X244268844Y-189555813D01*
X244250540Y-189682004D01*
X244239462Y-189744740D01*
X244227027Y-189806893D01*
X244213182Y-189868205D01*
X244197872Y-189928418D01*
X244181042Y-189987274D01*
X244162639Y-190044517D01*
X244142607Y-190099887D01*
X244120894Y-190153128D01*
X244109050Y-190181185D01*
X244097761Y-190206556D01*
X244086934Y-190229594D01*
X244076473Y-190250651D01*
X244066284Y-190270081D01*
X244056271Y-190288235D01*
X244036393Y-190322130D01*
X243994577Y-190390136D01*
X243971118Y-190429891D01*
X243958419Y-190452441D01*
X243944946Y-190477243D01*
X243899566Y-190561545D01*
X243854512Y-190653335D01*
X243810977Y-190750551D01*
X243770155Y-190851131D01*
X243733240Y-190953014D01*
X243716621Y-191003799D01*
X243701425Y-191054137D01*
X243687804Y-191103769D01*
X243675905Y-191152439D01*
X243665878Y-191199887D01*
X243657873Y-191245857D01*
X243328201Y-191245857D01*
X243509705Y-190727272D01*
X243552858Y-190623875D01*
X243595346Y-190531248D01*
X243636939Y-190447574D01*
X243677406Y-190371036D01*
X243754040Y-190232094D01*
X243789745Y-190166054D01*
X243823402Y-190099879D01*
X243854781Y-190031751D01*
X243883649Y-189959852D01*
X243909778Y-189882364D01*
X243932936Y-189797469D01*
X243952892Y-189703350D01*
X243969417Y-189598189D01*
X243982279Y-189480169D01*
X243991248Y-189347471D01*
X243840856Y-189415821D01*
X243769357Y-189446299D01*
X243699689Y-189474078D01*
X243631377Y-189498981D01*
X243563948Y-189520832D01*
X243496925Y-189539455D01*
X243429834Y-189554672D01*
X243362201Y-189566309D01*
X243293551Y-189574188D01*
X243223408Y-189578133D01*
X243151299Y-189577968D01*
X243076747Y-189573516D01*
X242999279Y-189564602D01*
X242918420Y-189551048D01*
X242833695Y-189532679D01*
X242416977Y-189384513D01*
X242113024Y-189384513D01*
X242111419Y-189356911D01*
X242109750Y-189338259D01*
X242107621Y-189320557D01*
X242104948Y-189304048D01*
X242101652Y-189288977D01*
X242097650Y-189275589D01*
X242092862Y-189264126D01*
X242088198Y-189254023D01*
X242082900Y-189244511D01*
X242076986Y-189235528D01*
X242070470Y-189227012D01*
X242055707Y-189211141D01*
X242038746Y-189196409D01*
X242019723Y-189182329D01*
X241998775Y-189168411D01*
X241951640Y-189139111D01*
X241925727Y-189122751D01*
X241898429Y-189104601D01*
X241869884Y-189084172D01*
X241840226Y-189060976D01*
X241809592Y-189034524D01*
X241778116Y-189004328D01*
X241745935Y-188969900D01*
X241729623Y-188950946D01*
X241713185Y-188930751D01*
X241678865Y-188883443D01*
X241648724Y-188835307D01*
X241622597Y-188786385D01*
X241600324Y-188736717D01*
X241581740Y-188686343D01*
X241566682Y-188635304D01*
X241554989Y-188583642D01*
X241546498Y-188531396D01*
X241541044Y-188478607D01*
X241538467Y-188425317D01*
X241538542Y-188395746D01*
X241824399Y-188395746D01*
X241825504Y-188449671D01*
X241830096Y-188502458D01*
X241833865Y-188528305D01*
X241838703Y-188553725D01*
X241844678Y-188578670D01*
X241851854Y-188603092D01*
X241860300Y-188626945D01*
X241870079Y-188650181D01*
X241881259Y-188672752D01*
X241893906Y-188694611D01*
X241908086Y-188715711D01*
X241923865Y-188736003D01*
X241941309Y-188755440D01*
X241960484Y-188773976D01*
X241981456Y-188791562D01*
X242004292Y-188808151D01*
X242029058Y-188823695D01*
X242055819Y-188838148D01*
X242069515Y-188811734D01*
X242082913Y-188787885D01*
X242096148Y-188766341D01*
X242109356Y-188746846D01*
X242122672Y-188729141D01*
X242136232Y-188712969D01*
X242150173Y-188698072D01*
X242164629Y-188684193D01*
X242179736Y-188671073D01*
X242195629Y-188658456D01*
X242212446Y-188646082D01*
X242230320Y-188633695D01*
X242269785Y-188607849D01*
X242315110Y-188578856D01*
X242321343Y-188632966D01*
X242329589Y-188684218D01*
X242339802Y-188732686D01*
X242351935Y-188778443D01*
X242365940Y-188821562D01*
X242381769Y-188862115D01*
X242399376Y-188900176D01*
X242418712Y-188935816D01*
X242439730Y-188969110D01*
X242462382Y-189000131D01*
X242486622Y-189028950D01*
X242512401Y-189055641D01*
X242539672Y-189080277D01*
X242568389Y-189102931D01*
X242598502Y-189123676D01*
X242629965Y-189142584D01*
X242662730Y-189159729D01*
X242696750Y-189175183D01*
X242731978Y-189189020D01*
X242768365Y-189201312D01*
X242844429Y-189221553D01*
X242924562Y-189236490D01*
X243008385Y-189246707D01*
X243095518Y-189252787D01*
X243185581Y-189255312D01*
X243278194Y-189254867D01*
X243358144Y-189250632D01*
X243396843Y-189246639D01*
X243434662Y-189241392D01*
X243471580Y-189234891D01*
X243507572Y-189227133D01*
X243542619Y-189218117D01*
X243576698Y-189207841D01*
X243609786Y-189196303D01*
X243641862Y-189183503D01*
X243672904Y-189169437D01*
X243702889Y-189154105D01*
X243731796Y-189137505D01*
X243759602Y-189119634D01*
X243786286Y-189100492D01*
X243811826Y-189080076D01*
X243836198Y-189058385D01*
X243859383Y-189035418D01*
X243881356Y-189011171D01*
X243902097Y-188985645D01*
X243921583Y-188958837D01*
X243939792Y-188930745D01*
X243956702Y-188901368D01*
X243972291Y-188870704D01*
X243986538Y-188838751D01*
X243999419Y-188805508D01*
X244010913Y-188770973D01*
X244020999Y-188735144D01*
X244029653Y-188698019D01*
X244036854Y-188659598D01*
X244042580Y-188619877D01*
X244046808Y-188578856D01*
X244092134Y-188608229D01*
X244112531Y-188621830D01*
X244131599Y-188634997D01*
X244149474Y-188647947D01*
X244166290Y-188660898D01*
X244182184Y-188674065D01*
X244197291Y-188687666D01*
X244211746Y-188701918D01*
X244225687Y-188717039D01*
X244239247Y-188733245D01*
X244252564Y-188750753D01*
X244265772Y-188769780D01*
X244279007Y-188790543D01*
X244292405Y-188813260D01*
X244306101Y-188838148D01*
X244332863Y-188823695D01*
X244357628Y-188808151D01*
X244380464Y-188791562D01*
X244401437Y-188773976D01*
X244420612Y-188755440D01*
X244438056Y-188736003D01*
X244453834Y-188715710D01*
X244468014Y-188694611D01*
X244480661Y-188672752D01*
X244491841Y-188650181D01*
X244501621Y-188626945D01*
X244510066Y-188603092D01*
X244517243Y-188578669D01*
X244523217Y-188553724D01*
X244531824Y-188502457D01*
X244536416Y-188449671D01*
X244537521Y-188395746D01*
X244535670Y-188341060D01*
X244531390Y-188285995D01*
X244525211Y-188230930D01*
X244517662Y-188176245D01*
X244500570Y-188069533D01*
X244467510Y-188079489D01*
X244434353Y-188088520D01*
X244401165Y-188096621D01*
X244368013Y-188103790D01*
X244334963Y-188110022D01*
X244302080Y-188115316D01*
X244269432Y-188119666D01*
X244237083Y-188123070D01*
X244205101Y-188125525D01*
X244173551Y-188127027D01*
X244142500Y-188127572D01*
X244112013Y-188127158D01*
X244082158Y-188125780D01*
X244052999Y-188123437D01*
X244024603Y-188120123D01*
X243997036Y-188115836D01*
X243970364Y-188110572D01*
X243944654Y-188104328D01*
X243919972Y-188097100D01*
X243896383Y-188088886D01*
X243873954Y-188079682D01*
X243852751Y-188069484D01*
X243832840Y-188058288D01*
X243814287Y-188046093D01*
X243797158Y-188032893D01*
X243781520Y-188018687D01*
X243767438Y-188003470D01*
X243754980Y-187987238D01*
X243744210Y-187969990D01*
X243735195Y-187951720D01*
X243728001Y-187932427D01*
X243722694Y-187912106D01*
X243528225Y-187800981D01*
X243176329Y-187838023D01*
X242917037Y-187791720D01*
X242472537Y-187949147D01*
X241861350Y-188069533D01*
X241844258Y-188176245D01*
X241836709Y-188230930D01*
X241830530Y-188285995D01*
X241826250Y-188341060D01*
X241824399Y-188395746D01*
X241538542Y-188395746D01*
X241538603Y-188371566D01*
X241541288Y-188317393D01*
X241546362Y-188262842D01*
X241553660Y-188207951D01*
X241563020Y-188152761D01*
X241574278Y-188097314D01*
X241588603Y-188032202D01*
X241596580Y-187998669D01*
X241605533Y-187965353D01*
X241610477Y-187948980D01*
X241615788Y-187932906D01*
X241621506Y-187917211D01*
X241627671Y-187901977D01*
X241634325Y-187887286D01*
X241641507Y-187873219D01*
X241649260Y-187859858D01*
X241657623Y-187847283D01*
X241663148Y-187838814D01*
X241669271Y-187830752D01*
X241675936Y-187823070D01*
X241683089Y-187815740D01*
X241690676Y-187808736D01*
X241698643Y-187802030D01*
X241706936Y-187795596D01*
X241715500Y-187789406D01*
X241724281Y-187783432D01*
X241733225Y-187777649D01*
X241751384Y-187766544D01*
X241787269Y-187745418D01*
X241741240Y-187717638D01*
X243981986Y-187717638D01*
X243989257Y-187735973D01*
X243997179Y-187752762D01*
X244001384Y-187760568D01*
X244005752Y-187767978D01*
X244010283Y-187774987D01*
X244014976Y-187781593D01*
X244019833Y-187787791D01*
X244024852Y-187793579D01*
X244030034Y-187798954D01*
X244035379Y-187803911D01*
X244040886Y-187808448D01*
X244046556Y-187812561D01*
X244052389Y-187816247D01*
X244058385Y-187819502D01*
X244064544Y-187822323D01*
X244070865Y-187824707D01*
X244077349Y-187826649D01*
X244083996Y-187828148D01*
X244090806Y-187829198D01*
X244097778Y-187829798D01*
X244104913Y-187829943D01*
X244112211Y-187829631D01*
X244119672Y-187828857D01*
X244127296Y-187827618D01*
X244135082Y-187825912D01*
X244143031Y-187823734D01*
X244151143Y-187821082D01*
X244159417Y-187817951D01*
X244167855Y-187814339D01*
X244176455Y-187810242D01*
X244182587Y-187758098D01*
X244187308Y-187705628D01*
X244190943Y-187652507D01*
X244193819Y-187598410D01*
X244204235Y-187365741D01*
X244193499Y-187386277D01*
X244182152Y-187406310D01*
X244170235Y-187425991D01*
X244157789Y-187445468D01*
X244131473Y-187484409D01*
X244103529Y-187524327D01*
X244074283Y-187566415D01*
X244044060Y-187611867D01*
X244028684Y-187636227D01*
X244013185Y-187661877D01*
X243997606Y-187688964D01*
X243981986Y-187717638D01*
X241741240Y-187717638D01*
X241684380Y-187683320D01*
X241593578Y-187624979D01*
X241513492Y-187569595D01*
X241442752Y-187516368D01*
X241406161Y-187486127D01*
X242935560Y-187486127D01*
X242972717Y-187489885D01*
X243007961Y-187494049D01*
X243073743Y-187502622D01*
X243134966Y-187509893D01*
X243164513Y-187512430D01*
X243193694Y-187513908D01*
X243222766Y-187514085D01*
X243251988Y-187512715D01*
X243281616Y-187509554D01*
X243311909Y-187504358D01*
X243343124Y-187496884D01*
X243375520Y-187486887D01*
X243409353Y-187474122D01*
X243444883Y-187458346D01*
X243364885Y-187407884D01*
X243329370Y-187386844D01*
X243296282Y-187368925D01*
X243280518Y-187361212D01*
X243265202Y-187354370D01*
X243250284Y-187348430D01*
X243235710Y-187343423D01*
X243221427Y-187339379D01*
X243207384Y-187336328D01*
X243193527Y-187334302D01*
X243179804Y-187333330D01*
X243166162Y-187333444D01*
X243152549Y-187334673D01*
X243138913Y-187337049D01*
X243125200Y-187340601D01*
X243111358Y-187345361D01*
X243097335Y-187351358D01*
X243083078Y-187358624D01*
X243068534Y-187367189D01*
X243053651Y-187377083D01*
X243038377Y-187388337D01*
X243022658Y-187400981D01*
X243006442Y-187415046D01*
X242989677Y-187430563D01*
X242972310Y-187447562D01*
X242935560Y-187486127D01*
X241406161Y-187486127D01*
X241379989Y-187464498D01*
X241323832Y-187413183D01*
X241272911Y-187361625D01*
X241225856Y-187309022D01*
X241181297Y-187254574D01*
X241137864Y-187197481D01*
X241048895Y-187072158D01*
X240947989Y-186926650D01*
X240889634Y-186844326D01*
X240824185Y-186754555D01*
X240815829Y-186776537D01*
X240808124Y-186800621D01*
X240801070Y-186826524D01*
X240794668Y-186853959D01*
X240788916Y-186882642D01*
X240783816Y-186912289D01*
X240779366Y-186942614D01*
X240775568Y-186973332D01*
X240769925Y-187034808D01*
X240766886Y-187094440D01*
X240766452Y-187149949D01*
X240457826Y-187149949D01*
X240500070Y-186624908D01*
X240204605Y-186754988D01*
X240071957Y-186809990D01*
X239942131Y-186859891D01*
X239809700Y-186905886D01*
X239669238Y-186949167D01*
X239515320Y-186990930D01*
X239342519Y-187032367D01*
X238064581Y-187208315D01*
X237728920Y-187208315D01*
X237722816Y-187188666D01*
X237711292Y-187142750D01*
X237704625Y-187102668D01*
X237703303Y-187085124D01*
X237703424Y-187069409D01*
X237707148Y-187042080D01*
X237714548Y-187009216D01*
X237725176Y-186971577D01*
X237738585Y-186929923D01*
X237768503Y-186847157D01*
X238444258Y-186847157D01*
X238483497Y-186846524D01*
X238524636Y-186844698D01*
X238611524Y-186837897D01*
X238702754Y-186827624D01*
X238796154Y-186814746D01*
X238889554Y-186800132D01*
X238980784Y-186784650D01*
X239148050Y-186754554D01*
X239304699Y-186724458D01*
X239467100Y-186689152D01*
X239632323Y-186647770D01*
X239715077Y-186624528D01*
X239797437Y-186599442D01*
X239879037Y-186572402D01*
X239959512Y-186543301D01*
X240038495Y-186512029D01*
X240115619Y-186478478D01*
X240190518Y-186442539D01*
X240262827Y-186404105D01*
X240332178Y-186363066D01*
X240398206Y-186319314D01*
X240657498Y-186097064D01*
X240789025Y-185990135D01*
X240838999Y-185948445D01*
X240861605Y-185928502D01*
X240883221Y-185908383D01*
X240904294Y-185887504D01*
X240925272Y-185865282D01*
X240946603Y-185841134D01*
X240968735Y-185814477D01*
X240992114Y-185784726D01*
X241017189Y-185751300D01*
X241044408Y-185713614D01*
X241074217Y-185671085D01*
X240546372Y-185967418D01*
X239814800Y-186300793D01*
X238823935Y-186569345D01*
X238444258Y-186847157D01*
X237768503Y-186847157D01*
X237771955Y-186837609D01*
X237811077Y-186738348D01*
X237858287Y-186624908D01*
X238194226Y-186624908D01*
X238313823Y-186561057D01*
X238435630Y-186484808D01*
X238558388Y-186397218D01*
X238680833Y-186299347D01*
X238801704Y-186192250D01*
X238880214Y-186115585D01*
X239416602Y-186115585D01*
X239499754Y-186094575D01*
X239585659Y-186069916D01*
X239673816Y-186041866D01*
X239763723Y-186010682D01*
X239854878Y-185976623D01*
X239946779Y-185939945D01*
X240038924Y-185900907D01*
X240130812Y-185859767D01*
X240221940Y-185816781D01*
X240311806Y-185772209D01*
X240399909Y-185726307D01*
X240485746Y-185679333D01*
X240568816Y-185631545D01*
X240648617Y-185583202D01*
X240724647Y-185534560D01*
X240796404Y-185485877D01*
X240819175Y-185470340D01*
X240844877Y-185451874D01*
X240858385Y-185441711D01*
X240872097Y-185431020D01*
X240885836Y-185419867D01*
X240899426Y-185408321D01*
X240912691Y-185396449D01*
X240925453Y-185384319D01*
X240937537Y-185372000D01*
X240948767Y-185359559D01*
X240958966Y-185347063D01*
X240967957Y-185334581D01*
X240971945Y-185328366D01*
X240975565Y-185322180D01*
X240978795Y-185316032D01*
X240981613Y-185309929D01*
X240986205Y-185297512D01*
X240989596Y-185284603D01*
X240991830Y-185271253D01*
X240992953Y-185257514D01*
X240993011Y-185243435D01*
X240992051Y-185229068D01*
X240990117Y-185214463D01*
X240987256Y-185199672D01*
X240983512Y-185184746D01*
X240978933Y-185169734D01*
X240973564Y-185154689D01*
X240967450Y-185139661D01*
X240960638Y-185124700D01*
X240953173Y-185109858D01*
X240945101Y-185095186D01*
X240936468Y-185080734D01*
X240927319Y-185066553D01*
X240917701Y-185052695D01*
X240907658Y-185039210D01*
X240897238Y-185026148D01*
X240886485Y-185013562D01*
X240875445Y-185001501D01*
X240864165Y-184990016D01*
X240852690Y-184979159D01*
X240841066Y-184968980D01*
X240829338Y-184959530D01*
X240817552Y-184950860D01*
X240805755Y-184943022D01*
X240793992Y-184936064D01*
X240782308Y-184930040D01*
X240770750Y-184924999D01*
X240759363Y-184920992D01*
X240749521Y-184918895D01*
X240739126Y-184917781D01*
X240728218Y-184917604D01*
X240716841Y-184918315D01*
X240705036Y-184919867D01*
X240692846Y-184922213D01*
X240680314Y-184925304D01*
X240667482Y-184929095D01*
X240641086Y-184938581D01*
X240613999Y-184950292D01*
X240586559Y-184963848D01*
X240559106Y-184978869D01*
X240531978Y-184994975D01*
X240505515Y-185011787D01*
X240480056Y-185028924D01*
X240455939Y-185046007D01*
X240433505Y-185062656D01*
X240413092Y-185078491D01*
X240379686Y-185106200D01*
X239953707Y-185606263D01*
X239416602Y-186115585D01*
X238880214Y-186115585D01*
X238919741Y-186076988D01*
X239033680Y-185954618D01*
X239142262Y-185826197D01*
X239244224Y-185692785D01*
X239338304Y-185555439D01*
X239423242Y-185415217D01*
X239497775Y-185273177D01*
X239506056Y-185254367D01*
X239898143Y-185254367D01*
X239969496Y-185143296D01*
X240036616Y-185042969D01*
X240097876Y-184948502D01*
X240125799Y-184901940D01*
X240151648Y-184855011D01*
X240175217Y-184807106D01*
X240196304Y-184757614D01*
X240214705Y-184705924D01*
X240230216Y-184651427D01*
X240242635Y-184593511D01*
X240251758Y-184531566D01*
X240257380Y-184464981D01*
X240259300Y-184393147D01*
X240257217Y-184363370D01*
X240254362Y-184336373D01*
X240250611Y-184311900D01*
X240248362Y-184300528D01*
X240245843Y-184289691D01*
X240243039Y-184279356D01*
X240239936Y-184269491D01*
X240236516Y-184260063D01*
X240232766Y-184251040D01*
X240228671Y-184242390D01*
X240224214Y-184234081D01*
X240219380Y-184226081D01*
X240214155Y-184218357D01*
X240208523Y-184210878D01*
X240202469Y-184203610D01*
X240195977Y-184196522D01*
X240189033Y-184189581D01*
X240181620Y-184182756D01*
X240173725Y-184176014D01*
X240156422Y-184162650D01*
X240137004Y-184149232D01*
X240115348Y-184135502D01*
X240091331Y-184121202D01*
X240064831Y-184106075D01*
X239972227Y-184837648D01*
X239898143Y-185254367D01*
X239506056Y-185254367D01*
X239560643Y-185130377D01*
X239610582Y-184987877D01*
X239630310Y-184917069D01*
X239646333Y-184846732D01*
X239658493Y-184776999D01*
X239666633Y-184708002D01*
X239120268Y-185309929D01*
X239040714Y-185389222D01*
X238968267Y-185458096D01*
X238902223Y-185518289D01*
X238841877Y-185571536D01*
X238735455Y-185664140D01*
X238687968Y-185706970D01*
X238643357Y-185749799D01*
X238600916Y-185794365D01*
X238559941Y-185842403D01*
X238519725Y-185895651D01*
X238479563Y-185955843D01*
X238438750Y-186024718D01*
X238396581Y-186104010D01*
X238352350Y-186195457D01*
X238305351Y-186300794D01*
X238239371Y-186459379D01*
X238233016Y-186476414D01*
X238226946Y-186493870D01*
X238221119Y-186512058D01*
X238215497Y-186531291D01*
X238210037Y-186551881D01*
X238204699Y-186574139D01*
X238199442Y-186598377D01*
X238194226Y-186624908D01*
X237858287Y-186624908D01*
X237892250Y-186543301D01*
X237927139Y-186459668D01*
X237953455Y-186393398D01*
X237342268Y-187124971D01*
X237352448Y-187019274D01*
X237365545Y-186914025D01*
X237381437Y-186809237D01*
X237400001Y-186704924D01*
X237421115Y-186601100D01*
X237444657Y-186497777D01*
X237470505Y-186394969D01*
X237498538Y-186292691D01*
X237560666Y-186089776D01*
X237619004Y-185921117D01*
X237944196Y-185921117D01*
X238036135Y-185869577D01*
X238134071Y-185806140D01*
X238236835Y-185732149D01*
X238343262Y-185648948D01*
X238452185Y-185557879D01*
X238562437Y-185460285D01*
X238672852Y-185357509D01*
X238782263Y-185250894D01*
X238889504Y-185141784D01*
X238993408Y-185031520D01*
X239092808Y-184921446D01*
X239186538Y-184812906D01*
X239273432Y-184707240D01*
X239352322Y-184605794D01*
X239422042Y-184509909D01*
X239481425Y-184420929D01*
X239448439Y-184431980D01*
X239415481Y-184444225D01*
X239382576Y-184457555D01*
X239349754Y-184471862D01*
X239317039Y-184487036D01*
X239284461Y-184502971D01*
X239219819Y-184536684D01*
X239156045Y-184572134D01*
X239093356Y-184608452D01*
X238972102Y-184680221D01*
X238707022Y-184838806D01*
X238632885Y-184884692D01*
X238564499Y-184928950D01*
X238533853Y-184949824D01*
X238506314Y-184969519D01*
X238482437Y-184987775D01*
X238462779Y-185004336D01*
X238425518Y-185040778D01*
X238386941Y-185083610D01*
X238347469Y-185132057D01*
X238307522Y-185185348D01*
X238267521Y-185242708D01*
X238227886Y-185303364D01*
X238189038Y-185366543D01*
X238151397Y-185431472D01*
X238115385Y-185497378D01*
X238081420Y-185563487D01*
X238049924Y-185629027D01*
X238021318Y-185693224D01*
X237996021Y-185755304D01*
X237974455Y-185814495D01*
X237957040Y-185870024D01*
X237944196Y-185921117D01*
X237619004Y-185921117D01*
X237630065Y-185889140D01*
X237705758Y-185690891D01*
X237786769Y-185495138D01*
X237434872Y-185847034D01*
X237408999Y-185800947D01*
X237386761Y-185753109D01*
X237367888Y-185703726D01*
X237352107Y-185652999D01*
X237339148Y-185601133D01*
X237328739Y-185548331D01*
X237320609Y-185494797D01*
X237314486Y-185440733D01*
X237310100Y-185386344D01*
X237307179Y-185331833D01*
X237304647Y-185223258D01*
X237305226Y-185013596D01*
X237305548Y-185004336D01*
X237583040Y-185004336D01*
X237805471Y-184772825D01*
X238203487Y-184772825D01*
X238231269Y-184800606D01*
X238231269Y-184772825D01*
X238203487Y-184772825D01*
X237805471Y-184772825D01*
X237832163Y-184745044D01*
X238231269Y-184745044D01*
X238259050Y-184772825D01*
X238259050Y-184745044D01*
X238231269Y-184745044D01*
X237832163Y-184745044D01*
X237832163Y-184745043D01*
X238259050Y-184745043D01*
X238296639Y-184728718D01*
X238345758Y-184704728D01*
X238471750Y-184637825D01*
X238623353Y-184552474D01*
X238786893Y-184456813D01*
X238948698Y-184358982D01*
X239095092Y-184267120D01*
X239212403Y-184189365D01*
X239255879Y-184158321D01*
X239286956Y-184133856D01*
X239219864Y-184146723D01*
X239150872Y-184164296D01*
X239080469Y-184186292D01*
X239009144Y-184212425D01*
X238937385Y-184242411D01*
X238865680Y-184275964D01*
X238794518Y-184312800D01*
X238724386Y-184352634D01*
X238655774Y-184395181D01*
X238589170Y-184440155D01*
X238525061Y-184487274D01*
X238463937Y-184536250D01*
X238406286Y-184586800D01*
X238352595Y-184638639D01*
X238303354Y-184691482D01*
X238259050Y-184745043D01*
X237832163Y-184745043D01*
X238036800Y-184532054D01*
X238434998Y-184170898D01*
X238656761Y-183846783D01*
X240277822Y-183846783D01*
X240306191Y-183869715D01*
X240332335Y-183891661D01*
X240356363Y-183912663D01*
X240378384Y-183932767D01*
X240398505Y-183952017D01*
X240416836Y-183970455D01*
X240433485Y-183988128D01*
X240448560Y-184005078D01*
X240462171Y-184021350D01*
X240474424Y-184036988D01*
X240485430Y-184052035D01*
X240495296Y-184066537D01*
X240504132Y-184080537D01*
X240512045Y-184094078D01*
X240519144Y-184107207D01*
X240525538Y-184119965D01*
X240536643Y-184144550D01*
X240546229Y-184168184D01*
X240564316Y-184214016D01*
X240574553Y-184236919D01*
X240580350Y-184248521D01*
X240586743Y-184260282D01*
X240593842Y-184272247D01*
X240601755Y-184284460D01*
X240610591Y-184296964D01*
X240620457Y-184309804D01*
X240750103Y-184430189D01*
X240898270Y-184596876D01*
X241101998Y-184772824D01*
X241296467Y-184995074D01*
X241490935Y-184670960D01*
X241514321Y-184815455D01*
X241533909Y-184951811D01*
X241541363Y-185017649D01*
X241546769Y-185082307D01*
X241549760Y-185146070D01*
X241549970Y-185209222D01*
X241547034Y-185272048D01*
X241540583Y-185334834D01*
X241530254Y-185397864D01*
X241515678Y-185461424D01*
X241496490Y-185525797D01*
X241472324Y-185591268D01*
X241442813Y-185658124D01*
X241407592Y-185726648D01*
X241390154Y-185757179D01*
X241372596Y-185786305D01*
X241354960Y-185814084D01*
X241337288Y-185840576D01*
X241319624Y-185865841D01*
X241302008Y-185889937D01*
X241284484Y-185912925D01*
X241267094Y-185934862D01*
X241232885Y-185975827D01*
X241199721Y-186013305D01*
X241137882Y-186079701D01*
X241109886Y-186109569D01*
X241084291Y-186137850D01*
X241061436Y-186165018D01*
X241051142Y-186178334D01*
X241041660Y-186191549D01*
X241033033Y-186204724D01*
X241025303Y-186217918D01*
X241018512Y-186231189D01*
X241012703Y-186244598D01*
X241007919Y-186258203D01*
X241004200Y-186272065D01*
X241001591Y-186286242D01*
X241000133Y-186300793D01*
X241000720Y-186311848D01*
X241002437Y-186324123D01*
X241009014Y-186351997D01*
X241019362Y-186383750D01*
X241032979Y-186418719D01*
X241049363Y-186456238D01*
X241068013Y-186495642D01*
X241110101Y-186577448D01*
X241155227Y-186658821D01*
X241199377Y-186734441D01*
X241238535Y-186798993D01*
X241268685Y-186847157D01*
X241294785Y-186885253D01*
X241324248Y-186926197D01*
X241356750Y-186969365D01*
X241391965Y-187014135D01*
X241429567Y-187059881D01*
X241469231Y-187105979D01*
X241510632Y-187151806D01*
X241553443Y-187196739D01*
X241597340Y-187240151D01*
X241641996Y-187281421D01*
X241687086Y-187319923D01*
X241732285Y-187355034D01*
X241777267Y-187386130D01*
X241821706Y-187412586D01*
X241843620Y-187423879D01*
X241865277Y-187433779D01*
X241886635Y-187442207D01*
X241907654Y-187449085D01*
X241939755Y-187457297D01*
X241973469Y-187462908D01*
X242008672Y-187466030D01*
X242045240Y-187466774D01*
X242083049Y-187465253D01*
X242121975Y-187461578D01*
X242161895Y-187455862D01*
X242202685Y-187448217D01*
X242286379Y-187427584D01*
X242372067Y-187400576D01*
X242458759Y-187368088D01*
X242545465Y-187331015D01*
X242631194Y-187290252D01*
X242714956Y-187246694D01*
X242795761Y-187201238D01*
X242872618Y-187154778D01*
X242944538Y-187108209D01*
X243010530Y-187062427D01*
X243069603Y-187018327D01*
X243120768Y-186976804D01*
X243088737Y-186926256D01*
X243061589Y-186884959D01*
X243038564Y-186851747D01*
X243018904Y-186825454D01*
X243001848Y-186804912D01*
X242986637Y-186788954D01*
X242972511Y-186776416D01*
X242958711Y-186766129D01*
X242891573Y-186724167D01*
X242868006Y-186707641D01*
X242840207Y-186686366D01*
X242807415Y-186659177D01*
X242768873Y-186624907D01*
X242509580Y-186337835D01*
X242537362Y-186337835D01*
X242565143Y-186282273D01*
X242506976Y-186288784D01*
X242480172Y-186291225D01*
X242467054Y-186292100D01*
X242454018Y-186292690D01*
X242440982Y-186292955D01*
X242427865Y-186292853D01*
X242414585Y-186292345D01*
X242401060Y-186291388D01*
X242387211Y-186289944D01*
X242372954Y-186287970D01*
X242358208Y-186285427D01*
X242342894Y-186282273D01*
X242316906Y-186278732D01*
X242291048Y-186273374D01*
X242265339Y-186266280D01*
X242239799Y-186257530D01*
X242214449Y-186247207D01*
X242189310Y-186235392D01*
X242164401Y-186222166D01*
X242139743Y-186207611D01*
X242091262Y-186174838D01*
X242044028Y-186137724D01*
X241998205Y-186096920D01*
X241953956Y-186053078D01*
X241911443Y-186006848D01*
X241870830Y-185958882D01*
X241832278Y-185909830D01*
X241795950Y-185860345D01*
X241762011Y-185811077D01*
X241730621Y-185762677D01*
X241701945Y-185715796D01*
X241676144Y-185671085D01*
X241662276Y-185645020D01*
X241650169Y-185618939D01*
X241639795Y-185592882D01*
X241631126Y-185566887D01*
X241624132Y-185540995D01*
X241618784Y-185515243D01*
X241615054Y-185489671D01*
X241612912Y-185464317D01*
X241612733Y-185456559D01*
X241907856Y-185456559D01*
X241909513Y-185476266D01*
X241913252Y-185496830D01*
X241918941Y-185518143D01*
X241926447Y-185540093D01*
X241935639Y-185562571D01*
X241946384Y-185585466D01*
X241958551Y-185608667D01*
X241986617Y-185655551D01*
X242018779Y-185702339D01*
X242053981Y-185748150D01*
X242091163Y-185792103D01*
X242129267Y-185833316D01*
X242167236Y-185870907D01*
X242204010Y-185903995D01*
X242238534Y-185931697D01*
X242269747Y-185953132D01*
X242283782Y-185961224D01*
X242296592Y-185967418D01*
X242312219Y-185972781D01*
X242327844Y-185976787D01*
X242343465Y-185979546D01*
X242359082Y-185981164D01*
X242374692Y-185981752D01*
X242390293Y-185981418D01*
X242405884Y-185980269D01*
X242421463Y-185978415D01*
X242452579Y-185973025D01*
X242483628Y-185966116D01*
X242545466Y-185951213D01*
X242576230Y-185944955D01*
X242606871Y-185940650D01*
X242622142Y-185939502D01*
X242637377Y-185939167D01*
X242652574Y-185939755D01*
X242667733Y-185941374D01*
X242682851Y-185944132D01*
X242697927Y-185948138D01*
X242712958Y-185953501D01*
X242727944Y-185960328D01*
X242742882Y-185968730D01*
X242757771Y-185978813D01*
X242772609Y-185990687D01*
X242787395Y-186004460D01*
X242798201Y-186015010D01*
X242808077Y-186025811D01*
X242817072Y-186036843D01*
X242825232Y-186048085D01*
X242832606Y-186059517D01*
X242839240Y-186071119D01*
X242845183Y-186082870D01*
X242850481Y-186094749D01*
X242855183Y-186106737D01*
X242859335Y-186118814D01*
X242866180Y-186143149D01*
X242871398Y-186167594D01*
X242875368Y-186191984D01*
X242886365Y-186285745D01*
X242889793Y-186307422D01*
X242894251Y-186328068D01*
X242900120Y-186347521D01*
X242903702Y-186356748D01*
X242907780Y-186365616D01*
X242916676Y-186378978D01*
X242925993Y-186391336D01*
X242935717Y-186402771D01*
X242945834Y-186413366D01*
X242956332Y-186423200D01*
X242967195Y-186432357D01*
X242978411Y-186440916D01*
X242989966Y-186448960D01*
X243001847Y-186456570D01*
X243014040Y-186463827D01*
X243026531Y-186470813D01*
X243039307Y-186477610D01*
X243092988Y-186504523D01*
X243157811Y-186022981D01*
X243222633Y-186022981D01*
X243287456Y-186504523D01*
X243318221Y-186490524D01*
X243333177Y-186483321D01*
X243347793Y-186475873D01*
X243362030Y-186468101D01*
X243375846Y-186459921D01*
X243389201Y-186451253D01*
X243402054Y-186442015D01*
X243414364Y-186432126D01*
X243426091Y-186421505D01*
X243431723Y-186415894D01*
X243437194Y-186410069D01*
X243442499Y-186404021D01*
X243447633Y-186397738D01*
X243452590Y-186391212D01*
X243457366Y-186384431D01*
X243461955Y-186377386D01*
X243466353Y-186370066D01*
X243470554Y-186362461D01*
X243474553Y-186354561D01*
X243478346Y-186346355D01*
X243481926Y-186337835D01*
X243486434Y-186322793D01*
X243489775Y-186305622D01*
X243492303Y-186286579D01*
X243494369Y-186265922D01*
X243498528Y-186220795D01*
X243501327Y-186196841D01*
X243505076Y-186172304D01*
X243510127Y-186147442D01*
X243516832Y-186122512D01*
X243525546Y-186097771D01*
X243530765Y-186085553D01*
X243536619Y-186073478D01*
X243543152Y-186061581D01*
X243550406Y-186049891D01*
X243558427Y-186038443D01*
X243567259Y-186027267D01*
X243576945Y-186016397D01*
X243587529Y-186005864D01*
X243599057Y-185995700D01*
X243611571Y-185985939D01*
X243626304Y-185976293D01*
X243640987Y-185968130D01*
X243655627Y-185961362D01*
X243670227Y-185955897D01*
X243684793Y-185951646D01*
X243699331Y-185948520D01*
X243713845Y-185946428D01*
X243728340Y-185945280D01*
X243742821Y-185944987D01*
X243757294Y-185945459D01*
X243786236Y-185948337D01*
X243815204Y-185953195D01*
X243844240Y-185959315D01*
X243902678Y-185972464D01*
X243932161Y-185978055D01*
X243961876Y-185982032D01*
X243976832Y-185983191D01*
X243991861Y-185983676D01*
X244006969Y-185983398D01*
X244022159Y-185982268D01*
X244037438Y-185980194D01*
X244052809Y-185977088D01*
X244068280Y-185972859D01*
X244083853Y-185967418D01*
X244108515Y-185952610D01*
X244142671Y-185926651D01*
X244183882Y-185891196D01*
X244229705Y-185847901D01*
X244277698Y-185798420D01*
X244325420Y-185744409D01*
X244370429Y-185687521D01*
X244391153Y-185658516D01*
X244410283Y-185629413D01*
X244427514Y-185600418D01*
X244442540Y-185571739D01*
X244455057Y-185543582D01*
X244464760Y-185516154D01*
X244471342Y-185489662D01*
X244474499Y-185464313D01*
X244473926Y-185440313D01*
X244469318Y-185417870D01*
X244460368Y-185397191D01*
X244454170Y-185387577D01*
X244446773Y-185378482D01*
X244438137Y-185369931D01*
X244428226Y-185361950D01*
X244417000Y-185354565D01*
X244404422Y-185347802D01*
X244375058Y-185336246D01*
X244339826Y-185327486D01*
X244298422Y-185321732D01*
X244250541Y-185319189D01*
X244152691Y-185320672D01*
X244105706Y-185322730D01*
X244059833Y-185325845D01*
X244014937Y-185330154D01*
X243970882Y-185335793D01*
X243927533Y-185342897D01*
X243884753Y-185351601D01*
X243842408Y-185362041D01*
X243800361Y-185374354D01*
X243758476Y-185388674D01*
X243716619Y-185405138D01*
X243674654Y-185423880D01*
X243632444Y-185445037D01*
X243589854Y-185468744D01*
X243546749Y-185495137D01*
X243529876Y-185506998D01*
X243510738Y-185521435D01*
X243467022Y-185556198D01*
X243418314Y-185595735D01*
X243367327Y-185636358D01*
X243341827Y-185655924D01*
X243316775Y-185674377D01*
X243292509Y-185691256D01*
X243269370Y-185706101D01*
X243247695Y-185718450D01*
X243227824Y-185727841D01*
X243218671Y-185731284D01*
X243210097Y-185733814D01*
X243202143Y-185735375D01*
X243194852Y-185735908D01*
X243186826Y-185735428D01*
X243178393Y-185734022D01*
X243169580Y-185731742D01*
X243160414Y-185728637D01*
X243150923Y-185724759D01*
X243141134Y-185720159D01*
X243120768Y-185708995D01*
X243099535Y-185695552D01*
X243077650Y-185680237D01*
X243055331Y-185663457D01*
X243032794Y-185645619D01*
X242987939Y-185608396D01*
X242944821Y-185571825D01*
X242905175Y-185539160D01*
X242887196Y-185525310D01*
X242870737Y-185513658D01*
X242834058Y-185490109D01*
X242796944Y-185468079D01*
X242759396Y-185447569D01*
X242721414Y-185428578D01*
X242682997Y-185411106D01*
X242644147Y-185395153D01*
X242604863Y-185380720D01*
X242565144Y-185367806D01*
X242524992Y-185356412D01*
X242484405Y-185346536D01*
X242443384Y-185338180D01*
X242401929Y-185331344D01*
X242360040Y-185326026D01*
X242317717Y-185322228D01*
X242274960Y-185319949D01*
X242231769Y-185319189D01*
X242158120Y-185318755D01*
X242116032Y-185319678D01*
X242094574Y-185320851D01*
X242073185Y-185322662D01*
X242052120Y-185325232D01*
X242031639Y-185328685D01*
X242011999Y-185333141D01*
X241993458Y-185338723D01*
X241984680Y-185341974D01*
X241976273Y-185345553D01*
X241968270Y-185349474D01*
X241960703Y-185353753D01*
X241953604Y-185358405D01*
X241947004Y-185363445D01*
X241940938Y-185368889D01*
X241935436Y-185374751D01*
X241924697Y-185388515D01*
X241916702Y-185403688D01*
X241911319Y-185420160D01*
X241908414Y-185437820D01*
X241907856Y-185456559D01*
X241612733Y-185456559D01*
X241612331Y-185439222D01*
X241613281Y-185414423D01*
X241615733Y-185389960D01*
X241619659Y-185365871D01*
X241625029Y-185342196D01*
X241631815Y-185318974D01*
X241639989Y-185296244D01*
X241649520Y-185274045D01*
X241660381Y-185252415D01*
X241672542Y-185231394D01*
X241685975Y-185211021D01*
X241700651Y-185191334D01*
X241716541Y-185172373D01*
X241733617Y-185154177D01*
X241751848Y-185136785D01*
X241771208Y-185120235D01*
X241791666Y-185104567D01*
X241813194Y-185089820D01*
X241835763Y-185076032D01*
X241859344Y-185063244D01*
X241883909Y-185051493D01*
X241909429Y-185040818D01*
X241935874Y-185031260D01*
X241963217Y-185022856D01*
X241979158Y-185017966D01*
X241995682Y-185013686D01*
X242012722Y-185009976D01*
X242030210Y-185006795D01*
X242048077Y-185004102D01*
X242066257Y-185001857D01*
X242103280Y-184998547D01*
X242140738Y-184996539D01*
X242178087Y-184995508D01*
X242250289Y-184995074D01*
X242290218Y-184997455D01*
X242330106Y-185001098D01*
X242369912Y-185005961D01*
X242409597Y-185012004D01*
X242449119Y-185019187D01*
X242488437Y-185027468D01*
X242527511Y-185036808D01*
X242566301Y-185047165D01*
X242604764Y-185058498D01*
X242642862Y-185070768D01*
X242680553Y-185083933D01*
X242717795Y-185097952D01*
X242754550Y-185112786D01*
X242790776Y-185128392D01*
X242826431Y-185144731D01*
X242861477Y-185161762D01*
X242941203Y-185207341D01*
X242989911Y-185234851D01*
X243040897Y-185262469D01*
X243066398Y-185275607D01*
X243091450Y-185287917D01*
X243115716Y-185299115D01*
X243138855Y-185308916D01*
X243160530Y-185317035D01*
X243180401Y-185323187D01*
X243198128Y-185327087D01*
X243206082Y-185328103D01*
X243213373Y-185328450D01*
X243220743Y-185328050D01*
X243228930Y-185326881D01*
X243247539Y-185322409D01*
X243268779Y-185315387D01*
X243292231Y-185306167D01*
X243317473Y-185295102D01*
X243344086Y-185282546D01*
X243399739Y-185254367D01*
X243508983Y-185195621D01*
X243555846Y-185170697D01*
X243593050Y-185152502D01*
X243673754Y-185119168D01*
X243755976Y-185088981D01*
X243797589Y-185075238D01*
X243839501Y-185062484D01*
X243881683Y-185050789D01*
X243924110Y-185040219D01*
X243966754Y-185030844D01*
X244009588Y-185022730D01*
X244052585Y-185015945D01*
X244095717Y-185010557D01*
X244138958Y-185006635D01*
X244182280Y-185004245D01*
X244225657Y-185003456D01*
X244269060Y-185004336D01*
X244294413Y-185005744D01*
X244320061Y-185008226D01*
X244371902Y-185016363D01*
X244423906Y-185028651D01*
X244449757Y-185036322D01*
X244475395Y-185044994D01*
X244500734Y-185054657D01*
X244525689Y-185065299D01*
X244550177Y-185076907D01*
X244574112Y-185089470D01*
X244597410Y-185102975D01*
X244619985Y-185117411D01*
X244641753Y-185132767D01*
X244662629Y-185149029D01*
X244682528Y-185166187D01*
X244701366Y-185184228D01*
X244719058Y-185203141D01*
X244735518Y-185222914D01*
X244750663Y-185243534D01*
X244764407Y-185264990D01*
X244776666Y-185287271D01*
X244787355Y-185310363D01*
X244796388Y-185334256D01*
X244803682Y-185358938D01*
X244809152Y-185384395D01*
X244812712Y-185410618D01*
X244814278Y-185437594D01*
X244813766Y-185465310D01*
X244811089Y-185493756D01*
X244806165Y-185522919D01*
X244800916Y-185543547D01*
X244793911Y-185565423D01*
X244774984Y-185612484D01*
X244750087Y-185663236D01*
X244719928Y-185716809D01*
X244685210Y-185772335D01*
X244646640Y-185828947D01*
X244604923Y-185885775D01*
X244560765Y-185941953D01*
X244514870Y-185996611D01*
X244467944Y-186048881D01*
X244420692Y-186097896D01*
X244373820Y-186142788D01*
X244328033Y-186182687D01*
X244284037Y-186216727D01*
X244242537Y-186244038D01*
X244222943Y-186254899D01*
X244204238Y-186263752D01*
X244180345Y-186273320D01*
X244157212Y-186281260D01*
X244134730Y-186287681D01*
X244112791Y-186292691D01*
X244091286Y-186296398D01*
X244070106Y-186298912D01*
X244049143Y-186300341D01*
X244028289Y-186300793D01*
X244007435Y-186300377D01*
X243986473Y-186299202D01*
X243965293Y-186297375D01*
X243943788Y-186295006D01*
X243899367Y-186289073D01*
X243852342Y-186282273D01*
X243852342Y-186310054D01*
X243917165Y-186374877D01*
X243630091Y-186652689D01*
X243426363Y-186810116D01*
X243315238Y-186986064D01*
X243372736Y-187033162D01*
X243440109Y-187083298D01*
X243515947Y-187135171D01*
X243598838Y-187187478D01*
X243687373Y-187238917D01*
X243780140Y-187288185D01*
X243827670Y-187311598D01*
X243875729Y-187333981D01*
X243924140Y-187355169D01*
X243972728Y-187375001D01*
X243993962Y-187383249D01*
X244001092Y-187384768D01*
X244007165Y-187383683D01*
X244013129Y-187379342D01*
X244019934Y-187371094D01*
X244039866Y-187340275D01*
X244074556Y-187286014D01*
X244099810Y-187248466D01*
X244131602Y-187203105D01*
X244170882Y-187149279D01*
X244218599Y-187086337D01*
X244275704Y-187013628D01*
X244343145Y-186930501D01*
X244344198Y-186929545D01*
X244345602Y-186930124D01*
X244349348Y-186935728D01*
X244359784Y-186963636D01*
X244372607Y-187011729D01*
X244385973Y-187077510D01*
X244398037Y-187158484D01*
X244403004Y-187203889D01*
X244406954Y-187252156D01*
X244409656Y-187302973D01*
X244410879Y-187356028D01*
X244410393Y-187411010D01*
X244407967Y-187467606D01*
X244417517Y-187467316D01*
X244428478Y-187466629D01*
X244442694Y-187465291D01*
X244459514Y-187463084D01*
X244468698Y-187461587D01*
X244478288Y-187459792D01*
X244488204Y-187457672D01*
X244498364Y-187455198D01*
X244508687Y-187452345D01*
X244519092Y-187449085D01*
X244540111Y-187442181D01*
X244561469Y-187433677D01*
X244583125Y-187423658D01*
X244605040Y-187412206D01*
X244649479Y-187385336D01*
X244694460Y-187353732D01*
X244739659Y-187318058D01*
X244784749Y-187278979D01*
X244829406Y-187237160D01*
X244873302Y-187193266D01*
X244916114Y-187147961D01*
X244957514Y-187101910D01*
X244997179Y-187055777D01*
X245034781Y-187010228D01*
X245102498Y-186923538D01*
X245158061Y-186847157D01*
X245188211Y-186798993D01*
X245227369Y-186734441D01*
X245271518Y-186658820D01*
X245316645Y-186577448D01*
X245358732Y-186495642D01*
X245377382Y-186456237D01*
X245393766Y-186418719D01*
X245407383Y-186383750D01*
X245417731Y-186351997D01*
X245424308Y-186324123D01*
X245426025Y-186311848D01*
X245426612Y-186300793D01*
X245425024Y-186289188D01*
X245422049Y-186276971D01*
X245417765Y-186264180D01*
X245412251Y-186250856D01*
X245405583Y-186237036D01*
X245397840Y-186222760D01*
X245379441Y-186192996D01*
X245357678Y-186161876D01*
X245333175Y-186129711D01*
X245306556Y-186096813D01*
X245278444Y-186063495D01*
X245163557Y-185932258D01*
X245137345Y-185901517D01*
X245113385Y-185872228D01*
X245092300Y-185844702D01*
X245074716Y-185819251D01*
X245035011Y-185755487D01*
X244999294Y-185689389D01*
X244973597Y-185634044D01*
X245334007Y-185634044D01*
X245334888Y-185653115D01*
X245337471Y-185672119D01*
X245341668Y-185691045D01*
X245347392Y-185709882D01*
X245354553Y-185728617D01*
X245363064Y-185747238D01*
X245372836Y-185765733D01*
X245383782Y-185784092D01*
X245395813Y-185802301D01*
X245408841Y-185820349D01*
X245437536Y-185855914D01*
X245469161Y-185890693D01*
X245503010Y-185924590D01*
X245538379Y-185957510D01*
X245574561Y-185989358D01*
X245646547Y-186049461D01*
X245713323Y-186104137D01*
X245742994Y-186129203D01*
X245769247Y-186152628D01*
X245854980Y-186222571D01*
X245942030Y-186286777D01*
X246030408Y-186345584D01*
X246120130Y-186399330D01*
X246211208Y-186448357D01*
X246303656Y-186493002D01*
X246397488Y-186533604D01*
X246492717Y-186570503D01*
X246589357Y-186604038D01*
X246687421Y-186634548D01*
X246786923Y-186662373D01*
X246887876Y-186687850D01*
X247094192Y-186733121D01*
X247306476Y-186773075D01*
X247448856Y-186799844D01*
X247532417Y-186814584D01*
X247619016Y-186827480D01*
X247662234Y-186832592D01*
X247704747Y-186836469D01*
X247746066Y-186838854D01*
X247785703Y-186839489D01*
X247823170Y-186838117D01*
X247857978Y-186834479D01*
X247889639Y-186828319D01*
X247904137Y-186824212D01*
X247917665Y-186819377D01*
X247874383Y-186789263D01*
X247828388Y-186755567D01*
X247731298Y-186683944D01*
X247681722Y-186649271D01*
X247657009Y-186632932D01*
X247632472Y-186617529D01*
X247608207Y-186603266D01*
X247584307Y-186590345D01*
X247560869Y-186578970D01*
X247537987Y-186569346D01*
X246834195Y-186393398D01*
X246636037Y-186325446D01*
X246438312Y-186252611D01*
X246242324Y-186173482D01*
X246145388Y-186131116D01*
X246049375Y-186086647D01*
X245954446Y-186039900D01*
X245860766Y-185990697D01*
X245768496Y-185938862D01*
X245677800Y-185884220D01*
X245588841Y-185826593D01*
X245501780Y-185765806D01*
X245416781Y-185701682D01*
X245334007Y-185634044D01*
X244973597Y-185634044D01*
X244967647Y-185621229D01*
X244940150Y-185551278D01*
X244916886Y-185479808D01*
X244897936Y-185407091D01*
X244883381Y-185333396D01*
X244873302Y-185258996D01*
X244870259Y-185217759D01*
X245397529Y-185217759D01*
X245398679Y-185237413D01*
X245401655Y-185257163D01*
X245406560Y-185276958D01*
X245413499Y-185296744D01*
X245422575Y-185316469D01*
X245433890Y-185336080D01*
X245447548Y-185355525D01*
X245463654Y-185374752D01*
X245509090Y-185418445D01*
X245561485Y-185462545D01*
X245619984Y-185506808D01*
X245683733Y-185550989D01*
X245751877Y-185594845D01*
X245823562Y-185638131D01*
X245897932Y-185680603D01*
X245974134Y-185722018D01*
X246128613Y-185800695D01*
X246280162Y-185872210D01*
X246421944Y-185934609D01*
X246547122Y-185985940D01*
X246651737Y-186030505D01*
X246708113Y-186052354D01*
X246736892Y-186062410D01*
X246765900Y-186071598D01*
X246795018Y-186079701D01*
X246824122Y-186086502D01*
X246853090Y-186091783D01*
X246881800Y-186095328D01*
X246910131Y-186096920D01*
X246937960Y-186096341D01*
X246951648Y-186095170D01*
X246965165Y-186093374D01*
X246978495Y-186090928D01*
X246991623Y-186087804D01*
X246938512Y-186049347D01*
X246883609Y-186007173D01*
X246827296Y-185961689D01*
X246769952Y-185913303D01*
X246711957Y-185862420D01*
X246653690Y-185809449D01*
X246537863Y-185698867D01*
X246425508Y-185584812D01*
X246319664Y-185470540D01*
X246270134Y-185414340D01*
X246223371Y-185359306D01*
X246179754Y-185305846D01*
X246139665Y-185254367D01*
X246122046Y-185232104D01*
X246100724Y-185207359D01*
X246076119Y-185180688D01*
X246048652Y-185152647D01*
X246018743Y-185123792D01*
X245986814Y-185094679D01*
X245953283Y-185065864D01*
X245918572Y-185037905D01*
X245883102Y-185011355D01*
X245847292Y-184986773D01*
X245811564Y-184964714D01*
X245776338Y-184945734D01*
X245742034Y-184930390D01*
X245725360Y-184924255D01*
X245709073Y-184919237D01*
X245693228Y-184915407D01*
X245677876Y-184912832D01*
X245663070Y-184911584D01*
X245648862Y-184911731D01*
X245637214Y-184913296D01*
X245624909Y-184916219D01*
X245612051Y-184920448D01*
X245598744Y-184925929D01*
X245571195Y-184940442D01*
X245543091Y-184959336D01*
X245515257Y-184982191D01*
X245488523Y-185008586D01*
X245475826Y-185022980D01*
X245463715Y-185038101D01*
X245452292Y-185053897D01*
X245441660Y-185070316D01*
X245431924Y-185087304D01*
X245423187Y-185104810D01*
X245415552Y-185122780D01*
X245409122Y-185141162D01*
X245404002Y-185159903D01*
X245400294Y-185178952D01*
X245398101Y-185198255D01*
X245397529Y-185217759D01*
X244870259Y-185217759D01*
X244867781Y-185184162D01*
X244866899Y-185109166D01*
X244870738Y-185034278D01*
X244879379Y-184959769D01*
X244892903Y-184885912D01*
X244911392Y-184812977D01*
X244934927Y-184741236D01*
X244963590Y-184670960D01*
X245121017Y-184995074D01*
X245315486Y-184772825D01*
X245519216Y-184596877D01*
X245650920Y-184448711D01*
X246139664Y-184448711D01*
X246143216Y-184501192D01*
X246150281Y-184554283D01*
X246160683Y-184607727D01*
X246174246Y-184661266D01*
X246190793Y-184714643D01*
X246210148Y-184767598D01*
X246232135Y-184819876D01*
X246256577Y-184871217D01*
X246283298Y-184921365D01*
X246312121Y-184970061D01*
X246342871Y-185017048D01*
X246375371Y-185062069D01*
X246409444Y-185104864D01*
X246444914Y-185145177D01*
X246481606Y-185182750D01*
X246519342Y-185217325D01*
X246547122Y-185245107D01*
X246547122Y-185217325D01*
X246519342Y-185217325D01*
X246505781Y-185142032D01*
X246492898Y-185078148D01*
X246469277Y-184977278D01*
X246431367Y-184831860D01*
X246423992Y-184796557D01*
X246420141Y-184773650D01*
X246728837Y-184773650D01*
X246729200Y-184793679D01*
X246732476Y-184834754D01*
X246738845Y-184876914D01*
X246747940Y-184919834D01*
X246759396Y-184963188D01*
X246772845Y-185006650D01*
X246787923Y-185049896D01*
X246804262Y-185092599D01*
X246821496Y-185134433D01*
X246839260Y-185175074D01*
X246874909Y-185251473D01*
X246908280Y-185319189D01*
X246959662Y-185417789D01*
X247016348Y-185515467D01*
X247077999Y-185611950D01*
X247144276Y-185706969D01*
X247214839Y-185800251D01*
X247289349Y-185891526D01*
X247367468Y-185980522D01*
X247448856Y-186066968D01*
X247533174Y-186150592D01*
X247620084Y-186231123D01*
X247709244Y-186308290D01*
X247800318Y-186381822D01*
X247892965Y-186451447D01*
X247986846Y-186516894D01*
X248081623Y-186577891D01*
X248176956Y-186634168D01*
X248169751Y-186598273D01*
X248158815Y-186557101D01*
X248144542Y-186511452D01*
X248127326Y-186462127D01*
X248107560Y-186409926D01*
X248085636Y-186355650D01*
X248036892Y-186244073D01*
X247984242Y-186133798D01*
X247930832Y-186031228D01*
X247904825Y-185984833D01*
X247879809Y-185942766D01*
X247856177Y-185905826D01*
X247834321Y-185874814D01*
X247537988Y-185578481D01*
X247324999Y-185362598D01*
X247220891Y-185256826D01*
X247118954Y-185150187D01*
X247019622Y-185040943D01*
X246971068Y-184984802D01*
X246923328Y-184927358D01*
X246876456Y-184868396D01*
X246830507Y-184807696D01*
X246785534Y-184745044D01*
X246741592Y-184680221D01*
X246736945Y-184697876D01*
X246733392Y-184716087D01*
X246730887Y-184734813D01*
X246729383Y-184754015D01*
X246728837Y-184773650D01*
X246420141Y-184773650D01*
X246417513Y-184758012D01*
X246411955Y-184714394D01*
X246407348Y-184663871D01*
X246403717Y-184604612D01*
X246401090Y-184534786D01*
X246399494Y-184452561D01*
X246399162Y-184393148D01*
X246899019Y-184393148D01*
X246926801Y-184420929D01*
X246963842Y-184420929D01*
X246964482Y-184435031D01*
X246966363Y-184449531D01*
X246969419Y-184464394D01*
X246973590Y-184479585D01*
X246978813Y-184495067D01*
X246985024Y-184510805D01*
X246992160Y-184526763D01*
X247000160Y-184542906D01*
X247018498Y-184575605D01*
X247039535Y-184608616D01*
X247062769Y-184641653D01*
X247087700Y-184674433D01*
X247113824Y-184706671D01*
X247140640Y-184738081D01*
X247167646Y-184768378D01*
X247194339Y-184797279D01*
X247244784Y-184849748D01*
X247287957Y-184893211D01*
X247402248Y-185019800D01*
X247533793Y-185159303D01*
X247678143Y-185305535D01*
X247830849Y-185452309D01*
X247908945Y-185523966D01*
X247987462Y-185593440D01*
X248065843Y-185659956D01*
X248143533Y-185722742D01*
X248219974Y-185781024D01*
X248294611Y-185834029D01*
X248366888Y-185880985D01*
X248436248Y-185921117D01*
X248420352Y-185870126D01*
X248400671Y-185814875D01*
X248377545Y-185756098D01*
X248351313Y-185694526D01*
X248322313Y-185630892D01*
X248290885Y-185565929D01*
X248257368Y-185500369D01*
X248222101Y-185434945D01*
X248185423Y-185370389D01*
X248147674Y-185307433D01*
X248109192Y-185246811D01*
X248070317Y-185189255D01*
X248031387Y-185135496D01*
X247992743Y-185086269D01*
X247954722Y-185042304D01*
X247917665Y-185004336D01*
X247890573Y-184980488D01*
X247851991Y-184951160D01*
X247746491Y-184879320D01*
X247613427Y-184795325D01*
X247530203Y-184745044D01*
X248121393Y-184745044D01*
X248149175Y-184772825D01*
X248149175Y-184745044D01*
X248121393Y-184745044D01*
X247530203Y-184745044D01*
X247465061Y-184705687D01*
X247313657Y-184616917D01*
X247171477Y-184535527D01*
X246963842Y-184420929D01*
X246926801Y-184420929D01*
X246926801Y-184393148D01*
X246899019Y-184393148D01*
X246399162Y-184393148D01*
X246398956Y-184356107D01*
X246398811Y-184329483D01*
X246398467Y-184314760D01*
X246397798Y-184299387D01*
X246396695Y-184283579D01*
X246395049Y-184267554D01*
X246392752Y-184251529D01*
X246389695Y-184235721D01*
X246385770Y-184220348D01*
X246383448Y-184212891D01*
X246380869Y-184205625D01*
X246378018Y-184198576D01*
X246374882Y-184191771D01*
X246371448Y-184185237D01*
X246367701Y-184179001D01*
X246363629Y-184173091D01*
X246361888Y-184170898D01*
X247093487Y-184170898D01*
X248112132Y-184745043D01*
X248069873Y-184688633D01*
X248023218Y-184634081D01*
X247972548Y-184581510D01*
X247918242Y-184531041D01*
X247860681Y-184482797D01*
X247800244Y-184436900D01*
X247737311Y-184393471D01*
X247672262Y-184352633D01*
X247605477Y-184314509D01*
X247537335Y-184279219D01*
X247468217Y-184246887D01*
X247398502Y-184217634D01*
X247328569Y-184191582D01*
X247258800Y-184168854D01*
X247189573Y-184149572D01*
X247121269Y-184133856D01*
X247093487Y-184170898D01*
X246361888Y-184170898D01*
X246359218Y-184167534D01*
X246354455Y-184162357D01*
X246349325Y-184157587D01*
X246343815Y-184153250D01*
X246337912Y-184149375D01*
X246331602Y-184145989D01*
X246324871Y-184143117D01*
X246309674Y-184139657D01*
X246295322Y-184137902D01*
X246281790Y-184137763D01*
X246269056Y-184139156D01*
X246257094Y-184141994D01*
X246245882Y-184146190D01*
X246235396Y-184151657D01*
X246225611Y-184158310D01*
X246216505Y-184166062D01*
X246208054Y-184174826D01*
X246200233Y-184184515D01*
X246193019Y-184195044D01*
X246186389Y-184206326D01*
X246180318Y-184218274D01*
X246169760Y-184243824D01*
X246161155Y-184271002D01*
X246154314Y-184299115D01*
X246149046Y-184327473D01*
X246145162Y-184355383D01*
X246142472Y-184382154D01*
X246140785Y-184407093D01*
X246139664Y-184448711D01*
X245650920Y-184448711D01*
X245667383Y-184430189D01*
X245797029Y-184309804D01*
X245815628Y-184282934D01*
X245830362Y-184257624D01*
X245842139Y-184233480D01*
X245851867Y-184210110D01*
X245868814Y-184164115D01*
X245877851Y-184140704D01*
X245888474Y-184116493D01*
X245901594Y-184091088D01*
X245918119Y-184064096D01*
X245927942Y-184049881D01*
X245938957Y-184035123D01*
X245951278Y-184019771D01*
X245965018Y-184003776D01*
X245980291Y-183987090D01*
X245997210Y-183969662D01*
X246015889Y-183951445D01*
X246036443Y-183932388D01*
X246058983Y-183912442D01*
X246083624Y-183891559D01*
X246139664Y-183846783D01*
X246105030Y-183821342D01*
X246067480Y-183796918D01*
X246027569Y-183773227D01*
X245985854Y-183749983D01*
X245899237Y-183703699D01*
X245812077Y-183655787D01*
X245769684Y-183630509D01*
X245728824Y-183603969D01*
X245690052Y-183575882D01*
X245671624Y-183561170D01*
X245653926Y-183545964D01*
X245637029Y-183530230D01*
X245621002Y-183513931D01*
X245605914Y-183497031D01*
X245591835Y-183479496D01*
X245578834Y-183461289D01*
X245566981Y-183442375D01*
X245556346Y-183422718D01*
X245546998Y-183402283D01*
X245542211Y-183388078D01*
X245538225Y-183373290D01*
X245534972Y-183357987D01*
X245532383Y-183342235D01*
X245530391Y-183326104D01*
X245528929Y-183309661D01*
X245527927Y-183292974D01*
X245527319Y-183276110D01*
X245527036Y-183244856D01*
X245806288Y-183244856D01*
X245814263Y-183260083D01*
X245822557Y-183274532D01*
X245831163Y-183288243D01*
X245840074Y-183301251D01*
X245849284Y-183313595D01*
X245858785Y-183325311D01*
X245878636Y-183347010D01*
X245899571Y-183366648D01*
X245921537Y-183384522D01*
X245944480Y-183400931D01*
X245968346Y-183416174D01*
X246185965Y-183531929D01*
X246537861Y-183781961D01*
X246552794Y-183785013D01*
X246569640Y-183787278D01*
X246588141Y-183788838D01*
X246608039Y-183789774D01*
X246650995Y-183790100D01*
X246696447Y-183788906D01*
X246786591Y-183784565D01*
X246827159Y-183782720D01*
X246861976Y-183781961D01*
X246888021Y-183784310D01*
X246914066Y-183787730D01*
X246940111Y-183791992D01*
X246966156Y-183796864D01*
X247070335Y-183817845D01*
X247096380Y-183822310D01*
X247122425Y-183826002D01*
X247148470Y-183828690D01*
X247174515Y-183830144D01*
X247200560Y-183830132D01*
X247226605Y-183828426D01*
X247252650Y-183824792D01*
X247278695Y-183819002D01*
X247036622Y-183682266D01*
X246915531Y-183616015D01*
X246793680Y-183551608D01*
X246736417Y-183522669D01*
X247343519Y-183522669D01*
X247380779Y-183545317D01*
X247416203Y-183568096D01*
X247449853Y-183590973D01*
X247481792Y-183613917D01*
X247512083Y-183636894D01*
X247540789Y-183659873D01*
X247567972Y-183682821D01*
X247593695Y-183705707D01*
X247618021Y-183728498D01*
X247641012Y-183751161D01*
X247683242Y-183795978D01*
X247720887Y-183839899D01*
X247754449Y-183882668D01*
X247784430Y-183924025D01*
X247811332Y-183963714D01*
X247857905Y-184037056D01*
X247898184Y-184100631D01*
X247917218Y-184128112D01*
X247936184Y-184152377D01*
X248306601Y-184485752D01*
X248751102Y-184967294D01*
X248760361Y-184967294D01*
X248788142Y-184995075D01*
X248788142Y-184967294D01*
X248760361Y-184967294D01*
X248751102Y-184967294D01*
X248749386Y-184908946D01*
X248744319Y-184845606D01*
X248736024Y-184778143D01*
X248724622Y-184707424D01*
X248710237Y-184634317D01*
X248692989Y-184559691D01*
X248673001Y-184484414D01*
X248650394Y-184409354D01*
X248625292Y-184335379D01*
X248597816Y-184263358D01*
X248568088Y-184194158D01*
X248536231Y-184128647D01*
X248502366Y-184067695D01*
X248466616Y-184012169D01*
X248429102Y-183962937D01*
X248409722Y-183940952D01*
X248389946Y-183920867D01*
X248364381Y-183898516D01*
X248336482Y-183876627D01*
X248306521Y-183855225D01*
X248274770Y-183834340D01*
X248241499Y-183813997D01*
X248206980Y-183794223D01*
X248171485Y-183775047D01*
X248135285Y-183756495D01*
X248061852Y-183721370D01*
X247988854Y-183689067D01*
X247918461Y-183659803D01*
X247852842Y-183633794D01*
X247735495Y-183586479D01*
X247669713Y-183562007D01*
X247635853Y-183550565D01*
X247601653Y-183540032D01*
X247567345Y-183530693D01*
X247533158Y-183522832D01*
X247499325Y-183516734D01*
X247466075Y-183512685D01*
X247433639Y-183510969D01*
X247402247Y-183511871D01*
X247387015Y-183513393D01*
X247372130Y-183515676D01*
X247357622Y-183518756D01*
X247343519Y-183522669D01*
X246736417Y-183522669D01*
X246670527Y-183489371D01*
X246623942Y-183467107D01*
X247315738Y-183467107D01*
X247343519Y-183494888D01*
X247343519Y-183467107D01*
X247315738Y-183467107D01*
X246623942Y-183467107D01*
X246545530Y-183429631D01*
X246418144Y-183372712D01*
X246287829Y-183318940D01*
X246254036Y-183304983D01*
X246221939Y-183291068D01*
X246161801Y-183264390D01*
X246133244Y-183252143D01*
X246105352Y-183240968D01*
X246077867Y-183231122D01*
X246050531Y-183222863D01*
X246023087Y-183216449D01*
X245995276Y-183212137D01*
X245981153Y-183210851D01*
X245966842Y-183210186D01*
X245952310Y-183210176D01*
X245937525Y-183210853D01*
X245922456Y-183212249D01*
X245907070Y-183214396D01*
X245891334Y-183217326D01*
X245875217Y-183221072D01*
X245858686Y-183225666D01*
X245841709Y-183231140D01*
X245824253Y-183237526D01*
X245806288Y-183244856D01*
X245527036Y-183244856D01*
X245527011Y-183242125D01*
X245527464Y-183208249D01*
X245528476Y-183142992D01*
X245204362Y-183207815D01*
X245398831Y-182948523D01*
X245274792Y-182909673D01*
X245220464Y-182891631D01*
X245198166Y-182883700D01*
X246065581Y-182883700D01*
X246168155Y-182891636D01*
X246274121Y-182904644D01*
X246382963Y-182922157D01*
X246494164Y-182943603D01*
X246721587Y-182996019D01*
X246952266Y-183057333D01*
X247406894Y-183188426D01*
X247622597Y-183249089D01*
X247825060Y-183300419D01*
X247781033Y-183249511D01*
X247729381Y-183197885D01*
X247670947Y-183146123D01*
X247606572Y-183094809D01*
X247537096Y-183044525D01*
X247463361Y-182995856D01*
X247386208Y-182949384D01*
X247306477Y-182905694D01*
X247225010Y-182865367D01*
X247142647Y-182828988D01*
X247060231Y-182797139D01*
X246978601Y-182770405D01*
X246898599Y-182749367D01*
X246821065Y-182734611D01*
X246746842Y-182726718D01*
X246711234Y-182725528D01*
X246676770Y-182726273D01*
X246525274Y-182740453D01*
X246436993Y-182750039D01*
X246391855Y-182756121D01*
X246346866Y-182763315D01*
X246302637Y-182771811D01*
X246259779Y-182781799D01*
X246218900Y-182793470D01*
X246180613Y-182807012D01*
X246145527Y-182822617D01*
X246129375Y-182831251D01*
X246114252Y-182840473D01*
X246100235Y-182850304D01*
X246087400Y-182860770D01*
X246075823Y-182871894D01*
X246065581Y-182883700D01*
X245198166Y-182883700D01*
X245170504Y-182873861D01*
X245124342Y-182855874D01*
X245081409Y-182837181D01*
X245041134Y-182817295D01*
X245002949Y-182795726D01*
X244984461Y-182784159D01*
X244966282Y-182771987D01*
X244948341Y-182759151D01*
X244930566Y-182745590D01*
X244895229Y-182716045D01*
X244859702Y-182682865D01*
X244823415Y-182645561D01*
X244785799Y-182603645D01*
X244746284Y-182556628D01*
X244704300Y-182504023D01*
X244655125Y-182439200D01*
X245046934Y-182439200D01*
X245071914Y-182465202D01*
X245101357Y-182490947D01*
X245134734Y-182516175D01*
X245171515Y-182540631D01*
X245211172Y-182564056D01*
X245253177Y-182586192D01*
X245296998Y-182606781D01*
X245342109Y-182625566D01*
X245387979Y-182642290D01*
X245434080Y-182656694D01*
X245479882Y-182668520D01*
X245524857Y-182677512D01*
X245568476Y-182683410D01*
X245610209Y-182685958D01*
X245649527Y-182684898D01*
X245668116Y-182682934D01*
X245685902Y-182679971D01*
X245972975Y-182550325D01*
X245994230Y-182541962D01*
X246016257Y-182534210D01*
X246038963Y-182527027D01*
X246062252Y-182520373D01*
X246110200Y-182508490D01*
X246159342Y-182498235D01*
X246208917Y-182489282D01*
X246258168Y-182481306D01*
X246352653Y-182466981D01*
X246963842Y-182411419D01*
X246389694Y-182328075D01*
X245556257Y-182504023D01*
X245046934Y-182439200D01*
X244655125Y-182439200D01*
X244317918Y-181994700D01*
X244769121Y-181994700D01*
X244857131Y-182031147D01*
X244941018Y-182064027D01*
X245021431Y-182093244D01*
X245099023Y-182118703D01*
X245174445Y-182140310D01*
X245248348Y-182157969D01*
X245321382Y-182171586D01*
X245394199Y-182181066D01*
X245467451Y-182186314D01*
X245541787Y-182187234D01*
X245617860Y-182183732D01*
X245696321Y-182175712D01*
X245777820Y-182163081D01*
X245863009Y-182145743D01*
X245952538Y-182123602D01*
X246047060Y-182096565D01*
X246426737Y-181929877D01*
X246449517Y-181921501D01*
X246472677Y-181913654D01*
X246519920Y-181899057D01*
X246616576Y-181870842D01*
X246665121Y-181855269D01*
X246689257Y-181846689D01*
X246713232Y-181837418D01*
X246736989Y-181827332D01*
X246760474Y-181816310D01*
X246783635Y-181804231D01*
X246806415Y-181790971D01*
X246484615Y-181766663D01*
X246443943Y-181764906D01*
X246403623Y-181764112D01*
X246363791Y-181764485D01*
X246324584Y-181766229D01*
X246286136Y-181769545D01*
X246248583Y-181774639D01*
X246212061Y-181781713D01*
X246176706Y-181790971D01*
X246140033Y-181800272D01*
X246106005Y-181810686D01*
X246074011Y-181822022D01*
X246043442Y-181834090D01*
X245923201Y-181885890D01*
X245890597Y-181898773D01*
X245855755Y-181911248D01*
X245818065Y-181923127D01*
X245776915Y-181934218D01*
X245731696Y-181944333D01*
X245681797Y-181953282D01*
X245626608Y-181960874D01*
X245565517Y-181966919D01*
X245512724Y-181968859D01*
X245461790Y-181968113D01*
X245412401Y-181965251D01*
X245364248Y-181960842D01*
X245177737Y-181939138D01*
X245131075Y-181935543D01*
X245083776Y-181933820D01*
X245035528Y-181934539D01*
X244986017Y-181938270D01*
X244934934Y-181945581D01*
X244881964Y-181957044D01*
X244854675Y-181964510D01*
X244826798Y-181973227D01*
X244798293Y-181983267D01*
X244769121Y-181994700D01*
X244317918Y-181994700D01*
X244296842Y-181966919D01*
X244282429Y-181958872D01*
X244267053Y-181952033D01*
X244250836Y-181946307D01*
X244233900Y-181941597D01*
X244216367Y-181937810D01*
X244198360Y-181934851D01*
X244179999Y-181932624D01*
X244161409Y-181931035D01*
X244142709Y-181929988D01*
X244124023Y-181929389D01*
X244087181Y-181929154D01*
X244019031Y-181929877D01*
X243952073Y-181929967D01*
X243894883Y-181930601D01*
X243844203Y-181932319D01*
X243820288Y-181933754D01*
X243796780Y-181935665D01*
X243773272Y-181938118D01*
X243749356Y-181941181D01*
X243724627Y-181944923D01*
X243698677Y-181949411D01*
X243641487Y-181960896D01*
X243574529Y-181976179D01*
X243565952Y-181978998D01*
X243557571Y-181982236D01*
X243549362Y-181985877D01*
X243541304Y-181989907D01*
X243525553Y-181999070D01*
X243510141Y-182009603D01*
X243494892Y-182021385D01*
X243479629Y-182034292D01*
X243464176Y-182048203D01*
X243448357Y-182062996D01*
X243414914Y-182094738D01*
X243396938Y-182111443D01*
X243377890Y-182128542D01*
X243357594Y-182145912D01*
X243335874Y-182163431D01*
X243312554Y-182180978D01*
X243287456Y-182198429D01*
X243277563Y-182204217D01*
X243262135Y-182215214D01*
X243252515Y-182222937D01*
X243241715Y-182232287D01*
X243229802Y-182243375D01*
X243216845Y-182256307D01*
X243202912Y-182271192D01*
X243188069Y-182288139D01*
X243172386Y-182307257D01*
X243155929Y-182328654D01*
X243138767Y-182352438D01*
X243120967Y-182378718D01*
X243102598Y-182407602D01*
X243083726Y-182439200D01*
X243061299Y-182482500D01*
X243036267Y-182533830D01*
X242981862Y-182647559D01*
X242954226Y-182703447D01*
X242927457Y-182754343D01*
X242914670Y-182776902D01*
X242902425Y-182796992D01*
X242890832Y-182814206D01*
X242879998Y-182828137D01*
X242858149Y-182853893D01*
X242836861Y-182878599D01*
X242809387Y-182909166D01*
X242776270Y-182944073D01*
X242757765Y-182962680D01*
X242738053Y-182981803D01*
X242717201Y-183001250D01*
X242695278Y-183020834D01*
X242672351Y-183040363D01*
X242648488Y-183059648D01*
X242635841Y-183070538D01*
X242623931Y-183082308D01*
X242612732Y-183094862D01*
X242602222Y-183108102D01*
X242592376Y-183121933D01*
X242583172Y-183136257D01*
X242574585Y-183150977D01*
X242566591Y-183165998D01*
X242552289Y-183196553D01*
X242540076Y-183227149D01*
X242529762Y-183257013D01*
X242521157Y-183285371D01*
X242508315Y-183334476D01*
X242500031Y-183368280D01*
X242497124Y-183377511D01*
X242495896Y-183379871D01*
X242494786Y-183380597D01*
X242493772Y-183379594D01*
X242492828Y-183376765D01*
X242491060Y-183365241D01*
X242487048Y-183334345D01*
X242478924Y-183300816D01*
X242467356Y-183264846D01*
X242453006Y-183226625D01*
X242381093Y-183055018D01*
X242362810Y-183008385D01*
X242345734Y-182960641D01*
X242330529Y-182911974D01*
X242317862Y-182862575D01*
X242308396Y-182812633D01*
X242302796Y-182762338D01*
X242301653Y-182737118D01*
X242301726Y-182711880D01*
X242303099Y-182686650D01*
X242305853Y-182661450D01*
X242315891Y-182594348D01*
X242317230Y-182584672D01*
X242544145Y-182584672D01*
X242544306Y-182639662D01*
X242546623Y-182698492D01*
X242563466Y-182689252D01*
X242579360Y-182678831D01*
X242594440Y-182667136D01*
X242608842Y-182654071D01*
X242622700Y-182639540D01*
X242636152Y-182623450D01*
X242649333Y-182605704D01*
X242662378Y-182586209D01*
X242675423Y-182564869D01*
X242688604Y-182541589D01*
X242702056Y-182516275D01*
X242715915Y-182488830D01*
X242745396Y-182427173D01*
X242778133Y-182355857D01*
X242789345Y-182328898D01*
X242802064Y-182301884D01*
X242816170Y-182274866D01*
X242831543Y-182247897D01*
X242848063Y-182221030D01*
X242865608Y-182194317D01*
X242903294Y-182141565D01*
X242943638Y-182090061D01*
X242985679Y-182040225D01*
X243028452Y-181992478D01*
X243070994Y-181947241D01*
X243112342Y-181904934D01*
X243151534Y-181865977D01*
X243219594Y-181799798D01*
X243267470Y-181752067D01*
X243281431Y-181736171D01*
X243285495Y-181730399D01*
X243287456Y-181726148D01*
X243289448Y-181715238D01*
X243290264Y-181705062D01*
X243289974Y-181695594D01*
X243288650Y-181686810D01*
X243286362Y-181678683D01*
X243283183Y-181671190D01*
X243279183Y-181664303D01*
X243274434Y-181657997D01*
X243269006Y-181652248D01*
X243268794Y-181652065D01*
X244213497Y-181652065D01*
X244593175Y-181679846D01*
X244815424Y-181652065D01*
X245010037Y-181639911D01*
X245055130Y-181636058D01*
X245099151Y-181631229D01*
X245142276Y-181625098D01*
X245184683Y-181617338D01*
X245226547Y-181607626D01*
X245268045Y-181595634D01*
X245309353Y-181581038D01*
X245350647Y-181563512D01*
X245392105Y-181542731D01*
X245433901Y-181518368D01*
X245476212Y-181490098D01*
X245519216Y-181457596D01*
X245530351Y-181448336D01*
X245555765Y-181427199D01*
X245592395Y-181391959D01*
X245628971Y-181352460D01*
X245665357Y-181309285D01*
X245701418Y-181263017D01*
X245737017Y-181214239D01*
X245754410Y-181189044D01*
X246287830Y-181189044D01*
X246287830Y-181448336D01*
X246352653Y-181189044D01*
X246287830Y-181189044D01*
X245754410Y-181189044D01*
X245772019Y-181163535D01*
X245806289Y-181111488D01*
X245872089Y-181005699D01*
X245911297Y-180939013D01*
X246584165Y-180939013D01*
X246676770Y-181235346D01*
X247084226Y-181235346D01*
X247101680Y-181227575D01*
X247117615Y-181218213D01*
X247132084Y-181207353D01*
X247145143Y-181195085D01*
X247156845Y-181181501D01*
X247167245Y-181166693D01*
X247176397Y-181150753D01*
X247184355Y-181133771D01*
X247191174Y-181115840D01*
X247196908Y-181097050D01*
X247201610Y-181077495D01*
X247205336Y-181057264D01*
X247210075Y-181015144D01*
X247211558Y-180971424D01*
X247210220Y-180926836D01*
X247206494Y-180882112D01*
X247200814Y-180837985D01*
X247193616Y-180795187D01*
X247185332Y-180754451D01*
X247176397Y-180716510D01*
X247158311Y-180651940D01*
X247049320Y-180685545D01*
X247005337Y-180699594D01*
X246967025Y-180712422D01*
X246933379Y-180724490D01*
X246903395Y-180736260D01*
X246876071Y-180748193D01*
X246850401Y-180760750D01*
X246825382Y-180774392D01*
X246800011Y-180789580D01*
X246773284Y-180806776D01*
X246744196Y-180826441D01*
X246584165Y-180939013D01*
X245911297Y-180939013D01*
X245933330Y-180901537D01*
X246037799Y-180716763D01*
X245046934Y-181309429D01*
X244213497Y-181652065D01*
X243268794Y-181652065D01*
X243262971Y-181647030D01*
X243256401Y-181642317D01*
X243249365Y-181638084D01*
X243241937Y-181634305D01*
X243234186Y-181630955D01*
X243226185Y-181628009D01*
X243218003Y-181625441D01*
X243201386Y-181621338D01*
X243184905Y-181618442D01*
X243169128Y-181616549D01*
X243154628Y-181615457D01*
X243131730Y-181614861D01*
X243120770Y-181615023D01*
X243090454Y-181626388D01*
X243061968Y-181637899D01*
X243035241Y-181649538D01*
X243010205Y-181661289D01*
X242986791Y-181673135D01*
X242964928Y-181685060D01*
X242944546Y-181697045D01*
X242925577Y-181709074D01*
X242907952Y-181721131D01*
X242891599Y-181733198D01*
X242876451Y-181745257D01*
X242862436Y-181757294D01*
X242849487Y-181769289D01*
X242837533Y-181781227D01*
X242826505Y-181793090D01*
X242816333Y-181804862D01*
X242806948Y-181816525D01*
X242798280Y-181828063D01*
X242782818Y-181850694D01*
X242769391Y-181872619D01*
X242757442Y-181893704D01*
X242735756Y-181932807D01*
X242724906Y-181950555D01*
X242713311Y-181966919D01*
X242706578Y-181978162D01*
X242700252Y-181990884D01*
X242694306Y-182004826D01*
X242688713Y-182019732D01*
X242683445Y-182035343D01*
X242678476Y-182051402D01*
X242669324Y-182083832D01*
X242653407Y-182142722D01*
X242649767Y-182154698D01*
X242646209Y-182165059D01*
X242642704Y-182173549D01*
X242639227Y-182179908D01*
X242626512Y-182199533D01*
X242610433Y-182230985D01*
X242601709Y-182251317D01*
X242592835Y-182274810D01*
X242584042Y-182301531D01*
X242575562Y-182331548D01*
X242567624Y-182364929D01*
X242560460Y-182401742D01*
X242554299Y-182442056D01*
X242549372Y-182485936D01*
X242545911Y-182533452D01*
X242544145Y-182584672D01*
X242317230Y-182584672D01*
X242325386Y-182525727D01*
X242344052Y-182388268D01*
X242353873Y-182321600D01*
X242364454Y-182257754D01*
X242376120Y-182197814D01*
X242382461Y-182169649D01*
X242389196Y-182142867D01*
X242397227Y-182113006D01*
X242400754Y-182099099D01*
X242403955Y-182085858D01*
X242406831Y-182073267D01*
X242409381Y-182061314D01*
X242411606Y-182049985D01*
X242413505Y-182039266D01*
X242415078Y-182029144D01*
X242416326Y-182019606D01*
X242417249Y-182010637D01*
X242417846Y-182002224D01*
X242418117Y-181994354D01*
X242418062Y-181987013D01*
X242417683Y-181980188D01*
X242416977Y-181973864D01*
X242415946Y-181968029D01*
X242414590Y-181962669D01*
X242412908Y-181957769D01*
X242410900Y-181953318D01*
X242408567Y-181949300D01*
X242405908Y-181945703D01*
X242402924Y-181942513D01*
X242399614Y-181939717D01*
X242395978Y-181937300D01*
X242392017Y-181935249D01*
X242387731Y-181933551D01*
X242383119Y-181932192D01*
X242378181Y-181931159D01*
X242372918Y-181930438D01*
X242367329Y-181930015D01*
X242361415Y-181929877D01*
X242332566Y-181929932D01*
X242307733Y-181930311D01*
X242296449Y-181930725D01*
X242285722Y-181931342D01*
X242275401Y-181932204D01*
X242265338Y-181933350D01*
X242255383Y-181934822D01*
X242245388Y-181936660D01*
X242235203Y-181938905D01*
X242224679Y-181941598D01*
X242213666Y-181944778D01*
X242202016Y-181948489D01*
X242189579Y-181952768D01*
X242176206Y-181957658D01*
X242167632Y-181961345D01*
X242159270Y-181965447D01*
X242151115Y-181969946D01*
X242143162Y-181974823D01*
X242127840Y-181985636D01*
X242113265Y-181997739D01*
X242099394Y-182010980D01*
X242086189Y-182025213D01*
X242073607Y-182040286D01*
X242061609Y-182056050D01*
X242050153Y-182072358D01*
X242039199Y-182089059D01*
X242028707Y-182106004D01*
X242018635Y-182123044D01*
X241981738Y-182189169D01*
X241949634Y-182238148D01*
X241915902Y-182287561D01*
X241880651Y-182336974D01*
X241843989Y-182385952D01*
X241806025Y-182434063D01*
X241766867Y-182480872D01*
X241746875Y-182503652D01*
X241726624Y-182525944D01*
X241706130Y-182547693D01*
X241685404Y-182568846D01*
X241640274Y-182614720D01*
X241598263Y-182655427D01*
X241558802Y-182691440D01*
X241521322Y-182723234D01*
X241485253Y-182751284D01*
X241450024Y-182776066D01*
X241415067Y-182798052D01*
X241379811Y-182817719D01*
X241343688Y-182835542D01*
X241306126Y-182851994D01*
X241266557Y-182867551D01*
X241224410Y-182882687D01*
X241130106Y-182913597D01*
X241018655Y-182948523D01*
X241213124Y-183207814D01*
X240889009Y-183142991D01*
X240890022Y-183208248D01*
X240890474Y-183242125D01*
X240890167Y-183276110D01*
X240889559Y-183292973D01*
X240888557Y-183309661D01*
X240887095Y-183326104D01*
X240885103Y-183342235D01*
X240882514Y-183357986D01*
X240879261Y-183373290D01*
X240875275Y-183388078D01*
X240870489Y-183402283D01*
X240861140Y-183422718D01*
X240850505Y-183442374D01*
X240838652Y-183461288D01*
X240825652Y-183479495D01*
X240811572Y-183497031D01*
X240796484Y-183513930D01*
X240780457Y-183530229D01*
X240763560Y-183545964D01*
X240727434Y-183575882D01*
X240688662Y-183603968D01*
X240647802Y-183630508D01*
X240605409Y-183655787D01*
X240518249Y-183703699D01*
X240431631Y-183749983D01*
X240389916Y-183773226D01*
X240350006Y-183796918D01*
X240312455Y-183821342D01*
X240277822Y-183846783D01*
X238656761Y-183846783D01*
X238663097Y-183837524D01*
X239129530Y-183837524D01*
X239175090Y-183829800D01*
X239221410Y-183820884D01*
X239315895Y-183801639D01*
X239363843Y-183792397D01*
X239412116Y-183784131D01*
X239460607Y-183777385D01*
X239484900Y-183774751D01*
X239509206Y-183772701D01*
X239547062Y-183773460D01*
X239589801Y-183775305D01*
X239681681Y-183779646D01*
X239726699Y-183780840D01*
X239748076Y-183780907D01*
X239768353Y-183780514D01*
X239787274Y-183779578D01*
X239804581Y-183778018D01*
X239820016Y-183775753D01*
X239833321Y-183772701D01*
X240212998Y-183504148D01*
X240241977Y-183487703D01*
X240269899Y-183472858D01*
X240322676Y-183446560D01*
X240371546Y-183422432D01*
X240394584Y-183410301D01*
X240416727Y-183397653D01*
X240438002Y-183384138D01*
X240448322Y-183376945D01*
X240458435Y-183369402D01*
X240468345Y-183361466D01*
X240478055Y-183353092D01*
X240487568Y-183344237D01*
X240496887Y-183334856D01*
X240506017Y-183324906D01*
X240514961Y-183314341D01*
X240523721Y-183303119D01*
X240532301Y-183291195D01*
X240540705Y-183278525D01*
X240548937Y-183265064D01*
X240556998Y-183250769D01*
X240564894Y-183235596D01*
X240546928Y-183229107D01*
X240529475Y-183223507D01*
X240512504Y-183218766D01*
X240495983Y-183214851D01*
X240479883Y-183211729D01*
X240464173Y-183209368D01*
X240448823Y-183207736D01*
X240433801Y-183206802D01*
X240419078Y-183206532D01*
X240404623Y-183206895D01*
X240390405Y-183207857D01*
X240376394Y-183209388D01*
X240348870Y-183214025D01*
X240321808Y-183220548D01*
X240294963Y-183228698D01*
X240268090Y-183238219D01*
X240240947Y-183248851D01*
X240213288Y-183260339D01*
X240155446Y-183284846D01*
X240124776Y-183297351D01*
X240092613Y-183309680D01*
X239847067Y-183415596D01*
X239713822Y-183475065D01*
X239579817Y-183538875D01*
X239513988Y-183572408D01*
X239449719Y-183607026D01*
X239387593Y-183642729D01*
X239328194Y-183679518D01*
X239272105Y-183717391D01*
X239219909Y-183756350D01*
X239172189Y-183796394D01*
X239129530Y-183837524D01*
X238663097Y-183837524D01*
X238675769Y-183819002D01*
X239027665Y-183494888D01*
X238968281Y-183505595D01*
X238902034Y-183520209D01*
X238830089Y-183538513D01*
X238753614Y-183560290D01*
X238673775Y-183585322D01*
X238591738Y-183613392D01*
X238508670Y-183644284D01*
X238425737Y-183677781D01*
X238344107Y-183713665D01*
X238264946Y-183751720D01*
X238189420Y-183791727D01*
X238118697Y-183833472D01*
X238053941Y-183876735D01*
X237996322Y-183921301D01*
X237970552Y-183944004D01*
X237947003Y-183966952D01*
X237925822Y-183990116D01*
X237907154Y-184013471D01*
X237870856Y-184068244D01*
X237838153Y-184124795D01*
X237808733Y-184182946D01*
X237782283Y-184242522D01*
X237758492Y-184303345D01*
X237737048Y-184365240D01*
X237717639Y-184428031D01*
X237699952Y-184491540D01*
X237668499Y-184620010D01*
X237640194Y-184749240D01*
X237612539Y-184877819D01*
X237583040Y-185004336D01*
X237305548Y-185004336D01*
X237308959Y-184906263D01*
X237319895Y-184796501D01*
X237337640Y-184684921D01*
X237361802Y-184572135D01*
X237391986Y-184458751D01*
X237427800Y-184345381D01*
X237468850Y-184232635D01*
X237514743Y-184121124D01*
X237565085Y-184011457D01*
X237619484Y-183904245D01*
X237677544Y-183800100D01*
X237738874Y-183699630D01*
X237803080Y-183603447D01*
X237869768Y-183512161D01*
X237938545Y-183426382D01*
X238009018Y-183346721D01*
X238051113Y-183302316D01*
X238053005Y-183300419D01*
X238518341Y-183300419D01*
X239064706Y-183152252D01*
X240305602Y-182883700D01*
X240296201Y-182871894D01*
X240285413Y-182860771D01*
X240273315Y-182850305D01*
X240259987Y-182840473D01*
X240245506Y-182831251D01*
X240229949Y-182822617D01*
X240195924Y-182807012D01*
X240158534Y-182793470D01*
X240118404Y-182781799D01*
X240076158Y-182771811D01*
X240032420Y-182763315D01*
X239987813Y-182756121D01*
X239942963Y-182750039D01*
X239855025Y-182740453D01*
X239703675Y-182726273D01*
X239667606Y-182725554D01*
X239630643Y-182726820D01*
X239592869Y-182729991D01*
X239554369Y-182734991D01*
X239475517Y-182750161D01*
X239394753Y-182771707D01*
X239312741Y-182799004D01*
X239230145Y-182831429D01*
X239147631Y-182868358D01*
X239065863Y-182909166D01*
X238985506Y-182953230D01*
X238907225Y-182999925D01*
X238831683Y-183048629D01*
X238759546Y-183098715D01*
X238691479Y-183149562D01*
X238628146Y-183200544D01*
X238570212Y-183251037D01*
X238518341Y-183300419D01*
X238053005Y-183300419D01*
X238094008Y-183259308D01*
X238137635Y-183217575D01*
X238181927Y-183176995D01*
X238226816Y-183137446D01*
X238272234Y-183098806D01*
X238364386Y-183023764D01*
X238457841Y-182950893D01*
X238552055Y-182879215D01*
X238740591Y-182735534D01*
X238231268Y-182930002D01*
X238254998Y-182874006D01*
X238283936Y-182811932D01*
X238317216Y-182746386D01*
X238335212Y-182713124D01*
X238353968Y-182679971D01*
X238373375Y-182647252D01*
X238393325Y-182615293D01*
X238413709Y-182584419D01*
X238434418Y-182554956D01*
X238455345Y-182527229D01*
X238476379Y-182501564D01*
X238497414Y-182478286D01*
X238518341Y-182457722D01*
X238539457Y-182439200D01*
X239416602Y-182439200D01*
X239626987Y-182438766D01*
X239722304Y-182439688D01*
X239814800Y-182442673D01*
X239907295Y-182448696D01*
X239954425Y-182453152D01*
X240002613Y-182458734D01*
X240052211Y-182465564D01*
X240103573Y-182473764D01*
X240157051Y-182483456D01*
X240212998Y-182494762D01*
X240259915Y-182505590D01*
X240303576Y-182517136D01*
X240344199Y-182529252D01*
X240382000Y-182541788D01*
X240417197Y-182554596D01*
X240450007Y-182567526D01*
X240480645Y-182580428D01*
X240509331Y-182593155D01*
X240608881Y-182639312D01*
X240631055Y-182648918D01*
X240652578Y-182657453D01*
X240673667Y-182664767D01*
X240694539Y-182670710D01*
X240712326Y-182673700D01*
X240730914Y-182675741D01*
X240750238Y-182676863D01*
X240770232Y-182677095D01*
X240811965Y-182675004D01*
X240855583Y-182669698D01*
X240900558Y-182661407D01*
X240946361Y-182650363D01*
X240992462Y-182636796D01*
X241038332Y-182620936D01*
X241083442Y-182603014D01*
X241127264Y-182583261D01*
X241169269Y-182561908D01*
X241208926Y-182539184D01*
X241245708Y-182515321D01*
X241279085Y-182490548D01*
X241308528Y-182465098D01*
X241321609Y-182452191D01*
X241333508Y-182439200D01*
X240768623Y-182494763D01*
X240000009Y-182318815D01*
X239740716Y-182346596D01*
X239416602Y-182439200D01*
X238539457Y-182439200D01*
X238558111Y-182422839D01*
X238600798Y-182390927D01*
X238646062Y-182361701D01*
X238693565Y-182334876D01*
X238742967Y-182310167D01*
X238793928Y-182287290D01*
X238846111Y-182265959D01*
X238899175Y-182245889D01*
X239006592Y-182208396D01*
X239113467Y-182172529D01*
X239217086Y-182136012D01*
X239266827Y-182116797D01*
X239314736Y-182096565D01*
X239235697Y-182091754D01*
X239135605Y-182084121D01*
X239022056Y-182073450D01*
X238902648Y-182059523D01*
X238784975Y-182042124D01*
X238729164Y-182032054D01*
X238676636Y-182021035D01*
X238628340Y-182009039D01*
X238585226Y-181996039D01*
X238548243Y-181982008D01*
X238518341Y-181966919D01*
X238562142Y-181940992D01*
X238603529Y-181915336D01*
X238680687Y-181865055D01*
X238735918Y-181828013D01*
X239574030Y-181828013D01*
X239690214Y-181853319D01*
X239799861Y-181883304D01*
X239904027Y-181916789D01*
X240003771Y-181952594D01*
X240194224Y-182026443D01*
X240287050Y-182062125D01*
X240379686Y-182095407D01*
X240473190Y-182125108D01*
X240568620Y-182150047D01*
X240667035Y-182169045D01*
X240769491Y-182180921D01*
X240822566Y-182183820D01*
X240877049Y-182184496D01*
X240933071Y-182182801D01*
X240990765Y-182178588D01*
X241050263Y-182171710D01*
X241111697Y-182162018D01*
X241175200Y-182149366D01*
X241240904Y-182133606D01*
X241295201Y-182119969D01*
X241347110Y-182106115D01*
X241372237Y-182098767D01*
X241396848Y-182090958D01*
X241420972Y-182082552D01*
X241444634Y-182073414D01*
X241467862Y-182063407D01*
X241490682Y-182052397D01*
X241513124Y-182040247D01*
X241535212Y-182026822D01*
X241556975Y-182011987D01*
X241578439Y-181995604D01*
X241599632Y-181977540D01*
X241620581Y-181957658D01*
X241240904Y-181920617D01*
X240861227Y-181957659D01*
X240831405Y-181956471D01*
X240802681Y-181954665D01*
X240775015Y-181952277D01*
X240748366Y-181949339D01*
X240722694Y-181945885D01*
X240697958Y-181941950D01*
X240651132Y-181932771D01*
X240607561Y-181922073D01*
X240566920Y-181910127D01*
X240528883Y-181897204D01*
X240493126Y-181883575D01*
X240459322Y-181869513D01*
X240427145Y-181855288D01*
X240366374Y-181827434D01*
X240337128Y-181814348D01*
X240308207Y-181802185D01*
X240279287Y-181791215D01*
X240250041Y-181781711D01*
X240216709Y-181773787D01*
X240179592Y-181767368D01*
X240139248Y-181762442D01*
X240096230Y-181758994D01*
X240051097Y-181757011D01*
X240004404Y-181756480D01*
X239956707Y-181757386D01*
X239908562Y-181759717D01*
X239860526Y-181763459D01*
X239813155Y-181768598D01*
X239767004Y-181775120D01*
X239722630Y-181783013D01*
X239680590Y-181792262D01*
X239641439Y-181802854D01*
X239605734Y-181814776D01*
X239574030Y-181828013D01*
X238735918Y-181828013D01*
X238753070Y-181816510D01*
X238823934Y-181770135D01*
X238859814Y-181747898D01*
X238896535Y-181726365D01*
X238934503Y-181705593D01*
X238974127Y-181685634D01*
X239015812Y-181666543D01*
X239059966Y-181648375D01*
X239106996Y-181631184D01*
X239157309Y-181615023D01*
X239157309Y-181550200D01*
X239119853Y-181528059D01*
X239085552Y-181503401D01*
X239054307Y-181476369D01*
X239026018Y-181447106D01*
X239000583Y-181415754D01*
X238977905Y-181382455D01*
X238957881Y-181347352D01*
X238940413Y-181310587D01*
X238933540Y-181293061D01*
X240042494Y-181293061D01*
X240042495Y-181300454D01*
X240042949Y-181307754D01*
X240043840Y-181314983D01*
X240045153Y-181322163D01*
X240046873Y-181329315D01*
X240048985Y-181336462D01*
X240051474Y-181343627D01*
X240054323Y-181350830D01*
X240061045Y-181365442D01*
X240069028Y-181380474D01*
X240078150Y-181396103D01*
X240088290Y-181412506D01*
X240111133Y-181448336D01*
X240083352Y-181189044D01*
X240076730Y-181199276D01*
X240070743Y-181209150D01*
X240065377Y-181218688D01*
X240060617Y-181227912D01*
X240056446Y-181236845D01*
X240052851Y-181245509D01*
X240049815Y-181253924D01*
X240047323Y-181262115D01*
X240045361Y-181270101D01*
X240043912Y-181277907D01*
X240042961Y-181285552D01*
X240042494Y-181293061D01*
X238933540Y-181293061D01*
X238925400Y-181272303D01*
X238912743Y-181232642D01*
X238902340Y-181191747D01*
X238894093Y-181149760D01*
X238883664Y-181063079D01*
X238880655Y-180973739D01*
X238882011Y-180939607D01*
X239197510Y-180939607D01*
X239197825Y-180974897D01*
X239200201Y-181010078D01*
X239204896Y-181045598D01*
X239212169Y-181081905D01*
X239222278Y-181119446D01*
X239235479Y-181158670D01*
X239252030Y-181200023D01*
X239272190Y-181243953D01*
X239296216Y-181290909D01*
X239740716Y-181226086D01*
X239833321Y-180966794D01*
X239797159Y-180936399D01*
X239761498Y-180907687D01*
X239726191Y-180880602D01*
X239691087Y-180855090D01*
X239656037Y-180831098D01*
X239620892Y-180808571D01*
X239585503Y-180787455D01*
X239549721Y-180767695D01*
X239513396Y-180749238D01*
X239476379Y-180732028D01*
X239440295Y-180716763D01*
X240370425Y-180716763D01*
X240374526Y-180735654D01*
X240379794Y-180754166D01*
X240386093Y-180772352D01*
X240393287Y-180790267D01*
X240401240Y-180807965D01*
X240409818Y-180825500D01*
X240428303Y-180860299D01*
X240447655Y-180895098D01*
X240466791Y-180930331D01*
X240475938Y-180948246D01*
X240484624Y-180966433D01*
X240492714Y-180984944D01*
X240500070Y-181003836D01*
X240549357Y-181093456D01*
X240574767Y-181137499D01*
X240600922Y-181180797D01*
X240628000Y-181223172D01*
X240656177Y-181264448D01*
X240685629Y-181304449D01*
X240716533Y-181342999D01*
X240749064Y-181379920D01*
X240783400Y-181415038D01*
X240819715Y-181448175D01*
X240858188Y-181479156D01*
X240878289Y-181493782D01*
X240898994Y-181507803D01*
X240920327Y-181521196D01*
X240942310Y-181533940D01*
X240964964Y-181546013D01*
X240988311Y-181557392D01*
X241012374Y-181568056D01*
X241037175Y-181577982D01*
X241067006Y-181589293D01*
X241097422Y-181599017D01*
X241128352Y-181607303D01*
X241159730Y-181614300D01*
X241191488Y-181620158D01*
X241223559Y-181625025D01*
X241255873Y-181629052D01*
X241288363Y-181632387D01*
X241353602Y-181637577D01*
X241418733Y-181641792D01*
X241483212Y-181646223D01*
X241546498Y-181652065D01*
X241710147Y-181665811D01*
X241790181Y-181670459D01*
X241829892Y-181671610D01*
X241869455Y-181671743D01*
X241908909Y-181670683D01*
X241948295Y-181668253D01*
X241987654Y-181664276D01*
X242027027Y-181658576D01*
X242066453Y-181650978D01*
X242105975Y-181641303D01*
X242145633Y-181629377D01*
X242185467Y-181615023D01*
X241896368Y-181518223D01*
X241764516Y-181471939D01*
X241636787Y-181424027D01*
X241509927Y-181372209D01*
X241380679Y-181314204D01*
X241314142Y-181282170D01*
X241245788Y-181247736D01*
X241175209Y-181210615D01*
X241101998Y-181170523D01*
X241055122Y-181143554D01*
X241008272Y-181114943D01*
X240979862Y-181096440D01*
X241629842Y-181096440D01*
X242713311Y-181448336D01*
X242707798Y-181439075D01*
X243704176Y-181439075D01*
X243806890Y-181414405D01*
X243940750Y-181377146D01*
X244094361Y-181330338D01*
X244256327Y-181277018D01*
X244415255Y-181220226D01*
X244559750Y-181162999D01*
X244623025Y-181135173D01*
X244678417Y-181108377D01*
X244724505Y-181082992D01*
X244759862Y-181059398D01*
X244597136Y-181047985D01*
X244516688Y-181042856D01*
X244437339Y-181039286D01*
X244359455Y-181038158D01*
X244283403Y-181040353D01*
X244209548Y-181046753D01*
X244173559Y-181051806D01*
X244138257Y-181058241D01*
X244103687Y-181066167D01*
X244069896Y-181075697D01*
X244036928Y-181086938D01*
X244004831Y-181100003D01*
X243973649Y-181115001D01*
X243943429Y-181132041D01*
X243914216Y-181151236D01*
X243886055Y-181172694D01*
X243858994Y-181196525D01*
X243833077Y-181222841D01*
X243808351Y-181251752D01*
X243784860Y-181283366D01*
X243762652Y-181317796D01*
X243741771Y-181355150D01*
X243722264Y-181395540D01*
X243704176Y-181439075D01*
X242707798Y-181439075D01*
X242665416Y-181367886D01*
X242637617Y-181322669D01*
X242607973Y-181277018D01*
X242592628Y-181254708D01*
X242577026Y-181233103D01*
X242561234Y-181212475D01*
X242545320Y-181193096D01*
X242529352Y-181175235D01*
X242513397Y-181159165D01*
X242497524Y-181145157D01*
X242489639Y-181139011D01*
X242481800Y-181133482D01*
X242465216Y-181123362D01*
X242446798Y-181113837D01*
X242404931Y-181096567D01*
X242357151Y-181081656D01*
X242304405Y-181069093D01*
X242247644Y-181058863D01*
X242187818Y-181050952D01*
X242125875Y-181045347D01*
X242062766Y-181042035D01*
X241999440Y-181041002D01*
X241936846Y-181042234D01*
X241875935Y-181045718D01*
X241817655Y-181051440D01*
X241762956Y-181059387D01*
X241712788Y-181069545D01*
X241668100Y-181081900D01*
X241629842Y-181096440D01*
X240979862Y-181096440D01*
X240914764Y-181054045D01*
X240729266Y-180926280D01*
X240637711Y-180864405D01*
X240592327Y-180835062D01*
X240547241Y-180807197D01*
X240502481Y-180781122D01*
X240458074Y-180757151D01*
X240414046Y-180735593D01*
X240370425Y-180716763D01*
X239440295Y-180716763D01*
X239438521Y-180716012D01*
X239399673Y-180701136D01*
X239359685Y-180687345D01*
X239318409Y-180674585D01*
X239275695Y-180662801D01*
X239231394Y-180651940D01*
X239206362Y-180828611D01*
X239202037Y-180866912D01*
X239199000Y-180903762D01*
X239197510Y-180939607D01*
X238882011Y-180939607D01*
X238884265Y-180882881D01*
X238893695Y-180791642D01*
X238908144Y-180701163D01*
X238926812Y-180612583D01*
X238948898Y-180527042D01*
X238973602Y-180445679D01*
X239000124Y-180369633D01*
X239027663Y-180300044D01*
X239379559Y-180364867D01*
X240212997Y-180364867D01*
X240165248Y-180256781D01*
X240136490Y-180189552D01*
X240122314Y-180154208D01*
X240108817Y-180118308D01*
X240096405Y-180082300D01*
X240085485Y-180046631D01*
X240083965Y-180040752D01*
X240407466Y-180040752D01*
X240438598Y-180108306D01*
X240472904Y-180175318D01*
X240510303Y-180241461D01*
X240550713Y-180306411D01*
X240594053Y-180369841D01*
X240640243Y-180431426D01*
X240689199Y-180490841D01*
X240740841Y-180547760D01*
X240795088Y-180601858D01*
X240851858Y-180652808D01*
X240911069Y-180700286D01*
X240972641Y-180743965D01*
X241036492Y-180783521D01*
X241102540Y-180818627D01*
X241170704Y-180848959D01*
X241205555Y-180862232D01*
X241240904Y-180874190D01*
X241268685Y-180901971D01*
X241268685Y-180874190D01*
X241240904Y-180874190D01*
X241225385Y-180800884D01*
X241207046Y-180727036D01*
X241186535Y-180652971D01*
X241164506Y-180579014D01*
X241074216Y-180290784D01*
X241031727Y-180179659D01*
X241370548Y-180179659D01*
X241565017Y-180790846D01*
X241630817Y-180776935D01*
X241699438Y-180766375D01*
X241770447Y-180759043D01*
X241843408Y-180754817D01*
X241917890Y-180753576D01*
X241993456Y-180755197D01*
X242069674Y-180759558D01*
X242146108Y-180766537D01*
X242222326Y-180776013D01*
X242297892Y-180787862D01*
X242372374Y-180801963D01*
X242445336Y-180818193D01*
X242516344Y-180836431D01*
X242584965Y-180856555D01*
X242650765Y-180878442D01*
X242713309Y-180901971D01*
X243194850Y-181152002D01*
X243202594Y-181152205D01*
X243211872Y-181151125D01*
X243234659Y-181145419D01*
X243262465Y-181135480D01*
X243294544Y-181121906D01*
X243330150Y-181105293D01*
X243368537Y-181086239D01*
X243450669Y-181043193D01*
X243615476Y-180954061D01*
X243686213Y-180917526D01*
X243716054Y-180903355D01*
X243719325Y-180901971D01*
X245139540Y-180901971D01*
X245213910Y-180861880D01*
X245284360Y-180821286D01*
X245351093Y-180779906D01*
X245414313Y-180737454D01*
X245474223Y-180693646D01*
X245531027Y-180648196D01*
X245584928Y-180600820D01*
X245636129Y-180551233D01*
X245684834Y-180499150D01*
X245731247Y-180444286D01*
X245775571Y-180386356D01*
X245818009Y-180325076D01*
X245858765Y-180260161D01*
X245898043Y-180191325D01*
X245936046Y-180118284D01*
X245972977Y-180040752D01*
X245945379Y-180034044D01*
X245914973Y-180027893D01*
X245882206Y-180022419D01*
X245847527Y-180017746D01*
X245811383Y-180013995D01*
X245774222Y-180011289D01*
X245736490Y-180009749D01*
X245698637Y-180009499D01*
X245661110Y-180010658D01*
X245624355Y-180013351D01*
X245588821Y-180017699D01*
X245554956Y-180023823D01*
X245523207Y-180031847D01*
X245494022Y-180041892D01*
X245480531Y-180047710D01*
X245467849Y-180054080D01*
X245456031Y-180061016D01*
X245445134Y-180068534D01*
X245439164Y-180073956D01*
X245433405Y-180079788D01*
X245422490Y-180092589D01*
X245412334Y-180106747D01*
X245402884Y-180122071D01*
X245394084Y-180138371D01*
X245385882Y-180155459D01*
X245378222Y-180173143D01*
X245371051Y-180191234D01*
X245357956Y-180227878D01*
X245346163Y-180263871D01*
X245335239Y-180297693D01*
X245324748Y-180327825D01*
X245139540Y-180901971D01*
X243719325Y-180901971D01*
X243741215Y-180892711D01*
X243810569Y-180866438D01*
X243879759Y-180843135D01*
X243948842Y-180822735D01*
X244017870Y-180805171D01*
X244086898Y-180790374D01*
X244155980Y-180778276D01*
X244225171Y-180768810D01*
X244294525Y-180761907D01*
X244364096Y-180757501D01*
X244433938Y-180755523D01*
X244504105Y-180755905D01*
X244574653Y-180758579D01*
X244645634Y-180763479D01*
X244717104Y-180770535D01*
X244789116Y-180779680D01*
X244861726Y-180790846D01*
X245056195Y-180179659D01*
X245039205Y-180174893D01*
X245022940Y-180169315D01*
X245007363Y-180162981D01*
X244992439Y-180155947D01*
X244978132Y-180148268D01*
X244964407Y-180140001D01*
X244951227Y-180131202D01*
X244938559Y-180121926D01*
X244926364Y-180112229D01*
X244914610Y-180102168D01*
X244892275Y-180081176D01*
X244871269Y-180059398D01*
X244851309Y-180037280D01*
X244813381Y-179993817D01*
X244794844Y-179973368D01*
X244776213Y-179954370D01*
X244766772Y-179945555D01*
X244757201Y-179937271D01*
X244747464Y-179929574D01*
X244737525Y-179922519D01*
X244727349Y-179916163D01*
X244716900Y-179910562D01*
X244706142Y-179905771D01*
X244695039Y-179901846D01*
X244682017Y-179898304D01*
X244668997Y-179896298D01*
X244655980Y-179895737D01*
X244642967Y-179896529D01*
X244629962Y-179898582D01*
X244616965Y-179901805D01*
X244603979Y-179906107D01*
X244591004Y-179911396D01*
X244578043Y-179917580D01*
X244565097Y-179924568D01*
X244552168Y-179932268D01*
X244539258Y-179940588D01*
X244513500Y-179958724D01*
X244487837Y-179978245D01*
X244436851Y-180018506D01*
X244411554Y-180037782D01*
X244386407Y-180055511D01*
X244373894Y-180063567D01*
X244361423Y-180070962D01*
X244348996Y-180077604D01*
X244336614Y-180083401D01*
X244324281Y-180088262D01*
X244311996Y-180092096D01*
X244299763Y-180094811D01*
X244287582Y-180096315D01*
X244275587Y-180096571D01*
X244263899Y-180095648D01*
X244252500Y-180093616D01*
X244241370Y-180090545D01*
X244230491Y-180086504D01*
X244219845Y-180081563D01*
X244209412Y-180075791D01*
X244199174Y-180069257D01*
X244189112Y-180062032D01*
X244179208Y-180054184D01*
X244159799Y-180036900D01*
X244140797Y-180017961D01*
X244122052Y-179997923D01*
X244084739Y-179956776D01*
X244065873Y-179936778D01*
X244046667Y-179917907D01*
X244026972Y-179900718D01*
X244016895Y-179892928D01*
X244006641Y-179885767D01*
X243996189Y-179879305D01*
X243985522Y-179873610D01*
X243974621Y-179868754D01*
X243963467Y-179864805D01*
X243951810Y-179861317D01*
X243939441Y-179859480D01*
X243926412Y-179859206D01*
X243912770Y-179860409D01*
X243898565Y-179863003D01*
X243883847Y-179866900D01*
X243868664Y-179872015D01*
X243853066Y-179878261D01*
X243837101Y-179885551D01*
X243820819Y-179893800D01*
X243787501Y-179912825D01*
X243753505Y-179934644D01*
X243719224Y-179958566D01*
X243481926Y-180142617D01*
X243222633Y-179661075D01*
X242879997Y-180142617D01*
X242846518Y-180102573D01*
X242825933Y-180079417D01*
X242803164Y-180054932D01*
X242778496Y-180029688D01*
X242752214Y-180004253D01*
X242724602Y-179979199D01*
X242695946Y-179955093D01*
X242666530Y-179932508D01*
X242636639Y-179912011D01*
X242606559Y-179894173D01*
X242591536Y-179886429D01*
X242576573Y-179879563D01*
X242561705Y-179873647D01*
X242546967Y-179868752D01*
X242532396Y-179864948D01*
X242518026Y-179862308D01*
X242503894Y-179860903D01*
X242490035Y-179860803D01*
X242476484Y-179862079D01*
X242463277Y-179864804D01*
X242454410Y-179867942D01*
X242445191Y-179872105D01*
X242435646Y-179877234D01*
X242425802Y-179883271D01*
X242405328Y-179897828D01*
X242383985Y-179915303D01*
X242361992Y-179935218D01*
X242339565Y-179957101D01*
X242316920Y-179980476D01*
X242294275Y-180004868D01*
X242249854Y-180054806D01*
X242208038Y-180103115D01*
X242170562Y-180145999D01*
X242153994Y-180164219D01*
X242139163Y-180179659D01*
X242101832Y-180135834D01*
X242079097Y-180110701D01*
X242054083Y-180084305D01*
X242027116Y-180057313D01*
X241998521Y-180030389D01*
X241968623Y-180004197D01*
X241937749Y-179979402D01*
X241906224Y-179956669D01*
X241874373Y-179936663D01*
X241858427Y-179927890D01*
X241842522Y-179920048D01*
X241826699Y-179913220D01*
X241810997Y-179907489D01*
X241795458Y-179902938D01*
X241780123Y-179899651D01*
X241765032Y-179897710D01*
X241750226Y-179897198D01*
X241735745Y-179898198D01*
X241721630Y-179900795D01*
X241707923Y-179905070D01*
X241694663Y-179911106D01*
X241682011Y-179918263D01*
X241670065Y-179925822D01*
X241658770Y-179933751D01*
X241648072Y-179942017D01*
X241637916Y-179950588D01*
X241628248Y-179959432D01*
X241619015Y-179968517D01*
X241610162Y-179977810D01*
X241593377Y-179996894D01*
X241577461Y-180016426D01*
X241546496Y-180055800D01*
X241530580Y-180075128D01*
X241513795Y-180093873D01*
X241504942Y-180102946D01*
X241495709Y-180111777D01*
X241486041Y-180120333D01*
X241475885Y-180128581D01*
X241465187Y-180136491D01*
X241453892Y-180144030D01*
X241441946Y-180151165D01*
X241429294Y-180157864D01*
X241415883Y-180164095D01*
X241401657Y-180169826D01*
X241386564Y-180175025D01*
X241370548Y-180179659D01*
X241031727Y-180179659D01*
X241029072Y-180172713D01*
X241022391Y-180157222D01*
X241015344Y-180142111D01*
X241007890Y-180127542D01*
X240999988Y-180113678D01*
X240991598Y-180100683D01*
X240982679Y-180088718D01*
X240978009Y-180083174D01*
X240973191Y-180077948D01*
X240968220Y-180073061D01*
X240963092Y-180068534D01*
X240952089Y-180061016D01*
X240939963Y-180054080D01*
X240926786Y-180047710D01*
X240912630Y-180041892D01*
X240881661Y-180031847D01*
X240847626Y-180023823D01*
X240811095Y-180017699D01*
X240772638Y-180013351D01*
X240732825Y-180010658D01*
X240692224Y-180009499D01*
X240651407Y-180009749D01*
X240610943Y-180011289D01*
X240571400Y-180013995D01*
X240533350Y-180017746D01*
X240497362Y-180022419D01*
X240464005Y-180027893D01*
X240433850Y-180034044D01*
X240407466Y-180040752D01*
X240083965Y-180040752D01*
X240076464Y-180011748D01*
X240069750Y-179978100D01*
X240065748Y-179946134D01*
X240064892Y-179930921D01*
X240064866Y-179916297D01*
X240065723Y-179902318D01*
X240067512Y-179889039D01*
X240070284Y-179876515D01*
X240074091Y-179864805D01*
X240082341Y-179848111D01*
X240093102Y-179832723D01*
X240106227Y-179818590D01*
X240121568Y-179805661D01*
X240138978Y-179793885D01*
X240158309Y-179783211D01*
X240179414Y-179773588D01*
X240202145Y-179764966D01*
X240251895Y-179750519D01*
X240306379Y-179739463D01*
X240364417Y-179731392D01*
X240424829Y-179725898D01*
X240486435Y-179722575D01*
X240548054Y-179721015D01*
X240666613Y-179721557D01*
X240851966Y-179725898D01*
X240759362Y-179374002D01*
X241333507Y-179725898D01*
X241345555Y-179726916D01*
X241357400Y-179726549D01*
X241369055Y-179724881D01*
X241380533Y-179721992D01*
X241391848Y-179717963D01*
X241403015Y-179712876D01*
X241414045Y-179706812D01*
X241424954Y-179699853D01*
X241435754Y-179692081D01*
X241446459Y-179683575D01*
X241467639Y-179664693D01*
X241488601Y-179643857D01*
X241509455Y-179621719D01*
X241551272Y-179576140D01*
X241572451Y-179554002D01*
X241593957Y-179533166D01*
X241615896Y-179514283D01*
X241627062Y-179505778D01*
X241638378Y-179498005D01*
X241649856Y-179491046D01*
X241661511Y-179484983D01*
X241673355Y-179479896D01*
X241685403Y-179475867D01*
X241699240Y-179473166D01*
X241712974Y-179471944D01*
X241726610Y-179472110D01*
X241740152Y-179473570D01*
X241753606Y-179476230D01*
X241766977Y-179479998D01*
X241780270Y-179484779D01*
X241793490Y-179490481D01*
X241806642Y-179497011D01*
X241819731Y-179504275D01*
X241845742Y-179520632D01*
X241871564Y-179538807D01*
X241897235Y-179558053D01*
X241948294Y-179596777D01*
X241973763Y-179614762D01*
X241999245Y-179630834D01*
X242012004Y-179637920D01*
X242024781Y-179644248D01*
X242037582Y-179649724D01*
X242050412Y-179654257D01*
X242063276Y-179657751D01*
X242076179Y-179660114D01*
X242089126Y-179661254D01*
X242102122Y-179661075D01*
X242112460Y-179659728D01*
X242122642Y-179657458D01*
X242132674Y-179654320D01*
X242142564Y-179650368D01*
X242152319Y-179645656D01*
X242161944Y-179640239D01*
X242171448Y-179634171D01*
X242180836Y-179627506D01*
X242199293Y-179612603D01*
X242217371Y-179595963D01*
X242235123Y-179578021D01*
X242252604Y-179559211D01*
X242286969Y-179520722D01*
X242303961Y-179501912D01*
X242320899Y-179483970D01*
X242337838Y-179467330D01*
X242354830Y-179452427D01*
X242363364Y-179445762D01*
X242371931Y-179439694D01*
X242380539Y-179434277D01*
X242389195Y-179429565D01*
X242400773Y-179425130D01*
X242412907Y-179422195D01*
X242425556Y-179420683D01*
X242438680Y-179420522D01*
X242452239Y-179421635D01*
X242466190Y-179423949D01*
X242480495Y-179427389D01*
X242495111Y-179431880D01*
X242509999Y-179437348D01*
X242525117Y-179443718D01*
X242555882Y-179458865D01*
X242587082Y-179476726D01*
X242618390Y-179496703D01*
X242649481Y-179518199D01*
X242680030Y-179540618D01*
X242738197Y-179585834D01*
X242790287Y-179627579D01*
X242833695Y-179661075D01*
X243185591Y-179049888D01*
X243435622Y-179429565D01*
G37*
G36*
X244674777Y-183125911D02*
G01*
X244725998Y-183132664D01*
X244778382Y-183142992D01*
X244803742Y-183148896D01*
X244829439Y-183156150D01*
X244855431Y-183164693D01*
X244881676Y-183174463D01*
X244934754Y-183197442D01*
X244988334Y-183224599D01*
X245042076Y-183255446D01*
X245095643Y-183289495D01*
X245148693Y-183326256D01*
X245200889Y-183365242D01*
X245251892Y-183405964D01*
X245301361Y-183447935D01*
X245348959Y-183490665D01*
X245394345Y-183533666D01*
X245437182Y-183576450D01*
X245477128Y-183618529D01*
X245513847Y-183659414D01*
X245546998Y-183698617D01*
X245037675Y-183633794D01*
X245037385Y-183686752D01*
X245036698Y-183715510D01*
X245035360Y-183744919D01*
X245033153Y-183774328D01*
X245031656Y-183788829D01*
X245029861Y-183803086D01*
X245027741Y-183817017D01*
X245025267Y-183830542D01*
X245022414Y-183843578D01*
X245019154Y-183856044D01*
X245008515Y-183885438D01*
X244995790Y-183912895D01*
X244981119Y-183938487D01*
X244964641Y-183962286D01*
X244946493Y-183984361D01*
X244926817Y-184004785D01*
X244905750Y-184023628D01*
X244883431Y-184040963D01*
X244860001Y-184056859D01*
X244835597Y-184071389D01*
X244810358Y-184084624D01*
X244784425Y-184096634D01*
X244731028Y-184117266D01*
X244676519Y-184133856D01*
X244622010Y-184146974D01*
X244568614Y-184157188D01*
X244517442Y-184165070D01*
X244469607Y-184171188D01*
X244388397Y-184180412D01*
X244357247Y-184184658D01*
X244333883Y-184189419D01*
X244302627Y-184198829D01*
X244274396Y-184209568D01*
X244248525Y-184221446D01*
X244224350Y-184234274D01*
X244201206Y-184247862D01*
X244178428Y-184262019D01*
X244131312Y-184291284D01*
X244105644Y-184306011D01*
X244077684Y-184320548D01*
X244046767Y-184334705D01*
X244012228Y-184348293D01*
X243973403Y-184361121D01*
X243929626Y-184372999D01*
X243880233Y-184383738D01*
X243824560Y-184393148D01*
X243811103Y-184290994D01*
X243805189Y-184245018D01*
X243800251Y-184200994D01*
X243796615Y-184157840D01*
X243795388Y-184136248D01*
X243794608Y-184114468D01*
X243794316Y-184092361D01*
X243794553Y-184069793D01*
X243795360Y-184046629D01*
X243796777Y-184022732D01*
X243802064Y-183975029D01*
X243809226Y-183927494D01*
X243824299Y-183856044D01*
X244176458Y-183856044D01*
X244315218Y-183858214D01*
X244394094Y-183857509D01*
X244434150Y-183855712D01*
X244473947Y-183852571D01*
X244512985Y-183847803D01*
X244550762Y-183841122D01*
X244586775Y-183832244D01*
X244603963Y-183826892D01*
X244620522Y-183820883D01*
X244636390Y-183814183D01*
X244651503Y-183806755D01*
X244665798Y-183798565D01*
X244679214Y-183789575D01*
X244691687Y-183779752D01*
X244703154Y-183769058D01*
X244713553Y-183757459D01*
X244722821Y-183744919D01*
X244727924Y-183734881D01*
X244732823Y-183722347D01*
X244737533Y-183707642D01*
X244742066Y-183691093D01*
X244750657Y-183653762D01*
X244758705Y-183612958D01*
X244773608Y-183531351D01*
X244780680Y-183495756D01*
X244784169Y-183480400D01*
X244787644Y-183467107D01*
X244758373Y-183455081D01*
X244729606Y-183445023D01*
X244701357Y-183436890D01*
X244673643Y-183430644D01*
X244646478Y-183426242D01*
X244619878Y-183423644D01*
X244593858Y-183422810D01*
X244568433Y-183423698D01*
X244543618Y-183426269D01*
X244519429Y-183430481D01*
X244495881Y-183436293D01*
X244472989Y-183443666D01*
X244450769Y-183452558D01*
X244429235Y-183462928D01*
X244408403Y-183474737D01*
X244388289Y-183487942D01*
X244368907Y-183502504D01*
X244350273Y-183518382D01*
X244332402Y-183535535D01*
X244315309Y-183553923D01*
X244299010Y-183573504D01*
X244283519Y-183594238D01*
X244268853Y-183616085D01*
X244255026Y-183639003D01*
X244242054Y-183662952D01*
X244229951Y-183687891D01*
X244218734Y-183713780D01*
X244208417Y-183740578D01*
X244199015Y-183768244D01*
X244190545Y-183796737D01*
X244183020Y-183826018D01*
X244176458Y-183856044D01*
X243824299Y-183856044D01*
X243829080Y-183833381D01*
X243841726Y-183787032D01*
X243856152Y-183741304D01*
X243872334Y-183696312D01*
X243890250Y-183652170D01*
X243909875Y-183608991D01*
X243931185Y-183566889D01*
X243954157Y-183525977D01*
X243978767Y-183486369D01*
X244004991Y-183448179D01*
X244032806Y-183411519D01*
X244062187Y-183376505D01*
X244093111Y-183343248D01*
X244125555Y-183311864D01*
X244159494Y-183282466D01*
X244194905Y-183255166D01*
X244231764Y-183230080D01*
X244270048Y-183207319D01*
X244309732Y-183186999D01*
X244350793Y-183169233D01*
X244393207Y-183154133D01*
X244436950Y-183141815D01*
X244481999Y-183132391D01*
X244528330Y-183125975D01*
X244575919Y-183122681D01*
X244624742Y-183122621D01*
X244674777Y-183125911D01*
G37*
G36*
X241792604Y-183104160D02*
G01*
X241839762Y-183107454D01*
X241885744Y-183113870D01*
X241930523Y-183123294D01*
X241974069Y-183135613D01*
X242016353Y-183150712D01*
X242057347Y-183168478D01*
X242097021Y-183188799D01*
X242135348Y-183211559D01*
X242172298Y-183236645D01*
X242207842Y-183263945D01*
X242241952Y-183293343D01*
X242274598Y-183324728D01*
X242305752Y-183357984D01*
X242335385Y-183392998D01*
X242363469Y-183429658D01*
X242389973Y-183467848D01*
X242414871Y-183507456D01*
X242438132Y-183548368D01*
X242479629Y-183633649D01*
X242514236Y-183722783D01*
X242541721Y-183814860D01*
X242561854Y-183908973D01*
X242574403Y-184004211D01*
X242575821Y-184029840D01*
X242576628Y-184054709D01*
X242576866Y-184078927D01*
X242576574Y-184102603D01*
X242574566Y-184148760D01*
X242570931Y-184194049D01*
X242565993Y-184239338D01*
X242560079Y-184285496D01*
X242546622Y-184383887D01*
X242518774Y-184379387D01*
X242492475Y-184374580D01*
X242467648Y-184369484D01*
X242444215Y-184364119D01*
X242422098Y-184358502D01*
X242401218Y-184352654D01*
X242381499Y-184346592D01*
X242362861Y-184340335D01*
X242345227Y-184333901D01*
X242328519Y-184327310D01*
X242312658Y-184320580D01*
X242297568Y-184313729D01*
X242269384Y-184299741D01*
X242243344Y-184285495D01*
X242148135Y-184228920D01*
X242123451Y-184215624D01*
X242097167Y-184202966D01*
X242083229Y-184196922D01*
X242068658Y-184191094D01*
X242053374Y-184185500D01*
X242037300Y-184180158D01*
X242013936Y-184175499D01*
X241982786Y-184171531D01*
X241901577Y-184163229D01*
X241853742Y-184157674D01*
X241802570Y-184150369D01*
X241749173Y-184140704D01*
X241694664Y-184128068D01*
X241640155Y-184111851D01*
X241613248Y-184102209D01*
X241586758Y-184091443D01*
X241560825Y-184079476D01*
X241535586Y-184066232D01*
X241511182Y-184051635D01*
X241487752Y-184035609D01*
X241465433Y-184018077D01*
X241444366Y-183998963D01*
X241424689Y-183978191D01*
X241406542Y-183955684D01*
X241390063Y-183931366D01*
X241375392Y-183905161D01*
X241362667Y-183876992D01*
X241352028Y-183846783D01*
X241348768Y-183834317D01*
X241345915Y-183821281D01*
X241343442Y-183807757D01*
X241341321Y-183793825D01*
X241339526Y-183779569D01*
X241338030Y-183765067D01*
X241335823Y-183735658D01*
X241334485Y-183706249D01*
X241333797Y-183677491D01*
X241333508Y-183624533D01*
X240824185Y-183689356D01*
X240857336Y-183650151D01*
X240894054Y-183609250D01*
X240934001Y-183567128D01*
X240976837Y-183524261D01*
X241022224Y-183481121D01*
X241037760Y-183467107D01*
X241583540Y-183467107D01*
X241587015Y-183480400D01*
X241590503Y-183495756D01*
X241597575Y-183531351D01*
X241612478Y-183612958D01*
X241620527Y-183653762D01*
X241629118Y-183691093D01*
X241633651Y-183707642D01*
X241638360Y-183722347D01*
X241643259Y-183734881D01*
X241648362Y-183744919D01*
X241657657Y-183757432D01*
X241668131Y-183768954D01*
X241679718Y-183779523D01*
X241692349Y-183789177D01*
X241705957Y-183797957D01*
X241720474Y-183805901D01*
X241735832Y-183813048D01*
X241751963Y-183819436D01*
X241786274Y-183830096D01*
X241822863Y-183838192D01*
X241861189Y-183844037D01*
X241900709Y-183847941D01*
X241940879Y-183850218D01*
X241981159Y-183851179D01*
X242059872Y-183850401D01*
X242194727Y-183846783D01*
X242189005Y-183817598D01*
X242182268Y-183789107D01*
X242174530Y-183761351D01*
X242165806Y-183734374D01*
X242156113Y-183708218D01*
X242145466Y-183682924D01*
X242133878Y-183658536D01*
X242121367Y-183635096D01*
X242107947Y-183612646D01*
X242093633Y-183591229D01*
X242078441Y-183570887D01*
X242062386Y-183551662D01*
X242045483Y-183533597D01*
X242027748Y-183516734D01*
X242009195Y-183501116D01*
X241989840Y-183486785D01*
X241969699Y-183473783D01*
X241948786Y-183462153D01*
X241927116Y-183451937D01*
X241904706Y-183443178D01*
X241881570Y-183435917D01*
X241857723Y-183430198D01*
X241833182Y-183426063D01*
X241807960Y-183423554D01*
X241782074Y-183422713D01*
X241755538Y-183423583D01*
X241728368Y-183426206D01*
X241700579Y-183430626D01*
X241672186Y-183436883D01*
X241643206Y-183445020D01*
X241613652Y-183455081D01*
X241583540Y-183467107D01*
X241037760Y-183467107D01*
X241069821Y-183438186D01*
X241119291Y-183395928D01*
X241170293Y-183354824D01*
X241222489Y-183315347D01*
X241275540Y-183277973D01*
X241329106Y-183243177D01*
X241382849Y-183211432D01*
X241436428Y-183183215D01*
X241489506Y-183158999D01*
X241541743Y-183139259D01*
X241592800Y-183124471D01*
X241644369Y-183114143D01*
X241694879Y-183107390D01*
X241744300Y-183104101D01*
X241792604Y-183104160D01*
G37*
D11*
G36*
X149145391Y-146924438D02*
G01*
X149097266Y-146972207D01*
X149021911Y-146892388D01*
X148999010Y-146777414D01*
X148947809Y-146660815D01*
X148892164Y-146586739D01*
X148771266Y-146505944D01*
X148620313Y-146469215D01*
X148595307Y-146466556D01*
X148445927Y-146458710D01*
X148385203Y-146461670D01*
X148234231Y-146469582D01*
X148145929Y-146474209D01*
X148257202Y-148597430D01*
X148294691Y-148716655D01*
X148345237Y-148751180D01*
X148493976Y-148762072D01*
X148581239Y-148760212D01*
X148633773Y-148796592D01*
X148568500Y-148839145D01*
X148509163Y-148826969D01*
X148352579Y-148817769D01*
X148204108Y-148813847D01*
X148151215Y-148815156D01*
X148000740Y-148830200D01*
X147891904Y-148851369D01*
X147744794Y-148877208D01*
X147594599Y-148890162D01*
X147582867Y-148890800D01*
X147484777Y-148867203D01*
X147631409Y-148824989D01*
X147663660Y-148822364D01*
X147805409Y-148789140D01*
X147828828Y-148767849D01*
X147843333Y-148642187D01*
X147842410Y-148621002D01*
X147731041Y-146495953D01*
X147564437Y-146507338D01*
X147411159Y-146521629D01*
X147265064Y-146543506D01*
X147216933Y-146556526D01*
X147088579Y-146627096D01*
X146996980Y-146736754D01*
X146946417Y-146867043D01*
X146927553Y-146985028D01*
X146874288Y-147088708D01*
X146819900Y-147016962D01*
X146820200Y-146938681D01*
X146824698Y-146856512D01*
X146828284Y-146731527D01*
X146833144Y-146596755D01*
X146838130Y-146474434D01*
X146840251Y-146425240D01*
X147028304Y-146415384D01*
X147886466Y-146409542D01*
X148036807Y-146403433D01*
X148190168Y-146395109D01*
X148336470Y-146386181D01*
X148356234Y-146384923D01*
X149050058Y-146309429D01*
X149064128Y-146432568D01*
X149083088Y-146566618D01*
X149104660Y-146702898D01*
X149126852Y-146833814D01*
X149135009Y-146880346D01*
X149140042Y-146906375D01*
X149145391Y-146924438D01*
G37*
G36*
X150510646Y-148698229D02*
G01*
X150462202Y-148739900D01*
X150420494Y-148742086D01*
X150263427Y-148713172D01*
X150113204Y-148712581D01*
X149944954Y-148717916D01*
X149847160Y-148722606D01*
X149697026Y-148735844D01*
X149638430Y-148743940D01*
X149500147Y-148789708D01*
X149472911Y-148791747D01*
X149414964Y-148736085D01*
X149520923Y-148671833D01*
X149670450Y-148650587D01*
X149716031Y-148628590D01*
X149736969Y-148503102D01*
X149734786Y-148426442D01*
X149638596Y-146591033D01*
X149627273Y-146464172D01*
X149607342Y-146400677D01*
X149456177Y-146370727D01*
X149374644Y-146370683D01*
X149292969Y-146338276D01*
X149341284Y-146294166D01*
X149907639Y-146264485D01*
X150059637Y-146276735D01*
X150152617Y-146290778D01*
X150310088Y-146243393D01*
X150380314Y-146295354D01*
X150252021Y-146359102D01*
X150199147Y-146366605D01*
X150072757Y-146405024D01*
X150056817Y-146531056D01*
X150057743Y-146552557D01*
X150155371Y-148415406D01*
X150164834Y-148538871D01*
X150187936Y-148630762D01*
X150338384Y-148660816D01*
X150462502Y-148661620D01*
X150510646Y-148698229D01*
G37*
G36*
X153185710Y-146133655D02*
G01*
X153083023Y-146176335D01*
X152990094Y-146181205D01*
X152914726Y-146185155D01*
X152835991Y-146208847D01*
X152829751Y-146327795D01*
X152936199Y-148358940D01*
X152942101Y-148485415D01*
X152943281Y-148578077D01*
X152920064Y-148611089D01*
X152859130Y-148568424D01*
X152286476Y-147917897D01*
X152191588Y-147810716D01*
X152092895Y-147698629D01*
X151990399Y-147581636D01*
X151884099Y-147459736D01*
X151773995Y-147332931D01*
X151660086Y-147201220D01*
X151542374Y-147064603D01*
X151420858Y-146923080D01*
X151295538Y-146776651D01*
X151209878Y-146676306D01*
X151122527Y-146573780D01*
X151078218Y-146521700D01*
X151186055Y-148509360D01*
X151252083Y-148565209D01*
X151400149Y-148569813D01*
X151533896Y-148566338D01*
X151591492Y-148615292D01*
X151485885Y-148686251D01*
X151336162Y-148677589D01*
X151245077Y-148669522D01*
X151114319Y-148666592D01*
X151042169Y-148689939D01*
X150897707Y-148715166D01*
X150806113Y-148721877D01*
X150764404Y-148724063D01*
X150666155Y-148697416D01*
X150748642Y-148661298D01*
X150904627Y-148647706D01*
X151034103Y-148620046D01*
X151067435Y-148498054D01*
X151066487Y-148467933D01*
X150975346Y-146728868D01*
X150959476Y-146596672D01*
X150916573Y-146471222D01*
X150822486Y-146374239D01*
X150813454Y-146369874D01*
X150669761Y-146345404D01*
X150572327Y-146347047D01*
X150460072Y-146291174D01*
X150520092Y-146232387D01*
X150672481Y-146236783D01*
X150734906Y-146243141D01*
X150875052Y-146257197D01*
X150991905Y-146246793D01*
X151144294Y-146226425D01*
X151258402Y-146193694D01*
X152800891Y-147947191D01*
X152718060Y-146366666D01*
X152708427Y-146242660D01*
X152706671Y-146233357D01*
X152671158Y-146199754D01*
X152519563Y-146195768D01*
X152469295Y-146198104D01*
X152322741Y-146184392D01*
X152316866Y-146173686D01*
X152415990Y-146133028D01*
X152562335Y-146125358D01*
X152680143Y-146119184D01*
X152759901Y-146115004D01*
X152835268Y-146111054D01*
X152961125Y-146104458D01*
X153091372Y-146097632D01*
X153185710Y-146133655D01*
G37*
G36*
X155684702Y-148161701D02*
G01*
X155687984Y-148283818D01*
X155688419Y-148414836D01*
X155688178Y-148466019D01*
X155642079Y-148468434D01*
X155518858Y-148455326D01*
X155366893Y-148445272D01*
X155300514Y-148447203D01*
X153554808Y-148528297D01*
X153482169Y-148500308D01*
X153593924Y-148462656D01*
X153741906Y-148440284D01*
X153782639Y-148423417D01*
X153807491Y-148296187D01*
X153807168Y-148289448D01*
X153703756Y-146316231D01*
X153683735Y-146193479D01*
X153664399Y-146167267D01*
X153515917Y-146154672D01*
X153439373Y-146157659D01*
X153357378Y-146119155D01*
X153406013Y-146081143D01*
X153443331Y-146079187D01*
X153600741Y-146070937D01*
X153762492Y-146062460D01*
X153918150Y-146054303D01*
X153992856Y-146050387D01*
X154139201Y-146042718D01*
X154286779Y-146034984D01*
X154319937Y-146033246D01*
X154366036Y-146030830D01*
X154443225Y-146061637D01*
X154421184Y-146089084D01*
X154277481Y-146105176D01*
X154135820Y-146144382D01*
X154134358Y-146146306D01*
X154119116Y-146268722D01*
X154121229Y-146329816D01*
X154228796Y-148382303D01*
X154384328Y-148377118D01*
X154531138Y-148370123D01*
X154543629Y-148369472D01*
X154689939Y-148360864D01*
X154846705Y-148349036D01*
X155003669Y-148333174D01*
X155148865Y-148312323D01*
X155233827Y-148294779D01*
X155373615Y-148245155D01*
X155485065Y-148157056D01*
X155498518Y-148137218D01*
X155546697Y-148019402D01*
X155566020Y-147892388D01*
X155567775Y-147848655D01*
X155615359Y-147804583D01*
X155668628Y-147854987D01*
X155669571Y-147942985D01*
X155671265Y-147975303D01*
X155677512Y-148024503D01*
X155684702Y-148161701D01*
G37*
G36*
X156943967Y-148361073D02*
G01*
X156895523Y-148402744D01*
X156853814Y-148404930D01*
X156696748Y-148376016D01*
X156546525Y-148375425D01*
X156378275Y-148380760D01*
X156280481Y-148385450D01*
X156130347Y-148398688D01*
X156071751Y-148406784D01*
X155933468Y-148452552D01*
X155906231Y-148454591D01*
X155848284Y-148398929D01*
X155954243Y-148334677D01*
X156103771Y-148313431D01*
X156149352Y-148291434D01*
X156170290Y-148165946D01*
X156168107Y-148089286D01*
X156071917Y-146253877D01*
X156060593Y-146127016D01*
X156040663Y-146063521D01*
X155889498Y-146033571D01*
X155807964Y-146033527D01*
X155726289Y-146001120D01*
X155774605Y-145957010D01*
X156340960Y-145927329D01*
X156492957Y-145939579D01*
X156585937Y-145953622D01*
X156743408Y-145906237D01*
X156813635Y-145958198D01*
X156685342Y-146021946D01*
X156632468Y-146029449D01*
X156506078Y-146067868D01*
X156490137Y-146193900D01*
X156491064Y-146215401D01*
X156588692Y-148078250D01*
X156598155Y-148201715D01*
X156621256Y-148293606D01*
X156771705Y-148323660D01*
X156895823Y-148324464D01*
X156943967Y-148361073D01*
G37*
G36*
X158787670Y-145834571D02*
G01*
X158942256Y-145870805D01*
X159088980Y-145925185D01*
X159227841Y-145997712D01*
X159358839Y-146088386D01*
X159409037Y-146129736D01*
X159523965Y-146241482D01*
X159620903Y-146362709D01*
X159699851Y-146493418D01*
X159760809Y-146633608D01*
X159796624Y-146752587D01*
X159820924Y-146877634D01*
X159833711Y-147008750D01*
X159834514Y-147136289D01*
X159823325Y-147259451D01*
X159792474Y-147407248D01*
X159742886Y-147548204D01*
X159674560Y-147682320D01*
X159587496Y-147809596D01*
X159504354Y-147906491D01*
X159388319Y-148016148D01*
X159263076Y-148108732D01*
X159128627Y-148184243D01*
X158984972Y-148242682D01*
X158832110Y-148284048D01*
X158670041Y-148308341D01*
X158602636Y-148313278D01*
X158425799Y-148313634D01*
X158257034Y-148295743D01*
X158096341Y-148259605D01*
X157943720Y-148205220D01*
X157799171Y-148132588D01*
X157662695Y-148041709D01*
X157610364Y-148000248D01*
X157490565Y-147888319D01*
X157389592Y-147767133D01*
X157307444Y-147636690D01*
X157244122Y-147496991D01*
X157207018Y-147378567D01*
X157181963Y-147254218D01*
X157168956Y-147123946D01*
X157168239Y-147030648D01*
X157636454Y-147030648D01*
X157639618Y-147116400D01*
X157650374Y-147250755D01*
X157668133Y-147376986D01*
X157700180Y-147523349D01*
X157743170Y-147657017D01*
X157797102Y-147777991D01*
X157876265Y-147906401D01*
X157921756Y-147963751D01*
X158022801Y-148062769D01*
X158136094Y-148139563D01*
X158283751Y-148201067D01*
X158448081Y-148232322D01*
X158602204Y-148235036D01*
X158766496Y-148212557D01*
X158910430Y-148163408D01*
X159034008Y-148087589D01*
X159137228Y-147985099D01*
X159187070Y-147914559D01*
X159255994Y-147783275D01*
X159300882Y-147663034D01*
X159334362Y-147532941D01*
X159356435Y-147392997D01*
X159367099Y-147243202D01*
X159367418Y-147116272D01*
X159364839Y-147050443D01*
X159351906Y-146897734D01*
X159329597Y-146754248D01*
X159297912Y-146619987D01*
X159256850Y-146494948D01*
X159206413Y-146379134D01*
X159130181Y-146247336D01*
X159039298Y-146129950D01*
X158998843Y-146087031D01*
X158885638Y-145996394D01*
X158754393Y-145934294D01*
X158605107Y-145900730D01*
X158437782Y-145895704D01*
X158280143Y-145914513D01*
X158126531Y-145959644D01*
X157998044Y-146030157D01*
X157926346Y-146091266D01*
X157834104Y-146202661D01*
X157759433Y-146332124D01*
X157712347Y-146448702D01*
X157676506Y-146576844D01*
X157651910Y-146716549D01*
X157638560Y-146867817D01*
X157636454Y-147030648D01*
X157168239Y-147030648D01*
X157167933Y-146990886D01*
X157179100Y-146863359D01*
X157202457Y-146741365D01*
X157248796Y-146596653D01*
X157314182Y-146460586D01*
X157398616Y-146333165D01*
X157502097Y-146214388D01*
X157620697Y-146107944D01*
X157750512Y-146017900D01*
X157891540Y-145944256D01*
X158043781Y-145887013D01*
X158207236Y-145846169D01*
X158381904Y-145821726D01*
X158454911Y-145816541D01*
X158625222Y-145816483D01*
X158787670Y-145834571D01*
G37*
G36*
X162636662Y-145638352D02*
G01*
X162533975Y-145681031D01*
X162441046Y-145685902D01*
X162365678Y-145689851D01*
X162286943Y-145713544D01*
X162280703Y-145832491D01*
X162387151Y-147863636D01*
X162393053Y-147990112D01*
X162394233Y-148082774D01*
X162371016Y-148115786D01*
X162310081Y-148073121D01*
X161737428Y-147422594D01*
X161642540Y-147315413D01*
X161543847Y-147203325D01*
X161441351Y-147086332D01*
X161335051Y-146964433D01*
X161224947Y-146837628D01*
X161111038Y-146705917D01*
X160993326Y-146569299D01*
X160871810Y-146427776D01*
X160746490Y-146281347D01*
X160660830Y-146181002D01*
X160573479Y-146078477D01*
X160529170Y-146026397D01*
X160637007Y-148014056D01*
X160703035Y-148069906D01*
X160851101Y-148074510D01*
X160984848Y-148071034D01*
X161042444Y-148119989D01*
X160936836Y-148190948D01*
X160787113Y-148182286D01*
X160696029Y-148174219D01*
X160565270Y-148171288D01*
X160493121Y-148194636D01*
X160348659Y-148219862D01*
X160257065Y-148226573D01*
X160215356Y-148228759D01*
X160117107Y-148202113D01*
X160199593Y-148165995D01*
X160355579Y-148152403D01*
X160485055Y-148124742D01*
X160518387Y-148002751D01*
X160517439Y-147972630D01*
X160426298Y-146233565D01*
X160410428Y-146101369D01*
X160367525Y-145975919D01*
X160273437Y-145878936D01*
X160264406Y-145874571D01*
X160120713Y-145850101D01*
X160023279Y-145851744D01*
X159911024Y-145795871D01*
X159971044Y-145737084D01*
X160123433Y-145741479D01*
X160185858Y-145747838D01*
X160326004Y-145761894D01*
X160442857Y-145751490D01*
X160595246Y-145731122D01*
X160709354Y-145698391D01*
X162251843Y-147451888D01*
X162169012Y-145871363D01*
X162159379Y-145747357D01*
X162157623Y-145738053D01*
X162122110Y-145704451D01*
X161970515Y-145700465D01*
X161920247Y-145702801D01*
X161773692Y-145689088D01*
X161767818Y-145678383D01*
X161866942Y-145637724D01*
X162013287Y-145630055D01*
X162131095Y-145623880D01*
X162210853Y-145619701D01*
X162286220Y-145615751D01*
X162412077Y-145609155D01*
X162542324Y-145602329D01*
X162636662Y-145638352D01*
G37*
D12*
X147071787Y-127663568D02*
X147147873Y-127659581D01*
X147147873Y-127659581D02*
X147225953Y-127693636D01*
X147225953Y-127693636D02*
X147265990Y-127729686D01*
X147265990Y-127729686D02*
X147308020Y-127803778D01*
X147308020Y-127803778D02*
X147354039Y-127953956D01*
X147354039Y-127953956D02*
X147364007Y-128144171D01*
X147364007Y-128144171D02*
X147333939Y-128298337D01*
X147333939Y-128298337D02*
X147299884Y-128376417D01*
X147299884Y-128376417D02*
X147263834Y-128416454D01*
X147263834Y-128416454D02*
X147189742Y-128458484D01*
X147189742Y-128458484D02*
X147113656Y-128462472D01*
X147113656Y-128462472D02*
X147035576Y-128428416D01*
X147035576Y-128428416D02*
X146995539Y-128392367D01*
X146995539Y-128392367D02*
X146953509Y-128318275D01*
X146953509Y-128318275D02*
X146907491Y-128168096D01*
X146907491Y-128168096D02*
X146897522Y-127977881D01*
X146897522Y-127977881D02*
X146927590Y-127823715D01*
X146927590Y-127823715D02*
X146961646Y-127745636D01*
X146961646Y-127745636D02*
X146997695Y-127705599D01*
X146997695Y-127705599D02*
X147071787Y-127663568D01*
X147646421Y-127709748D02*
X147682470Y-127669711D01*
X147682470Y-127669711D02*
X147756562Y-127627681D01*
X147756562Y-127627681D02*
X147946777Y-127617712D01*
X147946777Y-127617712D02*
X148024857Y-127651768D01*
X148024857Y-127651768D02*
X148064894Y-127687817D01*
X148064894Y-127687817D02*
X148106924Y-127761909D01*
X148106924Y-127761909D02*
X148110912Y-127837995D01*
X148110912Y-127837995D02*
X148078850Y-127954118D01*
X148078850Y-127954118D02*
X147646259Y-128434559D01*
X147646259Y-128434559D02*
X148140818Y-128408641D01*
X148407281Y-127669873D02*
X148443331Y-127629836D01*
X148443331Y-127629836D02*
X148517423Y-127587806D01*
X148517423Y-127587806D02*
X148707638Y-127577837D01*
X148707638Y-127577837D02*
X148785718Y-127611893D01*
X148785718Y-127611893D02*
X148825755Y-127647942D01*
X148825755Y-127647942D02*
X148867785Y-127722034D01*
X148867785Y-127722034D02*
X148871773Y-127798120D01*
X148871773Y-127798120D02*
X148839711Y-127914243D01*
X148839711Y-127914243D02*
X148407120Y-128394684D01*
X148407120Y-128394684D02*
X148901679Y-128368766D01*
X158129421Y-127054020D02*
X158205507Y-127050033D01*
X158205507Y-127050033D02*
X158283587Y-127084088D01*
X158283587Y-127084088D02*
X158323624Y-127120138D01*
X158323624Y-127120138D02*
X158365654Y-127194230D01*
X158365654Y-127194230D02*
X158411673Y-127344408D01*
X158411673Y-127344408D02*
X158421641Y-127534623D01*
X158421641Y-127534623D02*
X158391573Y-127688789D01*
X158391573Y-127688789D02*
X158357518Y-127766869D01*
X158357518Y-127766869D02*
X158321468Y-127806906D01*
X158321468Y-127806906D02*
X158247376Y-127848936D01*
X158247376Y-127848936D02*
X158171290Y-127852924D01*
X158171290Y-127852924D02*
X158093210Y-127818868D01*
X158093210Y-127818868D02*
X158053173Y-127782819D01*
X158053173Y-127782819D02*
X158011143Y-127708727D01*
X158011143Y-127708727D02*
X157965125Y-127558548D01*
X157965125Y-127558548D02*
X157955156Y-127368333D01*
X157955156Y-127368333D02*
X157985224Y-127214167D01*
X157985224Y-127214167D02*
X158019280Y-127136088D01*
X158019280Y-127136088D02*
X158055329Y-127096051D01*
X158055329Y-127096051D02*
X158129421Y-127054020D01*
X158890282Y-127014145D02*
X158966368Y-127010158D01*
X158966368Y-127010158D02*
X159044448Y-127044213D01*
X159044448Y-127044213D02*
X159084485Y-127080263D01*
X159084485Y-127080263D02*
X159126515Y-127154355D01*
X159126515Y-127154355D02*
X159172533Y-127304533D01*
X159172533Y-127304533D02*
X159182502Y-127494748D01*
X159182502Y-127494748D02*
X159152434Y-127648914D01*
X159152434Y-127648914D02*
X159118379Y-127726994D01*
X159118379Y-127726994D02*
X159082329Y-127767031D01*
X159082329Y-127767031D02*
X159008237Y-127809061D01*
X159008237Y-127809061D02*
X158932151Y-127813049D01*
X158932151Y-127813049D02*
X158854071Y-127778993D01*
X158854071Y-127778993D02*
X158814034Y-127742944D01*
X158814034Y-127742944D02*
X158772004Y-127668852D01*
X158772004Y-127668852D02*
X158725986Y-127518673D01*
X158725986Y-127518673D02*
X158716017Y-127328458D01*
X158716017Y-127328458D02*
X158746085Y-127174292D01*
X158746085Y-127174292D02*
X158780141Y-127096213D01*
X158780141Y-127096213D02*
X158816190Y-127056176D01*
X158816190Y-127056176D02*
X158890282Y-127014145D01*
X159464915Y-127060325D02*
X159500965Y-127020288D01*
X159500965Y-127020288D02*
X159575057Y-126978258D01*
X159575057Y-126978258D02*
X159765272Y-126968289D01*
X159765272Y-126968289D02*
X159843352Y-127002345D01*
X159843352Y-127002345D02*
X159883389Y-127038394D01*
X159883389Y-127038394D02*
X159925419Y-127112486D01*
X159925419Y-127112486D02*
X159929407Y-127188572D01*
X159929407Y-127188572D02*
X159897345Y-127304695D01*
X159897345Y-127304695D02*
X159464754Y-127785136D01*
X159464754Y-127785136D02*
X159959313Y-127759218D01*
X146939713Y-120048139D02*
X146861633Y-120014083D01*
X146861633Y-120014083D02*
X146747504Y-120020064D01*
X146747504Y-120020064D02*
X146635368Y-120064089D01*
X146635368Y-120064089D02*
X146563270Y-120144162D01*
X146563270Y-120144162D02*
X146529214Y-120222242D01*
X146529214Y-120222242D02*
X146499146Y-120376408D01*
X146499146Y-120376408D02*
X146505128Y-120490537D01*
X146505128Y-120490537D02*
X146551146Y-120640715D01*
X146551146Y-120640715D02*
X146593176Y-120714808D01*
X146593176Y-120714808D02*
X146673250Y-120786906D01*
X146673250Y-120786906D02*
X146789373Y-120818968D01*
X146789373Y-120818968D02*
X146865459Y-120814980D01*
X146865459Y-120814980D02*
X146977594Y-120770956D01*
X146977594Y-120770956D02*
X147013643Y-120730919D01*
X147013643Y-120730919D02*
X146999687Y-120464618D01*
X146999687Y-120464618D02*
X146847515Y-120472593D01*
X147360018Y-120789062D02*
X147318149Y-119990158D01*
X147318149Y-119990158D02*
X147816534Y-120765137D01*
X147816534Y-120765137D02*
X147774666Y-119966233D01*
X148196964Y-120745199D02*
X148155096Y-119946296D01*
X148155096Y-119946296D02*
X148345311Y-119936327D01*
X148345311Y-119936327D02*
X148461434Y-119968389D01*
X148461434Y-119968389D02*
X148541507Y-120040487D01*
X148541507Y-120040487D02*
X148583538Y-120114579D01*
X148583538Y-120114579D02*
X148629556Y-120264758D01*
X148629556Y-120264758D02*
X148635537Y-120378887D01*
X148635537Y-120378887D02*
X148605469Y-120533053D01*
X148605469Y-120533053D02*
X148571413Y-120611133D01*
X148571413Y-120611133D02*
X148499315Y-120691206D01*
X148499315Y-120691206D02*
X148387180Y-120735230D01*
X148387180Y-120735230D02*
X148196964Y-120745199D01*
X147203151Y-130170128D02*
X147279237Y-130166141D01*
X147279237Y-130166141D02*
X147357317Y-130200196D01*
X147357317Y-130200196D02*
X147397354Y-130236246D01*
X147397354Y-130236246D02*
X147439384Y-130310338D01*
X147439384Y-130310338D02*
X147485403Y-130460516D01*
X147485403Y-130460516D02*
X147495371Y-130650731D01*
X147495371Y-130650731D02*
X147465303Y-130804897D01*
X147465303Y-130804897D02*
X147431248Y-130882977D01*
X147431248Y-130882977D02*
X147395198Y-130923014D01*
X147395198Y-130923014D02*
X147321106Y-130965044D01*
X147321106Y-130965044D02*
X147245020Y-130969032D01*
X147245020Y-130969032D02*
X147166940Y-130934976D01*
X147166940Y-130934976D02*
X147126903Y-130898927D01*
X147126903Y-130898927D02*
X147084873Y-130824835D01*
X147084873Y-130824835D02*
X147038855Y-130674656D01*
X147038855Y-130674656D02*
X147028886Y-130484441D01*
X147028886Y-130484441D02*
X147058954Y-130330275D01*
X147058954Y-130330275D02*
X147093010Y-130252196D01*
X147093010Y-130252196D02*
X147129059Y-130212159D01*
X147129059Y-130212159D02*
X147203151Y-130170128D01*
X147777785Y-130216308D02*
X147813834Y-130176271D01*
X147813834Y-130176271D02*
X147887926Y-130134241D01*
X147887926Y-130134241D02*
X148078141Y-130124272D01*
X148078141Y-130124272D02*
X148156221Y-130158328D01*
X148156221Y-130158328D02*
X148196258Y-130194377D01*
X148196258Y-130194377D02*
X148238288Y-130268469D01*
X148238288Y-130268469D02*
X148242276Y-130344555D01*
X148242276Y-130344555D02*
X148210214Y-130460678D01*
X148210214Y-130460678D02*
X147777623Y-130941119D01*
X147777623Y-130941119D02*
X148272182Y-130915201D01*
X148929044Y-130346711D02*
X148956957Y-130879313D01*
X148722879Y-130052335D02*
X148562570Y-130632949D01*
X148562570Y-130632949D02*
X149057130Y-130607031D01*
X157863554Y-121980982D02*
X157939640Y-121976995D01*
X157939640Y-121976995D02*
X158017720Y-122011050D01*
X158017720Y-122011050D02*
X158057757Y-122047100D01*
X158057757Y-122047100D02*
X158099787Y-122121192D01*
X158099787Y-122121192D02*
X158145806Y-122271370D01*
X158145806Y-122271370D02*
X158155774Y-122461585D01*
X158155774Y-122461585D02*
X158125706Y-122615751D01*
X158125706Y-122615751D02*
X158091651Y-122693831D01*
X158091651Y-122693831D02*
X158055601Y-122733868D01*
X158055601Y-122733868D02*
X157981509Y-122775898D01*
X157981509Y-122775898D02*
X157905423Y-122779886D01*
X157905423Y-122779886D02*
X157827343Y-122745830D01*
X157827343Y-122745830D02*
X157787306Y-122709781D01*
X157787306Y-122709781D02*
X157745276Y-122635689D01*
X157745276Y-122635689D02*
X157699258Y-122485510D01*
X157699258Y-122485510D02*
X157689289Y-122295295D01*
X157689289Y-122295295D02*
X157719357Y-122141129D01*
X157719357Y-122141129D02*
X157753413Y-122063050D01*
X157753413Y-122063050D02*
X157789462Y-122023013D01*
X157789462Y-122023013D02*
X157863554Y-121980982D01*
X158396157Y-121953070D02*
X158890716Y-121927151D01*
X158890716Y-121927151D02*
X158640365Y-122245452D01*
X158640365Y-122245452D02*
X158754494Y-122239470D01*
X158754494Y-122239470D02*
X158832574Y-122273526D01*
X158832574Y-122273526D02*
X158872611Y-122309575D01*
X158872611Y-122309575D02*
X158914641Y-122383667D01*
X158914641Y-122383667D02*
X158924610Y-122573883D01*
X158924610Y-122573883D02*
X158890555Y-122651962D01*
X158890555Y-122651962D02*
X158854505Y-122691999D01*
X158854505Y-122691999D02*
X158780413Y-122734030D01*
X158780413Y-122734030D02*
X158552155Y-122745992D01*
X158552155Y-122745992D02*
X158474075Y-122711937D01*
X158474075Y-122711937D02*
X158434038Y-122675887D01*
X159693446Y-122686180D02*
X159236930Y-122710105D01*
X159465188Y-122698142D02*
X159423319Y-121899239D01*
X159423319Y-121899239D02*
X159353214Y-122017355D01*
X159353214Y-122017355D02*
X159281116Y-122097429D01*
X159281116Y-122097429D02*
X159207023Y-122139459D01*
X146804874Y-122570557D02*
X146880960Y-122566570D01*
X146880960Y-122566570D02*
X146959040Y-122600625D01*
X146959040Y-122600625D02*
X146999077Y-122636675D01*
X146999077Y-122636675D02*
X147041107Y-122710767D01*
X147041107Y-122710767D02*
X147087126Y-122860945D01*
X147087126Y-122860945D02*
X147097094Y-123051160D01*
X147097094Y-123051160D02*
X147067026Y-123205326D01*
X147067026Y-123205326D02*
X147032971Y-123283406D01*
X147032971Y-123283406D02*
X146996921Y-123323443D01*
X146996921Y-123323443D02*
X146922829Y-123365473D01*
X146922829Y-123365473D02*
X146846743Y-123369461D01*
X146846743Y-123369461D02*
X146768663Y-123335405D01*
X146768663Y-123335405D02*
X146728626Y-123299356D01*
X146728626Y-123299356D02*
X146686596Y-123225264D01*
X146686596Y-123225264D02*
X146640578Y-123075085D01*
X146640578Y-123075085D02*
X146630609Y-122884870D01*
X146630609Y-122884870D02*
X146660677Y-122730704D01*
X146660677Y-122730704D02*
X146694733Y-122652625D01*
X146694733Y-122652625D02*
X146730782Y-122612588D01*
X146730782Y-122612588D02*
X146804874Y-122570557D01*
X147873905Y-123315630D02*
X147417389Y-123339555D01*
X147645647Y-123327592D02*
X147603778Y-122528689D01*
X147603778Y-122528689D02*
X147533673Y-122646805D01*
X147533673Y-122646805D02*
X147461575Y-122726879D01*
X147461575Y-122726879D02*
X147387483Y-122768909D01*
X148098338Y-122502770D02*
X148630940Y-122474857D01*
X148630940Y-122474857D02*
X148330422Y-123291705D01*
X157574554Y-114403819D02*
X157496474Y-114369763D01*
X157496474Y-114369763D02*
X157382345Y-114375744D01*
X157382345Y-114375744D02*
X157270209Y-114419769D01*
X157270209Y-114419769D02*
X157198111Y-114499842D01*
X157198111Y-114499842D02*
X157164055Y-114577922D01*
X157164055Y-114577922D02*
X157133987Y-114732088D01*
X157133987Y-114732088D02*
X157139969Y-114846217D01*
X157139969Y-114846217D02*
X157185987Y-114996395D01*
X157185987Y-114996395D02*
X157228017Y-115070488D01*
X157228017Y-115070488D02*
X157308091Y-115142586D01*
X157308091Y-115142586D02*
X157424214Y-115174648D01*
X157424214Y-115174648D02*
X157500300Y-115170660D01*
X157500300Y-115170660D02*
X157612435Y-115126636D01*
X157612435Y-115126636D02*
X157648484Y-115086599D01*
X157648484Y-115086599D02*
X157634528Y-114820298D01*
X157634528Y-114820298D02*
X157482356Y-114828273D01*
X157994859Y-115144742D02*
X157952990Y-114345838D01*
X157952990Y-114345838D02*
X158451375Y-115120817D01*
X158451375Y-115120817D02*
X158409507Y-114321913D01*
X158831805Y-115100879D02*
X158789937Y-114301976D01*
X158789937Y-114301976D02*
X158980152Y-114292007D01*
X158980152Y-114292007D02*
X159096275Y-114324069D01*
X159096275Y-114324069D02*
X159176348Y-114396167D01*
X159176348Y-114396167D02*
X159218379Y-114470259D01*
X159218379Y-114470259D02*
X159264397Y-114620438D01*
X159264397Y-114620438D02*
X159270378Y-114734567D01*
X159270378Y-114734567D02*
X159240310Y-114888733D01*
X159240310Y-114888733D02*
X159206254Y-114966813D01*
X159206254Y-114966813D02*
X159134156Y-115046886D01*
X159134156Y-115046886D02*
X159022021Y-115090910D01*
X159022021Y-115090910D02*
X158831805Y-115100879D01*
X147644254Y-133491595D02*
X147187738Y-133515520D01*
X147415996Y-133503557D02*
X147374127Y-132704654D01*
X147374127Y-132704654D02*
X147304023Y-132822770D01*
X147304023Y-132822770D02*
X147231924Y-132902844D01*
X147231924Y-132902844D02*
X147157832Y-132944874D01*
X148096945Y-132666772D02*
X148173031Y-132662785D01*
X148173031Y-132662785D02*
X148251111Y-132696840D01*
X148251111Y-132696840D02*
X148291148Y-132732890D01*
X148291148Y-132732890D02*
X148333178Y-132806982D01*
X148333178Y-132806982D02*
X148379196Y-132957160D01*
X148379196Y-132957160D02*
X148389165Y-133147375D01*
X148389165Y-133147375D02*
X148359097Y-133301541D01*
X148359097Y-133301541D02*
X148325042Y-133379621D01*
X148325042Y-133379621D02*
X148288992Y-133419658D01*
X148288992Y-133419658D02*
X148214900Y-133461688D01*
X148214900Y-133461688D02*
X148138814Y-133465676D01*
X148138814Y-133465676D02*
X148060734Y-133431620D01*
X148060734Y-133431620D02*
X148020697Y-133395571D01*
X148020697Y-133395571D02*
X147978667Y-133321479D01*
X147978667Y-133321479D02*
X147932649Y-133171300D01*
X147932649Y-133171300D02*
X147922680Y-132981085D01*
X147922680Y-132981085D02*
X147952748Y-132826919D01*
X147952748Y-132826919D02*
X147986804Y-132748840D01*
X147986804Y-132748840D02*
X148022853Y-132708803D01*
X148022853Y-132708803D02*
X148096945Y-132666772D01*
X148857806Y-132626897D02*
X148933892Y-132622910D01*
X148933892Y-132622910D02*
X149011972Y-132656965D01*
X149011972Y-132656965D02*
X149052009Y-132693015D01*
X149052009Y-132693015D02*
X149094039Y-132767107D01*
X149094039Y-132767107D02*
X149140057Y-132917285D01*
X149140057Y-132917285D02*
X149150026Y-133107500D01*
X149150026Y-133107500D02*
X149119958Y-133261666D01*
X149119958Y-133261666D02*
X149085902Y-133339746D01*
X149085902Y-133339746D02*
X149049853Y-133379783D01*
X149049853Y-133379783D02*
X148975761Y-133421813D01*
X148975761Y-133421813D02*
X148899675Y-133425801D01*
X148899675Y-133425801D02*
X148821595Y-133391745D01*
X148821595Y-133391745D02*
X148781558Y-133355696D01*
X148781558Y-133355696D02*
X148739528Y-133281604D01*
X148739528Y-133281604D02*
X148693510Y-133131425D01*
X148693510Y-133131425D02*
X148683541Y-132941210D01*
X148683541Y-132941210D02*
X148713609Y-132787044D01*
X148713609Y-132787044D02*
X148747664Y-132708965D01*
X148747664Y-132708965D02*
X148783714Y-132668928D01*
X148783714Y-132668928D02*
X148857806Y-132626897D01*
X158051705Y-117685248D02*
X157765466Y-117318774D01*
X157595189Y-117709173D02*
X157553320Y-116910270D01*
X157553320Y-116910270D02*
X157857664Y-116894320D01*
X157857664Y-116894320D02*
X157935744Y-116928375D01*
X157935744Y-116928375D02*
X157975781Y-116964425D01*
X157975781Y-116964425D02*
X158017811Y-117038517D01*
X158017811Y-117038517D02*
X158023792Y-117152646D01*
X158023792Y-117152646D02*
X157989737Y-117230726D01*
X157989737Y-117230726D02*
X157953688Y-117270763D01*
X157953688Y-117270763D02*
X157879595Y-117312793D01*
X157879595Y-117312793D02*
X157575251Y-117328743D01*
X158354055Y-117631255D02*
X158470178Y-117663317D01*
X158470178Y-117663317D02*
X158660393Y-117653348D01*
X158660393Y-117653348D02*
X158734486Y-117611318D01*
X158734486Y-117611318D02*
X158770535Y-117571281D01*
X158770535Y-117571281D02*
X158804591Y-117493201D01*
X158804591Y-117493201D02*
X158800603Y-117417115D01*
X158800603Y-117417115D02*
X158758573Y-117343023D01*
X158758573Y-117343023D02*
X158718536Y-117306974D01*
X158718536Y-117306974D02*
X158640456Y-117272918D01*
X158640456Y-117272918D02*
X158486290Y-117242850D01*
X158486290Y-117242850D02*
X158408210Y-117208794D01*
X158408210Y-117208794D02*
X158368174Y-117172745D01*
X158368174Y-117172745D02*
X158326143Y-117098653D01*
X158326143Y-117098653D02*
X158322155Y-117022567D01*
X158322155Y-117022567D02*
X158356211Y-116944487D01*
X158356211Y-116944487D02*
X158392260Y-116904450D01*
X158392260Y-116904450D02*
X158466353Y-116862420D01*
X158466353Y-116862420D02*
X158656568Y-116852451D01*
X158656568Y-116852451D02*
X158772691Y-116884513D01*
X158998955Y-116834507D02*
X159455472Y-116810582D01*
X159269082Y-117621448D02*
X159227213Y-116822545D01*
X158836391Y-135448525D02*
X158379875Y-135472450D01*
X158608133Y-135460487D02*
X158566264Y-134661584D01*
X158566264Y-134661584D02*
X158496160Y-134779700D01*
X158496160Y-134779700D02*
X158424061Y-134859774D01*
X158424061Y-134859774D02*
X158349969Y-134901804D01*
X159597252Y-135408650D02*
X159140736Y-135432575D01*
X159368994Y-135420612D02*
X159327125Y-134621709D01*
X159327125Y-134621709D02*
X159257020Y-134739825D01*
X159257020Y-134739825D02*
X159184922Y-134819899D01*
X159184922Y-134819899D02*
X159110830Y-134861929D01*
X160358113Y-135368775D02*
X159901597Y-135392700D01*
X160129855Y-135380737D02*
X160087986Y-134581834D01*
X160087986Y-134581834D02*
X160017881Y-134699950D01*
X160017881Y-134699950D02*
X159945783Y-134780024D01*
X159945783Y-134780024D02*
X159871690Y-134822054D01*
X146401887Y-114881109D02*
X146477973Y-114877122D01*
X146477973Y-114877122D02*
X146556053Y-114911177D01*
X146556053Y-114911177D02*
X146596090Y-114947227D01*
X146596090Y-114947227D02*
X146638120Y-115021319D01*
X146638120Y-115021319D02*
X146684139Y-115171497D01*
X146684139Y-115171497D02*
X146694107Y-115361712D01*
X146694107Y-115361712D02*
X146664039Y-115515878D01*
X146664039Y-115515878D02*
X146629984Y-115593958D01*
X146629984Y-115593958D02*
X146593934Y-115633995D01*
X146593934Y-115633995D02*
X146519842Y-115676025D01*
X146519842Y-115676025D02*
X146443756Y-115680013D01*
X146443756Y-115680013D02*
X146365676Y-115645957D01*
X146365676Y-115645957D02*
X146325639Y-115609908D01*
X146325639Y-115609908D02*
X146283609Y-115535816D01*
X146283609Y-115535816D02*
X146237591Y-115385637D01*
X146237591Y-115385637D02*
X146227622Y-115195422D01*
X146227622Y-115195422D02*
X146257690Y-115041256D01*
X146257690Y-115041256D02*
X146291746Y-114963177D01*
X146291746Y-114963177D02*
X146327795Y-114923140D01*
X146327795Y-114923140D02*
X146401887Y-114881109D01*
X147162748Y-114841234D02*
X147238834Y-114837247D01*
X147238834Y-114837247D02*
X147316914Y-114871302D01*
X147316914Y-114871302D02*
X147356951Y-114907352D01*
X147356951Y-114907352D02*
X147398981Y-114981444D01*
X147398981Y-114981444D02*
X147444999Y-115131622D01*
X147444999Y-115131622D02*
X147454968Y-115321837D01*
X147454968Y-115321837D02*
X147424900Y-115476003D01*
X147424900Y-115476003D02*
X147390845Y-115554083D01*
X147390845Y-115554083D02*
X147354795Y-115594120D01*
X147354795Y-115594120D02*
X147280703Y-115636150D01*
X147280703Y-115636150D02*
X147204617Y-115640138D01*
X147204617Y-115640138D02*
X147126537Y-115606082D01*
X147126537Y-115606082D02*
X147086500Y-115570033D01*
X147086500Y-115570033D02*
X147044470Y-115495941D01*
X147044470Y-115495941D02*
X146998452Y-115345762D01*
X146998452Y-115345762D02*
X146988483Y-115155547D01*
X146988483Y-115155547D02*
X147018551Y-115001381D01*
X147018551Y-115001381D02*
X147052607Y-114923302D01*
X147052607Y-114923302D02*
X147088656Y-114883265D01*
X147088656Y-114883265D02*
X147162748Y-114841234D01*
X147903510Y-115145740D02*
X147825430Y-115111685D01*
X147825430Y-115111685D02*
X147785393Y-115075636D01*
X147785393Y-115075636D02*
X147743363Y-115001543D01*
X147743363Y-115001543D02*
X147741369Y-114963500D01*
X147741369Y-114963500D02*
X147775424Y-114885420D01*
X147775424Y-114885420D02*
X147811474Y-114845384D01*
X147811474Y-114845384D02*
X147885566Y-114803353D01*
X147885566Y-114803353D02*
X148037738Y-114795378D01*
X148037738Y-114795378D02*
X148115818Y-114829434D01*
X148115818Y-114829434D02*
X148155855Y-114865483D01*
X148155855Y-114865483D02*
X148197885Y-114939575D01*
X148197885Y-114939575D02*
X148199879Y-114977618D01*
X148199879Y-114977618D02*
X148165823Y-115055698D01*
X148165823Y-115055698D02*
X148129774Y-115095735D01*
X148129774Y-115095735D02*
X148055682Y-115137765D01*
X148055682Y-115137765D02*
X147903510Y-115145740D01*
X147903510Y-115145740D02*
X147829417Y-115187771D01*
X147829417Y-115187771D02*
X147793368Y-115227808D01*
X147793368Y-115227808D02*
X147759313Y-115305887D01*
X147759313Y-115305887D02*
X147767288Y-115458060D01*
X147767288Y-115458060D02*
X147809318Y-115532152D01*
X147809318Y-115532152D02*
X147849355Y-115568201D01*
X147849355Y-115568201D02*
X147927435Y-115602257D01*
X147927435Y-115602257D02*
X148079607Y-115594282D01*
X148079607Y-115594282D02*
X148153699Y-115552251D01*
X148153699Y-115552251D02*
X148189748Y-115512214D01*
X148189748Y-115512214D02*
X148223804Y-115434135D01*
X148223804Y-115434135D02*
X148215829Y-115281962D01*
X148215829Y-115281962D02*
X148173798Y-115207870D01*
X148173798Y-115207870D02*
X148133762Y-115171821D01*
X148133762Y-115171821D02*
X148055682Y-115137765D01*
D13*
X149267715Y-139843367D02*
X149320051Y-140841996D01*
X149275191Y-139986028D02*
X149342784Y-139910959D01*
X149342784Y-139910959D02*
X149481707Y-139832152D01*
X149481707Y-139832152D02*
X149695699Y-139820937D01*
X149695699Y-139820937D02*
X149842098Y-139884791D01*
X149842098Y-139884791D02*
X149920906Y-140023714D01*
X149920906Y-140023714D02*
X149962027Y-140808352D01*
X150675334Y-140770969D02*
X150622998Y-139772339D01*
X150596830Y-139273025D02*
X150529237Y-139348094D01*
X150529237Y-139348094D02*
X150604306Y-139415686D01*
X150604306Y-139415686D02*
X150671899Y-139340617D01*
X150671899Y-139340617D02*
X150596830Y-139273025D01*
X150596830Y-139273025D02*
X150604306Y-139415686D01*
X152026879Y-140628611D02*
X151887956Y-140707418D01*
X151887956Y-140707418D02*
X151602633Y-140722371D01*
X151602633Y-140722371D02*
X151456233Y-140658517D01*
X151456233Y-140658517D02*
X151381164Y-140590925D01*
X151381164Y-140590925D02*
X151302357Y-140452002D01*
X151302357Y-140452002D02*
X151279927Y-140024018D01*
X151279927Y-140024018D02*
X151343781Y-139877618D01*
X151343781Y-139877618D02*
X151411374Y-139802549D01*
X151411374Y-139802549D02*
X151550297Y-139723742D01*
X151550297Y-139723742D02*
X151835620Y-139708789D01*
X151835620Y-139708789D02*
X151982019Y-139772643D01*
X153239500Y-140565060D02*
X153100577Y-140643867D01*
X153100577Y-140643867D02*
X152815254Y-140658821D01*
X152815254Y-140658821D02*
X152668854Y-140594966D01*
X152668854Y-140594966D02*
X152590047Y-140456043D01*
X152590047Y-140456043D02*
X152560141Y-139885398D01*
X152560141Y-139885398D02*
X152623995Y-139738998D01*
X152623995Y-139738998D02*
X152762918Y-139660191D01*
X152762918Y-139660191D02*
X153048241Y-139645238D01*
X153048241Y-139645238D02*
X153194641Y-139709092D01*
X153194641Y-139709092D02*
X153273448Y-139848015D01*
X153273448Y-139848015D02*
X153280924Y-139990676D01*
X153280924Y-139990676D02*
X152575094Y-140170721D01*
X153949068Y-140456347D02*
X154024137Y-140523939D01*
X154024137Y-140523939D02*
X153956545Y-140599008D01*
X153956545Y-140599008D02*
X153881476Y-140531416D01*
X153881476Y-140531416D02*
X153949068Y-140456347D01*
X153949068Y-140456347D02*
X153956545Y-140599008D01*
X153926638Y-140028363D02*
X153810448Y-139176133D01*
X153810448Y-139176133D02*
X153878041Y-139101064D01*
X153878041Y-139101064D02*
X153953110Y-139168656D01*
X153953110Y-139168656D02*
X153926638Y-140028363D01*
X153926638Y-140028363D02*
X153878041Y-139101064D01*
X154617516Y-139562996D02*
X154669852Y-140561625D01*
X154624992Y-139705657D02*
X154692585Y-139630588D01*
X154692585Y-139630588D02*
X154831508Y-139551781D01*
X154831508Y-139551781D02*
X155045500Y-139540566D01*
X155045500Y-139540566D02*
X155191900Y-139604420D01*
X155191900Y-139604420D02*
X155270707Y-139743343D01*
X155270707Y-139743343D02*
X155311828Y-140527981D01*
X156667111Y-140456953D02*
X156625990Y-139672316D01*
X156625990Y-139672316D02*
X156547183Y-139533393D01*
X156547183Y-139533393D02*
X156400783Y-139469539D01*
X156400783Y-139469539D02*
X156115460Y-139484492D01*
X156115460Y-139484492D02*
X155976537Y-139563299D01*
X156663373Y-140385623D02*
X156524450Y-140464430D01*
X156524450Y-140464430D02*
X156167796Y-140483121D01*
X156167796Y-140483121D02*
X156021397Y-140419267D01*
X156021397Y-140419267D02*
X155942589Y-140280344D01*
X155942589Y-140280344D02*
X155935113Y-140137683D01*
X155935113Y-140137683D02*
X155998967Y-139991283D01*
X155998967Y-139991283D02*
X156137890Y-139912476D01*
X156137890Y-139912476D02*
X156494543Y-139893784D01*
X156494543Y-139893784D02*
X156633466Y-139814977D01*
X157328082Y-139420941D02*
X157380418Y-140419570D01*
X157335559Y-139563602D02*
X157403151Y-139488533D01*
X157403151Y-139488533D02*
X157542074Y-139409726D01*
X157542074Y-139409726D02*
X157756066Y-139398511D01*
X157756066Y-139398511D02*
X157902466Y-139462365D01*
X157902466Y-139462365D02*
X157981273Y-139601288D01*
X157981273Y-139601288D02*
X158022394Y-140385926D01*
X158949693Y-140337328D02*
X158803293Y-140273474D01*
X158803293Y-140273474D02*
X158728225Y-140205882D01*
X158728225Y-140205882D02*
X158649417Y-140066959D01*
X158649417Y-140066959D02*
X158626988Y-139638975D01*
X158626988Y-139638975D02*
X158690842Y-139492575D01*
X158690842Y-139492575D02*
X158758434Y-139417506D01*
X158758434Y-139417506D02*
X158897357Y-139338699D01*
X158897357Y-139338699D02*
X159111349Y-139327484D01*
X159111349Y-139327484D02*
X159257749Y-139391338D01*
X159257749Y-139391338D02*
X159332818Y-139458930D01*
X159332818Y-139458930D02*
X159411625Y-139597853D01*
X159411625Y-139597853D02*
X159434055Y-140025837D01*
X159434055Y-140025837D02*
X159370201Y-140172237D01*
X159370201Y-140172237D02*
X159302608Y-140247306D01*
X159302608Y-140247306D02*
X159163685Y-140326113D01*
X159163685Y-140326113D02*
X158949693Y-140337328D01*
D12*
X146940947Y-125166994D02*
X147017033Y-125163007D01*
X147017033Y-125163007D02*
X147095113Y-125197062D01*
X147095113Y-125197062D02*
X147135150Y-125233112D01*
X147135150Y-125233112D02*
X147177180Y-125307204D01*
X147177180Y-125307204D02*
X147223199Y-125457382D01*
X147223199Y-125457382D02*
X147233167Y-125647597D01*
X147233167Y-125647597D02*
X147203099Y-125801763D01*
X147203099Y-125801763D02*
X147169044Y-125879843D01*
X147169044Y-125879843D02*
X147132994Y-125919880D01*
X147132994Y-125919880D02*
X147058902Y-125961910D01*
X147058902Y-125961910D02*
X146982816Y-125965898D01*
X146982816Y-125965898D02*
X146904736Y-125931842D01*
X146904736Y-125931842D02*
X146864699Y-125895793D01*
X146864699Y-125895793D02*
X146822669Y-125821701D01*
X146822669Y-125821701D02*
X146776651Y-125671522D01*
X146776651Y-125671522D02*
X146766682Y-125481307D01*
X146766682Y-125481307D02*
X146796750Y-125327141D01*
X146796750Y-125327141D02*
X146830806Y-125249062D01*
X146830806Y-125249062D02*
X146866855Y-125209025D01*
X146866855Y-125209025D02*
X146940947Y-125166994D01*
X147515581Y-125213174D02*
X147551630Y-125173137D01*
X147551630Y-125173137D02*
X147625722Y-125131107D01*
X147625722Y-125131107D02*
X147815937Y-125121138D01*
X147815937Y-125121138D02*
X147894017Y-125155194D01*
X147894017Y-125155194D02*
X147934054Y-125191243D01*
X147934054Y-125191243D02*
X147976084Y-125265335D01*
X147976084Y-125265335D02*
X147980072Y-125341421D01*
X147980072Y-125341421D02*
X147948010Y-125457544D01*
X147948010Y-125457544D02*
X147515419Y-125937985D01*
X147515419Y-125937985D02*
X148009978Y-125912067D01*
X148462669Y-125087244D02*
X148538755Y-125083257D01*
X148538755Y-125083257D02*
X148616835Y-125117312D01*
X148616835Y-125117312D02*
X148656872Y-125153362D01*
X148656872Y-125153362D02*
X148698902Y-125227454D01*
X148698902Y-125227454D02*
X148744920Y-125377632D01*
X148744920Y-125377632D02*
X148754889Y-125567847D01*
X148754889Y-125567847D02*
X148724821Y-125722013D01*
X148724821Y-125722013D02*
X148690765Y-125800093D01*
X148690765Y-125800093D02*
X148654716Y-125840130D01*
X148654716Y-125840130D02*
X148580624Y-125882160D01*
X148580624Y-125882160D02*
X148504538Y-125886148D01*
X148504538Y-125886148D02*
X148426458Y-125852092D01*
X148426458Y-125852092D02*
X148386421Y-125816043D01*
X148386421Y-125816043D02*
X148344391Y-125741951D01*
X148344391Y-125741951D02*
X148298373Y-125591772D01*
X148298373Y-125591772D02*
X148288404Y-125401557D01*
X148288404Y-125401557D02*
X148318472Y-125247391D01*
X148318472Y-125247391D02*
X148352527Y-125169312D01*
X148352527Y-125169312D02*
X148388577Y-125129275D01*
X148388577Y-125129275D02*
X148462669Y-125087244D01*
X157557581Y-112624173D02*
X157271342Y-112257699D01*
X157101064Y-112648098D02*
X157059196Y-111849194D01*
X157059196Y-111849194D02*
X157363540Y-111833244D01*
X157363540Y-111833244D02*
X157441620Y-111867300D01*
X157441620Y-111867300D02*
X157481656Y-111903349D01*
X157481656Y-111903349D02*
X157523687Y-111977441D01*
X157523687Y-111977441D02*
X157529668Y-112091570D01*
X157529668Y-112091570D02*
X157495613Y-112169650D01*
X157495613Y-112169650D02*
X157459563Y-112209687D01*
X157459563Y-112209687D02*
X157385471Y-112251717D01*
X157385471Y-112251717D02*
X157081127Y-112267667D01*
X157849962Y-112379964D02*
X158230393Y-112360027D01*
X157785839Y-112612210D02*
X158010271Y-111799350D01*
X158010271Y-111799350D02*
X158318441Y-112584298D01*
X158466787Y-111775425D02*
X158698871Y-112564360D01*
X158698871Y-112564360D02*
X158821137Y-111985740D01*
X158821137Y-111985740D02*
X159003215Y-112548410D01*
X159003215Y-112548410D02*
X159151562Y-111739538D01*
X157464320Y-119458420D02*
X157772490Y-120243367D01*
X157772490Y-120243367D02*
X157996923Y-119430507D01*
X158757621Y-120115443D02*
X158721572Y-120155480D01*
X158721572Y-120155480D02*
X158609436Y-120199504D01*
X158609436Y-120199504D02*
X158533350Y-120203492D01*
X158533350Y-120203492D02*
X158417228Y-120171430D01*
X158417228Y-120171430D02*
X158337154Y-120099332D01*
X158337154Y-120099332D02*
X158295123Y-120025239D01*
X158295123Y-120025239D02*
X158249105Y-119875061D01*
X158249105Y-119875061D02*
X158243124Y-119760932D01*
X158243124Y-119760932D02*
X158273192Y-119606766D01*
X158273192Y-119606766D02*
X158307248Y-119528686D01*
X158307248Y-119528686D02*
X158379346Y-119448613D01*
X158379346Y-119448613D02*
X158491482Y-119404588D01*
X158491482Y-119404588D02*
X158567568Y-119400601D01*
X158567568Y-119400601D02*
X158683691Y-119432663D01*
X158683691Y-119432663D02*
X158723727Y-119468712D01*
X159556525Y-120073575D02*
X159520475Y-120113611D01*
X159520475Y-120113611D02*
X159408340Y-120157636D01*
X159408340Y-120157636D02*
X159332254Y-120161623D01*
X159332254Y-120161623D02*
X159216131Y-120129561D01*
X159216131Y-120129561D02*
X159136058Y-120057463D01*
X159136058Y-120057463D02*
X159094027Y-119983371D01*
X159094027Y-119983371D02*
X159048009Y-119833192D01*
X159048009Y-119833192D02*
X159042028Y-119719063D01*
X159042028Y-119719063D02*
X159072096Y-119564897D01*
X159072096Y-119564897D02*
X159106151Y-119486817D01*
X159106151Y-119486817D02*
X159178250Y-119406744D01*
X159178250Y-119406744D02*
X159290385Y-119362720D01*
X159290385Y-119362720D02*
X159366471Y-119358732D01*
X159366471Y-119358732D02*
X159482594Y-119390794D01*
X159482594Y-119390794D02*
X159522631Y-119426843D01*
X158570524Y-130375487D02*
X158114008Y-130399412D01*
X158342266Y-130387449D02*
X158300397Y-129588546D01*
X158300397Y-129588546D02*
X158230293Y-129706662D01*
X158230293Y-129706662D02*
X158158194Y-129786736D01*
X158158194Y-129786736D02*
X158084102Y-129828766D01*
X159331385Y-130335612D02*
X158874869Y-130359537D01*
X159103127Y-130347574D02*
X159061258Y-129548671D01*
X159061258Y-129548671D02*
X158991153Y-129666787D01*
X158991153Y-129666787D02*
X158919055Y-129746861D01*
X158919055Y-129746861D02*
X158844963Y-129788891D01*
X160012334Y-129498827D02*
X159631904Y-129518764D01*
X159631904Y-129518764D02*
X159613798Y-129901188D01*
X159613798Y-129901188D02*
X159649848Y-129861152D01*
X159649848Y-129861152D02*
X159723940Y-129819121D01*
X159723940Y-129819121D02*
X159914155Y-129809152D01*
X159914155Y-129809152D02*
X159992235Y-129843208D01*
X159992235Y-129843208D02*
X160032272Y-129879257D01*
X160032272Y-129879257D02*
X160074302Y-129953349D01*
X160074302Y-129953349D02*
X160084271Y-130143565D01*
X160084271Y-130143565D02*
X160050215Y-130221644D01*
X160050215Y-130221644D02*
X160014166Y-130261681D01*
X160014166Y-130261681D02*
X159940074Y-130303712D01*
X159940074Y-130303712D02*
X159749859Y-130313680D01*
X159749859Y-130313680D02*
X159671779Y-130279625D01*
X159671779Y-130279625D02*
X159631742Y-130243576D01*
X147910121Y-138564633D02*
X147453605Y-138588558D01*
X147681863Y-138576595D02*
X147639994Y-137777692D01*
X147639994Y-137777692D02*
X147569890Y-137895808D01*
X147569890Y-137895808D02*
X147497791Y-137975882D01*
X147497791Y-137975882D02*
X147423699Y-138017912D01*
X148362812Y-137739810D02*
X148438898Y-137735823D01*
X148438898Y-137735823D02*
X148516978Y-137769878D01*
X148516978Y-137769878D02*
X148557015Y-137805928D01*
X148557015Y-137805928D02*
X148599045Y-137880020D01*
X148599045Y-137880020D02*
X148645063Y-138030198D01*
X148645063Y-138030198D02*
X148655032Y-138220413D01*
X148655032Y-138220413D02*
X148624964Y-138374579D01*
X148624964Y-138374579D02*
X148590909Y-138452659D01*
X148590909Y-138452659D02*
X148554859Y-138492696D01*
X148554859Y-138492696D02*
X148480767Y-138534726D01*
X148480767Y-138534726D02*
X148404681Y-138538714D01*
X148404681Y-138538714D02*
X148326601Y-138504658D01*
X148326601Y-138504658D02*
X148286564Y-138468609D01*
X148286564Y-138468609D02*
X148244534Y-138394517D01*
X148244534Y-138394517D02*
X148198516Y-138244338D01*
X148198516Y-138244338D02*
X148188547Y-138054123D01*
X148188547Y-138054123D02*
X148218615Y-137899957D01*
X148218615Y-137899957D02*
X148252671Y-137821878D01*
X148252671Y-137821878D02*
X148288720Y-137781841D01*
X148288720Y-137781841D02*
X148362812Y-137739810D01*
X149327844Y-137956268D02*
X149355757Y-138488870D01*
X149121679Y-137661892D02*
X148961370Y-138242506D01*
X148961370Y-138242506D02*
X149455930Y-138216588D01*
X157996488Y-124517501D02*
X158072574Y-124513514D01*
X158072574Y-124513514D02*
X158150654Y-124547569D01*
X158150654Y-124547569D02*
X158190691Y-124583619D01*
X158190691Y-124583619D02*
X158232721Y-124657711D01*
X158232721Y-124657711D02*
X158278740Y-124807889D01*
X158278740Y-124807889D02*
X158288708Y-124998104D01*
X158288708Y-124998104D02*
X158258640Y-125152270D01*
X158258640Y-125152270D02*
X158224585Y-125230350D01*
X158224585Y-125230350D02*
X158188535Y-125270387D01*
X158188535Y-125270387D02*
X158114443Y-125312417D01*
X158114443Y-125312417D02*
X158038357Y-125316405D01*
X158038357Y-125316405D02*
X157960277Y-125282349D01*
X157960277Y-125282349D02*
X157920240Y-125246300D01*
X157920240Y-125246300D02*
X157878210Y-125172208D01*
X157878210Y-125172208D02*
X157832192Y-125022029D01*
X157832192Y-125022029D02*
X157822223Y-124831814D01*
X157822223Y-124831814D02*
X157852291Y-124677648D01*
X157852291Y-124677648D02*
X157886347Y-124599569D01*
X157886347Y-124599569D02*
X157922396Y-124559532D01*
X157922396Y-124559532D02*
X157996488Y-124517501D01*
X158571122Y-124563681D02*
X158607171Y-124523644D01*
X158607171Y-124523644D02*
X158681263Y-124481614D01*
X158681263Y-124481614D02*
X158871478Y-124471645D01*
X158871478Y-124471645D02*
X158949558Y-124505701D01*
X158949558Y-124505701D02*
X158989595Y-124541750D01*
X158989595Y-124541750D02*
X159031625Y-124615842D01*
X159031625Y-124615842D02*
X159035613Y-124691928D01*
X159035613Y-124691928D02*
X159003551Y-124808051D01*
X159003551Y-124808051D02*
X158570960Y-125288492D01*
X158570960Y-125288492D02*
X159065519Y-125262574D01*
X159445950Y-125242636D02*
X159598122Y-125234661D01*
X159598122Y-125234661D02*
X159672214Y-125192631D01*
X159672214Y-125192631D02*
X159708263Y-125152594D01*
X159708263Y-125152594D02*
X159778368Y-125034477D01*
X159778368Y-125034477D02*
X159808436Y-124880311D01*
X159808436Y-124880311D02*
X159792486Y-124575967D01*
X159792486Y-124575967D02*
X159750456Y-124501875D01*
X159750456Y-124501875D02*
X159710419Y-124465826D01*
X159710419Y-124465826D02*
X159632339Y-124431770D01*
X159632339Y-124431770D02*
X159480167Y-124439745D01*
X159480167Y-124439745D02*
X159406075Y-124481776D01*
X159406075Y-124481776D02*
X159370025Y-124521812D01*
X159370025Y-124521812D02*
X159335970Y-124599892D01*
X159335970Y-124599892D02*
X159345939Y-124790107D01*
X159345939Y-124790107D02*
X159387969Y-124864200D01*
X159387969Y-124864200D02*
X159428006Y-124900249D01*
X159428006Y-124900249D02*
X159506086Y-124934304D01*
X159506086Y-124934304D02*
X159658258Y-124926329D01*
X159658258Y-124926329D02*
X159732350Y-124884299D01*
X159732350Y-124884299D02*
X159768399Y-124844262D01*
X159768399Y-124844262D02*
X159802455Y-124766182D01*
X158703458Y-132912006D02*
X158246942Y-132935931D01*
X158475200Y-132923968D02*
X158433331Y-132125065D01*
X158433331Y-132125065D02*
X158363227Y-132243181D01*
X158363227Y-132243181D02*
X158291128Y-132323255D01*
X158291128Y-132323255D02*
X158217036Y-132365285D01*
X159464319Y-132872131D02*
X159007803Y-132896056D01*
X159236061Y-132884093D02*
X159194192Y-132085190D01*
X159194192Y-132085190D02*
X159124087Y-132203306D01*
X159124087Y-132203306D02*
X159051989Y-132283380D01*
X159051989Y-132283380D02*
X158977897Y-132325410D01*
X159688752Y-132059271D02*
X160183311Y-132033352D01*
X160183311Y-132033352D02*
X159932960Y-132351653D01*
X159932960Y-132351653D02*
X160047089Y-132345671D01*
X160047089Y-132345671D02*
X160125169Y-132379727D01*
X160125169Y-132379727D02*
X160165206Y-132415776D01*
X160165206Y-132415776D02*
X160207236Y-132489868D01*
X160207236Y-132489868D02*
X160217205Y-132680084D01*
X160217205Y-132680084D02*
X160183149Y-132758163D01*
X160183149Y-132758163D02*
X160147100Y-132798200D01*
X160147100Y-132798200D02*
X160073008Y-132840231D01*
X160073008Y-132840231D02*
X159844750Y-132852193D01*
X159844750Y-132852193D02*
X159766670Y-132818138D01*
X159766670Y-132818138D02*
X159726633Y-132782088D01*
X158661154Y-137200096D02*
X158737240Y-137196109D01*
X158737240Y-137196109D02*
X158815320Y-137230164D01*
X158815320Y-137230164D02*
X158855357Y-137266214D01*
X158855357Y-137266214D02*
X158897387Y-137340306D01*
X158897387Y-137340306D02*
X158943406Y-137490484D01*
X158943406Y-137490484D02*
X158953374Y-137680699D01*
X158953374Y-137680699D02*
X158923306Y-137834865D01*
X158923306Y-137834865D02*
X158889251Y-137912945D01*
X158889251Y-137912945D02*
X158853201Y-137952982D01*
X158853201Y-137952982D02*
X158779109Y-137995012D01*
X158779109Y-137995012D02*
X158703023Y-137999000D01*
X158703023Y-137999000D02*
X158624943Y-137964944D01*
X158624943Y-137964944D02*
X158584906Y-137928895D01*
X158584906Y-137928895D02*
X158542876Y-137854803D01*
X158542876Y-137854803D02*
X158496858Y-137704624D01*
X158496858Y-137704624D02*
X158486889Y-137514409D01*
X158486889Y-137514409D02*
X158516957Y-137360243D01*
X158516957Y-137360243D02*
X158551013Y-137282164D01*
X158551013Y-137282164D02*
X158587062Y-137242127D01*
X158587062Y-137242127D02*
X158661154Y-137200096D01*
X159730185Y-137945169D02*
X159273669Y-137969094D01*
X159501927Y-137957131D02*
X159460058Y-137158228D01*
X159460058Y-137158228D02*
X159389953Y-137276344D01*
X159389953Y-137276344D02*
X159317855Y-137356418D01*
X159317855Y-137356418D02*
X159243763Y-137398448D01*
X160182876Y-137120346D02*
X160258962Y-137116359D01*
X160258962Y-137116359D02*
X160337042Y-137150414D01*
X160337042Y-137150414D02*
X160377079Y-137186464D01*
X160377079Y-137186464D02*
X160419109Y-137260556D01*
X160419109Y-137260556D02*
X160465127Y-137410734D01*
X160465127Y-137410734D02*
X160475096Y-137600949D01*
X160475096Y-137600949D02*
X160445028Y-137755115D01*
X160445028Y-137755115D02*
X160410972Y-137833195D01*
X160410972Y-137833195D02*
X160374923Y-137873232D01*
X160374923Y-137873232D02*
X160300831Y-137915262D01*
X160300831Y-137915262D02*
X160224745Y-137919250D01*
X160224745Y-137919250D02*
X160146665Y-137885194D01*
X160146665Y-137885194D02*
X160106628Y-137849145D01*
X160106628Y-137849145D02*
X160064598Y-137775053D01*
X160064598Y-137775053D02*
X160018580Y-137624874D01*
X160018580Y-137624874D02*
X160008611Y-137434659D01*
X160008611Y-137434659D02*
X160038679Y-137280493D01*
X160038679Y-137280493D02*
X160072734Y-137202414D01*
X160072734Y-137202414D02*
X160108784Y-137162377D01*
X160108784Y-137162377D02*
X160182876Y-137120346D01*
X146272617Y-112414495D02*
X146348703Y-112410508D01*
X146348703Y-112410508D02*
X146426783Y-112444563D01*
X146426783Y-112444563D02*
X146466820Y-112480613D01*
X146466820Y-112480613D02*
X146508850Y-112554705D01*
X146508850Y-112554705D02*
X146554869Y-112704883D01*
X146554869Y-112704883D02*
X146564837Y-112895098D01*
X146564837Y-112895098D02*
X146534769Y-113049264D01*
X146534769Y-113049264D02*
X146500714Y-113127344D01*
X146500714Y-113127344D02*
X146464664Y-113167381D01*
X146464664Y-113167381D02*
X146390572Y-113209411D01*
X146390572Y-113209411D02*
X146314486Y-113213399D01*
X146314486Y-113213399D02*
X146236406Y-113179343D01*
X146236406Y-113179343D02*
X146196369Y-113143294D01*
X146196369Y-113143294D02*
X146154339Y-113069202D01*
X146154339Y-113069202D02*
X146108321Y-112919023D01*
X146108321Y-112919023D02*
X146098352Y-112728808D01*
X146098352Y-112728808D02*
X146128420Y-112574642D01*
X146128420Y-112574642D02*
X146162476Y-112496563D01*
X146162476Y-112496563D02*
X146198525Y-112456526D01*
X146198525Y-112456526D02*
X146272617Y-112414495D01*
X147033478Y-112374620D02*
X147109564Y-112370633D01*
X147109564Y-112370633D02*
X147187644Y-112404688D01*
X147187644Y-112404688D02*
X147227681Y-112440738D01*
X147227681Y-112440738D02*
X147269711Y-112514830D01*
X147269711Y-112514830D02*
X147315729Y-112665008D01*
X147315729Y-112665008D02*
X147325698Y-112855223D01*
X147325698Y-112855223D02*
X147295630Y-113009389D01*
X147295630Y-113009389D02*
X147261575Y-113087469D01*
X147261575Y-113087469D02*
X147225525Y-113127506D01*
X147225525Y-113127506D02*
X147151433Y-113169536D01*
X147151433Y-113169536D02*
X147075347Y-113173524D01*
X147075347Y-113173524D02*
X146997267Y-113139468D01*
X146997267Y-113139468D02*
X146957230Y-113103419D01*
X146957230Y-113103419D02*
X146915200Y-113029327D01*
X146915200Y-113029327D02*
X146869182Y-112879148D01*
X146869182Y-112879148D02*
X146859213Y-112688933D01*
X146859213Y-112688933D02*
X146889281Y-112534767D01*
X146889281Y-112534767D02*
X146923337Y-112456688D01*
X146923337Y-112456688D02*
X146959386Y-112416651D01*
X146959386Y-112416651D02*
X147033478Y-112374620D01*
X147984554Y-112324777D02*
X147832382Y-112332752D01*
X147832382Y-112332752D02*
X147758290Y-112374782D01*
X147758290Y-112374782D02*
X147722240Y-112414819D01*
X147722240Y-112414819D02*
X147652136Y-112532935D01*
X147652136Y-112532935D02*
X147622068Y-112687101D01*
X147622068Y-112687101D02*
X147638018Y-112991446D01*
X147638018Y-112991446D02*
X147680048Y-113065538D01*
X147680048Y-113065538D02*
X147720085Y-113101587D01*
X147720085Y-113101587D02*
X147798165Y-113135643D01*
X147798165Y-113135643D02*
X147950337Y-113127668D01*
X147950337Y-113127668D02*
X148024429Y-113085637D01*
X148024429Y-113085637D02*
X148060478Y-113045600D01*
X148060478Y-113045600D02*
X148094534Y-112967521D01*
X148094534Y-112967521D02*
X148084565Y-112777305D01*
X148084565Y-112777305D02*
X148042535Y-112703213D01*
X148042535Y-112703213D02*
X148002498Y-112667164D01*
X148002498Y-112667164D02*
X147924418Y-112633108D01*
X147924418Y-112633108D02*
X147772246Y-112641083D01*
X147772246Y-112641083D02*
X147698154Y-112683114D01*
X147698154Y-112683114D02*
X147662104Y-112723151D01*
X147662104Y-112723151D02*
X147628049Y-112801230D01*
X146806779Y-117511620D02*
X146728699Y-117477564D01*
X146728699Y-117477564D02*
X146614570Y-117483545D01*
X146614570Y-117483545D02*
X146502434Y-117527570D01*
X146502434Y-117527570D02*
X146430336Y-117607643D01*
X146430336Y-117607643D02*
X146396280Y-117685723D01*
X146396280Y-117685723D02*
X146366212Y-117839889D01*
X146366212Y-117839889D02*
X146372194Y-117954018D01*
X146372194Y-117954018D02*
X146418212Y-118104196D01*
X146418212Y-118104196D02*
X146460242Y-118178289D01*
X146460242Y-118178289D02*
X146540316Y-118250387D01*
X146540316Y-118250387D02*
X146656439Y-118282449D01*
X146656439Y-118282449D02*
X146732525Y-118278461D01*
X146732525Y-118278461D02*
X146844660Y-118234437D01*
X146844660Y-118234437D02*
X146880709Y-118194400D01*
X146880709Y-118194400D02*
X146866753Y-117928099D01*
X146866753Y-117928099D02*
X146714581Y-117936074D01*
X147227084Y-118252543D02*
X147185215Y-117453639D01*
X147185215Y-117453639D02*
X147683600Y-118228618D01*
X147683600Y-118228618D02*
X147641732Y-117429714D01*
X148064030Y-118208680D02*
X148022162Y-117409777D01*
X148022162Y-117409777D02*
X148212377Y-117399808D01*
X148212377Y-117399808D02*
X148328500Y-117431870D01*
X148328500Y-117431870D02*
X148408573Y-117503968D01*
X148408573Y-117503968D02*
X148450604Y-117578060D01*
X148450604Y-117578060D02*
X148496622Y-117728239D01*
X148496622Y-117728239D02*
X148502603Y-117842368D01*
X148502603Y-117842368D02*
X148472535Y-117996534D01*
X148472535Y-117996534D02*
X148438479Y-118074614D01*
X148438479Y-118074614D02*
X148366381Y-118154687D01*
X148366381Y-118154687D02*
X148254246Y-118198711D01*
X148254246Y-118198711D02*
X148064030Y-118208680D01*
D14*
%TO.C,D17*%
X204310652Y-174920387D02*
X205109556Y-174878518D01*
X204710104Y-174899453D02*
X204683936Y-174400138D01*
X204741506Y-175498630D02*
X204192259Y-175527415D01*
X204741506Y-175498630D02*
X204310652Y-174920387D01*
X204741506Y-175498630D02*
X205290752Y-175469846D01*
X204762440Y-175898082D02*
X204741506Y-175498630D01*
X205109556Y-174878518D02*
X204741506Y-175498630D01*
%TO.C,D10*%
X240965091Y-148250491D02*
X241763995Y-148208622D01*
X241364543Y-148229557D02*
X241338375Y-147730242D01*
X241395945Y-148828734D02*
X240846698Y-148857519D01*
X241395945Y-148828734D02*
X240965091Y-148250491D01*
X241395945Y-148828734D02*
X241945191Y-148799950D01*
X241416879Y-149228186D02*
X241395945Y-148828734D01*
X241763995Y-148208622D02*
X241395945Y-148828734D01*
%TO.C,D3*%
X280349798Y-140104160D02*
X281149798Y-140104160D01*
X280749798Y-140104160D02*
X280749798Y-139604160D01*
X280749798Y-140704160D02*
X280199798Y-140704160D01*
X280749798Y-140704160D02*
X280349798Y-140104160D01*
X280749798Y-140704160D02*
X281299798Y-140704160D01*
X280749798Y-141104160D02*
X280749798Y-140704160D01*
X281149798Y-140104160D02*
X280749798Y-140704160D01*
D15*
%TO.C,MCU1*%
X143546814Y-109180426D02*
X145274947Y-142155173D01*
X145274947Y-142155173D02*
X163030581Y-141224639D01*
X161302447Y-108249892D02*
X143546814Y-109180426D01*
X163030581Y-141224639D02*
X161302447Y-108249892D01*
D14*
%TO.C,D4*%
X280349798Y-121104160D02*
X281149798Y-121104160D01*
X280749798Y-121104160D02*
X280749798Y-120604160D01*
X280749798Y-121704160D02*
X280199798Y-121704160D01*
X280749798Y-121704160D02*
X280349798Y-121104160D01*
X280749798Y-121704160D02*
X281299798Y-121704160D01*
X280749798Y-122104160D02*
X280749798Y-121704160D01*
X281149798Y-121104160D02*
X280749798Y-121704160D01*
%TO.C,D20*%
X201327502Y-117998503D02*
X202126406Y-117956634D01*
X201726954Y-117977569D02*
X201700786Y-117478254D01*
X201758356Y-118576746D02*
X201209109Y-118605531D01*
X201758356Y-118576746D02*
X201327502Y-117998503D01*
X201758356Y-118576746D02*
X202307602Y-118547962D01*
X201779290Y-118976198D02*
X201758356Y-118576746D01*
X202126406Y-117956634D02*
X201758356Y-118576746D01*
%TO.C,D13*%
X223035363Y-169170031D02*
X223834267Y-169128162D01*
X223434815Y-169149097D02*
X223408647Y-168649782D01*
X223466217Y-169748274D02*
X222916970Y-169777059D01*
X223466217Y-169748274D02*
X223035363Y-169170031D01*
X223466217Y-169748274D02*
X224015463Y-169719490D01*
X223487151Y-170147726D02*
X223466217Y-169748274D01*
X223834267Y-169128162D02*
X223466217Y-169748274D01*
%TO.C,D25*%
X232331969Y-189131228D02*
X233117271Y-188978581D01*
X232724620Y-189054904D02*
X232629215Y-188564091D01*
X232839105Y-189643881D02*
X232299210Y-189748825D01*
X232839105Y-189643881D02*
X232331969Y-189131228D01*
X232839105Y-189643881D02*
X233379000Y-189538936D01*
X232915429Y-190036531D02*
X232839105Y-189643881D01*
X233117271Y-188978581D02*
X232839105Y-189643881D01*
%TO.C,D5*%
X261349798Y-172389160D02*
X262149798Y-172389160D01*
X261749798Y-172389160D02*
X261749798Y-171889160D01*
X261749798Y-172989160D02*
X261199798Y-172989160D01*
X261749798Y-172989160D02*
X261349798Y-172389160D01*
X261749798Y-172989160D02*
X262299798Y-172989160D01*
X261749798Y-173389160D02*
X261749798Y-172989160D01*
X262149798Y-172389160D02*
X261749798Y-172989160D01*
%TO.C,D29*%
X165734698Y-164925599D02*
X166533602Y-164883730D01*
X166134150Y-164904665D02*
X166107982Y-164405350D01*
X166165552Y-165503842D02*
X165616305Y-165532627D01*
X166165552Y-165503842D02*
X165734698Y-164925599D01*
X166165552Y-165503842D02*
X166714798Y-165475058D01*
X166186486Y-165903294D02*
X166165552Y-165503842D01*
X166533602Y-164883730D02*
X166165552Y-165503842D01*
%TO.C,D7*%
X261349798Y-134389160D02*
X262149798Y-134389160D01*
X261749798Y-134389160D02*
X261749798Y-133889160D01*
X261749798Y-134989160D02*
X261199798Y-134989160D01*
X261749798Y-134989160D02*
X261349798Y-134389160D01*
X261749798Y-134989160D02*
X262299798Y-134989160D01*
X261749798Y-135389160D02*
X261749798Y-134989160D01*
X262149798Y-134389160D02*
X261749798Y-134989160D01*
%TO.C,D19*%
X202321886Y-136972464D02*
X203120790Y-136930595D01*
X202721338Y-136951530D02*
X202695170Y-136452215D01*
X202752740Y-137550707D02*
X202203493Y-137579492D01*
X202752740Y-137550707D02*
X202321886Y-136972464D01*
X202752740Y-137550707D02*
X203301986Y-137521923D01*
X202773674Y-137950159D02*
X202752740Y-137550707D01*
X203120790Y-136930595D02*
X202752740Y-137550707D01*
%TO.C,D11*%
X239970708Y-129276530D02*
X240769612Y-129234661D01*
X240370160Y-129255596D02*
X240343992Y-128756281D01*
X240401562Y-129854773D02*
X239852315Y-129883558D01*
X240401562Y-129854773D02*
X239970708Y-129276530D01*
X240401562Y-129854773D02*
X240950808Y-129825989D01*
X240422496Y-130254225D02*
X240401562Y-129854773D01*
X240769612Y-129234661D02*
X240401562Y-129854773D01*
%TO.C,D12*%
X238976325Y-110302569D02*
X239775229Y-110260700D01*
X239375777Y-110281635D02*
X239349609Y-109782320D01*
X239407179Y-110880812D02*
X238857932Y-110909597D01*
X239407179Y-110880812D02*
X238976325Y-110302569D01*
X239407179Y-110880812D02*
X239956425Y-110852028D01*
X239428113Y-111280264D02*
X239407179Y-110880812D01*
X239775229Y-110260700D02*
X239407179Y-110880812D01*
%TO.C,D15*%
X221046597Y-131222108D02*
X221845501Y-131180239D01*
X221446049Y-131201174D02*
X221419881Y-130701859D01*
X221477451Y-131800351D02*
X220928204Y-131829136D01*
X221477451Y-131800351D02*
X221046597Y-131222108D01*
X221477451Y-131800351D02*
X222026697Y-131771567D01*
X221498385Y-132199803D02*
X221477451Y-131800351D01*
X221845501Y-131180239D02*
X221477451Y-131800351D01*
%TO.C,D1*%
X280349798Y-178104160D02*
X281149798Y-178104160D01*
X280749798Y-178104160D02*
X280749798Y-177604160D01*
X280749798Y-178704160D02*
X280199798Y-178704160D01*
X280749798Y-178704160D02*
X280349798Y-178104160D01*
X280749798Y-178704160D02*
X281299798Y-178704160D01*
X280749798Y-179104160D02*
X280749798Y-178704160D01*
X281149798Y-178104160D02*
X280749798Y-178704160D01*
%TO.C,D26*%
X213681053Y-192756599D02*
X214466355Y-192603952D01*
X214073704Y-192680275D02*
X213978299Y-192189462D01*
X214188189Y-193269252D02*
X213648294Y-193374196D01*
X214188189Y-193269252D02*
X213681053Y-192756599D01*
X214188189Y-193269252D02*
X214728084Y-193164307D01*
X214264513Y-193661902D02*
X214188189Y-193269252D01*
X214466355Y-192603952D02*
X214188189Y-193269252D01*
%TO.C,D9*%
X241959474Y-167224453D02*
X242758378Y-167182584D01*
X242358926Y-167203519D02*
X242332758Y-166704204D01*
X242390328Y-167802696D02*
X241841081Y-167831481D01*
X242390328Y-167802696D02*
X241959474Y-167224453D01*
X242390328Y-167802696D02*
X242939574Y-167773912D01*
X242411262Y-168202148D02*
X242390328Y-167802696D01*
X242758378Y-167182584D02*
X242390328Y-167802696D01*
%TO.C,D14*%
X222040980Y-150196069D02*
X222839884Y-150154200D01*
X222440432Y-150175135D02*
X222414264Y-149675820D01*
X222471834Y-150774312D02*
X221922587Y-150803097D01*
X222471834Y-150774312D02*
X222040980Y-150196069D01*
X222471834Y-150774312D02*
X223021080Y-150745528D01*
X222492768Y-151173764D02*
X222471834Y-150774312D01*
X222839884Y-150154200D02*
X222471834Y-150774312D01*
%TO.C,D18*%
X203316269Y-155946426D02*
X204115173Y-155904557D01*
X203715721Y-155925492D02*
X203689553Y-155426177D01*
X203747123Y-156524669D02*
X203197876Y-156553454D01*
X203747123Y-156524669D02*
X203316269Y-155946426D01*
X203747123Y-156524669D02*
X204296369Y-156495885D01*
X203768057Y-156924121D02*
X203747123Y-156524669D01*
X204115173Y-155904557D02*
X203747123Y-156524669D01*
%TO.C,D27*%
X194791625Y-195154936D02*
X195576927Y-195002289D01*
X195184276Y-195078612D02*
X195088871Y-194587799D01*
X195298761Y-195667589D02*
X194758866Y-195772533D01*
X195298761Y-195667589D02*
X194791625Y-195154936D01*
X195298761Y-195667589D02*
X195838656Y-195562644D01*
X195375085Y-196060239D02*
X195298761Y-195667589D01*
X195576927Y-195002289D02*
X195298761Y-195667589D01*
%TO.C,D2*%
X280349798Y-159104160D02*
X281149798Y-159104160D01*
X280749798Y-159104160D02*
X280749798Y-158604160D01*
X280749798Y-159704160D02*
X280199798Y-159704160D01*
X280749798Y-159704160D02*
X280349798Y-159104160D01*
X280749798Y-159704160D02*
X281299798Y-159704160D01*
X280749798Y-160104160D02*
X280749798Y-159704160D01*
X281149798Y-159104160D02*
X280749798Y-159704160D01*
%TO.C,D28*%
X168435020Y-188433905D02*
X169065429Y-187941376D01*
X168750225Y-188187640D02*
X168442394Y-187793635D01*
X169065429Y-187941376D02*
X169119622Y-188660447D01*
X169119622Y-188660447D02*
X168435020Y-188433905D01*
X169119622Y-188660447D02*
X168686216Y-188999061D01*
X169119622Y-188660447D02*
X169553027Y-188321833D01*
X169365886Y-188975651D02*
X169119622Y-188660447D01*
%TO.C,D8*%
X261349798Y-115389160D02*
X262149798Y-115389160D01*
X261749798Y-115389160D02*
X261749798Y-114889160D01*
X261749798Y-115989160D02*
X261199798Y-115989160D01*
X261749798Y-115989160D02*
X261349798Y-115389160D01*
X261749798Y-115989160D02*
X262299798Y-115989160D01*
X261749798Y-116389160D02*
X261749798Y-115989160D01*
X262149798Y-115389160D02*
X261749798Y-115989160D01*
%TO.C,D21*%
X185389027Y-176913400D02*
X186187931Y-176871531D01*
X185788479Y-176892466D02*
X185762311Y-176393151D01*
X185819881Y-177491643D02*
X185270634Y-177520428D01*
X185819881Y-177491643D02*
X185389027Y-176913400D01*
X185819881Y-177491643D02*
X186369127Y-177462859D01*
X185840815Y-177891095D02*
X185819881Y-177491643D01*
X186187931Y-176871531D02*
X185819881Y-177491643D01*
%TO.C,D23*%
X183400260Y-138965477D02*
X184199164Y-138923608D01*
X183799712Y-138944543D02*
X183773544Y-138445228D01*
X183831114Y-139543720D02*
X183281867Y-139572505D01*
X183831114Y-139543720D02*
X183400260Y-138965477D01*
X183831114Y-139543720D02*
X184380360Y-139514936D01*
X183852048Y-139943172D02*
X183831114Y-139543720D01*
X184199164Y-138923608D02*
X183831114Y-139543720D01*
%TO.C,D24*%
X182405877Y-119991516D02*
X183204781Y-119949647D01*
X182805329Y-119970582D02*
X182779161Y-119471267D01*
X182836731Y-120569759D02*
X182287484Y-120598544D01*
X182836731Y-120569759D02*
X182405877Y-119991516D01*
X182836731Y-120569759D02*
X183385977Y-120540975D01*
X182857665Y-120969211D02*
X182836731Y-120569759D01*
X183204781Y-119949647D02*
X182836731Y-120569759D01*
%TO.C,D6*%
X261349798Y-153389160D02*
X262149798Y-153389160D01*
X261749798Y-153389160D02*
X261749798Y-152889160D01*
X261749798Y-153989160D02*
X261199798Y-153989160D01*
X261749798Y-153989160D02*
X261349798Y-153389160D01*
X261749798Y-153989160D02*
X262299798Y-153989160D01*
X261749798Y-154389160D02*
X261749798Y-153989160D01*
X262149798Y-153389160D02*
X261749798Y-153989160D01*
%TO.C,D22*%
X184394644Y-157939438D02*
X185193548Y-157897569D01*
X184794096Y-157918504D02*
X184767928Y-157419189D01*
X184825498Y-158517681D02*
X184276251Y-158546466D01*
X184825498Y-158517681D02*
X184394644Y-157939438D01*
X184825498Y-158517681D02*
X185374744Y-158488897D01*
X184846432Y-158917133D02*
X184825498Y-158517681D01*
X185193548Y-157897569D02*
X184825498Y-158517681D01*
%TO.C,D16*%
X220052214Y-112248147D02*
X220851118Y-112206278D01*
X220451666Y-112227213D02*
X220425498Y-111727898D01*
X220483068Y-112826390D02*
X219933821Y-112855175D01*
X220483068Y-112826390D02*
X220052214Y-112248147D01*
X220483068Y-112826390D02*
X221032314Y-112797606D01*
X220504002Y-113225842D02*
X220483068Y-112826390D01*
X220851118Y-112206278D02*
X220483068Y-112826390D01*
%TD*%
D16*
%TO.C,*%
X170029896Y-201025279D03*
%TD*%
%TO.C,*%
X242326150Y-137439443D03*
%TD*%
D17*
%TO.C,MCU1*%
X145014474Y-112918737D03*
X145147407Y-115455256D03*
X145280340Y-117991775D03*
X145413274Y-120528294D03*
X145546207Y-123064813D03*
X145679140Y-125601332D03*
X145812074Y-128137851D03*
X145945007Y-130674371D03*
X146077940Y-133210890D03*
X146210874Y-135747409D03*
X146343807Y-138283928D03*
X146476740Y-140820447D03*
X161695854Y-140022847D03*
X161562921Y-137486328D03*
X161429988Y-134949809D03*
X161297054Y-132413290D03*
X161164121Y-129876771D03*
X161031188Y-127340252D03*
X160898254Y-124803733D03*
X160765321Y-122267213D03*
X160632388Y-119730694D03*
X160499454Y-117194175D03*
X160366521Y-114657656D03*
X160233588Y-112121137D03*
X148747393Y-135614475D03*
X151283912Y-135481542D03*
X153820431Y-135348609D03*
%TD*%
D16*
%TO.C,*%
X195071177Y-143836344D03*
%TD*%
%TO.C,*%
X174175178Y-108156057D03*
%TD*%
%TO.C,*%
X265749798Y-106329160D03*
%TD*%
%TO.C,*%
X270749798Y-184379160D03*
%TD*%
M02*
