%TF.GenerationSoftware,KiCad,Pcbnew,8.0.4*%
%TF.CreationDate,2024-09-16T15:21:11-06:00*%
%TF.ProjectId,right_board,72696768-745f-4626-9f61-72642e6b6963,v1.0.0*%
%TF.SameCoordinates,Original*%
%TF.FileFunction,Paste,Top*%
%TF.FilePolarity,Positive*%
%FSLAX46Y46*%
G04 Gerber Fmt 4.6, Leading zero omitted, Abs format (unit mm)*
G04 Created by KiCad (PCBNEW 8.0.4) date 2024-09-16 15:21:11*
%MOMM*%
%LPD*%
G01*
G04 APERTURE LIST*
G04 Aperture macros list*
%AMRotRect*
0 Rectangle, with rotation*
0 The origin of the aperture is its center*
0 $1 length*
0 $2 width*
0 $3 Rotation angle, in degrees counterclockwise*
0 Add horizontal line*
21,1,$1,$2,0,0,$3*%
G04 Aperture macros list end*
%ADD10RotRect,0.900000X1.200000X93.000000*%
%ADD11R,1.200000X0.900000*%
%ADD12RotRect,0.900000X1.200000X101.000000*%
%ADD13RotRect,0.900000X1.200000X128.000000*%
G04 APERTURE END LIST*
D10*
%TO.C,D17*%
X204809542Y-176796849D03*
X204636834Y-173501371D03*
%TD*%
%TO.C,D10*%
X241463981Y-150126953D03*
X241291273Y-146831475D03*
%TD*%
D11*
%TO.C,D3*%
X280749798Y-142004160D03*
X280749798Y-138704160D03*
%TD*%
%TO.C,D4*%
X280749798Y-123004160D03*
X280749798Y-119704160D03*
%TD*%
D10*
%TO.C,D20*%
X201826392Y-119874965D03*
X201653684Y-116579487D03*
%TD*%
%TO.C,D13*%
X223534253Y-171046493D03*
X223361545Y-167751015D03*
%TD*%
D12*
%TO.C,D25*%
X233087157Y-190919996D03*
X232457487Y-187680626D03*
%TD*%
D11*
%TO.C,D5*%
X261749798Y-174289160D03*
X261749798Y-170989160D03*
%TD*%
D10*
%TO.C,D29*%
X166233588Y-166802061D03*
X166060880Y-163506583D03*
%TD*%
D11*
%TO.C,D7*%
X261749798Y-136289160D03*
X261749798Y-132989160D03*
%TD*%
D10*
%TO.C,D19*%
X202820776Y-138848926D03*
X202648068Y-135553448D03*
%TD*%
%TO.C,D11*%
X240469598Y-131152992D03*
X240296890Y-127857514D03*
%TD*%
%TO.C,D12*%
X239475215Y-112179031D03*
X239302507Y-108883553D03*
%TD*%
%TO.C,D15*%
X221545487Y-133098570D03*
X221372779Y-129803092D03*
%TD*%
D11*
%TO.C,D1*%
X280749798Y-180004160D03*
X280749798Y-176704160D03*
%TD*%
D12*
%TO.C,D26*%
X214436241Y-194545367D03*
X213806571Y-191305997D03*
%TD*%
D10*
%TO.C,D9*%
X242458364Y-169100915D03*
X242285656Y-165805437D03*
%TD*%
%TO.C,D14*%
X222539870Y-152072531D03*
X222367162Y-148777053D03*
%TD*%
%TO.C,D18*%
X203815159Y-157822888D03*
X203642451Y-154527410D03*
%TD*%
D12*
%TO.C,D27*%
X195546813Y-196943704D03*
X194917143Y-193704334D03*
%TD*%
D11*
%TO.C,D2*%
X280749798Y-161004160D03*
X280749798Y-157704160D03*
%TD*%
D13*
%TO.C,D28*%
X169919981Y-189684861D03*
X167888299Y-187084425D03*
%TD*%
D11*
%TO.C,D8*%
X261749798Y-117289160D03*
X261749798Y-113989160D03*
%TD*%
D10*
%TO.C,D21*%
X185887917Y-178789862D03*
X185715209Y-175494384D03*
%TD*%
%TO.C,D23*%
X183899150Y-140841939D03*
X183726442Y-137546461D03*
%TD*%
%TO.C,D24*%
X182904767Y-121867978D03*
X182732059Y-118572500D03*
%TD*%
D11*
%TO.C,D6*%
X261749798Y-155289160D03*
X261749798Y-151989160D03*
%TD*%
D10*
%TO.C,D22*%
X184893534Y-159815900D03*
X184720826Y-156520422D03*
%TD*%
%TO.C,D16*%
X220551104Y-114124609D03*
X220378396Y-110829131D03*
%TD*%
M02*
