M48
; DRILL file {KiCad 8.0.4} date 2024-09-16T15:21:09-0600
; FORMAT={-:-/ absolute / metric / decimal}
; #@! TF.CreationDate,2024-09-16T15:21:09-06:00
; #@! TF.GenerationSoftware,Kicad,Pcbnew,8.0.4
; #@! TF.FileFunction,Plated,1,2,PTH
FMAT,2
METRIC
; #@! TA.AperFunction,Plated,PTH,ViaDrill
T1C0.400
; #@! TA.AperFunction,Plated,PTH,ComponentDrill
T2C0.750
; #@! TA.AperFunction,Plated,PTH,ComponentDrill
T3C0.991
; #@! TA.AperFunction,Plated,PTH,ComponentDrill
T4C1.092
%
G90
G05
T1
X150.543Y-154.354
X150.543Y-179.854
X169.043Y-123.354
T2
X161.285Y-167.913
X161.39Y-169.91
T3
X165.948Y-161.35
X166.347Y-168.959
X166.558Y-185.382
X171.25Y-191.387
X182.619Y-116.415
X183.018Y-124.025
X183.613Y-135.389
X184.012Y-142.999
X184.608Y-154.363
X185.007Y-161.973
X185.602Y-173.337
X186.001Y-180.947
X194.505Y-191.584
X195.959Y-199.064
X201.541Y-114.422
X201.939Y-122.032
X202.535Y-133.396
X202.934Y-141.006
X203.529Y-152.37
X203.928Y-159.98
X204.524Y-171.344
X204.923Y-178.954
X213.394Y-189.186
X214.848Y-196.666
X220.265Y-108.672
X220.664Y-116.282
X221.26Y-127.646
X221.659Y-135.256
X222.254Y-146.62
X222.653Y-154.23
X223.248Y-165.594
X223.647Y-173.204
X232.045Y-185.56
X233.499Y-193.04
X239.189Y-106.727
X239.588Y-114.336
X240.184Y-125.7
X240.583Y-133.31
X241.178Y-144.674
X241.577Y-152.284
X242.173Y-163.648
X242.571Y-171.258
X261.75Y-111.829
X261.75Y-119.449
X261.75Y-130.829
X261.75Y-138.449
X261.75Y-149.829
X261.75Y-157.449
X261.75Y-168.829
X261.75Y-176.449
X280.75Y-117.544
X280.75Y-125.164
X280.75Y-136.544
X280.75Y-144.164
X280.75Y-155.544
X280.75Y-163.164
X280.75Y-174.544
X280.75Y-182.164
T4
X145.014Y-112.919
X145.147Y-115.455
X145.28Y-117.992
X145.413Y-120.528
X145.546Y-123.065
X145.679Y-125.601
X145.812Y-128.138
X145.945Y-130.674
X146.078Y-133.211
X146.211Y-135.747
X146.344Y-138.284
X146.477Y-140.82
X148.747Y-135.614
X151.284Y-135.482
X153.82Y-135.349
X160.234Y-112.121
X160.367Y-114.658
X160.499Y-117.194
X160.632Y-119.731
X160.765Y-122.267
X160.898Y-124.804
X161.031Y-127.34
X161.164Y-129.877
X161.297Y-132.413
X161.43Y-134.95
X161.563Y-137.486
X161.696Y-140.023
M30
