%TF.GenerationSoftware,KiCad,Pcbnew,8.0.4*%
%TF.CreationDate,2024-09-16T15:21:11-06:00*%
%TF.ProjectId,right_board,72696768-745f-4626-9f61-72642e6b6963,v1.0.0*%
%TF.SameCoordinates,Original*%
%TF.FileFunction,Legend,Bot*%
%TF.FilePolarity,Positive*%
%FSLAX46Y46*%
G04 Gerber Fmt 4.6, Leading zero omitted, Abs format (unit mm)*
G04 Created by KiCad (PCBNEW 8.0.4) date 2024-09-16 15:21:11*
%MOMM*%
%LPD*%
G01*
G04 APERTURE LIST*
%ADD10C,0.150000*%
%ADD11C,0.100000*%
%ADD12C,0.381000*%
%ADD13C,1.752600*%
G04 APERTURE END LIST*
D10*
X148157088Y-119984339D02*
X148231181Y-119942308D01*
X148231181Y-119942308D02*
X148345310Y-119936327D01*
X148345310Y-119936327D02*
X148461433Y-119968389D01*
X148461433Y-119968389D02*
X148541506Y-120040487D01*
X148541506Y-120040487D02*
X148583537Y-120114580D01*
X148583537Y-120114580D02*
X148629555Y-120264758D01*
X148629555Y-120264758D02*
X148635536Y-120378887D01*
X148635536Y-120378887D02*
X148605468Y-120533053D01*
X148605468Y-120533053D02*
X148571412Y-120611133D01*
X148571412Y-120611133D02*
X148499314Y-120691206D01*
X148499314Y-120691206D02*
X148387179Y-120735230D01*
X148387179Y-120735230D02*
X148311093Y-120739218D01*
X148311093Y-120739218D02*
X148194970Y-120707156D01*
X148194970Y-120707156D02*
X148154933Y-120671107D01*
X148154933Y-120671107D02*
X148140977Y-120404806D01*
X148140977Y-120404806D02*
X148293149Y-120396831D01*
X147816533Y-120765137D02*
X147774664Y-119966233D01*
X147774664Y-119966233D02*
X147360017Y-120789062D01*
X147360017Y-120789062D02*
X147318148Y-119990158D01*
X146979587Y-120808999D02*
X146937718Y-120010096D01*
X146937718Y-120010096D02*
X146747503Y-120020064D01*
X146747503Y-120020064D02*
X146635367Y-120064089D01*
X146635367Y-120064089D02*
X146563269Y-120144162D01*
X146563269Y-120144162D02*
X146529213Y-120222242D01*
X146529213Y-120222242D02*
X146499145Y-120376408D01*
X146499145Y-120376408D02*
X146505127Y-120490537D01*
X146505127Y-120490537D02*
X146551145Y-120640715D01*
X146551145Y-120640715D02*
X146593175Y-120714808D01*
X146593175Y-120714808D02*
X146673249Y-120786906D01*
X146673249Y-120786906D02*
X146789372Y-120818968D01*
X146789372Y-120818968D02*
X146979587Y-120808999D01*
X148975326Y-138508808D02*
X149431842Y-138484883D01*
X149203584Y-138496845D02*
X149161715Y-137697942D01*
X149161715Y-137697942D02*
X149243783Y-137808083D01*
X149243783Y-137808083D02*
X149323856Y-137880182D01*
X149323856Y-137880182D02*
X149401936Y-137914237D01*
X148438897Y-137735823D02*
X148362811Y-137739810D01*
X148362811Y-137739810D02*
X148288719Y-137781841D01*
X148288719Y-137781841D02*
X148252670Y-137821878D01*
X148252670Y-137821878D02*
X148218614Y-137899957D01*
X148218614Y-137899957D02*
X148188546Y-138054123D01*
X148188546Y-138054123D02*
X148198515Y-138244339D01*
X148198515Y-138244339D02*
X148244533Y-138394517D01*
X148244533Y-138394517D02*
X148286564Y-138468609D01*
X148286564Y-138468609D02*
X148326600Y-138504658D01*
X148326600Y-138504658D02*
X148404680Y-138538714D01*
X148404680Y-138538714D02*
X148480766Y-138534726D01*
X148480766Y-138534726D02*
X148554859Y-138492696D01*
X148554859Y-138492696D02*
X148590908Y-138452659D01*
X148590908Y-138452659D02*
X148624963Y-138374579D01*
X148624963Y-138374579D02*
X148655031Y-138220414D01*
X148655031Y-138220414D02*
X148645063Y-138030198D01*
X148645063Y-138030198D02*
X148599045Y-137880020D01*
X148599045Y-137880020D02*
X148557014Y-137805928D01*
X148557014Y-137805928D02*
X148516977Y-137769878D01*
X148516977Y-137769878D02*
X148438897Y-137735823D01*
X147501778Y-138051968D02*
X147529690Y-138584570D01*
X147676043Y-137737655D02*
X147896164Y-138298332D01*
X147896164Y-138298332D02*
X147401605Y-138324250D01*
X148538754Y-125083257D02*
X148462668Y-125087244D01*
X148462668Y-125087244D02*
X148388576Y-125129275D01*
X148388576Y-125129275D02*
X148352527Y-125169312D01*
X148352527Y-125169312D02*
X148318471Y-125247391D01*
X148318471Y-125247391D02*
X148288403Y-125401557D01*
X148288403Y-125401557D02*
X148298372Y-125591772D01*
X148298372Y-125591772D02*
X148344390Y-125741951D01*
X148344390Y-125741951D02*
X148386420Y-125816043D01*
X148386420Y-125816043D02*
X148426457Y-125852092D01*
X148426457Y-125852092D02*
X148504537Y-125886148D01*
X148504537Y-125886148D02*
X148580623Y-125882160D01*
X148580623Y-125882160D02*
X148654715Y-125840130D01*
X148654715Y-125840130D02*
X148690765Y-125800093D01*
X148690765Y-125800093D02*
X148724820Y-125722013D01*
X148724820Y-125722013D02*
X148754888Y-125567847D01*
X148754888Y-125567847D02*
X148744919Y-125377632D01*
X148744919Y-125377632D02*
X148698901Y-125227454D01*
X148698901Y-125227454D02*
X148656871Y-125153362D01*
X148656871Y-125153362D02*
X148616834Y-125117312D01*
X148616834Y-125117312D02*
X148538754Y-125083257D01*
X147972096Y-125189249D02*
X147932059Y-125153200D01*
X147932059Y-125153200D02*
X147853980Y-125119144D01*
X147853980Y-125119144D02*
X147663764Y-125129113D01*
X147663764Y-125129113D02*
X147589672Y-125171144D01*
X147589672Y-125171144D02*
X147553623Y-125211180D01*
X147553623Y-125211180D02*
X147519567Y-125289260D01*
X147519567Y-125289260D02*
X147523555Y-125365346D01*
X147523555Y-125365346D02*
X147567579Y-125477482D01*
X147567579Y-125477482D02*
X148048020Y-125910073D01*
X148048020Y-125910073D02*
X147553461Y-125935992D01*
X147017033Y-125163007D02*
X146940947Y-125166994D01*
X146940947Y-125166994D02*
X146866854Y-125209025D01*
X146866854Y-125209025D02*
X146830805Y-125249062D01*
X146830805Y-125249062D02*
X146796749Y-125327142D01*
X146796749Y-125327142D02*
X146766681Y-125481307D01*
X146766681Y-125481307D02*
X146776650Y-125671523D01*
X146776650Y-125671523D02*
X146822668Y-125821701D01*
X146822668Y-125821701D02*
X146864699Y-125895793D01*
X146864699Y-125895793D02*
X146904736Y-125931842D01*
X146904736Y-125931842D02*
X146982815Y-125965898D01*
X146982815Y-125965898D02*
X147058901Y-125961911D01*
X147058901Y-125961911D02*
X147132994Y-125919880D01*
X147132994Y-125919880D02*
X147169043Y-125879843D01*
X147169043Y-125879843D02*
X147203098Y-125801763D01*
X147203098Y-125801763D02*
X147233167Y-125647598D01*
X147233167Y-125647598D02*
X147223198Y-125457382D01*
X147223198Y-125457382D02*
X147177180Y-125307204D01*
X147177180Y-125307204D02*
X147135149Y-125233112D01*
X147135149Y-125233112D02*
X147095112Y-125197062D01*
X147095112Y-125197062D02*
X147017033Y-125163007D01*
X148800958Y-130086391D02*
X148724872Y-130090378D01*
X148724872Y-130090378D02*
X148650780Y-130132409D01*
X148650780Y-130132409D02*
X148614731Y-130172446D01*
X148614731Y-130172446D02*
X148580675Y-130250525D01*
X148580675Y-130250525D02*
X148550607Y-130404691D01*
X148550607Y-130404691D02*
X148560576Y-130594906D01*
X148560576Y-130594906D02*
X148606594Y-130745085D01*
X148606594Y-130745085D02*
X148648624Y-130819177D01*
X148648624Y-130819177D02*
X148688661Y-130855226D01*
X148688661Y-130855226D02*
X148766741Y-130889282D01*
X148766741Y-130889282D02*
X148842827Y-130885294D01*
X148842827Y-130885294D02*
X148916919Y-130843264D01*
X148916919Y-130843264D02*
X148952969Y-130803227D01*
X148952969Y-130803227D02*
X148987024Y-130725147D01*
X148987024Y-130725147D02*
X149017092Y-130570981D01*
X149017092Y-130570981D02*
X149007123Y-130380766D01*
X149007123Y-130380766D02*
X148961105Y-130230588D01*
X148961105Y-130230588D02*
X148919075Y-130156496D01*
X148919075Y-130156496D02*
X148879038Y-130120446D01*
X148879038Y-130120446D02*
X148800958Y-130086391D01*
X148234300Y-130192383D02*
X148194263Y-130156334D01*
X148194263Y-130156334D02*
X148116184Y-130122278D01*
X148116184Y-130122278D02*
X147925968Y-130132247D01*
X147925968Y-130132247D02*
X147851876Y-130174278D01*
X147851876Y-130174278D02*
X147815827Y-130214314D01*
X147815827Y-130214314D02*
X147781771Y-130292394D01*
X147781771Y-130292394D02*
X147785759Y-130368480D01*
X147785759Y-130368480D02*
X147829783Y-130480616D01*
X147829783Y-130480616D02*
X148310224Y-130913207D01*
X148310224Y-130913207D02*
X147815665Y-130939126D01*
X147102978Y-130442411D02*
X147130890Y-130975013D01*
X147277243Y-130128098D02*
X147497364Y-130688775D01*
X147497364Y-130688775D02*
X147002805Y-130714693D01*
X159727228Y-126970283D02*
X159651142Y-126974270D01*
X159651142Y-126974270D02*
X159577050Y-127016301D01*
X159577050Y-127016301D02*
X159541001Y-127056338D01*
X159541001Y-127056338D02*
X159506945Y-127134417D01*
X159506945Y-127134417D02*
X159476877Y-127288583D01*
X159476877Y-127288583D02*
X159486846Y-127478798D01*
X159486846Y-127478798D02*
X159532864Y-127628977D01*
X159532864Y-127628977D02*
X159574894Y-127703069D01*
X159574894Y-127703069D02*
X159614931Y-127739118D01*
X159614931Y-127739118D02*
X159693011Y-127773174D01*
X159693011Y-127773174D02*
X159769097Y-127769186D01*
X159769097Y-127769186D02*
X159843189Y-127727156D01*
X159843189Y-127727156D02*
X159879239Y-127687119D01*
X159879239Y-127687119D02*
X159913294Y-127609039D01*
X159913294Y-127609039D02*
X159943362Y-127454873D01*
X159943362Y-127454873D02*
X159933393Y-127264658D01*
X159933393Y-127264658D02*
X159887375Y-127114480D01*
X159887375Y-127114480D02*
X159845345Y-127040388D01*
X159845345Y-127040388D02*
X159805308Y-127004338D01*
X159805308Y-127004338D02*
X159727228Y-126970283D01*
X158966367Y-127010158D02*
X158890281Y-127014145D01*
X158890281Y-127014145D02*
X158816189Y-127056176D01*
X158816189Y-127056176D02*
X158780140Y-127096213D01*
X158780140Y-127096213D02*
X158746084Y-127174292D01*
X158746084Y-127174292D02*
X158716016Y-127328458D01*
X158716016Y-127328458D02*
X158725985Y-127518674D01*
X158725985Y-127518674D02*
X158772003Y-127668852D01*
X158772003Y-127668852D02*
X158814034Y-127742944D01*
X158814034Y-127742944D02*
X158854070Y-127778993D01*
X158854070Y-127778993D02*
X158932150Y-127813049D01*
X158932150Y-127813049D02*
X159008236Y-127809061D01*
X159008236Y-127809061D02*
X159082329Y-127767031D01*
X159082329Y-127767031D02*
X159118378Y-127726994D01*
X159118378Y-127726994D02*
X159152433Y-127648914D01*
X159152433Y-127648914D02*
X159182501Y-127494749D01*
X159182501Y-127494749D02*
X159172533Y-127304533D01*
X159172533Y-127304533D02*
X159126515Y-127154355D01*
X159126515Y-127154355D02*
X159084484Y-127080263D01*
X159084484Y-127080263D02*
X159044447Y-127044213D01*
X159044447Y-127044213D02*
X158966367Y-127010158D01*
X158399709Y-127116150D02*
X158359672Y-127080101D01*
X158359672Y-127080101D02*
X158281593Y-127046045D01*
X158281593Y-127046045D02*
X158091378Y-127056014D01*
X158091378Y-127056014D02*
X158017285Y-127098045D01*
X158017285Y-127098045D02*
X157981236Y-127138081D01*
X157981236Y-127138081D02*
X157947180Y-127216161D01*
X157947180Y-127216161D02*
X157951168Y-127292247D01*
X157951168Y-127292247D02*
X157995192Y-127404383D01*
X157995192Y-127404383D02*
X158475634Y-127836974D01*
X158475634Y-127836974D02*
X157981074Y-127862893D01*
X159594295Y-124433764D02*
X159518209Y-124437751D01*
X159518209Y-124437751D02*
X159444117Y-124479782D01*
X159444117Y-124479782D02*
X159408068Y-124519819D01*
X159408068Y-124519819D02*
X159374012Y-124597898D01*
X159374012Y-124597898D02*
X159343944Y-124752064D01*
X159343944Y-124752064D02*
X159353913Y-124942279D01*
X159353913Y-124942279D02*
X159399931Y-125092458D01*
X159399931Y-125092458D02*
X159441961Y-125166550D01*
X159441961Y-125166550D02*
X159481998Y-125202599D01*
X159481998Y-125202599D02*
X159560078Y-125236655D01*
X159560078Y-125236655D02*
X159636164Y-125232667D01*
X159636164Y-125232667D02*
X159710256Y-125190637D01*
X159710256Y-125190637D02*
X159746306Y-125150600D01*
X159746306Y-125150600D02*
X159780361Y-125072520D01*
X159780361Y-125072520D02*
X159810429Y-124918354D01*
X159810429Y-124918354D02*
X159800460Y-124728139D01*
X159800460Y-124728139D02*
X159754442Y-124577961D01*
X159754442Y-124577961D02*
X159712412Y-124503869D01*
X159712412Y-124503869D02*
X159672375Y-124467819D01*
X159672375Y-124467819D02*
X159594295Y-124433764D01*
X159027637Y-124539756D02*
X158987600Y-124503707D01*
X158987600Y-124503707D02*
X158909521Y-124469651D01*
X158909521Y-124469651D02*
X158719305Y-124479620D01*
X158719305Y-124479620D02*
X158645213Y-124521651D01*
X158645213Y-124521651D02*
X158609164Y-124561687D01*
X158609164Y-124561687D02*
X158575108Y-124639767D01*
X158575108Y-124639767D02*
X158579096Y-124715853D01*
X158579096Y-124715853D02*
X158623120Y-124827989D01*
X158623120Y-124827989D02*
X159103561Y-125260580D01*
X159103561Y-125260580D02*
X158609002Y-125286499D01*
X158228571Y-125306436D02*
X158076399Y-125314411D01*
X158076399Y-125314411D02*
X157998320Y-125280356D01*
X157998320Y-125280356D02*
X157958283Y-125244306D01*
X157958283Y-125244306D02*
X157876215Y-125134165D01*
X157876215Y-125134165D02*
X157830197Y-124983987D01*
X157830197Y-124983987D02*
X157814247Y-124679642D01*
X157814247Y-124679642D02*
X157848303Y-124601562D01*
X157848303Y-124601562D02*
X157884352Y-124561526D01*
X157884352Y-124561526D02*
X157958445Y-124519495D01*
X157958445Y-124519495D02*
X158110617Y-124511520D01*
X158110617Y-124511520D02*
X158188696Y-124545576D01*
X158188696Y-124545576D02*
X158228733Y-124581625D01*
X158228733Y-124581625D02*
X158270764Y-124655717D01*
X158270764Y-124655717D02*
X158280733Y-124845932D01*
X158280733Y-124845932D02*
X158246677Y-124924012D01*
X158246677Y-124924012D02*
X158210628Y-124964049D01*
X158210628Y-124964049D02*
X158136535Y-125006080D01*
X158136535Y-125006080D02*
X157984363Y-125014055D01*
X157984363Y-125014055D02*
X157906283Y-124979999D01*
X157906283Y-124979999D02*
X157866247Y-124943950D01*
X157866247Y-124943950D02*
X157824216Y-124869857D01*
X148709459Y-133435770D02*
X149165975Y-133411845D01*
X148937717Y-133423807D02*
X148895848Y-132624904D01*
X148895848Y-132624904D02*
X148977916Y-132735045D01*
X148977916Y-132735045D02*
X149057989Y-132807144D01*
X149057989Y-132807144D02*
X149136069Y-132841199D01*
X148173030Y-132662785D02*
X148096944Y-132666772D01*
X148096944Y-132666772D02*
X148022852Y-132708803D01*
X148022852Y-132708803D02*
X147986803Y-132748840D01*
X147986803Y-132748840D02*
X147952747Y-132826919D01*
X147952747Y-132826919D02*
X147922679Y-132981085D01*
X147922679Y-132981085D02*
X147932648Y-133171301D01*
X147932648Y-133171301D02*
X147978666Y-133321479D01*
X147978666Y-133321479D02*
X148020697Y-133395571D01*
X148020697Y-133395571D02*
X148060733Y-133431620D01*
X148060733Y-133431620D02*
X148138813Y-133465676D01*
X148138813Y-133465676D02*
X148214899Y-133461688D01*
X148214899Y-133461688D02*
X148288992Y-133419658D01*
X148288992Y-133419658D02*
X148325041Y-133379621D01*
X148325041Y-133379621D02*
X148359096Y-133301541D01*
X148359096Y-133301541D02*
X148389164Y-133147376D01*
X148389164Y-133147376D02*
X148379196Y-132957160D01*
X148379196Y-132957160D02*
X148333178Y-132806982D01*
X148333178Y-132806982D02*
X148291147Y-132732890D01*
X148291147Y-132732890D02*
X148251110Y-132696840D01*
X148251110Y-132696840D02*
X148173030Y-132662785D01*
X147412170Y-132702660D02*
X147336084Y-132706647D01*
X147336084Y-132706647D02*
X147261991Y-132748678D01*
X147261991Y-132748678D02*
X147225942Y-132788715D01*
X147225942Y-132788715D02*
X147191886Y-132866795D01*
X147191886Y-132866795D02*
X147161818Y-133020960D01*
X147161818Y-133020960D02*
X147171787Y-133211176D01*
X147171787Y-133211176D02*
X147217805Y-133361354D01*
X147217805Y-133361354D02*
X147259836Y-133435446D01*
X147259836Y-133435446D02*
X147299873Y-133471495D01*
X147299873Y-133471495D02*
X147377952Y-133505551D01*
X147377952Y-133505551D02*
X147454038Y-133501564D01*
X147454038Y-133501564D02*
X147528131Y-133459533D01*
X147528131Y-133459533D02*
X147564180Y-133419496D01*
X147564180Y-133419496D02*
X147598235Y-133341416D01*
X147598235Y-133341416D02*
X147628304Y-133187251D01*
X147628304Y-133187251D02*
X147618335Y-132997035D01*
X147618335Y-132997035D02*
X147572317Y-132846857D01*
X147572317Y-132846857D02*
X147530286Y-132772765D01*
X147530286Y-132772765D02*
X147490249Y-132736715D01*
X147490249Y-132736715D02*
X147412170Y-132702660D01*
X158660829Y-112566354D02*
X158907192Y-112171967D01*
X159117345Y-112542429D02*
X159075476Y-111743525D01*
X159075476Y-111743525D02*
X158771132Y-111759475D01*
X158771132Y-111759475D02*
X158697040Y-111801506D01*
X158697040Y-111801506D02*
X158660990Y-111841543D01*
X158660990Y-111841543D02*
X158626935Y-111919622D01*
X158626935Y-111919622D02*
X158632916Y-112033751D01*
X158632916Y-112033751D02*
X158674947Y-112107844D01*
X158674947Y-112107844D02*
X158714983Y-112143893D01*
X158714983Y-112143893D02*
X158793063Y-112177949D01*
X158793063Y-112177949D02*
X159097407Y-112161999D01*
X158344522Y-112354046D02*
X157964091Y-112373983D01*
X158432570Y-112578316D02*
X158124400Y-111793369D01*
X158124400Y-111793369D02*
X157899968Y-112606229D01*
X157667884Y-111817294D02*
X157519538Y-112626166D01*
X157519538Y-112626166D02*
X157337460Y-112063496D01*
X157337460Y-112063496D02*
X157215194Y-112642116D01*
X157215194Y-112642116D02*
X156983110Y-111853181D01*
X147870424Y-112330758D02*
X147794338Y-112334745D01*
X147794338Y-112334745D02*
X147720246Y-112376776D01*
X147720246Y-112376776D02*
X147684197Y-112416813D01*
X147684197Y-112416813D02*
X147650141Y-112494892D01*
X147650141Y-112494892D02*
X147620073Y-112649058D01*
X147620073Y-112649058D02*
X147630042Y-112839273D01*
X147630042Y-112839273D02*
X147676060Y-112989452D01*
X147676060Y-112989452D02*
X147718090Y-113063544D01*
X147718090Y-113063544D02*
X147758127Y-113099593D01*
X147758127Y-113099593D02*
X147836207Y-113133649D01*
X147836207Y-113133649D02*
X147912293Y-113129661D01*
X147912293Y-113129661D02*
X147986385Y-113087631D01*
X147986385Y-113087631D02*
X148022435Y-113047594D01*
X148022435Y-113047594D02*
X148056490Y-112969514D01*
X148056490Y-112969514D02*
X148086558Y-112815348D01*
X148086558Y-112815348D02*
X148076589Y-112625133D01*
X148076589Y-112625133D02*
X148030571Y-112474955D01*
X148030571Y-112474955D02*
X147988541Y-112400863D01*
X147988541Y-112400863D02*
X147948504Y-112364813D01*
X147948504Y-112364813D02*
X147870424Y-112330758D01*
X147109563Y-112370633D02*
X147033477Y-112374620D01*
X147033477Y-112374620D02*
X146959385Y-112416651D01*
X146959385Y-112416651D02*
X146923336Y-112456688D01*
X146923336Y-112456688D02*
X146889280Y-112534767D01*
X146889280Y-112534767D02*
X146859212Y-112688933D01*
X146859212Y-112688933D02*
X146869181Y-112879149D01*
X146869181Y-112879149D02*
X146915199Y-113029327D01*
X146915199Y-113029327D02*
X146957230Y-113103419D01*
X146957230Y-113103419D02*
X146997266Y-113139468D01*
X146997266Y-113139468D02*
X147075346Y-113173524D01*
X147075346Y-113173524D02*
X147151432Y-113169536D01*
X147151432Y-113169536D02*
X147225525Y-113127506D01*
X147225525Y-113127506D02*
X147261574Y-113087469D01*
X147261574Y-113087469D02*
X147295629Y-113009389D01*
X147295629Y-113009389D02*
X147325697Y-112855224D01*
X147325697Y-112855224D02*
X147315729Y-112665008D01*
X147315729Y-112665008D02*
X147269711Y-112514830D01*
X147269711Y-112514830D02*
X147227680Y-112440738D01*
X147227680Y-112440738D02*
X147187643Y-112404688D01*
X147187643Y-112404688D02*
X147109563Y-112370633D01*
X146158487Y-112420477D02*
X146310660Y-112412502D01*
X146310660Y-112412502D02*
X146388739Y-112446557D01*
X146388739Y-112446557D02*
X146428776Y-112482606D01*
X146428776Y-112482606D02*
X146510843Y-112592748D01*
X146510843Y-112592748D02*
X146556862Y-112742926D01*
X146556862Y-112742926D02*
X146572812Y-113047271D01*
X146572812Y-113047271D02*
X146538756Y-113125350D01*
X146538756Y-113125350D02*
X146502707Y-113165387D01*
X146502707Y-113165387D02*
X146428614Y-113207418D01*
X146428614Y-113207418D02*
X146276442Y-113215393D01*
X146276442Y-113215393D02*
X146198362Y-113181337D01*
X146198362Y-113181337D02*
X146158326Y-113145288D01*
X146158326Y-113145288D02*
X146116295Y-113071196D01*
X146116295Y-113071196D02*
X146106326Y-112880981D01*
X146106326Y-112880981D02*
X146140382Y-112802901D01*
X146140382Y-112802901D02*
X146176431Y-112762864D01*
X146176431Y-112762864D02*
X146250524Y-112720833D01*
X146250524Y-112720833D02*
X146402696Y-112712858D01*
X146402696Y-112712858D02*
X146480775Y-112746914D01*
X146480775Y-112746914D02*
X146520812Y-112782963D01*
X146520812Y-112782963D02*
X146562843Y-112857055D01*
X158791929Y-114340019D02*
X158866022Y-114297988D01*
X158866022Y-114297988D02*
X158980151Y-114292007D01*
X158980151Y-114292007D02*
X159096274Y-114324069D01*
X159096274Y-114324069D02*
X159176347Y-114396167D01*
X159176347Y-114396167D02*
X159218378Y-114470260D01*
X159218378Y-114470260D02*
X159264396Y-114620438D01*
X159264396Y-114620438D02*
X159270377Y-114734567D01*
X159270377Y-114734567D02*
X159240309Y-114888733D01*
X159240309Y-114888733D02*
X159206253Y-114966813D01*
X159206253Y-114966813D02*
X159134155Y-115046886D01*
X159134155Y-115046886D02*
X159022020Y-115090910D01*
X159022020Y-115090910D02*
X158945934Y-115094898D01*
X158945934Y-115094898D02*
X158829811Y-115062836D01*
X158829811Y-115062836D02*
X158789774Y-115026787D01*
X158789774Y-115026787D02*
X158775818Y-114760486D01*
X158775818Y-114760486D02*
X158927990Y-114752511D01*
X158451374Y-115120817D02*
X158409505Y-114321913D01*
X158409505Y-114321913D02*
X157994858Y-115144742D01*
X157994858Y-115144742D02*
X157952989Y-114345838D01*
X157614428Y-115164679D02*
X157572559Y-114365776D01*
X157572559Y-114365776D02*
X157382344Y-114375744D01*
X157382344Y-114375744D02*
X157270208Y-114419769D01*
X157270208Y-114419769D02*
X157198110Y-114499842D01*
X157198110Y-114499842D02*
X157164054Y-114577922D01*
X157164054Y-114577922D02*
X157133986Y-114732088D01*
X157133986Y-114732088D02*
X157139968Y-114846217D01*
X157139968Y-114846217D02*
X157185986Y-114996395D01*
X157185986Y-114996395D02*
X157228016Y-115070488D01*
X157228016Y-115070488D02*
X157308090Y-115142586D01*
X157308090Y-115142586D02*
X157424213Y-115174648D01*
X157424213Y-115174648D02*
X157614428Y-115164679D01*
X159768663Y-132856181D02*
X160225179Y-132832256D01*
X159996921Y-132844218D02*
X159955052Y-132045315D01*
X159955052Y-132045315D02*
X160037120Y-132155456D01*
X160037120Y-132155456D02*
X160117193Y-132227555D01*
X160117193Y-132227555D02*
X160195273Y-132261610D01*
X159007802Y-132896056D02*
X159464318Y-132872131D01*
X159236060Y-132884093D02*
X159194191Y-132085190D01*
X159194191Y-132085190D02*
X159276259Y-132195331D01*
X159276259Y-132195331D02*
X159356332Y-132267430D01*
X159356332Y-132267430D02*
X159434412Y-132301485D01*
X158699632Y-132111108D02*
X158205072Y-132137027D01*
X158205072Y-132137027D02*
X158487324Y-132427415D01*
X158487324Y-132427415D02*
X158373195Y-132433396D01*
X158373195Y-132433396D02*
X158299102Y-132475427D01*
X158299102Y-132475427D02*
X158263053Y-132515464D01*
X158263053Y-132515464D02*
X158228997Y-132593544D01*
X158228997Y-132593544D02*
X158238966Y-132783759D01*
X158238966Y-132783759D02*
X158280997Y-132857851D01*
X158280997Y-132857851D02*
X158321033Y-132893900D01*
X158321033Y-132893900D02*
X158399113Y-132927956D01*
X158399113Y-132927956D02*
X158627371Y-132915993D01*
X158627371Y-132915993D02*
X158701464Y-132873963D01*
X158701464Y-132873963D02*
X158737513Y-132833926D01*
X159461361Y-121897245D02*
X159385275Y-121901232D01*
X159385275Y-121901232D02*
X159311183Y-121943263D01*
X159311183Y-121943263D02*
X159275134Y-121983300D01*
X159275134Y-121983300D02*
X159241078Y-122061379D01*
X159241078Y-122061379D02*
X159211010Y-122215545D01*
X159211010Y-122215545D02*
X159220979Y-122405760D01*
X159220979Y-122405760D02*
X159266997Y-122555939D01*
X159266997Y-122555939D02*
X159309027Y-122630031D01*
X159309027Y-122630031D02*
X159349064Y-122666080D01*
X159349064Y-122666080D02*
X159427144Y-122700136D01*
X159427144Y-122700136D02*
X159503230Y-122696148D01*
X159503230Y-122696148D02*
X159577322Y-122654118D01*
X159577322Y-122654118D02*
X159613372Y-122614081D01*
X159613372Y-122614081D02*
X159647427Y-122536001D01*
X159647427Y-122536001D02*
X159677495Y-122381835D01*
X159677495Y-122381835D02*
X159667526Y-122191620D01*
X159667526Y-122191620D02*
X159621508Y-122041442D01*
X159621508Y-122041442D02*
X159579478Y-121967350D01*
X159579478Y-121967350D02*
X159539441Y-121931300D01*
X159539441Y-121931300D02*
X159461361Y-121897245D01*
X158928759Y-121925157D02*
X158434199Y-121951076D01*
X158434199Y-121951076D02*
X158716450Y-122241464D01*
X158716450Y-122241464D02*
X158602321Y-122247445D01*
X158602321Y-122247445D02*
X158528229Y-122289476D01*
X158528229Y-122289476D02*
X158492180Y-122329513D01*
X158492180Y-122329513D02*
X158458124Y-122407592D01*
X158458124Y-122407592D02*
X158468093Y-122597808D01*
X158468093Y-122597808D02*
X158510124Y-122671900D01*
X158510124Y-122671900D02*
X158550160Y-122707949D01*
X158550160Y-122707949D02*
X158628240Y-122742005D01*
X158628240Y-122742005D02*
X158856498Y-122730042D01*
X158856498Y-122730042D02*
X158930591Y-122688012D01*
X158930591Y-122688012D02*
X158966640Y-122647975D01*
X157715207Y-122789855D02*
X158171724Y-122765930D01*
X157943465Y-122777892D02*
X157901597Y-121978989D01*
X157901597Y-121978989D02*
X157983664Y-122089130D01*
X157983664Y-122089130D02*
X158063737Y-122161229D01*
X158063737Y-122161229D02*
X158141817Y-122195284D01*
X147999694Y-114797372D02*
X147923608Y-114801359D01*
X147923608Y-114801359D02*
X147849516Y-114843390D01*
X147849516Y-114843390D02*
X147813467Y-114883427D01*
X147813467Y-114883427D02*
X147779411Y-114961506D01*
X147779411Y-114961506D02*
X147749343Y-115115672D01*
X147749343Y-115115672D02*
X147759312Y-115305887D01*
X147759312Y-115305887D02*
X147805330Y-115456066D01*
X147805330Y-115456066D02*
X147847360Y-115530158D01*
X147847360Y-115530158D02*
X147887397Y-115566207D01*
X147887397Y-115566207D02*
X147965477Y-115600263D01*
X147965477Y-115600263D02*
X148041563Y-115596275D01*
X148041563Y-115596275D02*
X148115655Y-115554245D01*
X148115655Y-115554245D02*
X148151705Y-115514208D01*
X148151705Y-115514208D02*
X148185760Y-115436128D01*
X148185760Y-115436128D02*
X148215828Y-115281962D01*
X148215828Y-115281962D02*
X148205859Y-115091747D01*
X148205859Y-115091747D02*
X148159841Y-114941569D01*
X148159841Y-114941569D02*
X148117811Y-114867477D01*
X148117811Y-114867477D02*
X148077774Y-114831427D01*
X148077774Y-114831427D02*
X147999694Y-114797372D01*
X147238833Y-114837247D02*
X147162747Y-114841234D01*
X147162747Y-114841234D02*
X147088655Y-114883265D01*
X147088655Y-114883265D02*
X147052606Y-114923302D01*
X147052606Y-114923302D02*
X147018550Y-115001381D01*
X147018550Y-115001381D02*
X146988482Y-115155547D01*
X146988482Y-115155547D02*
X146998451Y-115345763D01*
X146998451Y-115345763D02*
X147044469Y-115495941D01*
X147044469Y-115495941D02*
X147086500Y-115570033D01*
X147086500Y-115570033D02*
X147126536Y-115606082D01*
X147126536Y-115606082D02*
X147204616Y-115640138D01*
X147204616Y-115640138D02*
X147280702Y-115636150D01*
X147280702Y-115636150D02*
X147354795Y-115594120D01*
X147354795Y-115594120D02*
X147390844Y-115554083D01*
X147390844Y-115554083D02*
X147424899Y-115476003D01*
X147424899Y-115476003D02*
X147454967Y-115321838D01*
X147454967Y-115321838D02*
X147444999Y-115131622D01*
X147444999Y-115131622D02*
X147398981Y-114981444D01*
X147398981Y-114981444D02*
X147356950Y-114907352D01*
X147356950Y-114907352D02*
X147316913Y-114871302D01*
X147316913Y-114871302D02*
X147238833Y-114837247D01*
X146533959Y-115217515D02*
X146608052Y-115175485D01*
X146608052Y-115175485D02*
X146644101Y-115135448D01*
X146644101Y-115135448D02*
X146678157Y-115057368D01*
X146678157Y-115057368D02*
X146676163Y-115019325D01*
X146676163Y-115019325D02*
X146634132Y-114945233D01*
X146634132Y-114945233D02*
X146594095Y-114909184D01*
X146594095Y-114909184D02*
X146516016Y-114875128D01*
X146516016Y-114875128D02*
X146363844Y-114883103D01*
X146363844Y-114883103D02*
X146289751Y-114925134D01*
X146289751Y-114925134D02*
X146253702Y-114965170D01*
X146253702Y-114965170D02*
X146219646Y-115043250D01*
X146219646Y-115043250D02*
X146221640Y-115081293D01*
X146221640Y-115081293D02*
X146263671Y-115155386D01*
X146263671Y-115155386D02*
X146303707Y-115191435D01*
X146303707Y-115191435D02*
X146381787Y-115225490D01*
X146381787Y-115225490D02*
X146533959Y-115217515D01*
X146533959Y-115217515D02*
X146612039Y-115251571D01*
X146612039Y-115251571D02*
X146652076Y-115287620D01*
X146652076Y-115287620D02*
X146694107Y-115361713D01*
X146694107Y-115361713D02*
X146702082Y-115513885D01*
X146702082Y-115513885D02*
X146668026Y-115591964D01*
X146668026Y-115591964D02*
X146631977Y-115632001D01*
X146631977Y-115632001D02*
X146557884Y-115674032D01*
X146557884Y-115674032D02*
X146405712Y-115682007D01*
X146405712Y-115682007D02*
X146327632Y-115647951D01*
X146327632Y-115647951D02*
X146287596Y-115611902D01*
X146287596Y-115611902D02*
X146245565Y-115537810D01*
X146245565Y-115537810D02*
X146237590Y-115385638D01*
X146237590Y-115385638D02*
X146271646Y-115307558D01*
X146271646Y-115307558D02*
X146307695Y-115267521D01*
X146307695Y-115267521D02*
X146381787Y-115225490D01*
X148669594Y-127579831D02*
X148593508Y-127583818D01*
X148593508Y-127583818D02*
X148519416Y-127625849D01*
X148519416Y-127625849D02*
X148483367Y-127665886D01*
X148483367Y-127665886D02*
X148449311Y-127743965D01*
X148449311Y-127743965D02*
X148419243Y-127898131D01*
X148419243Y-127898131D02*
X148429212Y-128088346D01*
X148429212Y-128088346D02*
X148475230Y-128238525D01*
X148475230Y-128238525D02*
X148517260Y-128312617D01*
X148517260Y-128312617D02*
X148557297Y-128348666D01*
X148557297Y-128348666D02*
X148635377Y-128382722D01*
X148635377Y-128382722D02*
X148711463Y-128378734D01*
X148711463Y-128378734D02*
X148785555Y-128336704D01*
X148785555Y-128336704D02*
X148821605Y-128296667D01*
X148821605Y-128296667D02*
X148855660Y-128218587D01*
X148855660Y-128218587D02*
X148885728Y-128064421D01*
X148885728Y-128064421D02*
X148875759Y-127874206D01*
X148875759Y-127874206D02*
X148829741Y-127724028D01*
X148829741Y-127724028D02*
X148787711Y-127649936D01*
X148787711Y-127649936D02*
X148747674Y-127613886D01*
X148747674Y-127613886D02*
X148669594Y-127579831D01*
X148102936Y-127685823D02*
X148062899Y-127649774D01*
X148062899Y-127649774D02*
X147984820Y-127615718D01*
X147984820Y-127615718D02*
X147794604Y-127625687D01*
X147794604Y-127625687D02*
X147720512Y-127667718D01*
X147720512Y-127667718D02*
X147684463Y-127707754D01*
X147684463Y-127707754D02*
X147650407Y-127785834D01*
X147650407Y-127785834D02*
X147654395Y-127861920D01*
X147654395Y-127861920D02*
X147698419Y-127974056D01*
X147698419Y-127974056D02*
X148178860Y-128406647D01*
X148178860Y-128406647D02*
X147684301Y-128432566D01*
X147342075Y-127725698D02*
X147302038Y-127689649D01*
X147302038Y-127689649D02*
X147223959Y-127655593D01*
X147223959Y-127655593D02*
X147033744Y-127665562D01*
X147033744Y-127665562D02*
X146959651Y-127707593D01*
X146959651Y-127707593D02*
X146923602Y-127747629D01*
X146923602Y-127747629D02*
X146889546Y-127825709D01*
X146889546Y-127825709D02*
X146893534Y-127901795D01*
X146893534Y-127901795D02*
X146937558Y-128013931D01*
X146937558Y-128013931D02*
X147418000Y-128446522D01*
X147418000Y-128446522D02*
X146923440Y-128472441D01*
X159635729Y-130319662D02*
X160092245Y-130295737D01*
X159863987Y-130307699D02*
X159822118Y-129508796D01*
X159822118Y-129508796D02*
X159904186Y-129618937D01*
X159904186Y-129618937D02*
X159984259Y-129691036D01*
X159984259Y-129691036D02*
X160062339Y-129725091D01*
X158874868Y-130359537D02*
X159331384Y-130335612D01*
X159103126Y-130347574D02*
X159061257Y-129548671D01*
X159061257Y-129548671D02*
X159143325Y-129658812D01*
X159143325Y-129658812D02*
X159223398Y-129730911D01*
X159223398Y-129730911D02*
X159301478Y-129764966D01*
X158110181Y-129598514D02*
X158490612Y-129578577D01*
X158490612Y-129578577D02*
X158548592Y-129957013D01*
X158548592Y-129957013D02*
X158508555Y-129920964D01*
X158508555Y-129920964D02*
X158430476Y-129886909D01*
X158430476Y-129886909D02*
X158240261Y-129896877D01*
X158240261Y-129896877D02*
X158166168Y-129938908D01*
X158166168Y-129938908D02*
X158130119Y-129978945D01*
X158130119Y-129978945D02*
X158096063Y-130057025D01*
X158096063Y-130057025D02*
X158106032Y-130247240D01*
X158106032Y-130247240D02*
X158148063Y-130321332D01*
X158148063Y-130321332D02*
X158188099Y-130357381D01*
X158188099Y-130357381D02*
X158266179Y-130391437D01*
X158266179Y-130391437D02*
X158456394Y-130381468D01*
X158456394Y-130381468D02*
X158530487Y-130339437D01*
X158530487Y-130339437D02*
X158566536Y-130299401D01*
X148024154Y-117447820D02*
X148098247Y-117405789D01*
X148098247Y-117405789D02*
X148212376Y-117399808D01*
X148212376Y-117399808D02*
X148328499Y-117431870D01*
X148328499Y-117431870D02*
X148408572Y-117503968D01*
X148408572Y-117503968D02*
X148450603Y-117578061D01*
X148450603Y-117578061D02*
X148496621Y-117728239D01*
X148496621Y-117728239D02*
X148502602Y-117842368D01*
X148502602Y-117842368D02*
X148472534Y-117996534D01*
X148472534Y-117996534D02*
X148438478Y-118074614D01*
X148438478Y-118074614D02*
X148366380Y-118154687D01*
X148366380Y-118154687D02*
X148254245Y-118198711D01*
X148254245Y-118198711D02*
X148178159Y-118202699D01*
X148178159Y-118202699D02*
X148062036Y-118170637D01*
X148062036Y-118170637D02*
X148021999Y-118134588D01*
X148021999Y-118134588D02*
X148008043Y-117868287D01*
X148008043Y-117868287D02*
X148160215Y-117860312D01*
X147683599Y-118228618D02*
X147641730Y-117429714D01*
X147641730Y-117429714D02*
X147227083Y-118252543D01*
X147227083Y-118252543D02*
X147185214Y-117453639D01*
X146846653Y-118272480D02*
X146804784Y-117473577D01*
X146804784Y-117473577D02*
X146614569Y-117483545D01*
X146614569Y-117483545D02*
X146502433Y-117527570D01*
X146502433Y-117527570D02*
X146430335Y-117607643D01*
X146430335Y-117607643D02*
X146396279Y-117685723D01*
X146396279Y-117685723D02*
X146366211Y-117839889D01*
X146366211Y-117839889D02*
X146372193Y-117954018D01*
X146372193Y-117954018D02*
X146418211Y-118104196D01*
X146418211Y-118104196D02*
X146460241Y-118178289D01*
X146460241Y-118178289D02*
X146540315Y-118250387D01*
X146540315Y-118250387D02*
X146656438Y-118282449D01*
X146656438Y-118282449D02*
X146846653Y-118272480D01*
X160258961Y-137116359D02*
X160182875Y-137120346D01*
X160182875Y-137120346D02*
X160108783Y-137162377D01*
X160108783Y-137162377D02*
X160072734Y-137202414D01*
X160072734Y-137202414D02*
X160038678Y-137280493D01*
X160038678Y-137280493D02*
X160008610Y-137434659D01*
X160008610Y-137434659D02*
X160018579Y-137624874D01*
X160018579Y-137624874D02*
X160064597Y-137775053D01*
X160064597Y-137775053D02*
X160106627Y-137849145D01*
X160106627Y-137849145D02*
X160146664Y-137885194D01*
X160146664Y-137885194D02*
X160224744Y-137919250D01*
X160224744Y-137919250D02*
X160300830Y-137915262D01*
X160300830Y-137915262D02*
X160374922Y-137873232D01*
X160374922Y-137873232D02*
X160410972Y-137833195D01*
X160410972Y-137833195D02*
X160445027Y-137755115D01*
X160445027Y-137755115D02*
X160475095Y-137600949D01*
X160475095Y-137600949D02*
X160465126Y-137410734D01*
X160465126Y-137410734D02*
X160419108Y-137260556D01*
X160419108Y-137260556D02*
X160377078Y-137186464D01*
X160377078Y-137186464D02*
X160337041Y-137150414D01*
X160337041Y-137150414D02*
X160258961Y-137116359D01*
X159273668Y-137969094D02*
X159730184Y-137945169D01*
X159501926Y-137957131D02*
X159460057Y-137158228D01*
X159460057Y-137158228D02*
X159542125Y-137268369D01*
X159542125Y-137268369D02*
X159622198Y-137340468D01*
X159622198Y-137340468D02*
X159700278Y-137374523D01*
X158737240Y-137196109D02*
X158661154Y-137200096D01*
X158661154Y-137200096D02*
X158587061Y-137242127D01*
X158587061Y-137242127D02*
X158551012Y-137282164D01*
X158551012Y-137282164D02*
X158516956Y-137360244D01*
X158516956Y-137360244D02*
X158486888Y-137514409D01*
X158486888Y-137514409D02*
X158496857Y-137704625D01*
X158496857Y-137704625D02*
X158542875Y-137854803D01*
X158542875Y-137854803D02*
X158584906Y-137928895D01*
X158584906Y-137928895D02*
X158624943Y-137964944D01*
X158624943Y-137964944D02*
X158703022Y-137999000D01*
X158703022Y-137999000D02*
X158779108Y-137995013D01*
X158779108Y-137995013D02*
X158853201Y-137952982D01*
X158853201Y-137952982D02*
X158889250Y-137912945D01*
X158889250Y-137912945D02*
X158923305Y-137834865D01*
X158923305Y-137834865D02*
X158953374Y-137680700D01*
X158953374Y-137680700D02*
X158943405Y-137490484D01*
X158943405Y-137490484D02*
X158897387Y-137340306D01*
X158897387Y-137340306D02*
X158855356Y-137266214D01*
X158855356Y-137266214D02*
X158815319Y-137230164D01*
X158815319Y-137230164D02*
X158737240Y-137196109D01*
X158926694Y-117639392D02*
X159173058Y-117245006D01*
X159383210Y-117615467D02*
X159341342Y-116816563D01*
X159341342Y-116816563D02*
X159036997Y-116832513D01*
X159036997Y-116832513D02*
X158962905Y-116874544D01*
X158962905Y-116874544D02*
X158926856Y-116914581D01*
X158926856Y-116914581D02*
X158892800Y-116992661D01*
X158892800Y-116992661D02*
X158898782Y-117106790D01*
X158898782Y-117106790D02*
X158940812Y-117180882D01*
X158940812Y-117180882D02*
X158980849Y-117216931D01*
X158980849Y-117216931D02*
X159058929Y-117250987D01*
X159058929Y-117250987D02*
X159363273Y-117235037D01*
X158620356Y-117617299D02*
X158508221Y-117661323D01*
X158508221Y-117661323D02*
X158318006Y-117671292D01*
X158318006Y-117671292D02*
X158239926Y-117637237D01*
X158239926Y-117637237D02*
X158199889Y-117601187D01*
X158199889Y-117601187D02*
X158157859Y-117527095D01*
X158157859Y-117527095D02*
X158153871Y-117451009D01*
X158153871Y-117451009D02*
X158187927Y-117372929D01*
X158187927Y-117372929D02*
X158223976Y-117332892D01*
X158223976Y-117332892D02*
X158298068Y-117290862D01*
X158298068Y-117290862D02*
X158448247Y-117244844D01*
X158448247Y-117244844D02*
X158522339Y-117202813D01*
X158522339Y-117202813D02*
X158558388Y-117162776D01*
X158558388Y-117162776D02*
X158592444Y-117084697D01*
X158592444Y-117084697D02*
X158588456Y-117008611D01*
X158588456Y-117008611D02*
X158546426Y-116934518D01*
X158546426Y-116934518D02*
X158506389Y-116898469D01*
X158506389Y-116898469D02*
X158428309Y-116864413D01*
X158428309Y-116864413D02*
X158238094Y-116874382D01*
X158238094Y-116874382D02*
X158125959Y-116918407D01*
X157895706Y-116892326D02*
X157439190Y-116916251D01*
X157709317Y-117703192D02*
X157667448Y-116904289D01*
X159594729Y-119346770D02*
X159370297Y-120159629D01*
X159370297Y-120159629D02*
X159062127Y-119374682D01*
X158377191Y-120135381D02*
X158417228Y-120171430D01*
X158417228Y-120171430D02*
X158533351Y-120203492D01*
X158533351Y-120203492D02*
X158609437Y-120199504D01*
X158609437Y-120199504D02*
X158721572Y-120155480D01*
X158721572Y-120155480D02*
X158793671Y-120075407D01*
X158793671Y-120075407D02*
X158827726Y-119997327D01*
X158827726Y-119997327D02*
X158857794Y-119843161D01*
X158857794Y-119843161D02*
X158851813Y-119729032D01*
X158851813Y-119729032D02*
X158805795Y-119578853D01*
X158805795Y-119578853D02*
X158763764Y-119504761D01*
X158763764Y-119504761D02*
X158683691Y-119432663D01*
X158683691Y-119432663D02*
X158567568Y-119400601D01*
X158567568Y-119400601D02*
X158491482Y-119404588D01*
X158491482Y-119404588D02*
X158379347Y-119448613D01*
X158379347Y-119448613D02*
X158343297Y-119488649D01*
X157578287Y-120177250D02*
X157618324Y-120213299D01*
X157618324Y-120213299D02*
X157734447Y-120245361D01*
X157734447Y-120245361D02*
X157810533Y-120241373D01*
X157810533Y-120241373D02*
X157922668Y-120197349D01*
X157922668Y-120197349D02*
X157994767Y-120117275D01*
X157994767Y-120117275D02*
X158028823Y-120039196D01*
X158028823Y-120039196D02*
X158058891Y-119885030D01*
X158058891Y-119885030D02*
X158052909Y-119770901D01*
X158052909Y-119770901D02*
X158006891Y-119620722D01*
X158006891Y-119620722D02*
X157964861Y-119546630D01*
X157964861Y-119546630D02*
X157884787Y-119474531D01*
X157884787Y-119474531D02*
X157768664Y-119442470D01*
X157768664Y-119442470D02*
X157692578Y-119446457D01*
X157692578Y-119446457D02*
X157580443Y-119490481D01*
X157580443Y-119490481D02*
X157544394Y-119530518D01*
X159901596Y-135392700D02*
X160358112Y-135368775D01*
X160129854Y-135380737D02*
X160087985Y-134581834D01*
X160087985Y-134581834D02*
X160170053Y-134691975D01*
X160170053Y-134691975D02*
X160250126Y-134764074D01*
X160250126Y-134764074D02*
X160328206Y-134798129D01*
X159140735Y-135432575D02*
X159597251Y-135408650D01*
X159368993Y-135420612D02*
X159327124Y-134621709D01*
X159327124Y-134621709D02*
X159409192Y-134731850D01*
X159409192Y-134731850D02*
X159489265Y-134803949D01*
X159489265Y-134803949D02*
X159567345Y-134838004D01*
X158379874Y-135472450D02*
X158836391Y-135448525D01*
X158608132Y-135460487D02*
X158566264Y-134661584D01*
X158566264Y-134661584D02*
X158648331Y-134771725D01*
X158648331Y-134771725D02*
X158728404Y-134843824D01*
X158728404Y-134843824D02*
X158806484Y-134877879D01*
X148402681Y-122486820D02*
X148326595Y-122490807D01*
X148326595Y-122490807D02*
X148252503Y-122532838D01*
X148252503Y-122532838D02*
X148216454Y-122572875D01*
X148216454Y-122572875D02*
X148182398Y-122650954D01*
X148182398Y-122650954D02*
X148152330Y-122805120D01*
X148152330Y-122805120D02*
X148162299Y-122995335D01*
X148162299Y-122995335D02*
X148208317Y-123145514D01*
X148208317Y-123145514D02*
X148250347Y-123219606D01*
X148250347Y-123219606D02*
X148290384Y-123255655D01*
X148290384Y-123255655D02*
X148368464Y-123289711D01*
X148368464Y-123289711D02*
X148444550Y-123285723D01*
X148444550Y-123285723D02*
X148518642Y-123243693D01*
X148518642Y-123243693D02*
X148554692Y-123203656D01*
X148554692Y-123203656D02*
X148588747Y-123125576D01*
X148588747Y-123125576D02*
X148618815Y-122971410D01*
X148618815Y-122971410D02*
X148608846Y-122781195D01*
X148608846Y-122781195D02*
X148562828Y-122631017D01*
X148562828Y-122631017D02*
X148520798Y-122556925D01*
X148520798Y-122556925D02*
X148480761Y-122520875D01*
X148480761Y-122520875D02*
X148402681Y-122486820D01*
X147417388Y-123339555D02*
X147873904Y-123315630D01*
X147645646Y-123327592D02*
X147603777Y-122528689D01*
X147603777Y-122528689D02*
X147685845Y-122638830D01*
X147685845Y-122638830D02*
X147765918Y-122710929D01*
X147765918Y-122710929D02*
X147843998Y-122744984D01*
X147109218Y-122554607D02*
X146576615Y-122582520D01*
X146576615Y-122582520D02*
X146960871Y-123363480D01*
%TO.C,T1*%
X144239821Y-182407260D02*
X147046522Y-182902157D01*
X144812859Y-179157394D02*
X144239821Y-182407260D01*
X144812859Y-179157394D02*
X145385898Y-175907528D01*
X145151472Y-177237019D02*
X144474245Y-181077769D01*
X147046522Y-182902157D02*
X148192600Y-176402426D01*
X148192600Y-176402426D02*
X145385898Y-175907528D01*
D11*
%TO.C,D17*%
X204310652Y-174920387D02*
X205109556Y-174878518D01*
X204710104Y-174899453D02*
X204683936Y-174400138D01*
X204741506Y-175498630D02*
X204192259Y-175527415D01*
X204741506Y-175498630D02*
X204310652Y-174920387D01*
X204741506Y-175498630D02*
X205290752Y-175469846D01*
X204762440Y-175898082D02*
X204741506Y-175498630D01*
X205109556Y-174878518D02*
X204741506Y-175498630D01*
%TO.C,D10*%
X240965091Y-148250491D02*
X241763995Y-148208622D01*
X241364543Y-148229557D02*
X241338375Y-147730242D01*
X241395945Y-148828734D02*
X240846698Y-148857519D01*
X241395945Y-148828734D02*
X240965091Y-148250491D01*
X241395945Y-148828734D02*
X241945191Y-148799950D01*
X241416879Y-149228186D02*
X241395945Y-148828734D01*
X241763995Y-148208622D02*
X241395945Y-148828734D01*
%TO.C,D3*%
X280349798Y-140104160D02*
X281149798Y-140104160D01*
X280749798Y-140104160D02*
X280749798Y-139604160D01*
X280749798Y-140704160D02*
X280199798Y-140704160D01*
X280749798Y-140704160D02*
X280349798Y-140104160D01*
X280749798Y-140704160D02*
X281299798Y-140704160D01*
X280749798Y-141104160D02*
X280749798Y-140704160D01*
X281149798Y-140104160D02*
X280749798Y-140704160D01*
D12*
%TO.C,MCU1*%
X143546814Y-109180426D02*
X145274947Y-142155173D01*
X145274947Y-142155173D02*
X163030581Y-141224639D01*
X161302447Y-108249892D02*
X143546814Y-109180426D01*
X163030581Y-141224639D02*
X161302447Y-108249892D01*
D11*
%TO.C,D4*%
X280349798Y-121104160D02*
X281149798Y-121104160D01*
X280749798Y-121104160D02*
X280749798Y-120604160D01*
X280749798Y-121704160D02*
X280199798Y-121704160D01*
X280749798Y-121704160D02*
X280349798Y-121104160D01*
X280749798Y-121704160D02*
X281299798Y-121704160D01*
X280749798Y-122104160D02*
X280749798Y-121704160D01*
X281149798Y-121104160D02*
X280749798Y-121704160D01*
%TO.C,D20*%
X201327502Y-117998503D02*
X202126406Y-117956634D01*
X201726954Y-117977569D02*
X201700786Y-117478254D01*
X201758356Y-118576746D02*
X201209109Y-118605531D01*
X201758356Y-118576746D02*
X201327502Y-117998503D01*
X201758356Y-118576746D02*
X202307602Y-118547962D01*
X201779290Y-118976198D02*
X201758356Y-118576746D01*
X202126406Y-117956634D02*
X201758356Y-118576746D01*
%TO.C,D13*%
X223035363Y-169170031D02*
X223834267Y-169128162D01*
X223434815Y-169149097D02*
X223408647Y-168649782D01*
X223466217Y-169748274D02*
X222916970Y-169777059D01*
X223466217Y-169748274D02*
X223035363Y-169170031D01*
X223466217Y-169748274D02*
X224015463Y-169719490D01*
X223487151Y-170147726D02*
X223466217Y-169748274D01*
X223834267Y-169128162D02*
X223466217Y-169748274D01*
D10*
%TO.C,JST1*%
X154941436Y-166292348D02*
X155250218Y-172184262D01*
X155250218Y-172184262D02*
X162839803Y-171786509D01*
X159524240Y-167754506D02*
X159550408Y-168253821D01*
X159786982Y-167991079D02*
X159287667Y-168017247D01*
X160969849Y-166677373D02*
X162567656Y-166593635D01*
X161205362Y-171171205D02*
X160969849Y-166677373D01*
X162531021Y-165894594D02*
X154941436Y-166292348D01*
X162567656Y-166593635D02*
X162531021Y-165894594D01*
X162803168Y-171087468D02*
X161205362Y-171171205D01*
X162839803Y-171786509D02*
X162803168Y-171087468D01*
D11*
%TO.C,D25*%
X232331969Y-189131228D02*
X233117271Y-188978581D01*
X232724620Y-189054904D02*
X232629215Y-188564091D01*
X232839105Y-189643881D02*
X232299210Y-189748825D01*
X232839105Y-189643881D02*
X232331969Y-189131228D01*
X232839105Y-189643881D02*
X233379000Y-189538936D01*
X232915429Y-190036531D02*
X232839105Y-189643881D01*
X233117271Y-188978581D02*
X232839105Y-189643881D01*
%TO.C,D5*%
X261349798Y-172389160D02*
X262149798Y-172389160D01*
X261749798Y-172389160D02*
X261749798Y-171889160D01*
X261749798Y-172989160D02*
X261199798Y-172989160D01*
X261749798Y-172989160D02*
X261349798Y-172389160D01*
X261749798Y-172989160D02*
X262299798Y-172989160D01*
X261749798Y-173389160D02*
X261749798Y-172989160D01*
X262149798Y-172389160D02*
X261749798Y-172989160D01*
%TO.C,D29*%
X165734698Y-164925599D02*
X166533602Y-164883730D01*
X166134150Y-164904665D02*
X166107982Y-164405350D01*
X166165552Y-165503842D02*
X165616305Y-165532627D01*
X166165552Y-165503842D02*
X165734698Y-164925599D01*
X166165552Y-165503842D02*
X166714798Y-165475058D01*
X166186486Y-165903294D02*
X166165552Y-165503842D01*
X166533602Y-164883730D02*
X166165552Y-165503842D01*
%TO.C,D7*%
X261349798Y-134389160D02*
X262149798Y-134389160D01*
X261749798Y-134389160D02*
X261749798Y-133889160D01*
X261749798Y-134989160D02*
X261199798Y-134989160D01*
X261749798Y-134989160D02*
X261349798Y-134389160D01*
X261749798Y-134989160D02*
X262299798Y-134989160D01*
X261749798Y-135389160D02*
X261749798Y-134989160D01*
X262149798Y-134389160D02*
X261749798Y-134989160D01*
%TO.C,D19*%
X202321886Y-136972464D02*
X203120790Y-136930595D01*
X202721338Y-136951530D02*
X202695170Y-136452215D01*
X202752740Y-137550707D02*
X202203493Y-137579492D01*
X202752740Y-137550707D02*
X202321886Y-136972464D01*
X202752740Y-137550707D02*
X203301986Y-137521923D01*
X202773674Y-137950159D02*
X202752740Y-137550707D01*
X203120790Y-136930595D02*
X202752740Y-137550707D01*
%TO.C,D11*%
X239970708Y-129276530D02*
X240769612Y-129234661D01*
X240370160Y-129255596D02*
X240343992Y-128756281D01*
X240401562Y-129854773D02*
X239852315Y-129883558D01*
X240401562Y-129854773D02*
X239970708Y-129276530D01*
X240401562Y-129854773D02*
X240950808Y-129825989D01*
X240422496Y-130254225D02*
X240401562Y-129854773D01*
X240769612Y-129234661D02*
X240401562Y-129854773D01*
%TO.C,D12*%
X238976325Y-110302569D02*
X239775229Y-110260700D01*
X239375777Y-110281635D02*
X239349609Y-109782320D01*
X239407179Y-110880812D02*
X238857932Y-110909597D01*
X239407179Y-110880812D02*
X238976325Y-110302569D01*
X239407179Y-110880812D02*
X239956425Y-110852028D01*
X239428113Y-111280264D02*
X239407179Y-110880812D01*
X239775229Y-110260700D02*
X239407179Y-110880812D01*
%TO.C,D15*%
X221046597Y-131222108D02*
X221845501Y-131180239D01*
X221446049Y-131201174D02*
X221419881Y-130701859D01*
X221477451Y-131800351D02*
X220928204Y-131829136D01*
X221477451Y-131800351D02*
X221046597Y-131222108D01*
X221477451Y-131800351D02*
X222026697Y-131771567D01*
X221498385Y-132199803D02*
X221477451Y-131800351D01*
X221845501Y-131180239D02*
X221477451Y-131800351D01*
%TO.C,D1*%
X280349798Y-178104160D02*
X281149798Y-178104160D01*
X280749798Y-178104160D02*
X280749798Y-177604160D01*
X280749798Y-178704160D02*
X280199798Y-178704160D01*
X280749798Y-178704160D02*
X280349798Y-178104160D01*
X280749798Y-178704160D02*
X281299798Y-178704160D01*
X280749798Y-179104160D02*
X280749798Y-178704160D01*
X281149798Y-178104160D02*
X280749798Y-178704160D01*
%TO.C,D26*%
X213681053Y-192756599D02*
X214466355Y-192603952D01*
X214073704Y-192680275D02*
X213978299Y-192189462D01*
X214188189Y-193269252D02*
X213648294Y-193374196D01*
X214188189Y-193269252D02*
X213681053Y-192756599D01*
X214188189Y-193269252D02*
X214728084Y-193164307D01*
X214264513Y-193661902D02*
X214188189Y-193269252D01*
X214466355Y-192603952D02*
X214188189Y-193269252D01*
%TO.C,D9*%
X241959474Y-167224453D02*
X242758378Y-167182584D01*
X242358926Y-167203519D02*
X242332758Y-166704204D01*
X242390328Y-167802696D02*
X241841081Y-167831481D01*
X242390328Y-167802696D02*
X241959474Y-167224453D01*
X242390328Y-167802696D02*
X242939574Y-167773912D01*
X242411262Y-168202148D02*
X242390328Y-167802696D01*
X242758378Y-167182584D02*
X242390328Y-167802696D01*
%TO.C,D14*%
X222040980Y-150196069D02*
X222839884Y-150154200D01*
X222440432Y-150175135D02*
X222414264Y-149675820D01*
X222471834Y-150774312D02*
X221922587Y-150803097D01*
X222471834Y-150774312D02*
X222040980Y-150196069D01*
X222471834Y-150774312D02*
X223021080Y-150745528D01*
X222492768Y-151173764D02*
X222471834Y-150774312D01*
X222839884Y-150154200D02*
X222471834Y-150774312D01*
%TO.C,D18*%
X203316269Y-155946426D02*
X204115173Y-155904557D01*
X203715721Y-155925492D02*
X203689553Y-155426177D01*
X203747123Y-156524669D02*
X203197876Y-156553454D01*
X203747123Y-156524669D02*
X203316269Y-155946426D01*
X203747123Y-156524669D02*
X204296369Y-156495885D01*
X203768057Y-156924121D02*
X203747123Y-156524669D01*
X204115173Y-155904557D02*
X203747123Y-156524669D01*
%TO.C,D27*%
X194791625Y-195154936D02*
X195576927Y-195002289D01*
X195184276Y-195078612D02*
X195088871Y-194587799D01*
X195298761Y-195667589D02*
X194758866Y-195772533D01*
X195298761Y-195667589D02*
X194791625Y-195154936D01*
X195298761Y-195667589D02*
X195838656Y-195562644D01*
X195375085Y-196060239D02*
X195298761Y-195667589D01*
X195576927Y-195002289D02*
X195298761Y-195667589D01*
%TO.C,D2*%
X280349798Y-159104160D02*
X281149798Y-159104160D01*
X280749798Y-159104160D02*
X280749798Y-158604160D01*
X280749798Y-159704160D02*
X280199798Y-159704160D01*
X280749798Y-159704160D02*
X280349798Y-159104160D01*
X280749798Y-159704160D02*
X281299798Y-159704160D01*
X280749798Y-160104160D02*
X280749798Y-159704160D01*
X281149798Y-159104160D02*
X280749798Y-159704160D01*
%TO.C,D28*%
X168435020Y-188433905D02*
X169065429Y-187941376D01*
X168750225Y-188187640D02*
X168442394Y-187793635D01*
X169065429Y-187941376D02*
X169119622Y-188660447D01*
X169119622Y-188660447D02*
X168435020Y-188433905D01*
X169119622Y-188660447D02*
X168686216Y-188999061D01*
X169119622Y-188660447D02*
X169553027Y-188321833D01*
X169365886Y-188975651D02*
X169119622Y-188660447D01*
%TO.C,D8*%
X261349798Y-115389160D02*
X262149798Y-115389160D01*
X261749798Y-115389160D02*
X261749798Y-114889160D01*
X261749798Y-115989160D02*
X261199798Y-115989160D01*
X261749798Y-115989160D02*
X261349798Y-115389160D01*
X261749798Y-115989160D02*
X262299798Y-115989160D01*
X261749798Y-116389160D02*
X261749798Y-115989160D01*
X262149798Y-115389160D02*
X261749798Y-115989160D01*
%TO.C,D21*%
X185389027Y-176913400D02*
X186187931Y-176871531D01*
X185788479Y-176892466D02*
X185762311Y-176393151D01*
X185819881Y-177491643D02*
X185270634Y-177520428D01*
X185819881Y-177491643D02*
X185389027Y-176913400D01*
X185819881Y-177491643D02*
X186369127Y-177462859D01*
X185840815Y-177891095D02*
X185819881Y-177491643D01*
X186187931Y-176871531D02*
X185819881Y-177491643D01*
%TO.C,D23*%
X183400260Y-138965477D02*
X184199164Y-138923608D01*
X183799712Y-138944543D02*
X183773544Y-138445228D01*
X183831114Y-139543720D02*
X183281867Y-139572505D01*
X183831114Y-139543720D02*
X183400260Y-138965477D01*
X183831114Y-139543720D02*
X184380360Y-139514936D01*
X183852048Y-139943172D02*
X183831114Y-139543720D01*
X184199164Y-138923608D02*
X183831114Y-139543720D01*
%TO.C,D24*%
X182405877Y-119991516D02*
X183204781Y-119949647D01*
X182805329Y-119970582D02*
X182779161Y-119471267D01*
X182836731Y-120569759D02*
X182287484Y-120598544D01*
X182836731Y-120569759D02*
X182405877Y-119991516D01*
X182836731Y-120569759D02*
X183385977Y-120540975D01*
X182857665Y-120969211D02*
X182836731Y-120569759D01*
X183204781Y-119949647D02*
X182836731Y-120569759D01*
%TO.C,D6*%
X261349798Y-153389160D02*
X262149798Y-153389160D01*
X261749798Y-153389160D02*
X261749798Y-152889160D01*
X261749798Y-153989160D02*
X261199798Y-153989160D01*
X261749798Y-153989160D02*
X261349798Y-153389160D01*
X261749798Y-153989160D02*
X262299798Y-153989160D01*
X261749798Y-154389160D02*
X261749798Y-153989160D01*
X262149798Y-153389160D02*
X261749798Y-153989160D01*
%TO.C,D22*%
X184394644Y-157939438D02*
X185193548Y-157897569D01*
X184794096Y-157918504D02*
X184767928Y-157419189D01*
X184825498Y-158517681D02*
X184276251Y-158546466D01*
X184825498Y-158517681D02*
X184394644Y-157939438D01*
X184825498Y-158517681D02*
X185374744Y-158488897D01*
X184846432Y-158917133D02*
X184825498Y-158517681D01*
X185193548Y-157897569D02*
X184825498Y-158517681D01*
%TO.C,D16*%
X220052214Y-112248147D02*
X220851118Y-112206278D01*
X220451666Y-112227213D02*
X220425498Y-111727898D01*
X220483068Y-112826390D02*
X219933821Y-112855175D01*
X220483068Y-112826390D02*
X220052214Y-112248147D01*
X220483068Y-112826390D02*
X221032314Y-112797606D01*
X220504002Y-113225842D02*
X220483068Y-112826390D01*
X220851118Y-112206278D02*
X220483068Y-112826390D01*
%TD*%
D13*
%TO.C,MCU1*%
X145014474Y-112918737D03*
X145147407Y-115455256D03*
X145280340Y-117991775D03*
X145413274Y-120528294D03*
X145546207Y-123064813D03*
X145679140Y-125601332D03*
X145812074Y-128137851D03*
X145945007Y-130674371D03*
X146077940Y-133210890D03*
X146210874Y-135747409D03*
X146343807Y-138283928D03*
X146476740Y-140820447D03*
X161695854Y-140022847D03*
X161562921Y-137486328D03*
X161429988Y-134949809D03*
X161297054Y-132413290D03*
X161164121Y-129876771D03*
X161031188Y-127340252D03*
X160898254Y-124803733D03*
X160765321Y-122267213D03*
X160632388Y-119730694D03*
X160499454Y-117194175D03*
X160366521Y-114657656D03*
X160233588Y-112121137D03*
X148747393Y-135614475D03*
X151283912Y-135481542D03*
X153820431Y-135348609D03*
%TD*%
M02*
