%TF.GenerationSoftware,KiCad,Pcbnew,8.0.4*%
%TF.CreationDate,2024-09-16T15:21:11-06:00*%
%TF.ProjectId,right_board,72696768-745f-4626-9f61-72642e6b6963,v1.0.0*%
%TF.SameCoordinates,Original*%
%TF.FileFunction,Profile,NP*%
%FSLAX46Y46*%
G04 Gerber Fmt 4.6, Leading zero omitted, Abs format (unit mm)*
G04 Created by KiCad (PCBNEW 8.0.4) date 2024-09-16 15:21:11*
%MOMM*%
%LPD*%
G01*
G04 APERTURE LIST*
%TA.AperFunction,Profile*%
%ADD10C,0.150000*%
%TD*%
G04 APERTURE END LIST*
D10*
X199966146Y-98560044D02*
X181640534Y-104187837D01*
X143549011Y-187076922D02*
G75*
G02*
X143153658Y-185508397I1575989J1231322D01*
G01*
X177677687Y-206913137D02*
X237721569Y-196512582D01*
X241822392Y-95364965D02*
X200403409Y-98477544D01*
X265208180Y-100598991D02*
G75*
G02*
X265340225Y-100633843I-443980J-1949709D01*
G01*
X145058074Y-174065403D02*
G75*
G02*
X145032971Y-174521421I-1996474J-118797D01*
G01*
X181640534Y-104187837D02*
G75*
G02*
X181262898Y-104264959I-587134J1911837D01*
G01*
X265208179Y-100598991D02*
X242416303Y-95409257D01*
X237805682Y-196496149D02*
G75*
G02*
X237721569Y-196512583I-425482J1954249D01*
G01*
X284274797Y-184767738D02*
G75*
G02*
X282700252Y-186721921I-1999997J38D01*
G01*
X162481301Y-106240442D02*
X143099713Y-107256188D01*
X181262898Y-104264958D02*
X162586130Y-106232180D01*
X161358460Y-208386305D02*
X177515336Y-206934456D01*
X282850881Y-105900861D02*
G75*
G02*
X284274802Y-107816097I-576081J-1915239D01*
G01*
X145032975Y-174521422D02*
X143153664Y-185508398D01*
X284274798Y-184767738D02*
X284274798Y-107816097D01*
X237805682Y-196496149D02*
X282700260Y-186721959D01*
X282850881Y-105900861D02*
X265340226Y-100633840D01*
X241822392Y-95364966D02*
G75*
G02*
X242416305Y-95409247I149908J-1994434D01*
G01*
X143549011Y-187076922D02*
X159603440Y-207625654D01*
X177677687Y-206913137D02*
G75*
G02*
X177515336Y-206934455I-341287J1970237D01*
G01*
X141207917Y-109372265D02*
X145058074Y-174065403D01*
X162586130Y-106232180D02*
G75*
G02*
X162481301Y-106240443I-209530J1989180D01*
G01*
X161358460Y-208386305D02*
G75*
G02*
X159603457Y-207625641I-178960J1992005D01*
G01*
X199966147Y-98560044D02*
G75*
G02*
X200403408Y-98477535I587153J-1911756D01*
G01*
X141207918Y-109372265D02*
G75*
G02*
X143099710Y-107256125I1996482J118865D01*
G01*
M02*
