%TF.GenerationSoftware,KiCad,Pcbnew,8.0.4*%
%TF.CreationDate,2024-09-16T15:21:11-06:00*%
%TF.ProjectId,right_board,72696768-745f-4626-9f61-72642e6b6963,v1.0.0*%
%TF.SameCoordinates,Original*%
%TF.FileFunction,Copper,L2,Bot*%
%TF.FilePolarity,Positive*%
%FSLAX46Y46*%
G04 Gerber Fmt 4.6, Leading zero omitted, Abs format (unit mm)*
G04 Created by KiCad (PCBNEW 8.0.4) date 2024-09-16 15:21:11*
%MOMM*%
%LPD*%
G01*
G04 APERTURE LIST*
G04 Aperture macros list*
%AMHorizOval*
0 Thick line with rounded ends*
0 $1 width*
0 $2 $3 position (X,Y) of the first rounded end (center of the circle)*
0 $4 $5 position (X,Y) of the second rounded end (center of the circle)*
0 Add line between two ends*
20,1,$1,$2,$3,$4,$5,0*
0 Add two circle primitives to create the rounded ends*
1,1,$1,$2,$3*
1,1,$1,$4,$5*%
%AMRotRect*
0 Rectangle, with rotation*
0 The origin of the aperture is its center*
0 $1 length*
0 $2 width*
0 $3 Rotation angle, in degrees counterclockwise*
0 Add horizontal line*
21,1,$1,$2,0,0,$3*%
G04 Aperture macros list end*
%TA.AperFunction,SMDPad,CuDef*%
%ADD10RotRect,0.900000X0.900000X80.000000*%
%TD*%
%TA.AperFunction,WasherPad*%
%ADD11C,1.000000*%
%TD*%
%TA.AperFunction,SMDPad,CuDef*%
%ADD12RotRect,0.900000X1.250000X80.000000*%
%TD*%
%TA.AperFunction,SMDPad,CuDef*%
%ADD13RotRect,2.550000X2.500000X3.000000*%
%TD*%
%TA.AperFunction,ComponentPad*%
%ADD14RotRect,1.778000X1.778000X93.000000*%
%TD*%
%TA.AperFunction,SMDPad,CuDef*%
%ADD15RotRect,0.900000X1.200000X93.000000*%
%TD*%
%TA.AperFunction,ComponentPad*%
%ADD16C,1.905000*%
%TD*%
%TA.AperFunction,SMDPad,CuDef*%
%ADD17R,2.550000X2.500000*%
%TD*%
%TA.AperFunction,SMDPad,CuDef*%
%ADD18RotRect,2.550000X2.500000X11.000000*%
%TD*%
%TA.AperFunction,ComponentPad*%
%ADD19R,1.778000X1.778000*%
%TD*%
%TA.AperFunction,SMDPad,CuDef*%
%ADD20R,1.200000X0.900000*%
%TD*%
%TA.AperFunction,ComponentPad*%
%ADD21C,1.752600*%
%TD*%
%TA.AperFunction,ComponentPad*%
%ADD22RotRect,1.200000X1.700000X273.000000*%
%TD*%
%TA.AperFunction,ComponentPad*%
%ADD23HorizOval,1.200000X-0.249657X-0.013084X0.249657X0.013084X0*%
%TD*%
%TA.AperFunction,ComponentPad*%
%ADD24RotRect,1.778000X1.778000X101.000000*%
%TD*%
%TA.AperFunction,SMDPad,CuDef*%
%ADD25RotRect,0.900000X1.200000X101.000000*%
%TD*%
%TA.AperFunction,ComponentPad*%
%ADD26RotRect,1.778000X1.778000X128.000000*%
%TD*%
%TA.AperFunction,SMDPad,CuDef*%
%ADD27RotRect,0.900000X1.200000X128.000000*%
%TD*%
%TA.AperFunction,SMDPad,CuDef*%
%ADD28RotRect,2.550000X2.500000X38.000000*%
%TD*%
%TA.AperFunction,ViaPad*%
%ADD29C,0.800000*%
%TD*%
%TA.AperFunction,Conductor*%
%ADD30C,0.250000*%
%TD*%
G04 APERTURE END LIST*
D10*
%TO.P,T1,*%
%TO.N,*%
X144416562Y-182844595D03*
X146583139Y-183226621D03*
D11*
X145881877Y-180869031D03*
X146402821Y-177914607D03*
D10*
X145701559Y-175557017D03*
X147868136Y-175939043D03*
D12*
%TO.P,T1,1*%
%TO.N,pos*%
X147795117Y-181967956D03*
%TO.P,T1,2*%
%TO.N,RAW*%
X148316061Y-179013533D03*
%TO.P,T1,3*%
%TO.N,N/C*%
X148576533Y-177536323D03*
%TD*%
D13*
%TO.P,S16,1*%
%TO.N,P100*%
X205084313Y-107234635D03*
%TO.P,S16,2*%
%TO.N,mirror_three_number*%
X217860664Y-104021569D03*
%TD*%
D14*
%TO.P,D17,1*%
%TO.N,P115*%
X204922588Y-178953889D03*
D15*
X204809542Y-176796849D03*
%TO.P,D17,2*%
%TO.N,mirror_four_bottom*%
X204636834Y-173501371D03*
D16*
X204523788Y-171344331D03*
%TD*%
D13*
%TO.P,S17,1*%
%TO.N,P011*%
X189342752Y-169906875D03*
%TO.P,S17,2*%
%TO.N,mirror_four_bottom*%
X202119103Y-166693809D03*
%TD*%
D14*
%TO.P,D10,1*%
%TO.N,P002*%
X241577027Y-152283993D03*
D15*
X241463981Y-150126953D03*
%TO.P,D10,2*%
%TO.N,mirror_two_home*%
X241291273Y-146831475D03*
D16*
X241178227Y-144674435D03*
%TD*%
D17*
%TO.P,S8,1*%
%TO.N,P022*%
X246664798Y-109599160D03*
%TO.P,S8,2*%
%TO.N,mirror_one_number*%
X259591798Y-107059160D03*
%TD*%
D13*
%TO.P,S15,1*%
%TO.N,P100*%
X206078697Y-126208596D03*
%TO.P,S15,2*%
%TO.N,mirror_three_qwerty*%
X218855048Y-122995530D03*
%TD*%
%TO.P,S18,1*%
%TO.N,P011*%
X188348369Y-150932914D03*
%TO.P,S18,2*%
%TO.N,mirror_four_home*%
X201124720Y-147719848D03*
%TD*%
D18*
%TO.P,S25,1*%
%TO.N,P100*%
X216811990Y-186249637D03*
%TO.P,S25,2*%
%TO.N,mirror_near_thumb*%
X229016829Y-181289716D03*
%TD*%
D19*
%TO.P,D3,1*%
%TO.N,P029*%
X280749798Y-144164160D03*
D20*
X280749798Y-142004160D03*
%TO.P,D3,2*%
%TO.N,mirror_function_keys_qwerty*%
X280749798Y-138704160D03*
D16*
X280749798Y-136544160D03*
%TD*%
D21*
%TO.P,MCU1,1*%
%TO.N,P006*%
X145014474Y-112918737D03*
%TO.P,MCU1,2*%
%TO.N,P008*%
X145147407Y-115455256D03*
%TO.P,MCU1,3*%
%TO.N,GND*%
X145280340Y-117991775D03*
%TO.P,MCU1,4*%
X145413274Y-120528294D03*
%TO.P,MCU1,5*%
%TO.N,P017*%
X145546207Y-123064813D03*
%TO.P,MCU1,6*%
%TO.N,P020*%
X145679140Y-125601332D03*
%TO.P,MCU1,7*%
%TO.N,P022*%
X145812074Y-128137851D03*
%TO.P,MCU1,8*%
%TO.N,P024*%
X145945007Y-130674371D03*
%TO.P,MCU1,9*%
%TO.N,P100*%
X146077940Y-133210890D03*
%TO.P,MCU1,10*%
%TO.N,P011*%
X146210874Y-135747409D03*
%TO.P,MCU1,11*%
%TO.N,P104*%
X146343807Y-138283928D03*
%TO.P,MCU1,12*%
%TO.N,P106*%
X146476740Y-140820447D03*
%TO.P,MCU1,13*%
%TO.N,P009*%
X161695854Y-140022847D03*
%TO.P,MCU1,14*%
%TO.N,P010*%
X161562921Y-137486328D03*
%TO.P,MCU1,15*%
%TO.N,P111*%
X161429988Y-134949809D03*
%TO.P,MCU1,16*%
%TO.N,P113*%
X161297054Y-132413290D03*
%TO.P,MCU1,17*%
%TO.N,P115*%
X161164121Y-129876771D03*
%TO.P,MCU1,18*%
%TO.N,P002*%
X161031188Y-127340252D03*
%TO.P,MCU1,19*%
%TO.N,P029*%
X160898254Y-124803733D03*
%TO.P,MCU1,20*%
%TO.N,P031*%
X160765321Y-122267213D03*
%TO.P,MCU1,21*%
%TO.N,VCC*%
X160632388Y-119730694D03*
%TO.P,MCU1,22*%
%TO.N,RST*%
X160499454Y-117194175D03*
%TO.P,MCU1,23*%
%TO.N,GND*%
X160366521Y-114657656D03*
%TO.P,MCU1,24*%
%TO.N,RAW*%
X160233588Y-112121137D03*
%TO.P,MCU1,31*%
%TO.N,P101*%
X148747393Y-135614475D03*
%TO.P,MCU1,32*%
%TO.N,P102*%
X151283912Y-135481542D03*
%TO.P,MCU1,33*%
%TO.N,P107*%
X153820431Y-135348609D03*
%TD*%
D19*
%TO.P,D4,1*%
%TO.N,P031*%
X280749798Y-125164160D03*
D20*
X280749798Y-123004160D03*
%TO.P,D4,2*%
%TO.N,mirror_function_keys_number*%
X280749798Y-119704160D03*
D16*
X280749798Y-117544160D03*
%TD*%
D13*
%TO.P,S10,1*%
%TO.N,P024*%
X225997191Y-143236980D03*
%TO.P,S10,2*%
%TO.N,mirror_two_home*%
X238773542Y-140023914D03*
%TD*%
D14*
%TO.P,D20,1*%
%TO.N,P031*%
X201939438Y-122032005D03*
D15*
X201826392Y-119874965D03*
%TO.P,D20,2*%
%TO.N,mirror_four_number*%
X201653684Y-116579487D03*
D16*
X201540638Y-114422447D03*
%TD*%
D18*
%TO.P,S27,1*%
%TO.N,P104*%
X179271646Y-192273344D03*
%TO.P,S27,2*%
%TO.N,mirror_far_thumb*%
X191476485Y-187313423D03*
%TD*%
D14*
%TO.P,D13,1*%
%TO.N,P115*%
X223647299Y-173203533D03*
D15*
X223534253Y-171046493D03*
%TO.P,D13,2*%
%TO.N,mirror_three_bottom*%
X223361545Y-167751015D03*
D16*
X223248499Y-165593975D03*
%TD*%
D22*
%TO.P,JST1,1*%
%TO.N,pos*%
X161284926Y-167912575D03*
D23*
%TO.P,JST1,2*%
%TO.N,GND*%
X161389598Y-169909835D03*
%TD*%
D17*
%TO.P,S6,1*%
%TO.N,P022*%
X246664798Y-147599160D03*
%TO.P,S6,2*%
%TO.N,mirror_one_home*%
X259591798Y-145059160D03*
%TD*%
D13*
%TO.P,S19,1*%
%TO.N,P011*%
X187353986Y-131958953D03*
%TO.P,S19,2*%
%TO.N,mirror_four_qwerty*%
X200130337Y-128745887D03*
%TD*%
D24*
%TO.P,D25,1*%
%TO.N,P113*%
X233499304Y-193040311D03*
D25*
X233087157Y-190919996D03*
%TO.P,D25,2*%
%TO.N,mirror_near_thumb*%
X232457487Y-187680626D03*
D16*
X232045340Y-185560311D03*
%TD*%
D19*
%TO.P,D5,1*%
%TO.N,P115*%
X261749798Y-176449160D03*
D20*
X261749798Y-174289160D03*
%TO.P,D5,2*%
%TO.N,mirror_one_bottom*%
X261749798Y-170989160D03*
D16*
X261749798Y-168829160D03*
%TD*%
D13*
%TO.P,S12,1*%
%TO.N,P024*%
X224008425Y-105289057D03*
%TO.P,S12,2*%
%TO.N,mirror_two_number*%
X236784776Y-102075991D03*
%TD*%
D17*
%TO.P,S7,1*%
%TO.N,P022*%
X246664798Y-128599160D03*
%TO.P,S7,2*%
%TO.N,mirror_one_qwerty*%
X259591798Y-126059160D03*
%TD*%
D13*
%TO.P,S21,1*%
%TO.N,P104*%
X170421127Y-171899888D03*
%TO.P,S21,2*%
%TO.N,mirror_five_bottom*%
X183197478Y-168686822D03*
%TD*%
D17*
%TO.P,S2,1*%
%TO.N,P020*%
X265664798Y-153314160D03*
%TO.P,S2,2*%
%TO.N,mirror_function_keys_home*%
X278591798Y-150774160D03*
%TD*%
D14*
%TO.P,D29,1*%
%TO.N,P002*%
X166346634Y-168959101D03*
D15*
X166233588Y-166802061D03*
%TO.P,D29,2*%
%TO.N,mirror_curly_square*%
X166060880Y-163506583D03*
D16*
X165947834Y-161349543D03*
%TD*%
D18*
%TO.P,S26,1*%
%TO.N,P011*%
X198161074Y-189875007D03*
%TO.P,S26,2*%
%TO.N,mirror_home_thumb*%
X210365913Y-184915086D03*
%TD*%
D13*
%TO.P,S13,1*%
%TO.N,P100*%
X208067463Y-164156519D03*
%TO.P,S13,2*%
%TO.N,mirror_three_bottom*%
X220843814Y-160943453D03*
%TD*%
%TO.P,S22,1*%
%TO.N,P104*%
X169426744Y-152925927D03*
%TO.P,S22,2*%
%TO.N,mirror_five_home*%
X182203095Y-149712861D03*
%TD*%
D19*
%TO.P,D7,1*%
%TO.N,P029*%
X261749798Y-138449160D03*
D20*
X261749798Y-136289160D03*
%TO.P,D7,2*%
%TO.N,mirror_one_qwerty*%
X261749798Y-132989160D03*
D16*
X261749798Y-130829160D03*
%TD*%
D14*
%TO.P,D19,1*%
%TO.N,P029*%
X202933822Y-141005966D03*
D15*
X202820776Y-138848926D03*
%TO.P,D19,2*%
%TO.N,mirror_four_qwerty*%
X202648068Y-135553448D03*
D16*
X202535022Y-133396408D03*
%TD*%
D14*
%TO.P,D11,1*%
%TO.N,P029*%
X240582644Y-133310032D03*
D15*
X240469598Y-131152992D03*
%TO.P,D11,2*%
%TO.N,mirror_two_qwerty*%
X240296890Y-127857514D03*
D16*
X240183844Y-125700474D03*
%TD*%
D14*
%TO.P,D12,1*%
%TO.N,P031*%
X239588261Y-114336071D03*
D15*
X239475215Y-112179031D03*
%TO.P,D12,2*%
%TO.N,mirror_two_number*%
X239302507Y-108883553D03*
D16*
X239189461Y-106726513D03*
%TD*%
D17*
%TO.P,S4,1*%
%TO.N,P020*%
X265664798Y-115314160D03*
%TO.P,S4,2*%
%TO.N,mirror_function_keys_number*%
X278591798Y-112774160D03*
%TD*%
D14*
%TO.P,D15,1*%
%TO.N,P029*%
X221658533Y-135255610D03*
D15*
X221545487Y-133098570D03*
%TO.P,D15,2*%
%TO.N,mirror_three_qwerty*%
X221372779Y-129803092D03*
D16*
X221259733Y-127646052D03*
%TD*%
D19*
%TO.P,D1,1*%
%TO.N,P115*%
X280749798Y-182164160D03*
D20*
X280749798Y-180004160D03*
%TO.P,D1,2*%
%TO.N,mirror_function_keys_bottom*%
X280749798Y-176704160D03*
D16*
X280749798Y-174544160D03*
%TD*%
D24*
%TO.P,D26,1*%
%TO.N,P113*%
X214848388Y-196665682D03*
D25*
X214436241Y-194545367D03*
%TO.P,D26,2*%
%TO.N,mirror_home_thumb*%
X213806571Y-191305997D03*
D16*
X213394424Y-189185682D03*
%TD*%
D14*
%TO.P,D9,1*%
%TO.N,P115*%
X242571410Y-171257955D03*
D15*
X242458364Y-169100915D03*
%TO.P,D9,2*%
%TO.N,mirror_two_bottom*%
X242285656Y-165805437D03*
D16*
X242172610Y-163648397D03*
%TD*%
D13*
%TO.P,S9,1*%
%TO.N,P024*%
X226991574Y-162210941D03*
%TO.P,S9,2*%
%TO.N,mirror_two_bottom*%
X239767925Y-158997875D03*
%TD*%
%TO.P,S11,1*%
%TO.N,P024*%
X225002808Y-124263019D03*
%TO.P,S11,2*%
%TO.N,mirror_two_qwerty*%
X237779159Y-121049953D03*
%TD*%
D14*
%TO.P,D14,1*%
%TO.N,P002*%
X222652916Y-154229571D03*
D15*
X222539870Y-152072531D03*
%TO.P,D14,2*%
%TO.N,mirror_three_home*%
X222367162Y-148777053D03*
D16*
X222254116Y-146620013D03*
%TD*%
D17*
%TO.P,S5,1*%
%TO.N,P022*%
X246664798Y-166599160D03*
%TO.P,S5,2*%
%TO.N,mirror_one_bottom*%
X259591798Y-164059160D03*
%TD*%
D14*
%TO.P,D18,1*%
%TO.N,P002*%
X203928205Y-159979928D03*
D15*
X203815159Y-157822888D03*
%TO.P,D18,2*%
%TO.N,mirror_four_home*%
X203642451Y-154527410D03*
D16*
X203529405Y-152370370D03*
%TD*%
D24*
%TO.P,D27,1*%
%TO.N,P113*%
X195958960Y-199064019D03*
D25*
X195546813Y-196943704D03*
%TO.P,D27,2*%
%TO.N,mirror_far_thumb*%
X194917143Y-193704334D03*
D16*
X194504996Y-191584019D03*
%TD*%
D13*
%TO.P,S29,1*%
%TO.N,P017*%
X150766798Y-159912087D03*
%TO.P,S29,2*%
%TO.N,mirror_curly_square*%
X163543149Y-156699021D03*
%TD*%
%TO.P,S23,1*%
%TO.N,P104*%
X168432360Y-133951965D03*
%TO.P,S23,2*%
%TO.N,mirror_five_qwerty*%
X181208711Y-130738899D03*
%TD*%
D19*
%TO.P,D2,1*%
%TO.N,P002*%
X280749798Y-163164160D03*
D20*
X280749798Y-161004160D03*
%TO.P,D2,2*%
%TO.N,mirror_function_keys_home*%
X280749798Y-157704160D03*
D16*
X280749798Y-155544160D03*
%TD*%
D26*
%TO.P,D28,1*%
%TO.N,P113*%
X171249810Y-191386964D03*
D27*
X169919981Y-189684861D03*
%TO.P,D28,2*%
%TO.N,mirror_space_thumb*%
X167888299Y-187084425D03*
D16*
X166558470Y-185382322D03*
%TD*%
D13*
%TO.P,S14,1*%
%TO.N,P100*%
X207073080Y-145182558D03*
%TO.P,S14,2*%
%TO.N,mirror_three_home*%
X219849431Y-141969492D03*
%TD*%
D19*
%TO.P,D8,1*%
%TO.N,P031*%
X261749798Y-119449160D03*
D20*
X261749798Y-117289160D03*
%TO.P,D8,2*%
%TO.N,mirror_one_number*%
X261749798Y-113989160D03*
D16*
X261749798Y-111829160D03*
%TD*%
D17*
%TO.P,S3,1*%
%TO.N,P020*%
X265664798Y-134314160D03*
%TO.P,S3,2*%
%TO.N,mirror_function_keys_qwerty*%
X278591798Y-131774160D03*
%TD*%
D13*
%TO.P,S24,1*%
%TO.N,P104*%
X167437977Y-114978004D03*
%TO.P,S24,2*%
%TO.N,mirror_five_number*%
X180214328Y-111764938D03*
%TD*%
D14*
%TO.P,D21,1*%
%TO.N,P115*%
X186000963Y-180946902D03*
D15*
X185887917Y-178789862D03*
%TO.P,D21,2*%
%TO.N,mirror_five_bottom*%
X185715209Y-175494384D03*
D16*
X185602163Y-173337344D03*
%TD*%
D14*
%TO.P,D23,1*%
%TO.N,P029*%
X184012196Y-142998979D03*
D15*
X183899150Y-140841939D03*
%TO.P,D23,2*%
%TO.N,mirror_five_qwerty*%
X183726442Y-137546461D03*
D16*
X183613396Y-135389421D03*
%TD*%
D28*
%TO.P,S28,1*%
%TO.N,P017*%
X153298402Y-192912312D03*
%TO.P,S28,2*%
%TO.N,mirror_space_thumb*%
X161921237Y-182952109D03*
%TD*%
D14*
%TO.P,D24,1*%
%TO.N,P031*%
X183017813Y-124025018D03*
D15*
X182904767Y-121867978D03*
%TO.P,D24,2*%
%TO.N,mirror_five_number*%
X182732059Y-118572500D03*
D16*
X182619013Y-116415460D03*
%TD*%
D13*
%TO.P,S20,1*%
%TO.N,P011*%
X186359602Y-112984991D03*
%TO.P,S20,2*%
%TO.N,mirror_four_number*%
X199135953Y-109771925D03*
%TD*%
D19*
%TO.P,D6,1*%
%TO.N,P002*%
X261749798Y-157449160D03*
D20*
X261749798Y-155289160D03*
%TO.P,D6,2*%
%TO.N,mirror_one_home*%
X261749798Y-151989160D03*
D16*
X261749798Y-149829160D03*
%TD*%
D14*
%TO.P,D22,1*%
%TO.N,P002*%
X185006580Y-161972940D03*
D15*
X184893534Y-159815900D03*
%TO.P,D22,2*%
%TO.N,mirror_five_home*%
X184720826Y-156520422D03*
D16*
X184607780Y-154363382D03*
%TD*%
D17*
%TO.P,S1,1*%
%TO.N,P020*%
X265664798Y-172314160D03*
%TO.P,S1,2*%
%TO.N,mirror_function_keys_bottom*%
X278591798Y-169774160D03*
%TD*%
D14*
%TO.P,D16,1*%
%TO.N,P031*%
X220664150Y-116281649D03*
D15*
X220551104Y-114124609D03*
%TO.P,D16,2*%
%TO.N,mirror_three_number*%
X220378396Y-110829131D03*
D16*
X220265350Y-108672091D03*
%TD*%
D29*
%TO.N,P011*%
X169042604Y-123354160D03*
%TO.N,P017*%
X150542604Y-154354160D03*
%TO.N,pos*%
X150542604Y-179854160D03*
%TD*%
D30*
%TO.N,P020*%
X265664798Y-153314160D02*
X265664798Y-172314160D01*
X265664798Y-115314160D02*
X265664798Y-134314160D01*
X265664798Y-115314160D02*
X263042604Y-109354160D01*
X164042604Y-107604160D02*
X143292604Y-109104160D01*
X260292604Y-101104160D02*
X242292604Y-97104160D01*
X265664798Y-134314160D02*
X265664798Y-153314160D01*
X263042604Y-109354160D02*
X261042604Y-104104160D01*
X143292604Y-109104160D02*
X144042604Y-125604160D01*
X144042604Y-125604160D02*
X145679140Y-125601332D01*
X261042604Y-104104160D02*
X260292604Y-101104160D01*
X242292604Y-97104160D02*
X200542604Y-100354160D01*
X181542604Y-105604160D02*
X164042604Y-107604160D01*
X200542604Y-100354160D02*
X181542604Y-105604160D01*
%TO.N,mirror_function_keys_bottom*%
X278591798Y-169774160D02*
X280749798Y-174544160D01*
X280749798Y-174544160D02*
X280749798Y-176704160D01*
%TO.N,mirror_function_keys_home*%
X280749798Y-155544160D02*
X280749798Y-157704160D01*
X278591798Y-150774160D02*
X280749798Y-155544160D01*
%TO.N,mirror_function_keys_qwerty*%
X278591798Y-131774160D02*
X280749798Y-136544160D01*
X280749798Y-136544160D02*
X280749798Y-138704160D01*
%TO.N,mirror_function_keys_number*%
X280749798Y-117544160D02*
X280749798Y-119704160D01*
X278591798Y-112774160D02*
X280749798Y-117544160D01*
%TO.N,P022*%
X246664798Y-109599160D02*
X246664798Y-128599160D01*
X173292604Y-109854160D02*
X168042604Y-107854160D01*
X246792604Y-98604160D02*
X242292604Y-97604160D01*
X246664798Y-147599160D02*
X246664798Y-128599160D01*
X242292604Y-97604160D02*
X200542604Y-100854160D01*
X181542604Y-106104160D02*
X174792604Y-109854160D01*
X146292604Y-109354160D02*
X147292604Y-128104160D01*
X168042604Y-107854160D02*
X146292604Y-109354160D01*
X246664798Y-166599160D02*
X246664798Y-147599160D01*
X147292604Y-128104160D02*
X145812074Y-128137851D01*
X246664798Y-109599160D02*
X246792604Y-98604160D01*
X200542604Y-100854160D02*
X181542604Y-106104160D01*
X174792604Y-109854160D02*
X173292604Y-109854160D01*
%TO.N,mirror_one_bottom*%
X261749798Y-170989160D02*
X261749798Y-168829160D01*
X261749798Y-168829160D02*
X259591798Y-164059160D01*
%TO.N,mirror_one_home*%
X261749798Y-151989160D02*
X261749798Y-149829160D01*
X261749798Y-149829160D02*
X259591798Y-145059160D01*
%TO.N,mirror_one_qwerty*%
X261749798Y-130829160D02*
X259591798Y-126059160D01*
X261749798Y-132989160D02*
X261749798Y-130829160D01*
%TO.N,mirror_one_number*%
X261749798Y-111829160D02*
X259591798Y-107059160D01*
X261749798Y-113989160D02*
X261749798Y-111829160D01*
%TO.N,P024*%
X200542604Y-101354160D02*
X181792604Y-106604160D01*
X224008425Y-105289057D02*
X223792604Y-99604160D01*
X224008425Y-105289057D02*
X225002808Y-124263019D01*
X223792604Y-99604160D02*
X200542604Y-101354160D01*
X225002808Y-124263019D02*
X225997191Y-143236980D01*
X181792604Y-106604160D02*
X175042604Y-110354160D01*
X173292604Y-110354160D02*
X168042604Y-108354160D01*
X148042604Y-130604160D02*
X145945007Y-130674371D01*
X147042604Y-109854160D02*
X148042604Y-130604160D01*
X226991574Y-162210941D02*
X225997191Y-143236980D01*
X168042604Y-108354160D02*
X147042604Y-109854160D01*
X175042604Y-110354160D02*
X173292604Y-110354160D01*
%TO.N,mirror_two_bottom*%
X239767925Y-158997875D02*
X242172610Y-163648397D01*
X242172610Y-163648397D02*
X242285656Y-165805437D01*
%TO.N,mirror_two_home*%
X238773542Y-140023914D02*
X241178227Y-144674435D01*
X241178227Y-144674435D02*
X241291273Y-146831475D01*
%TO.N,mirror_two_qwerty*%
X240183844Y-125700474D02*
X240296890Y-127857514D01*
X237779159Y-121049953D02*
X240183844Y-125700474D01*
%TO.N,mirror_two_number*%
X236784776Y-102075991D02*
X239189461Y-106726513D01*
X239189461Y-106726513D02*
X239302507Y-108883553D01*
%TO.N,P100*%
X204792604Y-101604160D02*
X200542604Y-101854160D01*
X176792604Y-114604160D02*
X168042604Y-108854160D01*
X168042604Y-108854160D02*
X147792604Y-110354160D01*
X207073080Y-145182558D02*
X206078697Y-126208596D01*
X205084313Y-107234635D02*
X204792604Y-101604160D01*
X216811990Y-186249637D02*
X208792604Y-173854160D01*
X177542604Y-116604160D02*
X176792604Y-114604160D01*
X148792604Y-132854160D02*
X146077940Y-133210890D01*
X180542604Y-126104160D02*
X177542604Y-116604160D01*
X183792604Y-106604160D02*
X185042604Y-125854160D01*
X185042604Y-125854160D02*
X180542604Y-126104160D01*
X147792604Y-110354160D02*
X148792604Y-132854160D01*
X200542604Y-101854160D02*
X183792604Y-106604160D01*
X208792604Y-173854160D02*
X208067463Y-164156519D01*
X208067463Y-164156519D02*
X207073080Y-145182558D01*
X206078697Y-126208596D02*
X205084313Y-107234635D01*
%TO.N,mirror_three_bottom*%
X223248499Y-165593975D02*
X220843814Y-160943453D01*
X223361545Y-167751015D02*
X223248499Y-165593975D01*
%TO.N,mirror_three_home*%
X222254116Y-146620013D02*
X219849431Y-141969492D01*
X222367162Y-148777053D02*
X222254116Y-146620013D01*
%TO.N,mirror_three_qwerty*%
X221259733Y-127646052D02*
X221372779Y-129803092D01*
X218855048Y-122995530D02*
X221259733Y-127646052D01*
%TO.N,mirror_three_number*%
X220265350Y-108672091D02*
X220378396Y-110829131D01*
X217860664Y-104021569D02*
X220265350Y-108672091D01*
%TO.N,P011*%
X189342752Y-169906875D02*
X190042604Y-179604160D01*
X187099557Y-127104160D02*
X173792604Y-127604160D01*
X186359602Y-112984991D02*
X187099557Y-127104160D01*
X173792604Y-127604160D02*
X169042604Y-123354160D01*
X187353986Y-131958953D02*
X188348369Y-150932914D01*
X187099557Y-127104160D02*
X187353986Y-131958953D01*
X190042604Y-179604160D02*
X198161074Y-189875007D01*
X188348369Y-150932914D02*
X189342752Y-169906875D01*
%TO.N,mirror_four_bottom*%
X202119103Y-166693809D02*
X204523788Y-171344331D01*
X204636834Y-173501371D02*
X204523788Y-171344331D01*
%TO.N,mirror_four_home*%
X203529405Y-152370370D02*
X203642451Y-154527410D01*
X201124720Y-147719848D02*
X203529405Y-152370370D01*
%TO.N,mirror_four_qwerty*%
X202648068Y-135553448D02*
X202535022Y-133396408D01*
X202535022Y-133396408D02*
X200130337Y-128745887D01*
%TO.N,mirror_four_number*%
X199135953Y-109771925D02*
X201540638Y-114422447D01*
X201653684Y-116579487D02*
X201540638Y-114422447D01*
%TO.N,P104*%
X150042604Y-137354160D02*
X146343807Y-138283928D01*
X170421127Y-171899888D02*
X169426744Y-152925927D01*
X167293104Y-109360911D02*
X148542604Y-110854160D01*
X150042604Y-134604160D02*
X150042604Y-137354160D01*
X167437977Y-114978004D02*
X167293104Y-109360911D01*
X169426744Y-152925927D02*
X168432360Y-133951965D01*
X170792604Y-180104160D02*
X170421127Y-171899888D01*
X168432360Y-133951965D02*
X167437977Y-114978004D01*
X148542604Y-110854160D02*
X150042604Y-134604160D01*
X179271646Y-192273344D02*
X170792604Y-180104160D01*
%TO.N,mirror_five_bottom*%
X183197478Y-168686822D02*
X185602163Y-173337344D01*
X185715209Y-175494384D02*
X185602163Y-173337344D01*
%TO.N,mirror_five_home*%
X184607780Y-154363382D02*
X182203095Y-149712861D01*
X184720826Y-156520422D02*
X184607780Y-154363382D01*
%TO.N,mirror_five_qwerty*%
X181208711Y-130738899D02*
X183613396Y-135389421D01*
X183613396Y-135389421D02*
X183726442Y-137546461D01*
%TO.N,mirror_five_number*%
X180214328Y-111764938D02*
X182619013Y-116415460D01*
X182619013Y-116415460D02*
X182732059Y-118572500D01*
%TO.N,mirror_near_thumb*%
X232045340Y-185560311D02*
X232457487Y-187680626D01*
X229016829Y-181289716D02*
X232045340Y-185560311D01*
%TO.N,mirror_home_thumb*%
X213806571Y-191305997D02*
X213394424Y-189185682D01*
X213394424Y-189185682D02*
X210365913Y-184915086D01*
%TO.N,mirror_far_thumb*%
X194504996Y-191584019D02*
X191476485Y-187313423D01*
X194917143Y-193704334D02*
X194504996Y-191584019D01*
%TO.N,P017*%
X150766798Y-159912087D02*
X150542604Y-154354160D01*
X150766798Y-159912087D02*
X153298402Y-192912312D01*
%TO.N,mirror_space_thumb*%
X167888299Y-187084425D02*
X166558470Y-185382322D01*
X166558470Y-185382322D02*
X161921237Y-182952109D01*
%TO.N,mirror_curly_square*%
X165947834Y-161349543D02*
X163543149Y-156699021D01*
X166060880Y-163506583D02*
X165947834Y-161349543D01*
%TO.N,P115*%
X261749798Y-176449160D02*
X261749798Y-174289160D01*
X223647299Y-173203533D02*
X223534253Y-171046493D01*
X242458364Y-169100915D02*
X242571410Y-171257955D01*
X204922588Y-178953889D02*
X204809542Y-176796849D01*
X185887917Y-178789862D02*
X186000963Y-180946902D01*
X280749798Y-180004160D02*
X280749798Y-182164160D01*
%TO.N,P002*%
X203815159Y-157822888D02*
X203928205Y-159979928D01*
X185006580Y-161972940D02*
X184893534Y-159815900D01*
X261749798Y-157449160D02*
X261749798Y-155289160D01*
X166346634Y-168959101D02*
X166233588Y-166802061D01*
X241463981Y-150126953D02*
X241577027Y-152283993D01*
X222652916Y-154229571D02*
X222539870Y-152072531D01*
X280749798Y-161004160D02*
X280749798Y-163164160D01*
%TO.N,P029*%
X240469598Y-131152992D02*
X240582644Y-133310032D01*
X221545487Y-133098570D02*
X221658533Y-135255610D01*
X261749798Y-138449160D02*
X261749798Y-136289160D01*
X202933822Y-141005966D02*
X202820776Y-138848926D01*
X183899150Y-140841939D02*
X184012196Y-142998979D01*
X280749798Y-142004160D02*
X280749798Y-144164160D01*
%TO.N,P031*%
X261749798Y-119449160D02*
X261749798Y-117289160D01*
X201939438Y-122032005D02*
X201826392Y-119874965D01*
X220551104Y-114124609D02*
X220664150Y-116281649D01*
X280749798Y-123004160D02*
X280749798Y-125164160D01*
X239475215Y-112179031D02*
X239588261Y-114336071D01*
X182904767Y-121867978D02*
X183017813Y-124025018D01*
%TO.N,P113*%
X233087157Y-190919996D02*
X233499304Y-193040311D01*
X214848388Y-196665682D02*
X214436241Y-194545367D01*
X171249810Y-191386964D02*
X169919981Y-189684861D01*
X195958960Y-199064019D02*
X195546813Y-196943704D01*
%TO.N,RAW*%
X147292604Y-178104160D02*
X146792604Y-175854160D01*
X159542604Y-148854160D02*
X158042604Y-113354160D01*
X148316061Y-179013533D02*
X147292604Y-178104160D01*
X158042604Y-113354160D02*
X160233588Y-112121137D01*
X148292604Y-164854160D02*
X147792604Y-154104160D01*
X147792604Y-154104160D02*
X159542604Y-148854160D01*
X146792604Y-175854160D02*
X148292604Y-164854160D01*
%TO.N,GND*%
X156542604Y-159604160D02*
X160542604Y-149604160D01*
X158792604Y-115604160D02*
X160366521Y-114657656D01*
X155542604Y-161104160D02*
X156542604Y-159604160D01*
X161389598Y-169909835D02*
X154542604Y-165104160D01*
X160542604Y-149604160D02*
X158792604Y-115604160D01*
X154542604Y-165104160D02*
X155542604Y-161104160D01*
%TO.N,pos*%
X147795117Y-181967956D02*
X150542604Y-179854160D01*
%TD*%
M02*
