%TF.GenerationSoftware,KiCad,Pcbnew,8.0.4*%
%TF.CreationDate,2024-09-16T15:21:11-06:00*%
%TF.ProjectId,right_board,72696768-745f-4626-9f61-72642e6b6963,v1.0.0*%
%TF.SameCoordinates,Original*%
%TF.FileFunction,Copper,L1,Top*%
%TF.FilePolarity,Positive*%
%FSLAX46Y46*%
G04 Gerber Fmt 4.6, Leading zero omitted, Abs format (unit mm)*
G04 Created by KiCad (PCBNEW 8.0.4) date 2024-09-16 15:21:11*
%MOMM*%
%LPD*%
G01*
G04 APERTURE LIST*
G04 Aperture macros list*
%AMHorizOval*
0 Thick line with rounded ends*
0 $1 width*
0 $2 $3 position (X,Y) of the first rounded end (center of the circle)*
0 $4 $5 position (X,Y) of the second rounded end (center of the circle)*
0 Add line between two ends*
20,1,$1,$2,$3,$4,$5,0*
0 Add two circle primitives to create the rounded ends*
1,1,$1,$2,$3*
1,1,$1,$4,$5*%
%AMRotRect*
0 Rectangle, with rotation*
0 The origin of the aperture is its center*
0 $1 length*
0 $2 width*
0 $3 Rotation angle, in degrees counterclockwise*
0 Add horizontal line*
21,1,$1,$2,0,0,$3*%
G04 Aperture macros list end*
%TA.AperFunction,WasherPad*%
%ADD10C,1.000000*%
%TD*%
%TA.AperFunction,ComponentPad*%
%ADD11RotRect,1.778000X1.778000X93.000000*%
%TD*%
%TA.AperFunction,SMDPad,CuDef*%
%ADD12RotRect,0.900000X1.200000X93.000000*%
%TD*%
%TA.AperFunction,ComponentPad*%
%ADD13C,1.905000*%
%TD*%
%TA.AperFunction,ComponentPad*%
%ADD14R,1.778000X1.778000*%
%TD*%
%TA.AperFunction,SMDPad,CuDef*%
%ADD15R,1.200000X0.900000*%
%TD*%
%TA.AperFunction,ComponentPad*%
%ADD16C,1.752600*%
%TD*%
%TA.AperFunction,ComponentPad*%
%ADD17RotRect,1.200000X1.700000X273.000000*%
%TD*%
%TA.AperFunction,ComponentPad*%
%ADD18HorizOval,1.200000X-0.249657X-0.013084X0.249657X0.013084X0*%
%TD*%
%TA.AperFunction,ComponentPad*%
%ADD19RotRect,1.778000X1.778000X101.000000*%
%TD*%
%TA.AperFunction,SMDPad,CuDef*%
%ADD20RotRect,0.900000X1.200000X101.000000*%
%TD*%
%TA.AperFunction,ComponentPad*%
%ADD21RotRect,1.778000X1.778000X128.000000*%
%TD*%
%TA.AperFunction,SMDPad,CuDef*%
%ADD22RotRect,0.900000X1.200000X128.000000*%
%TD*%
%TA.AperFunction,ViaPad*%
%ADD23C,0.800000*%
%TD*%
%TA.AperFunction,Conductor*%
%ADD24C,0.250000*%
%TD*%
G04 APERTURE END LIST*
D10*
%TO.P,T1,*%
%TO.N,*%
X145881877Y-180869031D03*
X146402821Y-177914607D03*
%TD*%
D11*
%TO.P,D17,1*%
%TO.N,P115*%
X204922588Y-178953889D03*
D12*
X204809542Y-176796849D03*
%TO.P,D17,2*%
%TO.N,mirror_four_bottom*%
X204636834Y-173501371D03*
D13*
X204523788Y-171344331D03*
%TD*%
D11*
%TO.P,D10,1*%
%TO.N,P002*%
X241577027Y-152283993D03*
D12*
X241463981Y-150126953D03*
%TO.P,D10,2*%
%TO.N,mirror_two_home*%
X241291273Y-146831475D03*
D13*
X241178227Y-144674435D03*
%TD*%
D14*
%TO.P,D3,1*%
%TO.N,P029*%
X280749798Y-144164160D03*
D15*
X280749798Y-142004160D03*
%TO.P,D3,2*%
%TO.N,mirror_function_keys_qwerty*%
X280749798Y-138704160D03*
D13*
X280749798Y-136544160D03*
%TD*%
D16*
%TO.P,MCU1,1*%
%TO.N,P006*%
X145014474Y-112918737D03*
%TO.P,MCU1,2*%
%TO.N,P008*%
X145147407Y-115455256D03*
%TO.P,MCU1,3*%
%TO.N,GND*%
X145280340Y-117991775D03*
%TO.P,MCU1,4*%
X145413274Y-120528294D03*
%TO.P,MCU1,5*%
%TO.N,P017*%
X145546207Y-123064813D03*
%TO.P,MCU1,6*%
%TO.N,P020*%
X145679140Y-125601332D03*
%TO.P,MCU1,7*%
%TO.N,P022*%
X145812074Y-128137851D03*
%TO.P,MCU1,8*%
%TO.N,P024*%
X145945007Y-130674371D03*
%TO.P,MCU1,9*%
%TO.N,P100*%
X146077940Y-133210890D03*
%TO.P,MCU1,10*%
%TO.N,P011*%
X146210874Y-135747409D03*
%TO.P,MCU1,11*%
%TO.N,P104*%
X146343807Y-138283928D03*
%TO.P,MCU1,12*%
%TO.N,P106*%
X146476740Y-140820447D03*
%TO.P,MCU1,13*%
%TO.N,P009*%
X161695854Y-140022847D03*
%TO.P,MCU1,14*%
%TO.N,P010*%
X161562921Y-137486328D03*
%TO.P,MCU1,15*%
%TO.N,P111*%
X161429988Y-134949809D03*
%TO.P,MCU1,16*%
%TO.N,P113*%
X161297054Y-132413290D03*
%TO.P,MCU1,17*%
%TO.N,P115*%
X161164121Y-129876771D03*
%TO.P,MCU1,18*%
%TO.N,P002*%
X161031188Y-127340252D03*
%TO.P,MCU1,19*%
%TO.N,P029*%
X160898254Y-124803733D03*
%TO.P,MCU1,20*%
%TO.N,P031*%
X160765321Y-122267213D03*
%TO.P,MCU1,21*%
%TO.N,VCC*%
X160632388Y-119730694D03*
%TO.P,MCU1,22*%
%TO.N,RST*%
X160499454Y-117194175D03*
%TO.P,MCU1,23*%
%TO.N,GND*%
X160366521Y-114657656D03*
%TO.P,MCU1,24*%
%TO.N,RAW*%
X160233588Y-112121137D03*
%TO.P,MCU1,31*%
%TO.N,P101*%
X148747393Y-135614475D03*
%TO.P,MCU1,32*%
%TO.N,P102*%
X151283912Y-135481542D03*
%TO.P,MCU1,33*%
%TO.N,P107*%
X153820431Y-135348609D03*
%TD*%
D14*
%TO.P,D4,1*%
%TO.N,P031*%
X280749798Y-125164160D03*
D15*
X280749798Y-123004160D03*
%TO.P,D4,2*%
%TO.N,mirror_function_keys_number*%
X280749798Y-119704160D03*
D13*
X280749798Y-117544160D03*
%TD*%
D11*
%TO.P,D20,1*%
%TO.N,P031*%
X201939438Y-122032005D03*
D12*
X201826392Y-119874965D03*
%TO.P,D20,2*%
%TO.N,mirror_four_number*%
X201653684Y-116579487D03*
D13*
X201540638Y-114422447D03*
%TD*%
D11*
%TO.P,D13,1*%
%TO.N,P115*%
X223647299Y-173203533D03*
D12*
X223534253Y-171046493D03*
%TO.P,D13,2*%
%TO.N,mirror_three_bottom*%
X223361545Y-167751015D03*
D13*
X223248499Y-165593975D03*
%TD*%
D17*
%TO.P,JST1,1*%
%TO.N,pos*%
X161284926Y-167912575D03*
D18*
%TO.P,JST1,2*%
%TO.N,GND*%
X161389598Y-169909835D03*
%TD*%
D19*
%TO.P,D25,1*%
%TO.N,P113*%
X233499304Y-193040311D03*
D20*
X233087157Y-190919996D03*
%TO.P,D25,2*%
%TO.N,mirror_near_thumb*%
X232457487Y-187680626D03*
D13*
X232045340Y-185560311D03*
%TD*%
D14*
%TO.P,D5,1*%
%TO.N,P115*%
X261749798Y-176449160D03*
D15*
X261749798Y-174289160D03*
%TO.P,D5,2*%
%TO.N,mirror_one_bottom*%
X261749798Y-170989160D03*
D13*
X261749798Y-168829160D03*
%TD*%
D11*
%TO.P,D29,1*%
%TO.N,P002*%
X166346634Y-168959101D03*
D12*
X166233588Y-166802061D03*
%TO.P,D29,2*%
%TO.N,mirror_curly_square*%
X166060880Y-163506583D03*
D13*
X165947834Y-161349543D03*
%TD*%
D14*
%TO.P,D7,1*%
%TO.N,P029*%
X261749798Y-138449160D03*
D15*
X261749798Y-136289160D03*
%TO.P,D7,2*%
%TO.N,mirror_one_qwerty*%
X261749798Y-132989160D03*
D13*
X261749798Y-130829160D03*
%TD*%
D11*
%TO.P,D19,1*%
%TO.N,P029*%
X202933822Y-141005966D03*
D12*
X202820776Y-138848926D03*
%TO.P,D19,2*%
%TO.N,mirror_four_qwerty*%
X202648068Y-135553448D03*
D13*
X202535022Y-133396408D03*
%TD*%
D11*
%TO.P,D11,1*%
%TO.N,P029*%
X240582644Y-133310032D03*
D12*
X240469598Y-131152992D03*
%TO.P,D11,2*%
%TO.N,mirror_two_qwerty*%
X240296890Y-127857514D03*
D13*
X240183844Y-125700474D03*
%TD*%
D11*
%TO.P,D12,1*%
%TO.N,P031*%
X239588261Y-114336071D03*
D12*
X239475215Y-112179031D03*
%TO.P,D12,2*%
%TO.N,mirror_two_number*%
X239302507Y-108883553D03*
D13*
X239189461Y-106726513D03*
%TD*%
D11*
%TO.P,D15,1*%
%TO.N,P029*%
X221658533Y-135255610D03*
D12*
X221545487Y-133098570D03*
%TO.P,D15,2*%
%TO.N,mirror_three_qwerty*%
X221372779Y-129803092D03*
D13*
X221259733Y-127646052D03*
%TD*%
D14*
%TO.P,D1,1*%
%TO.N,P115*%
X280749798Y-182164160D03*
D15*
X280749798Y-180004160D03*
%TO.P,D1,2*%
%TO.N,mirror_function_keys_bottom*%
X280749798Y-176704160D03*
D13*
X280749798Y-174544160D03*
%TD*%
D19*
%TO.P,D26,1*%
%TO.N,P113*%
X214848388Y-196665682D03*
D20*
X214436241Y-194545367D03*
%TO.P,D26,2*%
%TO.N,mirror_home_thumb*%
X213806571Y-191305997D03*
D13*
X213394424Y-189185682D03*
%TD*%
D11*
%TO.P,D9,1*%
%TO.N,P115*%
X242571410Y-171257955D03*
D12*
X242458364Y-169100915D03*
%TO.P,D9,2*%
%TO.N,mirror_two_bottom*%
X242285656Y-165805437D03*
D13*
X242172610Y-163648397D03*
%TD*%
D11*
%TO.P,D14,1*%
%TO.N,P002*%
X222652916Y-154229571D03*
D12*
X222539870Y-152072531D03*
%TO.P,D14,2*%
%TO.N,mirror_three_home*%
X222367162Y-148777053D03*
D13*
X222254116Y-146620013D03*
%TD*%
D11*
%TO.P,D18,1*%
%TO.N,P002*%
X203928205Y-159979928D03*
D12*
X203815159Y-157822888D03*
%TO.P,D18,2*%
%TO.N,mirror_four_home*%
X203642451Y-154527410D03*
D13*
X203529405Y-152370370D03*
%TD*%
D19*
%TO.P,D27,1*%
%TO.N,P113*%
X195958960Y-199064019D03*
D20*
X195546813Y-196943704D03*
%TO.P,D27,2*%
%TO.N,mirror_far_thumb*%
X194917143Y-193704334D03*
D13*
X194504996Y-191584019D03*
%TD*%
D14*
%TO.P,D2,1*%
%TO.N,P002*%
X280749798Y-163164160D03*
D15*
X280749798Y-161004160D03*
%TO.P,D2,2*%
%TO.N,mirror_function_keys_home*%
X280749798Y-157704160D03*
D13*
X280749798Y-155544160D03*
%TD*%
D21*
%TO.P,D28,1*%
%TO.N,P113*%
X171249810Y-191386964D03*
D22*
X169919981Y-189684861D03*
%TO.P,D28,2*%
%TO.N,mirror_space_thumb*%
X167888299Y-187084425D03*
D13*
X166558470Y-185382322D03*
%TD*%
D14*
%TO.P,D8,1*%
%TO.N,P031*%
X261749798Y-119449160D03*
D15*
X261749798Y-117289160D03*
%TO.P,D8,2*%
%TO.N,mirror_one_number*%
X261749798Y-113989160D03*
D13*
X261749798Y-111829160D03*
%TD*%
D11*
%TO.P,D21,1*%
%TO.N,P115*%
X186000963Y-180946902D03*
D12*
X185887917Y-178789862D03*
%TO.P,D21,2*%
%TO.N,mirror_five_bottom*%
X185715209Y-175494384D03*
D13*
X185602163Y-173337344D03*
%TD*%
D11*
%TO.P,D23,1*%
%TO.N,P029*%
X184012196Y-142998979D03*
D12*
X183899150Y-140841939D03*
%TO.P,D23,2*%
%TO.N,mirror_five_qwerty*%
X183726442Y-137546461D03*
D13*
X183613396Y-135389421D03*
%TD*%
D11*
%TO.P,D24,1*%
%TO.N,P031*%
X183017813Y-124025018D03*
D12*
X182904767Y-121867978D03*
%TO.P,D24,2*%
%TO.N,mirror_five_number*%
X182732059Y-118572500D03*
D13*
X182619013Y-116415460D03*
%TD*%
D14*
%TO.P,D6,1*%
%TO.N,P002*%
X261749798Y-157449160D03*
D15*
X261749798Y-155289160D03*
%TO.P,D6,2*%
%TO.N,mirror_one_home*%
X261749798Y-151989160D03*
D13*
X261749798Y-149829160D03*
%TD*%
D11*
%TO.P,D22,1*%
%TO.N,P002*%
X185006580Y-161972940D03*
D12*
X184893534Y-159815900D03*
%TO.P,D22,2*%
%TO.N,mirror_five_home*%
X184720826Y-156520422D03*
D13*
X184607780Y-154363382D03*
%TD*%
D11*
%TO.P,D16,1*%
%TO.N,P031*%
X220664150Y-116281649D03*
D12*
X220551104Y-114124609D03*
%TO.P,D16,2*%
%TO.N,mirror_three_number*%
X220378396Y-110829131D03*
D13*
X220265350Y-108672091D03*
%TD*%
D23*
%TO.N,P011*%
X169042604Y-123354160D03*
%TO.N,P017*%
X150542604Y-154354160D03*
%TO.N,pos*%
X150542604Y-179854160D03*
%TD*%
D24*
%TO.N,mirror_function_keys_bottom*%
X280749798Y-174544160D02*
X280749798Y-176704160D01*
%TO.N,mirror_function_keys_home*%
X280749798Y-157704160D02*
X280749798Y-155544160D01*
%TO.N,mirror_function_keys_qwerty*%
X280749798Y-136544160D02*
X280749798Y-138704160D01*
%TO.N,mirror_function_keys_number*%
X280749798Y-117544160D02*
X280749798Y-119704160D01*
%TO.N,mirror_one_bottom*%
X261749798Y-170989160D02*
X261749798Y-168829160D01*
%TO.N,mirror_one_home*%
X261749798Y-149829160D02*
X261749798Y-151989160D01*
%TO.N,mirror_one_qwerty*%
X261749798Y-132989160D02*
X261749798Y-130829160D01*
%TO.N,mirror_one_number*%
X261749798Y-113989160D02*
X261749798Y-111829160D01*
%TO.N,mirror_two_bottom*%
X242285656Y-165805437D02*
X242172610Y-163648397D01*
%TO.N,mirror_two_home*%
X241291273Y-146831475D02*
X241178227Y-144674435D01*
%TO.N,mirror_two_qwerty*%
X240296890Y-127857514D02*
X240183844Y-125700474D01*
%TO.N,mirror_two_number*%
X239189461Y-106726513D02*
X239302507Y-108883553D01*
%TO.N,mirror_three_bottom*%
X223361545Y-167751015D02*
X223248499Y-165593975D01*
%TO.N,mirror_three_home*%
X222254116Y-146620013D02*
X222367162Y-148777053D01*
%TO.N,mirror_three_qwerty*%
X221372779Y-129803092D02*
X221259733Y-127646052D01*
%TO.N,mirror_three_number*%
X220378396Y-110829131D02*
X220265350Y-108672091D01*
%TO.N,P011*%
X169042604Y-123354160D02*
X166042604Y-123354160D01*
X166042604Y-123354160D02*
X158542604Y-123604160D01*
X158542604Y-123604160D02*
X146210874Y-135747409D01*
%TO.N,mirror_four_bottom*%
X204636834Y-173501371D02*
X204523788Y-171344331D01*
%TO.N,mirror_four_home*%
X203529405Y-152370370D02*
X203642451Y-154527410D01*
%TO.N,mirror_four_qwerty*%
X202648068Y-135553448D02*
X202535022Y-133396408D01*
%TO.N,mirror_four_number*%
X201540638Y-114422447D02*
X201653684Y-116579487D01*
%TO.N,mirror_five_bottom*%
X185715209Y-175494384D02*
X185602163Y-173337344D01*
%TO.N,mirror_five_home*%
X184607780Y-154363382D02*
X184720826Y-156520422D01*
%TO.N,mirror_five_qwerty*%
X183726442Y-137546461D02*
X183613396Y-135389421D01*
%TO.N,mirror_five_number*%
X182619013Y-116415460D02*
X182732059Y-118572500D01*
%TO.N,mirror_near_thumb*%
X232457487Y-187680626D02*
X232045340Y-185560311D01*
%TO.N,mirror_home_thumb*%
X213394424Y-189185682D02*
X213806571Y-191305997D01*
%TO.N,mirror_far_thumb*%
X194917143Y-193704334D02*
X194504996Y-191584019D01*
%TO.N,P017*%
X149542604Y-142604160D02*
X144792604Y-142604160D01*
X150542604Y-154354160D02*
X149542604Y-142604160D01*
X144792604Y-142604160D02*
X143792604Y-122854160D01*
X143792604Y-122854160D02*
X145546207Y-123064813D01*
%TO.N,mirror_space_thumb*%
X166558470Y-185382322D02*
X167888299Y-187084425D01*
%TO.N,mirror_curly_square*%
X166060880Y-163506583D02*
X165947834Y-161349543D01*
%TO.N,P115*%
X280749798Y-180004160D02*
X280749798Y-182164160D01*
X248042604Y-171604160D02*
X242458364Y-169100915D01*
X261749798Y-176449160D02*
X261749798Y-174289160D01*
X204809542Y-176796849D02*
X185887917Y-178789862D01*
X204922588Y-178953889D02*
X204809542Y-176796849D01*
X163792604Y-164604160D02*
X161042604Y-162604160D01*
X161042604Y-162604160D02*
X161042604Y-159854160D01*
X261749798Y-174289160D02*
X267792604Y-177604160D01*
X223534253Y-171046493D02*
X242458364Y-169100915D01*
X267792604Y-177604160D02*
X280749798Y-180004160D01*
X261749798Y-174289160D02*
X248042604Y-171604160D01*
X204809542Y-176796849D02*
X223534253Y-171046493D01*
X223647299Y-173203533D02*
X223534253Y-171046493D01*
X164292604Y-174854160D02*
X163792604Y-164604160D01*
X242571410Y-171257955D02*
X242458364Y-169100915D01*
X186000963Y-180946902D02*
X185887917Y-178789862D01*
X165542604Y-153604160D02*
X164042604Y-129604160D01*
X166042604Y-159104160D02*
X165542604Y-153604160D01*
X161042604Y-159854160D02*
X166042604Y-159104160D01*
X164042604Y-129604160D02*
X161164121Y-129876771D01*
X185887917Y-178789862D02*
X164292604Y-174854160D01*
%TO.N,P002*%
X165542604Y-126854160D02*
X161031188Y-127340252D01*
X267792604Y-158354160D02*
X280749798Y-161004160D01*
X247792604Y-153104160D02*
X261749798Y-155289160D01*
X280749798Y-163164160D02*
X280749798Y-161004160D01*
X166346634Y-168959101D02*
X166233588Y-166802061D01*
X168792604Y-165843982D02*
X166233588Y-166802061D01*
X241577027Y-152283993D02*
X241463981Y-150126953D01*
X203815159Y-157822888D02*
X222539870Y-152072531D01*
X184893534Y-159815900D02*
X185006580Y-161972940D01*
X261749798Y-155289160D02*
X267792604Y-158354160D01*
X261749798Y-155289160D02*
X261749798Y-157449160D01*
X222652916Y-154229571D02*
X222539870Y-152072531D01*
X203928205Y-159979928D02*
X203815159Y-157822888D01*
X184893534Y-159815900D02*
X168792604Y-165843982D01*
X168792604Y-165843982D02*
X166792604Y-152854160D01*
X222539870Y-152072531D02*
X241463981Y-150126953D01*
X166792604Y-152854160D02*
X165542604Y-126854160D01*
X203815159Y-157822888D02*
X184893534Y-159815900D01*
X241463981Y-150126953D02*
X247792604Y-153104160D01*
%TO.N,P029*%
X175292604Y-132354160D02*
X167542604Y-124604160D01*
X240469598Y-131152992D02*
X248792604Y-134104160D01*
X261749798Y-136289160D02*
X268042604Y-139854160D01*
X268042604Y-139854160D02*
X280749798Y-142004160D01*
X202820776Y-138848926D02*
X221545487Y-133098570D01*
X280749798Y-144164160D02*
X280749798Y-142004160D01*
X167542604Y-124604160D02*
X160898254Y-124803733D01*
X183899150Y-140841939D02*
X178792604Y-137104160D01*
X248792604Y-134104160D02*
X261749798Y-136289160D01*
X178292604Y-134104160D02*
X175292604Y-132354160D01*
X261749798Y-138449160D02*
X261749798Y-136289160D01*
X221658533Y-135255610D02*
X221545487Y-133098570D01*
X240582644Y-133310032D02*
X240469598Y-131152992D01*
X184012196Y-142998979D02*
X183899150Y-140841939D01*
X202820776Y-138848926D02*
X183899150Y-140841939D01*
X221545487Y-133098570D02*
X240469598Y-131152992D01*
X202933822Y-141005966D02*
X202820776Y-138848926D01*
X178792604Y-137104160D02*
X178292604Y-134104160D01*
%TO.N,P031*%
X182904767Y-121867978D02*
X183017813Y-124025018D01*
X201826392Y-119874965D02*
X182904767Y-121867978D01*
X239475215Y-112179031D02*
X220551104Y-114124609D01*
X220664150Y-116281649D02*
X220551104Y-114124609D01*
X280749798Y-125164160D02*
X280749798Y-123004160D01*
X280749798Y-123004160D02*
X266792604Y-120354160D01*
X201826392Y-119874965D02*
X201939438Y-122032005D01*
X261749798Y-117289160D02*
X245542604Y-114104160D01*
X245542604Y-114104160D02*
X239475215Y-112179031D01*
X239475215Y-112179031D02*
X239588261Y-114336071D01*
X266792604Y-120354160D02*
X261749798Y-117289160D01*
X201826392Y-119874965D02*
X220551104Y-114124609D01*
X182904767Y-121867978D02*
X160765321Y-122267213D01*
X261749798Y-117289160D02*
X261749798Y-119449160D01*
%TO.N,P113*%
X163292604Y-174854160D02*
X162792604Y-165104160D01*
X195546813Y-196943704D02*
X195958960Y-199064019D01*
X214436241Y-194545367D02*
X195546813Y-196943704D01*
X171542604Y-188104160D02*
X163292604Y-174854160D01*
X180542604Y-196854160D02*
X175542604Y-193354160D01*
X214436241Y-194545367D02*
X214848388Y-196665682D01*
X214436241Y-194545367D02*
X233087157Y-190919996D01*
X164792604Y-151854160D02*
X163292604Y-132104160D01*
X162792604Y-165104160D02*
X160542604Y-163104160D01*
X160792604Y-159354160D02*
X165542604Y-158604160D01*
X175542604Y-193354160D02*
X171542604Y-188104160D01*
X165542604Y-158604160D02*
X164792604Y-151854160D01*
X195546813Y-196943704D02*
X180542604Y-196854160D01*
X169919981Y-189684861D02*
X171249810Y-191386964D01*
X233499304Y-193040311D02*
X233087157Y-190919996D01*
X160542604Y-163104160D02*
X160542604Y-159604160D01*
X160542604Y-159604160D02*
X160792604Y-159354160D01*
X171542604Y-188104160D02*
X169919981Y-189684861D01*
X163292604Y-132104160D02*
X161297054Y-132413290D01*
%TO.N,GND*%
X145413274Y-120528294D02*
X145280340Y-117991775D01*
X145280340Y-117991775D02*
X160366521Y-114657656D01*
%TO.N,pos*%
X150542604Y-179854160D02*
X161284926Y-167912575D01*
%TD*%
M02*
