M48
; DRILL file {KiCad 8.0.4} date 2024-09-16T15:21:09-0600
; FORMAT={-:-/ absolute / metric / decimal}
; #@! TF.CreationDate,2024-09-16T15:21:09-06:00
; #@! TF.GenerationSoftware,Kicad,Pcbnew,8.0.4
; #@! TF.FileFunction,NonPlated,1,2,NPTH
FMAT,2
METRIC
; #@! TA.AperFunction,NonPlated,NPTH,ComponentDrill
T1C0.900
; #@! TA.AperFunction,NonPlated,NPTH,ComponentDrill
T2C1.702
; #@! TA.AperFunction,NonPlated,NPTH,ComponentDrill
T3C2.400
; #@! TA.AperFunction,NonPlated,NPTH,ComponentDrill
T4C3.000
; #@! TA.AperFunction,NonPlated,NPTH,ComponentDrill
T5C3.988
%
G90
G05
T1
X145.882Y-180.869
X146.403Y-177.915
T2
X152.902Y-162.344
X156.442Y-193.679
X163.048Y-161.812
X164.448Y-187.424
X169.573Y-117.41
X170.568Y-136.384
X171.562Y-155.358
X172.556Y-174.331
X179.719Y-116.878
X180.714Y-135.852
X181.708Y-154.826
X181.724Y-194.384
X182.702Y-173.8
X188.495Y-115.417
X189.489Y-134.391
X190.484Y-153.364
X191.478Y-172.338
X191.698Y-192.445
X198.641Y-114.885
X199.635Y-133.859
X200.614Y-191.986
X200.63Y-152.833
X201.624Y-171.807
X207.219Y-109.666
X208.214Y-128.64
X209.208Y-147.614
X210.203Y-166.588
X210.587Y-190.047
X217.366Y-109.134
X218.36Y-128.108
X219.265Y-188.36
X219.354Y-147.082
X220.349Y-166.056
X226.144Y-107.721
X227.138Y-126.695
X228.132Y-145.669
X229.127Y-164.643
X229.238Y-186.422
X236.29Y-107.189
X237.284Y-126.163
X238.278Y-145.137
X239.273Y-164.111
X248.67Y-112.139
X248.67Y-131.139
X248.67Y-150.139
X248.67Y-169.139
X258.83Y-112.139
X258.83Y-131.139
X258.83Y-150.139
X258.83Y-169.139
X267.67Y-117.854
X267.67Y-136.854
X267.67Y-155.854
X267.67Y-174.854
X277.83Y-117.854
X277.83Y-136.854
X277.83Y-155.854
X277.83Y-174.854
T3
X170.03Y-201.025
X174.175Y-108.156
X195.071Y-143.836
X242.326Y-137.439
X265.75Y-106.329
X270.75Y-184.379
T4
X154.037Y-159.741
X155.879Y-190.896
X159.319Y-184.985
X160.246Y-156.872
X170.708Y-114.807
X171.703Y-133.781
X172.697Y-152.755
X173.692Y-171.728
X176.917Y-111.938
X177.911Y-130.912
X178.906Y-149.886
X179.9Y-168.86
X182.486Y-191.648
X188.235Y-187.943
X189.63Y-112.814
X190.624Y-131.788
X191.619Y-150.762
X192.613Y-169.735
X195.838Y-109.945
X196.833Y-128.919
X197.827Y-147.893
X198.822Y-166.867
X201.376Y-189.25
X207.125Y-185.545
X208.355Y-107.063
X209.349Y-126.037
X210.344Y-145.011
X211.338Y-163.985
X214.563Y-104.194
X215.558Y-123.168
X216.552Y-142.142
X217.546Y-161.116
X220.027Y-185.625
X225.775Y-181.92
X227.279Y-105.118
X228.273Y-124.092
X229.268Y-143.066
X230.262Y-162.04
X233.487Y-102.249
X234.482Y-121.223
X235.476Y-140.197
X236.47Y-159.171
X249.94Y-109.599
X249.94Y-128.599
X249.94Y-147.599
X249.94Y-166.599
X256.29Y-107.059
X256.29Y-126.059
X256.29Y-145.059
X256.29Y-164.059
X268.94Y-115.314
X268.94Y-134.314
X268.94Y-153.314
X268.94Y-172.314
X275.29Y-112.774
X275.29Y-131.774
X275.29Y-150.774
X275.29Y-169.774
T5
X157.975Y-162.078
X160.445Y-190.552
X174.646Y-117.144
X175.641Y-136.118
X176.635Y-155.092
X177.629Y-174.066
X186.711Y-193.415
X193.568Y-115.151
X194.562Y-134.125
X195.557Y-153.099
X196.551Y-172.073
X205.601Y-191.016
X212.293Y-109.4
X213.287Y-128.374
X214.281Y-147.348
X215.276Y-166.322
X224.251Y-187.391
X231.217Y-107.455
X232.211Y-126.429
X233.205Y-145.403
X234.2Y-164.377
X253.75Y-112.139
X253.75Y-131.139
X253.75Y-150.139
X253.75Y-169.139
X272.75Y-117.854
X272.75Y-136.854
X272.75Y-155.854
X272.75Y-174.854
M30
