%TF.GenerationSoftware,KiCad,Pcbnew,8.0.4*%
%TF.CreationDate,2024-09-16T15:21:11-06:00*%
%TF.ProjectId,right_board,72696768-745f-4626-9f61-72642e6b6963,v1.0.0*%
%TF.SameCoordinates,Original*%
%TF.FileFunction,Soldermask,Top*%
%TF.FilePolarity,Negative*%
%FSLAX46Y46*%
G04 Gerber Fmt 4.6, Leading zero omitted, Abs format (unit mm)*
G04 Created by KiCad (PCBNEW 8.0.4) date 2024-09-16 15:21:11*
%MOMM*%
%LPD*%
G01*
G04 APERTURE LIST*
G04 Aperture macros list*
%AMRoundRect*
0 Rectangle with rounded corners*
0 $1 Rounding radius*
0 $2 $3 $4 $5 $6 $7 $8 $9 X,Y pos of 4 corners*
0 Add a 4 corners polygon primitive as box body*
4,1,4,$2,$3,$4,$5,$6,$7,$8,$9,$2,$3,0*
0 Add four circle primitives for the rounded corners*
1,1,$1+$1,$2,$3*
1,1,$1+$1,$4,$5*
1,1,$1+$1,$6,$7*
1,1,$1+$1,$8,$9*
0 Add four rect primitives between the rounded corners*
20,1,$1+$1,$2,$3,$4,$5,0*
20,1,$1+$1,$4,$5,$6,$7,0*
20,1,$1+$1,$6,$7,$8,$9,0*
20,1,$1+$1,$8,$9,$2,$3,0*%
%AMHorizOval*
0 Thick line with rounded ends*
0 $1 width*
0 $2 $3 position (X,Y) of the first rounded end (center of the circle)*
0 $4 $5 position (X,Y) of the second rounded end (center of the circle)*
0 Add line between two ends*
20,1,$1,$2,$3,$4,$5,0*
0 Add two circle primitives to create the rounded ends*
1,1,$1,$2,$3*
1,1,$1,$4,$5*%
G04 Aperture macros list end*
%ADD10C,1.100000*%
%ADD11C,2.500000*%
%ADD12C,1.801800*%
%ADD13C,3.100000*%
%ADD14C,4.087800*%
%ADD15RoundRect,0.050000X0.934308X-0.841255X0.841255X0.934308X-0.934308X0.841255X-0.841255X-0.934308X0*%
%ADD16RoundRect,0.050000X0.622729X-0.417982X0.575627X0.480785X-0.622729X0.417982X-0.575627X-0.480785X0*%
%ADD17C,2.005000*%
%ADD18RoundRect,0.050000X0.889000X-0.889000X0.889000X0.889000X-0.889000X0.889000X-0.889000X-0.889000X0*%
%ADD19RoundRect,0.050000X0.600000X-0.450000X0.600000X0.450000X-0.600000X0.450000X-0.600000X-0.450000X0*%
%ADD20C,1.852600*%
%ADD21RoundRect,0.050000X-0.880237X0.554692X-0.817434X-0.643663X0.880237X-0.554692X0.817434X0.643663X0*%
%ADD22HorizOval,1.300000X-0.249657X-0.013084X0.249657X0.013084X0*%
%ADD23RoundRect,0.050000X1.042296X-0.703037X0.703037X1.042296X-1.042296X0.703037X-0.703037X-1.042296X0*%
%ADD24RoundRect,0.050000X0.674840X-0.327247X0.503112X0.556218X-0.674840X0.327247X-0.503112X-0.556218X0*%
%ADD25RoundRect,0.050000X1.247865X-0.153219X0.153219X1.247865X-1.247865X0.153219X-0.153219X-1.247865X0*%
%ADD26RoundRect,0.050000X0.749854X0.014792X0.195759X0.724002X-0.749854X-0.014792X-0.195759X-0.724002X0*%
G04 APERTURE END LIST*
D10*
%TO.C,T1*%
X145881877Y-180869031D03*
X146402821Y-177914607D03*
%TD*%
D11*
%TO.C,*%
X170029896Y-201025279D03*
%TD*%
D12*
%TO.C,S16*%
X207219499Y-109666221D03*
D13*
X208354825Y-107063235D03*
D14*
X212292537Y-109400354D03*
D13*
X214563189Y-104194383D03*
D12*
X217365575Y-109134487D03*
%TD*%
D15*
%TO.C,D17*%
X204922588Y-178953889D03*
D16*
X204809542Y-176796849D03*
X204636834Y-173501371D03*
D17*
X204523788Y-171344331D03*
%TD*%
D11*
%TO.C,*%
X242326150Y-137439443D03*
%TD*%
D12*
%TO.C,S17*%
X191477938Y-172338461D03*
D13*
X192613264Y-169735475D03*
D14*
X196550976Y-172072594D03*
D13*
X198821628Y-166866623D03*
D12*
X201624014Y-171806727D03*
%TD*%
D15*
%TO.C,D10*%
X241577027Y-152283993D03*
D16*
X241463981Y-150126953D03*
X241291273Y-146831475D03*
D17*
X241178227Y-144674435D03*
%TD*%
D12*
%TO.C,S8*%
X248669798Y-112139160D03*
D13*
X249939798Y-109599160D03*
D14*
X253749798Y-112139160D03*
D13*
X256289798Y-107059160D03*
D12*
X258829798Y-112139160D03*
%TD*%
%TO.C,S15*%
X208213883Y-128640182D03*
D13*
X209349209Y-126037196D03*
D14*
X213286921Y-128374315D03*
D13*
X215557573Y-123168344D03*
D12*
X218359959Y-128108448D03*
%TD*%
%TO.C,S18*%
X190483555Y-153364500D03*
D13*
X191618881Y-150761514D03*
D14*
X195556593Y-153098633D03*
D13*
X197827245Y-147892662D03*
D12*
X200629631Y-152832766D03*
%TD*%
%TO.C,S25*%
X219264807Y-188360398D03*
D13*
X220026819Y-185624737D03*
D14*
X224251473Y-187391088D03*
D13*
X225775496Y-181919767D03*
D12*
X229238139Y-186421778D03*
%TD*%
D18*
%TO.C,D3*%
X280749798Y-144164160D03*
D19*
X280749798Y-142004160D03*
X280749798Y-138704160D03*
D17*
X280749798Y-136544160D03*
%TD*%
D20*
%TO.C,MCU1*%
X145014474Y-112918737D03*
X145147407Y-115455256D03*
X145280340Y-117991775D03*
X145413274Y-120528294D03*
X145546207Y-123064813D03*
X145679140Y-125601332D03*
X145812074Y-128137851D03*
X145945007Y-130674371D03*
X146077940Y-133210890D03*
X146210874Y-135747409D03*
X146343807Y-138283928D03*
X146476740Y-140820447D03*
X161695854Y-140022847D03*
X161562921Y-137486328D03*
X161429988Y-134949809D03*
X161297054Y-132413290D03*
X161164121Y-129876771D03*
X161031188Y-127340252D03*
X160898254Y-124803733D03*
X160765321Y-122267213D03*
X160632388Y-119730694D03*
X160499454Y-117194175D03*
X160366521Y-114657656D03*
X160233588Y-112121137D03*
X148747393Y-135614475D03*
X151283912Y-135481542D03*
X153820431Y-135348609D03*
%TD*%
D18*
%TO.C,D4*%
X280749798Y-125164160D03*
D19*
X280749798Y-123004160D03*
X280749798Y-119704160D03*
D17*
X280749798Y-117544160D03*
%TD*%
D12*
%TO.C,S10*%
X228132377Y-145668566D03*
D13*
X229267703Y-143065580D03*
D14*
X233205415Y-145402699D03*
D13*
X235476067Y-140196728D03*
D12*
X238278453Y-145136832D03*
%TD*%
D15*
%TO.C,D20*%
X201939438Y-122032005D03*
D16*
X201826392Y-119874965D03*
X201653684Y-116579487D03*
D17*
X201540638Y-114422447D03*
%TD*%
D12*
%TO.C,S27*%
X181724463Y-194384105D03*
D13*
X182486475Y-191648444D03*
D14*
X186711129Y-193414795D03*
D13*
X188235152Y-187943474D03*
D12*
X191697795Y-192445485D03*
%TD*%
D15*
%TO.C,D13*%
X223647299Y-173203533D03*
D16*
X223534253Y-171046493D03*
X223361545Y-167751015D03*
D17*
X223248499Y-165593975D03*
%TD*%
D21*
%TO.C,JST1*%
X161284926Y-167912575D03*
D22*
X161389598Y-169909835D03*
%TD*%
D12*
%TO.C,S6*%
X248669798Y-150139160D03*
D13*
X249939798Y-147599160D03*
D14*
X253749798Y-150139160D03*
D13*
X256289798Y-145059160D03*
D12*
X258829798Y-150139160D03*
%TD*%
D11*
%TO.C,*%
X195071177Y-143836344D03*
%TD*%
D12*
%TO.C,S19*%
X189489172Y-134390539D03*
D13*
X190624498Y-131787553D03*
D14*
X194562210Y-134124672D03*
D13*
X196832862Y-128918701D03*
D12*
X199635248Y-133858805D03*
%TD*%
D23*
%TO.C,D25*%
X233499304Y-193040311D03*
D24*
X233087157Y-190919996D03*
X232457487Y-187680626D03*
D17*
X232045340Y-185560311D03*
%TD*%
D18*
%TO.C,D5*%
X261749798Y-176449160D03*
D19*
X261749798Y-174289160D03*
X261749798Y-170989160D03*
D17*
X261749798Y-168829160D03*
%TD*%
D12*
%TO.C,S12*%
X226143611Y-107720643D03*
D13*
X227278937Y-105117657D03*
D14*
X231216649Y-107454776D03*
D13*
X233487301Y-102248805D03*
D12*
X236289687Y-107188909D03*
%TD*%
%TO.C,S7*%
X248669798Y-131139160D03*
D13*
X249939798Y-128599160D03*
D14*
X253749798Y-131139160D03*
D13*
X256289798Y-126059160D03*
D12*
X258829798Y-131139160D03*
%TD*%
%TO.C,S21*%
X172556313Y-174331474D03*
D13*
X173691639Y-171728488D03*
D14*
X177629351Y-174065607D03*
D13*
X179900003Y-168859636D03*
D12*
X182702389Y-173799740D03*
%TD*%
%TO.C,S2*%
X267669798Y-155854160D03*
D13*
X268939798Y-153314160D03*
D14*
X272749798Y-155854160D03*
D13*
X275289798Y-150774160D03*
D12*
X277829798Y-155854160D03*
%TD*%
D15*
%TO.C,D29*%
X166346634Y-168959101D03*
D16*
X166233588Y-166802061D03*
X166060880Y-163506583D03*
D17*
X165947834Y-161349543D03*
%TD*%
D11*
%TO.C,*%
X174175178Y-108156057D03*
%TD*%
%TO.C,*%
X265749798Y-106329160D03*
%TD*%
D12*
%TO.C,S26*%
X200613891Y-191985768D03*
D13*
X201375903Y-189250107D03*
D14*
X205600557Y-191016458D03*
D13*
X207124580Y-185545137D03*
D12*
X210587223Y-190047148D03*
%TD*%
%TO.C,S13*%
X210202649Y-166588105D03*
D13*
X211337975Y-163985119D03*
D14*
X215275687Y-166322238D03*
D13*
X217546339Y-161116267D03*
D12*
X220348725Y-166056371D03*
%TD*%
%TO.C,S22*%
X171561930Y-155357513D03*
D13*
X172697256Y-152754527D03*
D14*
X176634968Y-155091646D03*
D13*
X178905620Y-149885675D03*
D12*
X181708006Y-154825779D03*
%TD*%
D18*
%TO.C,D7*%
X261749798Y-138449160D03*
D19*
X261749798Y-136289160D03*
X261749798Y-132989160D03*
D17*
X261749798Y-130829160D03*
%TD*%
D15*
%TO.C,D19*%
X202933822Y-141005966D03*
D16*
X202820776Y-138848926D03*
X202648068Y-135553448D03*
D17*
X202535022Y-133396408D03*
%TD*%
D15*
%TO.C,D11*%
X240582644Y-133310032D03*
D16*
X240469598Y-131152992D03*
X240296890Y-127857514D03*
D17*
X240183844Y-125700474D03*
%TD*%
D15*
%TO.C,D12*%
X239588261Y-114336071D03*
D16*
X239475215Y-112179031D03*
X239302507Y-108883553D03*
D17*
X239189461Y-106726513D03*
%TD*%
D12*
%TO.C,S4*%
X267669798Y-117854160D03*
D13*
X268939798Y-115314160D03*
D14*
X272749798Y-117854160D03*
D13*
X275289798Y-112774160D03*
D12*
X277829798Y-117854160D03*
%TD*%
D15*
%TO.C,D15*%
X221658533Y-135255610D03*
D16*
X221545487Y-133098570D03*
X221372779Y-129803092D03*
D17*
X221259733Y-127646052D03*
%TD*%
D18*
%TO.C,D1*%
X280749798Y-182164160D03*
D19*
X280749798Y-180004160D03*
X280749798Y-176704160D03*
D17*
X280749798Y-174544160D03*
%TD*%
D23*
%TO.C,D26*%
X214848388Y-196665682D03*
D24*
X214436241Y-194545367D03*
X213806571Y-191305997D03*
D17*
X213394424Y-189185682D03*
%TD*%
D15*
%TO.C,D9*%
X242571410Y-171257955D03*
D16*
X242458364Y-169100915D03*
X242285656Y-165805437D03*
D17*
X242172610Y-163648397D03*
%TD*%
D12*
%TO.C,S9*%
X229126760Y-164642527D03*
D13*
X230262086Y-162039541D03*
D14*
X234199798Y-164376660D03*
D13*
X236470450Y-159170689D03*
D12*
X239272836Y-164110793D03*
%TD*%
%TO.C,S11*%
X227137994Y-126694605D03*
D13*
X228273320Y-124091619D03*
D14*
X232211032Y-126428738D03*
D13*
X234481684Y-121222767D03*
D12*
X237284070Y-126162871D03*
%TD*%
D15*
%TO.C,D14*%
X222652916Y-154229571D03*
D16*
X222539870Y-152072531D03*
X222367162Y-148777053D03*
D17*
X222254116Y-146620013D03*
%TD*%
D12*
%TO.C,S5*%
X248669798Y-169139160D03*
D13*
X249939798Y-166599160D03*
D14*
X253749798Y-169139160D03*
D13*
X256289798Y-164059160D03*
D12*
X258829798Y-169139160D03*
%TD*%
D15*
%TO.C,D18*%
X203928205Y-159979928D03*
D16*
X203815159Y-157822888D03*
X203642451Y-154527410D03*
D17*
X203529405Y-152370370D03*
%TD*%
D11*
%TO.C,*%
X270749798Y-184379160D03*
%TD*%
D23*
%TO.C,D27*%
X195958960Y-199064019D03*
D24*
X195546813Y-196943704D03*
X194917143Y-193704334D03*
D17*
X194504996Y-191584019D03*
%TD*%
D12*
%TO.C,S29*%
X152901984Y-162343673D03*
D13*
X154037310Y-159740687D03*
D14*
X157975022Y-162077806D03*
D13*
X160245674Y-156871835D03*
D12*
X163048060Y-161811939D03*
%TD*%
%TO.C,S23*%
X170567546Y-136383551D03*
D13*
X171702872Y-133780565D03*
D14*
X175640584Y-136117684D03*
D13*
X177911236Y-130911713D03*
D12*
X180713622Y-135851817D03*
%TD*%
D18*
%TO.C,D2*%
X280749798Y-163164160D03*
D19*
X280749798Y-161004160D03*
X280749798Y-157704160D03*
D17*
X280749798Y-155544160D03*
%TD*%
D25*
%TO.C,D28*%
X171249810Y-191386964D03*
D26*
X169919981Y-189684861D03*
X167888299Y-187084425D03*
D17*
X166558470Y-185382322D03*
%TD*%
D12*
%TO.C,S14*%
X209208266Y-147614144D03*
D13*
X210343592Y-145011158D03*
D14*
X214281304Y-147348277D03*
D13*
X216551956Y-142142306D03*
D12*
X219354342Y-147082410D03*
%TD*%
D18*
%TO.C,D8*%
X261749798Y-119449160D03*
D19*
X261749798Y-117289160D03*
X261749798Y-113989160D03*
D17*
X261749798Y-111829160D03*
%TD*%
D12*
%TO.C,S3*%
X267669798Y-136854160D03*
D13*
X268939798Y-134314160D03*
D14*
X272749798Y-136854160D03*
D13*
X275289798Y-131774160D03*
D12*
X277829798Y-136854160D03*
%TD*%
%TO.C,S24*%
X169573163Y-117409590D03*
D13*
X170708489Y-114806604D03*
D14*
X174646201Y-117143723D03*
D13*
X176916853Y-111937752D03*
D12*
X179719239Y-116877856D03*
%TD*%
D15*
%TO.C,D21*%
X186000963Y-180946902D03*
D16*
X185887917Y-178789862D03*
X185715209Y-175494384D03*
D17*
X185602163Y-173337344D03*
%TD*%
D15*
%TO.C,D23*%
X184012196Y-142998979D03*
D16*
X183899150Y-140841939D03*
X183726442Y-137546461D03*
D17*
X183613396Y-135389421D03*
%TD*%
D12*
%TO.C,S28*%
X156442143Y-193679458D03*
D13*
X155879137Y-190896021D03*
D14*
X160445238Y-190551898D03*
D13*
X159319225Y-184985023D03*
D12*
X164448333Y-187424338D03*
%TD*%
D15*
%TO.C,D24*%
X183017813Y-124025018D03*
D16*
X182904767Y-121867978D03*
X182732059Y-118572500D03*
D17*
X182619013Y-116415460D03*
%TD*%
D12*
%TO.C,S20*%
X188494788Y-115416577D03*
D13*
X189630114Y-112813591D03*
D14*
X193567826Y-115150710D03*
D13*
X195838478Y-109944739D03*
D12*
X198640864Y-114884843D03*
%TD*%
D18*
%TO.C,D6*%
X261749798Y-157449160D03*
D19*
X261749798Y-155289160D03*
X261749798Y-151989160D03*
D17*
X261749798Y-149829160D03*
%TD*%
D15*
%TO.C,D22*%
X185006580Y-161972940D03*
D16*
X184893534Y-159815900D03*
X184720826Y-156520422D03*
D17*
X184607780Y-154363382D03*
%TD*%
D12*
%TO.C,S1*%
X267669798Y-174854160D03*
D13*
X268939798Y-172314160D03*
D14*
X272749798Y-174854160D03*
D13*
X275289798Y-169774160D03*
D12*
X277829798Y-174854160D03*
%TD*%
D15*
%TO.C,D16*%
X220664150Y-116281649D03*
D16*
X220551104Y-114124609D03*
X220378396Y-110829131D03*
D17*
X220265350Y-108672091D03*
%TD*%
M02*
