0
SECTION
2
HEADER
9
$INSUNITS
70
4
0
ENDSEC
0
SECTION
2
TABLES
0
TABLE
2
LTYPE
0
LTYPE
72
65
70
64
2
CONTINUOUS
3
______
73
0
40
0
0
ENDTAB
0
TABLE
2
LAYER
0
ENDTAB
0
ENDSEC
0
SECTION
2
ENTITIES
0
LINE
8
0
10
297.7321942
20
-9.9135778
11
297.7321942
21
67.0380634
0
LINE
8
0
10
296.308277
20
68.9532993
11
278.7976217
21
74.2203201
0
LINE
8
0
10
278.6655754
20
74.2551692
11
255.8736993
21
79.444903
0
LINE
8
0
10
255.2797883
20
79.4891945
11
213.8608047
21
76.3766161
0
LINE
8
0
10
213.4235423
20
76.2941157
11
195.0979302
21
70.6663227
0
LINE
8
0
10
194.7202941
20
70.5892016
11
176.0435259
21
68.6219797
0
LINE
8
0
10
175.9386971
20
68.6137177
11
156.5571088
21
67.5979717
0
LINE
8
0
10
154.6653134
20
65.4818946
11
158.5154699
21
0.7887568
0
LINE
8
0
10
158.4903715
20
0.332738
11
156.6110596
21
-10.654238
0
LINE
8
0
10
157.0064071
20
-12.2227617
11
173.0608362
21
-32.7714939
0
LINE
8
0
10
174.8158556
20
-33.5321448
11
190.9727323
21
-32.0802961
0
LINE
8
0
10
191.1350833
20
-32.0589773
11
251.1789651
21
-21.6584222
0
LINE
8
0
10
251.2630781
20
-21.6419888
11
296.157656
21
-11.8677994
0
ARC
8
0
10
295.7321942
20
67.0380634
40
2
50
0
51
73.2592669
0
ARC
8
0
10
278.221539
20
72.3050842
40
2
50
73.2592669
51
77.1724004
0
ARC
8
0
10
255.4296629
20
77.494818
40
2
50
77.1724004
51
94.2976199
0
ARC
8
0
10
214.0106793
20
74.3822396
40
2
50
94.2976199
51
107.0717172
0
ARC
8
0
10
194.5107933
20
72.5781987
40
2
50
276.0127865
51
287.0717172
0
ARC
8
0
10
175.8340251
20
70.6109768
40
2
50
273.0000026
51
276.0127865
0
ARC
8
0
10
156.6617808
20
65.6007126
40
2
50
93.0000026
51
183.4058905
0
ARC
8
0
10
156.5190025
20
0.6699388
40
2
50
350.2935468
51
3.4058905
0
ARC
8
0
10
158.5824286
20
-10.9914388
40
2
50
170.2935468
51
217.9999995
0
ARC
8
0
10
174.6368578
20
-31.540171
40
2
50
217.9999995
51
275.1347799
0
ARC
8
0
10
190.7937345
20
-30.0883223
40
2
50
275.1347799
51
279.8270322
0
ARC
8
0
10
250.8376163
20
-19.6877672
40
2
50
279.8270322
51
282.2824385
0
ARC
8
0
10
295.7321942
20
-9.9135778
40
2
50
282.2824385
51
0
0
LINE
8
0
10
-11.525
20
-9.9135778
11
-11.525
21
67.0380634
0
LINE
8
0
10
-10.1010828
20
68.9532993
11
7.4095725
21
74.2203201
0
LINE
8
0
10
7.5416188
20
74.2551692
11
30.3334949
21
79.444903
0
LINE
8
0
10
30.9274059
20
79.4891945
11
72.3463895
21
76.3766161
0
LINE
8
0
10
72.7836519
20
76.2941157
11
91.109264
21
70.6663227
0
LINE
8
0
10
91.4869001
20
70.5892016
11
110.1636683
21
68.6219797
0
LINE
8
0
10
110.2684971
20
68.6137177
11
129.6500854
21
67.5979717
0
LINE
8
0
10
131.5418808
20
65.4818946
11
127.6917243
21
0.7887568
0
LINE
8
0
10
127.7168227
20
0.332738
11
129.5961346
21
-10.654238
0
LINE
8
0
10
129.2007871
20
-12.2227617
11
113.146358
21
-32.7714939
0
LINE
8
0
10
111.3913386
20
-33.5321448
11
95.2344619
21
-32.0802961
0
LINE
8
0
10
95.0721109
20
-32.0589773
11
35.0282291
21
-21.6584222
0
LINE
8
0
10
34.9441161
20
-21.6419888
11
-9.9504618
21
-11.8677994
0
ARC
8
0
10
-9.525
20
67.0380634
40
2
50
106.7407331
51
180
0
ARC
8
0
10
7.9856552
20
72.3050842
40
2
50
102.8275996
51
106.7407331
0
ARC
8
0
10
30.7775313
20
77.494818
40
2
50
85.7023801
51
102.8275996
0
ARC
8
0
10
72.1965149
20
74.3822396
40
2
50
72.9282828
51
85.7023801
0
ARC
8
0
10
91.6964009
20
72.5781987
40
2
50
252.9282828
51
263.9872135
0
ARC
8
0
10
110.3731691
20
70.6109768
40
2
50
263.9872135
51
266.9999974
0
ARC
8
0
10
129.5454134
20
65.6007126
40
2
50
356.5941095
51
86.9999974
0
ARC
8
0
10
129.6881917
20
0.6699388
40
2
50
176.5941095
51
189.7064532
0
ARC
8
0
10
127.6247656
20
-10.9914388
40
2
50
322.0000005
51
9.7064532
0
ARC
8
0
10
111.5703364
20
-31.540171
40
2
50
264.8652201
51
322.0000005
0
ARC
8
0
10
95.4134597
20
-30.0883223
40
2
50
260.1729678
51
264.8652201
0
ARC
8
0
10
35.3695779
20
-19.6877672
40
2
50
257.7175615
51
260.1729678
0
ARC
8
0
10
-9.525
20
-9.9135778
40
2
50
180
51
257.7175615
0
ENDSEC
0
EOF