0
SECTION
2
HEADER
9
$INSUNITS
70
4
0
ENDSEC
0
SECTION
2
TABLES
0
TABLE
2
LTYPE
0
LTYPE
72
65
70
64
2
CONTINUOUS
3
______
73
0
40
0
0
ENDTAB
0
TABLE
2
LAYER
0
ENDTAB
0
ENDSEC
0
SECTION
2
ENTITIES
0
LINE
8
0
10
-9.0434025
20
-8.8886836
11
-10.9527951
21
61.9975196
0
LINE
8
0
10
-9.2688045
20
64.0263648
11
48.8651434
21
73.306759
0
LINE
8
0
10
48.8651434
20
73.306759
11
49.6141155
21
73.2675071
0
LINE
8
0
10
49.6141155
20
73.2675071
11
67.4297308
21
74.3072883
0
LINE
8
0
10
67.9534118
20
74.2688041
11
86.8726467
21
70.3349196
0
LINE
8
0
10
87.1507799
20
70.2972036
11
125.956387
21
67.7886456
0
LINE
8
0
10
127.8246269
20
65.6881394
11
125.7334103
21
25.7853497
0
LINE
8
0
10
125.7308741
20
25.6520645
11
126.1953571
21
-6.8109114
0
LINE
8
0
10
126.0365715
20
-7.6209867
11
118.5939772
21
-25.1546403
0
LINE
8
0
10
116.4800458
20
-26.354469
11
96.1774089
21
-23.5577935
0
LINE
8
0
10
96.0438731
20
-23.5439474
11
38.859259
21
-19.5488725
0
LINE
8
0
10
38.6265274
20
-19.5188127
11
-7.4162451
21
-10.7999083
0
ARC
8
0
10
-8.9535203
20
62.0513722
40
2
50
99.0700618
51
181.5429499
0
ARC
8
0
10
67.5462594
20
72.3106859
40
2
50
78.2538361
51
93.3401901
0
ARC
8
0
10
87.2797991
20
72.2930378
40
2
50
258.2538361
51
266.3013039
0
ARC
8
0
10
125.8273678
20
65.7928114
40
2
50
356.9999974
51
86.3013039
0
ARC
8
0
10
127.7306694
20
25.6806777
40
2
50
176.9999974
51
180.8197357
0
ARC
8
0
10
124.1955618
20
-6.8395246
40
2
50
337.0000025
51
0.8197357
0
ARC
8
0
10
116.7529674
20
-24.3731781
40
2
50
262.1569009
51
337.0000025
0
ARC
8
0
10
95.9044873
20
-25.5390844
40
2
50
82.1569009
51
86.0036514
0
ARC
8
0
10
38.9986448
20
-17.5537355
40
2
50
259.2771365
51
266.0036514
0
ARC
8
0
10
-7.0441277
20
-8.834831
40
2
50
181.5429499
51
259.2771365
0
LINE
8
0
10
-7
20
-7
11
7
21
-7
0
LINE
8
0
10
7
20
-7
11
7
21
7
0
LINE
8
0
10
7
20
7
11
-7
21
7
0
LINE
8
0
10
-7
20
7
11
-7
21
-7
0
LINE
8
0
10
-7
20
10.75
11
7
21
10.75
0
LINE
8
0
10
7
20
10.75
11
7
21
24.75
0
LINE
8
0
10
7
20
24.75
11
-7
21
24.75
0
LINE
8
0
10
-7
20
24.75
11
-7
21
10.75
0
LINE
8
0
10
-7
20
28.5
11
7
21
28.5
0
LINE
8
0
10
7
20
28.5
11
7
21
42.5
0
LINE
8
0
10
7
20
42.5
11
-7
21
42.5
0
LINE
8
0
10
-7
20
42.5
11
-7
21
28.5
0
LINE
8
0
10
-7
20
46.25
11
7
21
46.25
0
LINE
8
0
10
7
20
46.25
11
7
21
60.25
0
LINE
8
0
10
7
20
60.25
11
-7
21
60.25
0
LINE
8
0
10
-7
20
60.25
11
-7
21
46.25
0
LINE
8
0
10
12.1432416
20
-1.624055
11
26.124055
21
-2.3567584
0
LINE
8
0
10
26.124055
20
-2.3567584
11
26.8567584
21
11.624055
0
LINE
8
0
10
26.8567584
20
11.624055
11
12.875945
21
12.3567584
0
LINE
8
0
10
12.875945
20
12.3567584
11
12.1432416
21
-1.624055
0
LINE
8
0
10
13.0722048
20
16.1016192
11
27.0530182
21
15.3689158
0
LINE
8
0
10
27.0530182
20
15.3689158
11
27.7857216
21
29.3497292
0
LINE
8
0
10
27.7857216
20
29.3497292
11
13.8049082
21
30.0824326
0
LINE
8
0
10
13.8049082
20
30.0824326
11
13.0722048
21
16.1016192
0
LINE
8
0
10
14.001168
20
33.8272934
11
27.9819814
21
33.09459
0
LINE
8
0
10
27.9819814
20
33.09459
11
28.7146848
21
47.0754034
0
LINE
8
0
10
28.7146848
20
47.0754034
11
14.7338714
21
47.8081068
0
LINE
8
0
10
14.7338714
20
47.8081068
11
14.001168
21
33.8272934
0
LINE
8
0
10
14.9301312
20
51.5529676
11
28.9109446
21
50.8202642
0
LINE
8
0
10
28.9109446
20
50.8202642
11
29.643648
21
64.8010776
0
LINE
8
0
10
29.643648
20
64.8010776
11
15.6628346
21
65.533781
0
LINE
8
0
10
15.6628346
20
65.533781
11
14.9301312
21
51.5529676
0
LINE
8
0
10
31.1815611
20
3.386423
11
45.1623745
21
2.6537196
0
LINE
8
0
10
45.1623745
20
2.6537196
11
45.8950779
21
16.634533
0
LINE
8
0
10
45.8950779
20
16.634533
11
31.9142645
21
17.3672364
0
LINE
8
0
10
31.9142645
20
17.3672364
11
31.1815611
21
3.386423
0
LINE
8
0
10
32.1105243
20
21.1120972
11
46.0913377
21
20.3793938
0
LINE
8
0
10
46.0913377
20
20.3793938
11
46.8240411
21
34.3602072
0
LINE
8
0
10
46.8240411
20
34.3602072
11
32.8432277
21
35.0929106
0
LINE
8
0
10
32.8432277
20
35.0929106
11
32.1105243
21
21.1120972
0
LINE
8
0
10
33.0394875
20
38.8377714
11
47.0203009
21
38.105068
0
LINE
8
0
10
47.0203009
20
38.105068
11
47.7530043
21
52.0858814
0
LINE
8
0
10
47.7530043
20
52.0858814
11
33.7721909
21
52.8185848
0
LINE
8
0
10
33.7721909
20
52.8185848
11
33.0394875
21
38.8377714
0
LINE
8
0
10
33.9684507
20
56.5634456
11
47.9492641
21
55.8307422
0
LINE
8
0
10
47.9492641
20
55.8307422
11
48.6819675
21
69.8115556
0
LINE
8
0
10
48.6819675
20
69.8115556
11
34.7011541
21
70.544259
0
LINE
8
0
10
34.7011541
20
70.544259
11
33.9684507
21
56.5634456
0
LINE
8
0
10
50.0105368
20
4.4023829
11
63.9913502
21
3.6696795
0
LINE
8
0
10
63.9913502
20
3.6696795
11
64.7240536
21
17.6504929
0
LINE
8
0
10
64.7240536
20
17.6504929
11
50.7432402
21
18.3831963
0
LINE
8
0
10
50.7432402
20
18.3831963
11
50.0105368
21
4.4023829
0
LINE
8
0
10
50.9395
20
22.1280571
11
64.9203134
21
21.3953537
0
LINE
8
0
10
64.9203134
20
21.3953537
11
65.6530168
21
35.3761671
0
LINE
8
0
10
65.6530168
20
35.3761671
11
51.6722034
21
36.1088705
0
LINE
8
0
10
51.6722034
20
36.1088705
11
50.9395
21
22.1280571
0
LINE
8
0
10
51.8684632
20
39.8537313
11
65.8492766
21
39.1210279
0
LINE
8
0
10
65.8492766
20
39.1210279
11
66.58198
21
53.1018413
0
LINE
8
0
10
66.58198
20
53.1018413
11
52.6011666
21
53.8345447
0
LINE
8
0
10
52.6011666
20
53.8345447
11
51.8684632
21
39.8537313
0
LINE
8
0
10
52.7974264
20
57.5794055
11
66.7782398
21
56.8467021
0
LINE
8
0
10
66.7782398
20
56.8467021
11
67.5109432
21
70.8275155
0
LINE
8
0
10
67.5109432
20
70.8275155
11
53.5301298
21
71.5602189
0
LINE
8
0
10
53.5301298
20
71.5602189
11
52.7974264
21
57.5794055
0
LINE
8
0
10
68.6301687
20
1.4238247
11
82.6109821
21
0.6911213
0
LINE
8
0
10
82.6109821
20
0.6911213
11
83.3436855
21
14.6719347
0
LINE
8
0
10
83.3436855
20
14.6719347
11
69.3628721
21
15.4046381
0
LINE
8
0
10
69.3628721
20
15.4046381
11
68.6301687
21
1.4238247
0
LINE
8
0
10
69.5591319
20
19.1494989
11
83.5399453
21
18.4167955
0
LINE
8
0
10
83.5399453
20
18.4167955
11
84.2726487
21
32.3976089
0
LINE
8
0
10
84.2726487
20
32.3976089
11
70.2918353
21
33.1303123
0
LINE
8
0
10
70.2918353
20
33.1303123
11
69.5591319
21
19.1494989
0
LINE
8
0
10
70.4880951
20
36.8751731
11
84.4689085
21
36.1424697
0
LINE
8
0
10
84.4689085
20
36.1424697
11
85.2016119
21
50.1232831
0
LINE
8
0
10
85.2016119
20
50.1232831
11
71.2207985
21
50.8559865
0
LINE
8
0
10
71.2207985
20
50.8559865
11
70.4880951
21
36.8751731
0
LINE
8
0
10
71.4170583
20
54.6008473
11
85.3978717
21
53.8681439
0
LINE
8
0
10
85.3978717
20
53.8681439
11
86.1305751
21
67.8489573
0
LINE
8
0
10
86.1305751
20
67.8489573
11
72.1497617
21
68.5816607
0
LINE
8
0
10
72.1497617
20
68.5816607
11
71.4170583
21
54.6008473
0
LINE
8
0
10
87.3021365
20
-0.556104
11
101.2829499
21
-1.2888074
0
LINE
8
0
10
101.2829499
20
-1.2888074
11
102.0156533
21
12.692006
0
LINE
8
0
10
102.0156533
20
12.692006
11
88.0348399
21
13.4247094
0
LINE
8
0
10
88.0348399
20
13.4247094
11
87.3021365
21
-0.556104
0
LINE
8
0
10
88.2310997
20
17.1695702
11
102.2119131
21
16.4368668
0
LINE
8
0
10
102.2119131
20
16.4368668
11
102.9446165
21
30.4176802
0
LINE
8
0
10
102.9446165
20
30.4176802
11
88.9638031
21
31.1503836
0
LINE
8
0
10
88.9638031
20
31.1503836
11
88.2310997
21
17.1695702
0
LINE
8
0
10
89.1600629
20
34.8952444
11
103.1408763
21
34.162541
0
LINE
8
0
10
103.1408763
20
34.162541
11
103.8735797
21
48.1433544
0
LINE
8
0
10
103.8735797
20
48.1433544
11
89.8927663
21
48.8760578
0
LINE
8
0
10
89.8927663
20
48.8760578
11
89.1600629
21
34.8952444
0
LINE
8
0
10
90.0890261
20
52.6209186
11
104.0698395
21
51.8882152
0
LINE
8
0
10
104.0698395
20
51.8882152
11
104.8025429
21
65.8690286
0
LINE
8
0
10
104.8025429
20
65.8690286
11
90.8217295
21
66.601732
0
LINE
8
0
10
90.8217295
20
66.601732
11
90.0890261
21
52.6209186
0
LINE
8
0
10
40.9224454
20
-16.1501497
11
54.9032588
21
-16.8828531
0
LINE
8
0
10
54.9032588
20
-16.8828531
11
55.6359622
21
-2.9020397
0
LINE
8
0
10
55.6359622
20
-2.9020397
11
41.6551488
21
-2.1693363
0
LINE
8
0
10
41.6551488
20
-2.1693363
11
40.9224454
21
-16.1501497
0
LINE
8
0
10
59.6467492
20
-17.1314489
11
73.6275626
21
-17.8641523
0
LINE
8
0
10
73.6275626
20
-17.8641523
11
74.360266
21
-3.8833389
0
LINE
8
0
10
74.360266
20
-3.8833389
11
60.3794526
21
-3.1506355
0
LINE
8
0
10
60.3794526
20
-3.1506355
11
59.6467492
21
-17.1314489
0
LINE
8
0
10
78.318717
20
-19.1113776
11
92.2995304
21
-19.844081
0
LINE
8
0
10
92.2995304
20
-19.844081
11
93.0322338
21
-5.8632676
0
LINE
8
0
10
93.0322338
20
-5.8632676
11
79.0514204
21
-5.1305642
0
LINE
8
0
10
79.0514204
20
-5.1305642
11
78.318717
21
-19.1113776
0
LINE
8
0
10
102.7945099
20
-16.3083687
11
115.6815779
21
-21.7786045
0
LINE
8
0
10
115.6815779
20
-21.7786045
11
121.1518137
21
-8.8915365
0
LINE
8
0
10
121.1518137
20
-8.8915365
11
108.2647457
21
-3.4213007
0
LINE
8
0
10
108.2647457
20
-3.4213007
11
102.7945099
21
-16.3083687
0
LINE
8
0
10
106.8387092
20
9.1847803
11
120.8195226
21
8.4520769
0
LINE
8
0
10
120.8195226
20
8.4520769
11
121.552226
21
22.4328903
0
LINE
8
0
10
121.552226
20
22.4328903
11
107.5714126
21
23.1655937
0
LINE
8
0
10
107.5714126
20
23.1655937
11
106.8387092
21
9.1847803
0
ENDSEC
0
EOF