0
SECTION
2
HEADER
9
$INSUNITS
70
4
0
ENDSEC
0
SECTION
2
TABLES
0
TABLE
2
LTYPE
0
LTYPE
72
65
70
64
2
CONTINUOUS
3
______
73
0
40
0
0
ENDTAB
0
TABLE
2
LAYER
0
ENDTAB
0
ENDSEC
0
SECTION
2
ENTITIES
0
LINE
8
0
10
-11.525
20
-9.9135778
11
-11.525
21
67.0380634
0
LINE
8
0
10
-10.1010828
20
68.9532993
11
7.4095725
21
74.2203201
0
LINE
8
0
10
7.5416188
20
74.2551692
11
30.3334949
21
79.444903
0
LINE
8
0
10
30.9274059
20
79.4891945
11
72.3463895
21
76.3766161
0
LINE
8
0
10
72.7836519
20
76.2941157
11
91.109264
21
70.6663227
0
LINE
8
0
10
91.4869001
20
70.5892016
11
110.1636683
21
68.6219797
0
LINE
8
0
10
110.2684971
20
68.6137177
11
129.6500854
21
67.5979717
0
LINE
8
0
10
131.5418808
20
65.4818946
11
127.6917243
21
0.7887568
0
LINE
8
0
10
127.7168227
20
0.332738
11
129.5961346
21
-10.654238
0
LINE
8
0
10
129.2007871
20
-12.2227617
11
113.146358
21
-32.7714939
0
LINE
8
0
10
111.3913386
20
-33.5321448
11
95.2344619
21
-32.0802961
0
LINE
8
0
10
95.0721109
20
-32.0589773
11
35.0282291
21
-21.6584222
0
LINE
8
0
10
34.9441161
20
-21.6419888
11
-9.9504618
21
-11.8677994
0
ARC
8
0
10
-9.525
20
67.0380634
40
2
50
106.7407331
51
180
0
ARC
8
0
10
7.9856552
20
72.3050842
40
2
50
102.8275996
51
106.7407331
0
ARC
8
0
10
30.7775313
20
77.494818
40
2
50
85.7023801
51
102.8275996
0
ARC
8
0
10
72.1965149
20
74.3822396
40
2
50
72.9282828
51
85.7023801
0
ARC
8
0
10
91.6964009
20
72.5781987
40
2
50
252.9282828
51
263.9872135
0
ARC
8
0
10
110.3731691
20
70.6109768
40
2
50
263.9872135
51
266.9999974
0
ARC
8
0
10
129.5454134
20
65.6007126
40
2
50
356.5941095
51
86.9999974
0
ARC
8
0
10
129.6881917
20
0.6699388
40
2
50
176.5941095
51
189.7064532
0
ARC
8
0
10
127.6247656
20
-10.9914388
40
2
50
322.0000005
51
9.7064532
0
ARC
8
0
10
111.5703364
20
-31.540171
40
2
50
264.8652201
51
322.0000005
0
ARC
8
0
10
95.4134597
20
-30.0883223
40
2
50
260.1729678
51
264.8652201
0
ARC
8
0
10
35.3695779
20
-19.6877672
40
2
50
257.7175615
51
260.1729678
0
ARC
8
0
10
-9.525
20
-9.9135778
40
2
50
180
51
257.7175615
0
LINE
8
0
10
-6.5
20
-7
11
6.5
21
-7
0
LINE
8
0
10
7
20
-6.5
11
7
21
6.5
0
LINE
8
0
10
6.5
20
7
11
-6.5
21
7
0
LINE
8
0
10
-7
20
6.5
11
-7
21
-6.5
0
LINE
8
0
10
-6.5
20
12
11
6.5
21
12
0
LINE
8
0
10
7
20
12.5
11
7
21
25.5
0
LINE
8
0
10
6.5
20
26
11
-6.5
21
26
0
LINE
8
0
10
-7
20
25.5
11
-7
21
12.5
0
LINE
8
0
10
-6.5
20
31
11
6.5
21
31
0
LINE
8
0
10
7
20
31.5
11
7
21
44.5
0
LINE
8
0
10
6.5
20
45
11
-6.5
21
45
0
LINE
8
0
10
-7
20
44.5
11
-7
21
31.5
0
LINE
8
0
10
-6.5
20
50
11
6.5
21
50
0
LINE
8
0
10
7
20
50.5
11
7
21
63.5
0
LINE
8
0
10
6.5
20
64
11
-6.5
21
64
0
LINE
8
0
10
-7
20
63.5
11
-7
21
50.5
0
LINE
8
0
10
12.5
20
-1.285
11
25.5
21
-1.285
0
LINE
8
0
10
26
20
-0.785
11
26
21
12.215
0
LINE
8
0
10
25.5
20
12.715
11
12.5
21
12.715
0
LINE
8
0
10
12
20
12.215
11
12
21
-0.785
0
LINE
8
0
10
12.5
20
17.715
11
25.5
21
17.715
0
LINE
8
0
10
26
20
18.215
11
26
21
31.215
0
LINE
8
0
10
25.5
20
31.715
11
12.5
21
31.715
0
LINE
8
0
10
12
20
31.215
11
12
21
18.215
0
LINE
8
0
10
12.5
20
36.715
11
25.5
21
36.715
0
LINE
8
0
10
26
20
37.215
11
26
21
50.215
0
LINE
8
0
10
25.5
20
50.715
11
12.5
21
50.715
0
LINE
8
0
10
12
20
50.215
11
12
21
37.215
0
LINE
8
0
10
12.5
20
55.715
11
25.5
21
55.715
0
LINE
8
0
10
26
20
56.215
11
26
21
69.215
0
LINE
8
0
10
25.5
20
69.715
11
12.5
21
69.715
0
LINE
8
0
10
12
20
69.215
11
12
21
56.215
0
LINE
8
0
10
31.6925564
20
3.827277
11
44.6747402
21
3.1469096
0
LINE
8
0
10
45.200223
20
3.6200564
11
45.8805904
21
16.6022402
0
LINE
8
0
10
45.4074436
20
17.127723
11
32.4252598
21
17.8080904
0
LINE
8
0
10
31.899777
20
17.3349436
11
31.2194096
21
4.3527598
0
LINE
8
0
10
32.6869396
20
22.8012382
11
45.6691234
21
22.1208708
0
LINE
8
0
10
46.1946062
20
22.5940176
11
46.8749736
21
35.5762014
0
LINE
8
0
10
46.4018268
20
36.1016842
11
33.419643
21
36.7820516
0
LINE
8
0
10
32.8941602
20
36.3089048
11
32.2137928
21
23.326721
0
LINE
8
0
10
33.6813228
20
41.7751994
11
46.6635066
21
41.094832
0
LINE
8
0
10
47.1889894
20
41.5679788
11
47.8693568
21
54.5501626
0
LINE
8
0
10
47.39621
20
55.0756454
11
34.4140262
21
55.7560128
0
LINE
8
0
10
33.8885434
20
55.282866
11
33.208176
21
42.3006822
0
LINE
8
0
10
34.675706
20
60.7491606
11
47.6578898
21
60.0687932
0
LINE
8
0
10
48.1833726
20
60.54194
11
48.86374
21
73.5241238
0
LINE
8
0
10
48.3905932
20
74.0496066
11
35.4084094
21
74.729974
0
LINE
8
0
10
34.8829266
20
74.2568272
11
34.2025592
21
61.2746434
0
LINE
8
0
10
50.6166676
20
1.8816992
11
63.5988514
21
1.2013318
0
LINE
8
0
10
64.1243342
20
1.6744786
11
64.8047016
21
14.6566624
0
LINE
8
0
10
64.3315548
20
15.1821452
11
51.349371
21
15.8625126
0
LINE
8
0
10
50.8238882
20
15.3893658
11
50.1435208
21
2.407182
0
LINE
8
0
10
51.6110508
20
20.8556604
11
64.5932346
21
20.175293
0
LINE
8
0
10
65.1187174
20
20.6484398
11
65.7990848
21
33.6306236
0
LINE
8
0
10
65.325938
20
34.1561064
11
52.3437542
21
34.8364738
0
LINE
8
0
10
51.8182714
20
34.363327
11
51.137904
21
21.3811432
0
LINE
8
0
10
52.605434
20
39.8296216
11
65.5876178
21
39.1492542
0
LINE
8
0
10
66.1131006
20
39.622401
11
66.793468
21
52.6045848
0
LINE
8
0
10
66.3203212
20
53.1300676
11
53.3381374
21
53.810435
0
LINE
8
0
10
52.8126546
20
53.3372882
11
52.1322872
21
40.3551044
0
LINE
8
0
10
53.5998172
20
58.8035828
11
66.582001
21
58.1232154
0
LINE
8
0
10
67.1074838
20
58.5963622
11
67.7878512
21
71.578546
0
LINE
8
0
10
67.3147044
20
72.1040288
11
54.3325206
21
72.7843962
0
LINE
8
0
10
53.8070378
20
72.3112494
11
53.1266704
21
59.3290656
0
LINE
8
0
10
69.3413787
20
-3.8686571
11
82.3235625
21
-4.5490245
0
LINE
8
0
10
82.8490453
20
-4.0758777
11
83.5294127
21
8.9063061
0
LINE
8
0
10
83.0562659
20
9.4317889
11
70.0740821
21
10.1121563
0
LINE
8
0
10
69.5485993
20
9.6390095
11
68.8682319
21
-3.3431743
0
LINE
8
0
10
70.3357619
20
15.1053041
11
83.3179457
21
14.4249367
0
LINE
8
0
10
83.8434285
20
14.8980835
11
84.5237959
21
27.8802673
0
LINE
8
0
10
84.0506491
20
28.4057501
11
71.0684653
21
29.0861175
0
LINE
8
0
10
70.5429825
20
28.6129707
11
69.8626151
21
15.6307869
0
LINE
8
0
10
71.3301451
20
34.0792653
11
84.3123289
21
33.3988979
0
LINE
8
0
10
84.8378117
20
33.8720447
11
85.5181791
21
46.8542285
0
LINE
8
0
10
85.0450323
20
47.3797113
11
72.0628485
21
48.0600787
0
LINE
8
0
10
71.5373657
20
47.5869319
11
70.8569983
21
34.6047481
0
LINE
8
0
10
72.3245283
20
53.0532265
11
85.3067121
21
52.3728591
0
LINE
8
0
10
85.8321949
20
52.8460059
11
86.5125623
21
65.8281897
0
LINE
8
0
10
86.0394155
20
66.3536725
11
73.0572317
21
67.0340399
0
LINE
8
0
10
72.5317489
20
66.5608931
11
71.8513815
21
53.5787093
0
LINE
8
0
10
88.2630039
20
-5.8616698
11
101.2451877
21
-6.5420372
0
LINE
8
0
10
101.7706705
20
-6.0688904
11
102.4510379
21
6.9132934
0
LINE
8
0
10
101.9778911
20
7.4387762
11
88.9957073
21
8.1191436
0
LINE
8
0
10
88.4702245
20
7.6459968
11
87.7898571
21
-5.336187
0
LINE
8
0
10
89.2573871
20
13.1122914
11
102.2395709
21
12.431924
0
LINE
8
0
10
102.7650537
20
12.9050708
11
103.4454211
21
25.8872546
0
LINE
8
0
10
102.9722743
20
26.4127374
11
89.9900905
21
27.0931048
0
LINE
8
0
10
89.4646077
20
26.619958
11
88.7842403
21
13.6377742
0
LINE
8
0
10
90.2517703
20
32.0862526
11
103.2339541
21
31.4058852
0
LINE
8
0
10
103.7594369
20
31.879032
11
104.4398043
21
44.8612158
0
LINE
8
0
10
103.9666575
20
45.3866986
11
90.9844737
21
46.067066
0
LINE
8
0
10
90.4589909
20
45.5939192
11
89.7786235
21
32.6117354
0
LINE
8
0
10
91.2461535
20
51.0602138
11
104.2283373
21
50.3798464
0
LINE
8
0
10
104.7538201
20
50.8529932
11
105.4341875
21
63.835177
0
LINE
8
0
10
104.9610407
20
64.3606598
11
91.9788569
21
65.0410272
0
LINE
8
0
10
91.4533741
20
64.5678804
11
90.7730067
21
51.5856966
0
LINE
8
0
10
40.7820852
20
-18.1680593
11
53.5432386
21
-20.6485763
0
LINE
8
0
10
54.1294567
20
-20.2531672
11
56.6099737
21
-7.4920138
0
LINE
8
0
10
56.2145646
20
-6.9057957
11
43.4534112
21
-4.4252787
0
LINE
8
0
10
42.8671931
20
-4.8206878
11
40.3866761
21
-17.5818412
0
LINE
8
0
10
59.4330017
20
-21.7934302
11
72.1941551
21
-24.2739472
0
LINE
8
0
10
72.7803732
20
-23.8785381
11
75.2608902
21
-11.1173847
0
LINE
8
0
10
74.8654811
20
-10.5311666
11
62.1043277
21
-8.0506496
0
LINE
8
0
10
61.5181096
20
-8.4460587
11
59.0375926
21
-21.2072121
0
LINE
8
0
10
78.3224294
20
-24.1917672
11
91.0835828
21
-26.6722842
0
LINE
8
0
10
91.6698009
20
-26.2768751
11
94.1503179
21
-13.5157217
0
LINE
8
0
10
93.7549088
20
-12.9295036
11
80.9937554
21
-10.4489866
0
LINE
8
0
10
80.4075373
20
-10.8443957
11
77.9270203
21
-23.6055491
0
LINE
8
0
10
102.8728596
20
-17.2120132
11
113.1169993
21
-25.2156125
0
LINE
8
0
10
113.8188354
20
-25.1294378
11
121.8224347
21
-14.8852981
0
LINE
8
0
10
121.73626
20
-14.183462
11
111.4921203
21
-6.1798627
0
LINE
8
0
10
110.7902842
20
-6.2660374
11
102.7866849
21
-16.5101771
0
LINE
8
0
10
107.9173325
20
6.126131
11
120.8995163
21
5.4457636
0
LINE
8
0
10
121.4249991
20
5.9189104
11
122.1053665
21
18.9010942
0
LINE
8
0
10
121.6322197
20
19.426577
11
108.6500359
21
20.1069444
0
LINE
8
0
10
108.1245531
20
19.6337976
11
107.4441857
21
6.6516138
0
ARC
8
0
10
91.1789873
20
-26.1814706
40
0.5
50
258.9999999
51
348.9999999
0
ARC
8
0
10
93.6595043
20
-13.4203172
40
0.5
50
348.9999999
51
78.9999999
0
ARC
8
0
10
80.8983509
20
-10.9398002
40
0.5
50
78.9999999
51
168.9999999
0
ARC
8
0
10
78.4178339
20
-23.7009536
40
0.5
50
168.9999999
51
258.9999999
0
ARC
8
0
10
53.6386431
20
-20.1577627
40
0.5
50
258.9999999
51
348.9999999
0
ARC
8
0
10
56.1191601
20
-7.3966093
40
0.5
50
348.9999999
51
78.9999999
0
ARC
8
0
10
43.3580067
20
-4.9160923
40
0.5
50
78.9999999
51
168.9999999
0
ARC
8
0
10
40.8774897
20
-17.6772457
40
0.5
50
168.9999999
51
258.9999999
0
ARC
8
0
10
72.2895596
20
-23.7831336
40
0.5
50
258.9999999
51
348.9999999
0
ARC
8
0
10
74.7700766
20
-11.0219802
40
0.5
50
348.9999999
51
78.9999999
0
ARC
8
0
10
62.0089232
20
-8.5414632
40
0.5
50
78.9999999
51
168.9999999
0
ARC
8
0
10
59.5284062
20
-21.3026166
40
0.5
50
168.9999999
51
258.9999999
0
ARC
8
0
10
6.5
20
-6.5
40
0.5
50
270
51
0
0
ARC
8
0
10
6.5
20
6.5
40
0.5
50
0
51
90
0
ARC
8
0
10
-6.5
20
6.5
40
0.5
50
90
51
180
0
ARC
8
0
10
-6.5
20
-6.5
40
0.5
50
180
51
270
0
ARC
8
0
10
6.5
20
12.5
40
0.5
50
270
51
0
0
ARC
8
0
10
6.5
20
25.5
40
0.5
50
0
51
90
0
ARC
8
0
10
-6.5
20
25.5
40
0.5
50
90
51
180
0
ARC
8
0
10
-6.5
20
12.5
40
0.5
50
180
51
270
0
ARC
8
0
10
6.5
20
31.5
40
0.5
50
270
51
0
0
ARC
8
0
10
6.5
20
44.5
40
0.5
50
0
51
90
0
ARC
8
0
10
-6.5
20
44.5
40
0.5
50
90
51
180
0
ARC
8
0
10
-6.5
20
31.5
40
0.5
50
180
51
270
0
ARC
8
0
10
6.5
20
50.5
40
0.5
50
270
51
0
0
ARC
8
0
10
6.5
20
63.5
40
0.5
50
0
51
90
0
ARC
8
0
10
-6.5
20
63.5
40
0.5
50
90
51
180
0
ARC
8
0
10
-6.5
20
50.5
40
0.5
50
180
51
270
0
ARC
8
0
10
25.5
20
-0.785
40
0.5
50
270
51
0
0
ARC
8
0
10
25.5
20
12.215
40
0.5
50
0
51
90
0
ARC
8
0
10
12.5
20
12.215
40
0.5
50
90
51
180
0
ARC
8
0
10
12.5
20
-0.785
40
0.5
50
180
51
270
0
ARC
8
0
10
25.5
20
18.215
40
0.5
50
270
51
0
0
ARC
8
0
10
25.5
20
31.215
40
0.5
50
0
51
90
0
ARC
8
0
10
12.5
20
31.215
40
0.5
50
90
51
180
0
ARC
8
0
10
12.5
20
18.215
40
0.5
50
180
51
270
0
ARC
8
0
10
25.5
20
37.215
40
0.5
50
270
51
0
0
ARC
8
0
10
25.5
20
50.215
40
0.5
50
0
51
90
0
ARC
8
0
10
12.5
20
50.215
40
0.5
50
90
51
180
0
ARC
8
0
10
12.5
20
37.215
40
0.5
50
180
51
270
0
ARC
8
0
10
25.5
20
56.215
40
0.5
50
270
51
0
0
ARC
8
0
10
25.5
20
69.215
40
0.5
50
0
51
90
0
ARC
8
0
10
12.5
20
69.215
40
0.5
50
90
51
180
0
ARC
8
0
10
12.5
20
56.215
40
0.5
50
180
51
270
0
ARC
8
0
10
113.4248301
20
-24.8216071
40
0.5
50
232.0000005
51
322.0000005
0
ARC
8
0
10
121.4284293
20
-14.5774673
40
0.5
50
322.0000005
51
52.0000005
0
ARC
8
0
10
111.1842895
20
-6.5738681
40
0.5
50
52.0000005
51
142.0000005
0
ARC
8
0
10
103.1806903
20
-16.8180079
40
0.5
50
142.0000005
51
232.0000005
0
ARC
8
0
10
45.6952914
20
22.6201856
40
0.5
50
266.9999974
51
356.9999974
0
ARC
8
0
10
46.3756588
20
35.6023694
40
0.5
50
356.9999974
51
86.9999974
0
ARC
8
0
10
33.393475
20
36.2827368
40
0.5
50
86.9999974
51
176.9999974
0
ARC
8
0
10
32.7131076
20
23.300553
40
0.5
50
176.9999974
51
266.9999974
0
ARC
8
0
10
46.6896746
20
41.5941468
40
0.5
50
266.9999974
51
356.9999974
0
ARC
8
0
10
47.370042
20
54.5763306
40
0.5
50
356.9999974
51
86.9999974
0
ARC
8
0
10
34.3878582
20
55.256698
40
0.5
50
86.9999974
51
176.9999974
0
ARC
8
0
10
33.7074908
20
42.2745142
40
0.5
50
176.9999974
51
266.9999974
0
ARC
8
0
10
47.6840578
20
60.568108
40
0.5
50
266.9999974
51
356.9999974
0
ARC
8
0
10
48.3644252
20
73.5502918
40
0.5
50
356.9999974
51
86.9999974
0
ARC
8
0
10
35.3822414
20
74.2306592
40
0.5
50
86.9999974
51
176.9999974
0
ARC
8
0
10
34.701874
20
61.2484754
40
0.5
50
176.9999974
51
266.9999974
0
ARC
8
0
10
64.6194026
20
20.6746078
40
0.5
50
266.9999974
51
356.9999974
0
ARC
8
0
10
65.29977
20
33.6567916
40
0.5
50
356.9999974
51
86.9999974
0
ARC
8
0
10
52.3175862
20
34.337159
40
0.5
50
86.9999974
51
176.9999974
0
ARC
8
0
10
51.6372188
20
21.3549752
40
0.5
50
176.9999974
51
266.9999974
0
ARC
8
0
10
65.6137858
20
39.648569
40
0.5
50
266.9999974
51
356.9999974
0
ARC
8
0
10
66.2941532
20
52.6307528
40
0.5
50
356.9999974
51
86.9999974
0
ARC
8
0
10
53.3119694
20
53.3111202
40
0.5
50
86.9999974
51
176.9999974
0
ARC
8
0
10
52.631602
20
40.3289364
40
0.5
50
176.9999974
51
266.9999974
0
ARC
8
0
10
66.608169
20
58.6225302
40
0.5
50
266.9999974
51
356.9999974
0
ARC
8
0
10
67.2885364
20
71.604714
40
0.5
50
356.9999974
51
86.9999974
0
ARC
8
0
10
54.3063526
20
72.2850814
40
0.5
50
86.9999974
51
176.9999974
0
ARC
8
0
10
53.6259852
20
59.3028976
40
0.5
50
176.9999974
51
266.9999974
0
ARC
8
0
10
84.3384969
20
33.8982127
40
0.5
50
266.9999974
51
356.9999974
0
ARC
8
0
10
85.0188643
20
46.8803965
40
0.5
50
356.9999974
51
86.9999974
0
ARC
8
0
10
72.0366805
20
47.5607639
40
0.5
50
86.9999974
51
176.9999974
0
ARC
8
0
10
71.3563131
20
34.5785801
40
0.5
50
176.9999974
51
266.9999974
0
ARC
8
0
10
85.3328801
20
52.8721739
40
0.5
50
266.9999974
51
356.9999974
0
ARC
8
0
10
86.0132475
20
65.8543577
40
0.5
50
356.9999974
51
86.9999974
0
ARC
8
0
10
73.0310637
20
66.5347251
40
0.5
50
86.9999974
51
176.9999974
0
ARC
8
0
10
72.3506963
20
53.5525413
40
0.5
50
176.9999974
51
266.9999974
0
ARC
8
0
10
103.2601221
20
31.9052
40
0.5
50
266.9999974
51
356.9999974
0
ARC
8
0
10
103.9404895
20
44.8873838
40
0.5
50
356.9999974
51
86.9999974
0
ARC
8
0
10
90.9583057
20
45.5677512
40
0.5
50
86.9999974
51
176.9999974
0
ARC
8
0
10
90.2779383
20
32.5855674
40
0.5
50
176.9999974
51
266.9999974
0
ARC
8
0
10
104.2545053
20
50.8791612
40
0.5
50
266.9999974
51
356.9999974
0
ARC
8
0
10
104.9348727
20
63.861345
40
0.5
50
356.9999974
51
86.9999974
0
ARC
8
0
10
91.9526889
20
64.5417124
40
0.5
50
86.9999974
51
176.9999974
0
ARC
8
0
10
91.2723215
20
51.5595286
40
0.5
50
176.9999974
51
266.9999974
0
ARC
8
0
10
44.7009082
20
3.6462244
40
0.5
50
266.9999974
51
356.9999974
0
ARC
8
0
10
45.3812756
20
16.6284082
40
0.5
50
356.9999974
51
86.9999974
0
ARC
8
0
10
32.3990918
20
17.3087756
40
0.5
50
86.9999974
51
176.9999974
0
ARC
8
0
10
31.7187244
20
4.3265918
40
0.5
50
176.9999974
51
266.9999974
0
ARC
8
0
10
63.6250194
20
1.7006466
40
0.5
50
266.9999974
51
356.9999974
0
ARC
8
0
10
64.3053868
20
14.6828304
40
0.5
50
356.9999974
51
86.9999974
0
ARC
8
0
10
51.323203
20
15.3631978
40
0.5
50
86.9999974
51
176.9999974
0
ARC
8
0
10
50.6428356
20
2.381014
40
0.5
50
176.9999974
51
266.9999974
0
ARC
8
0
10
82.3497305
20
-4.0497097
40
0.5
50
266.9999974
51
356.9999974
0
ARC
8
0
10
83.0300979
20
8.9324741
40
0.5
50
356.9999974
51
86.9999974
0
ARC
8
0
10
70.0479141
20
9.6128415
40
0.5
50
86.9999974
51
176.9999974
0
ARC
8
0
10
69.3675467
20
-3.3693423
40
0.5
50
176.9999974
51
266.9999974
0
ARC
8
0
10
83.3441137
20
14.9242515
40
0.5
50
266.9999974
51
356.9999974
0
ARC
8
0
10
84.0244811
20
27.9064353
40
0.5
50
356.9999974
51
86.9999974
0
ARC
8
0
10
71.0422973
20
28.5868027
40
0.5
50
86.9999974
51
176.9999974
0
ARC
8
0
10
70.3619299
20
15.6046189
40
0.5
50
176.9999974
51
266.9999974
0
ARC
8
0
10
101.2713557
20
-6.0427224
40
0.5
50
266.9999974
51
356.9999974
0
ARC
8
0
10
101.9517231
20
6.9394614
40
0.5
50
356.9999974
51
86.9999974
0
ARC
8
0
10
88.9695393
20
7.6198288
40
0.5
50
86.9999974
51
176.9999974
0
ARC
8
0
10
88.2891719
20
-5.362355
40
0.5
50
176.9999974
51
266.9999974
0
ARC
8
0
10
102.2657389
20
12.9312388
40
0.5
50
266.9999974
51
356.9999974
0
ARC
8
0
10
102.9461063
20
25.9134226
40
0.5
50
356.9999974
51
86.9999974
0
ARC
8
0
10
89.9639225
20
26.59379
40
0.5
50
86.9999974
51
176.9999974
0
ARC
8
0
10
89.2835551
20
13.6116062
40
0.5
50
176.9999974
51
266.9999974
0
ARC
8
0
10
120.9256843
20
5.9450784
40
0.5
50
266.9999974
51
356.9999974
0
ARC
8
0
10
121.6060517
20
18.9272622
40
0.5
50
356.9999974
51
86.9999974
0
ARC
8
0
10
108.6238679
20
19.6076296
40
0.5
50
86.9999974
51
176.9999974
0
ARC
8
0
10
107.9435005
20
6.6254458
40
0.5
50
176.9999974
51
266.9999974
0
CIRCLE
8
0
10
102.7199021
20
-26.1711188
40
1.2
0
CIRCLE
8
0
10
2
20
-9.525
40
1.2
0
CIRCLE
8
0
10
7
20
68.525
40
1.2
0
CIRCLE
8
0
10
98.5746207
20
66.6981026
40
1.2
0
CIRCLE
8
0
10
77.6786215
20
31.017816
40
1.2
0
CIRCLE
8
0
10
30.4236482
20
37.414717
40
1.2
0
ENDSEC
0
EOF