0
SECTION
2
HEADER
9
$INSUNITS
70
4
0
ENDSEC
0
SECTION
2
TABLES
0
TABLE
2
LTYPE
0
LTYPE
72
65
70
64
2
CONTINUOUS
3
______
73
0
40
0
0
ENDTAB
0
TABLE
2
LAYER
0
ENDTAB
0
ENDSEC
0
SECTION
2
ENTITIES
0
LINE
8
0
10
-9.025
20
-9.525
11
9.025
21
-9.525
0
LINE
8
0
10
9.525
20
-9.025
11
9.525
21
-4.31
0
LINE
8
0
10
-9.525
20
-9.025
11
-9.525
21
66.025
0
LINE
8
0
10
8.975
20
66.525
11
-9.025
21
66.525
0
LINE
8
0
10
10.025
20
-3.81
11
28.025
21
-3.81
0
LINE
8
0
10
28.525
20
-3.31
11
28.525
21
71.74
0
LINE
8
0
10
28.025
20
72.24
11
9.975
21
72.24
0
LINE
8
0
10
9.475
20
71.74
11
9.475
21
67.025
0
LINE
8
0
10
29.0388685
20
1.4378857
11
47.0142001
21
0.4958385
0
LINE
8
0
10
29.5365537
20
20.4879463
11
29.5339369
21
20.4380149
0
LINE
8
0
10
29.5339369
20
20.4380149
11
28.5657217
21
1.9633685
0
LINE
8
0
10
30.5309369
20
39.4619075
11
30.5283201
21
39.4119761
0
LINE
8
0
10
30.5283201
20
39.4119761
11
29.5365537
21
20.4879463
0
LINE
8
0
10
31.5253201
20
58.4358687
11
31.5227033
21
58.3859373
0
LINE
8
0
10
31.5227033
20
58.3859373
11
30.5309369
21
39.4619075
0
LINE
8
0
10
51.5199139
20
75.9609501
11
51.5435959
21
76.4128299
0
LINE
8
0
10
51.5435959
20
76.4128299
11
33.0190181
21
77.3836619
0
LINE
8
0
10
32.4935353
20
76.9105151
11
31.5253201
21
58.4358687
0
LINE
8
0
10
47.4636649
20
-0.4815241
11
65.9383112
21
-1.4497393
0
LINE
8
0
10
47.4873469
20
-0.0296443
11
47.4636649
21
-0.4815241
0
LINE
8
0
10
70.2446251
20
70.2105938
11
70.4415391
21
73.9679373
0
LINE
8
0
10
69.9683923
20
74.4934201
11
51.9930607
21
75.4354673
0
LINE
8
0
10
66.6876908
20
-6.2580484
11
84.6630224
21
-7.2000956
0
LINE
8
0
10
66.411458
20
-1.9752221
11
66.214544
21
-5.7325656
0
LINE
8
0
10
89.1662502
20
68.2175811
11
89.1924182
21
68.7168958
0
LINE
8
0
10
89.1924182
20
68.7168958
11
70.7177719
21
69.685111
0
LINE
8
0
10
85.1100012
20
-8.2248931
11
103.634579
21
-9.1957251
0
LINE
8
0
10
104.1600618
20
-8.7225783
11
104.7880933
21
3.2609761
0
LINE
8
0
10
85.1361692
20
-7.7255784
11
85.1100012
21
-8.2248931
0
LINE
8
0
10
105.8374292
20
23.2834983
11
106.1226602
21
28.7260293
0
LINE
8
0
10
106.1226602
20
28.7260293
11
106.125277
21
28.7759607
0
LINE
8
0
10
106.125277
20
28.7759607
11
107.1170434
21
47.6999905
0
LINE
8
0
10
107.1170434
20
47.6999905
11
107.1196602
21
47.7499219
0
LINE
8
0
10
107.1196602
20
47.7499219
11
108.0878754
21
66.2245683
0
LINE
8
0
10
107.6147286
20
66.7500511
11
89.639397
21
67.6920983
0
LINE
8
0
10
37.8216839
20
-20.1648752
11
55.9817868
21
-23.6948416
0
LINE
8
0
10
55.9817868
20
-23.6948416
11
56.0308681
21
-23.7043821
0
LINE
8
0
10
59.6657795
20
-5.0043843
11
59.6166982
21
-4.9948438
0
LINE
8
0
10
59.6166982
20
-4.9948438
11
41.4565953
21
-1.4648774
0
LINE
8
0
10
40.8703772
20
-1.8602865
11
37.4262748
21
-19.5786571
0
LINE
8
0
10
56.0308681
20
-23.7043821
11
74.190971
21
-27.2343485
0
LINE
8
0
10
74.7771891
20
-26.8389394
11
74.8248913
21
-26.5935326
0
LINE
8
0
10
77.7768011
20
-8.5248103
11
59.6657795
21
-5.0043843
0
LINE
8
0
10
75.4111094
20
-26.1981235
11
93.0803987
21
-29.6326855
0
LINE
8
0
10
93.6666168
20
-29.2372764
11
97.1107192
21
-11.5189058
0
LINE
8
0
10
96.7153101
20
-10.9326877
11
78.9969395
21
-7.4885853
0
LINE
8
0
10
78.4107214
20
-7.8839944
11
78.3630192
21
-8.1294012
0
LINE
8
0
10
99.3285872
20
-17.6471952
11
113.5521813
21
-28.7598849
0
LINE
8
0
10
114.2540174
20
-28.6737102
11
125.3667071
21
-14.4501161
0
LINE
8
0
10
125.2805324
20
-13.74828
11
111.0569383
21
-2.6355903
0
LINE
8
0
10
110.3551022
20
-2.721765
11
99.2424125
21
-16.9453591
0
LINE
8
0
10
105.3135761
20
3.7341229
11
123.2889076
21
2.7920757
0
LINE
8
0
10
123.8143904
20
3.2652225
11
124.7590544
21
21.2904855
0
LINE
8
0
10
124.2859076
20
21.8159683
11
106.310576
21
22.7580155
0
LINE
8
0
10
277.1821942
20
-9.525
11
295.2321942
21
-9.525
0
LINE
8
0
10
295.7321942
20
-9.025
11
295.7321942
21
66.025
0
LINE
8
0
10
276.6821942
20
-4.31
11
276.6821942
21
-9.025
0
LINE
8
0
10
295.2321942
20
66.525
11
277.2321942
21
66.525
0
LINE
8
0
10
258.1821942
20
-3.81
11
276.1821942
21
-3.81
0
LINE
8
0
10
257.6821942
20
-3.31
11
257.6821942
21
71.74
0
LINE
8
0
10
276.7321942
20
67.025
11
276.7321942
21
71.74
0
LINE
8
0
10
276.2321942
20
72.24
11
258.1821942
21
72.24
0
LINE
8
0
10
238.6936793
20
0.4696705
11
257.1683257
21
1.4378857
0
LINE
8
0
10
257.6414725
20
1.9633685
11
256.6732573
21
20.4380149
0
LINE
8
0
10
256.6732573
20
20.4380149
11
256.6706405
21
20.4879463
0
LINE
8
0
10
256.6706405
20
20.4879463
11
255.6788741
21
39.4119761
0
LINE
8
0
10
255.6788741
20
39.4119761
11
255.6762573
21
39.4619075
0
LINE
8
0
10
255.6762573
20
39.4619075
11
254.6844909
21
58.3859373
0
LINE
8
0
10
254.6844909
20
58.3859373
11
254.6818741
21
58.4358687
0
LINE
8
0
10
254.6818741
20
58.4358687
11
253.7136589
21
76.9105151
0
LINE
8
0
10
253.1881761
20
77.3836619
11
235.1629131
21
76.4389979
0
LINE
8
0
10
234.6897663
20
75.9135151
11
234.7134483
21
75.4616353
0
LINE
8
0
10
220.268883
20
-1.4497393
11
238.2442145
21
-0.5076921
0
LINE
8
0
10
238.7173613
20
0.0177907
11
238.6936793
21
0.4696705
0
LINE
8
0
10
234.7134483
20
75.4616353
11
216.2388019
21
74.4934201
0
LINE
8
0
10
215.7656551
20
73.9679373
11
215.9625691
21
70.2105938
0
LINE
8
0
10
201.044857
20
-7.2262636
11
219.5195034
21
-6.2580484
0
LINE
8
0
10
219.9926502
20
-5.7325656
11
219.7957362
21
-1.9752221
0
LINE
8
0
10
215.4894223
20
69.685111
11
197.5140908
21
68.7430638
0
LINE
8
0
10
197.040944
20
68.217581
11
197.067112
21
67.7182663
0
LINE
8
0
10
182.5726152
20
-9.1957251
11
200.5978782
21
-8.2510611
0
LINE
8
0
10
201.071025
20
-7.7255783
11
201.044857
21
-7.2262636
0
LINE
8
0
10
181.4191009
20
3.2609761
11
182.0471324
21
-8.7225783
0
LINE
8
0
10
180.0819172
20
28.7759607
11
180.084534
21
28.7260293
0
LINE
8
0
10
180.084534
20
28.7260293
11
180.369765
21
23.2834983
0
LINE
8
0
10
179.087534
20
47.7499219
11
179.0901508
21
47.6999905
0
LINE
8
0
10
179.0901508
20
47.6999905
11
180.0819172
21
28.7759607
0
LINE
8
0
10
197.067112
20
67.7182663
11
178.5924656
21
66.7500511
0
LINE
8
0
10
178.1193188
20
66.2245683
11
179.087534
21
47.7499219
0
LINE
8
0
10
212.0162232
20
-27.2343485
11
248.3855103
21
-20.1648752
0
LINE
8
0
10
248.7809194
20
-19.5786571
11
245.336817
21
-1.8602865
0
LINE
8
0
10
244.7505989
20
-1.4648774
11
226.590496
21
-4.9948438
0
LINE
8
0
10
226.590496
20
-4.9948438
11
226.5414147
21
-5.0043843
0
LINE
8
0
10
226.5414147
20
-5.0043843
11
208.4303931
21
-8.5248103
0
LINE
8
0
10
211.3823029
20
-26.5935326
11
211.4300051
21
-26.8389394
0
LINE
8
0
10
193.1267955
20
-29.6326855
11
210.7960848
21
-26.1981235
0
LINE
8
0
10
207.844175
20
-8.1294012
11
207.7964728
21
-7.8839944
0
LINE
8
0
10
207.2102547
20
-7.4885853
11
189.4918841
21
-10.9326877
0
LINE
8
0
10
189.096475
20
-11.5189058
11
192.5405774
21
-29.2372764
0
LINE
8
0
10
172.6550129
20
-28.7598849
11
186.878607
21
-17.6471952
0
LINE
8
0
10
186.9647817
20
-16.9453591
11
175.852092
21
-2.721765
0
LINE
8
0
10
175.1502559
20
-2.6355903
11
160.9266618
21
-13.74828
0
LINE
8
0
10
160.8404871
20
-14.4501161
11
171.9531768
21
-28.6737102
0
LINE
8
0
10
162.9182866
20
2.7920757
11
180.8936181
21
3.7341229
0
LINE
8
0
10
179.8966182
20
22.7580155
11
161.9212866
21
21.8159683
0
LINE
8
0
10
161.4481398
20
21.2904855
11
162.3928038
21
3.2652225
0
ARC
8
0
10
257.1421577
20
1.9372005
40
0.5
50
273.0000026
51
3.0000026
0
ARC
8
0
10
253.2143441
20
76.8843471
40
0.5
50
3.0000026
51
93.0000026
0
ARC
8
0
10
235.1890811
20
75.9396831
40
0.5
50
93.0000026
51
183.0000026
0
ARC
8
0
10
216.2649699
20
73.9941053
40
0.5
50
93.0000026
51
183.0000026
0
ARC
8
0
10
215.4632543
20
70.1844258
40
0.5
50
273.0000026
51
3.0000026
0
ARC
8
0
10
197.5402588
20
68.243749
40
0.5
50
93.0000026
51
183.0000026
0
ARC
8
0
10
178.6186336
20
66.2507363
40
0.5
50
93.0000026
51
183.0000026
0
ARC
8
0
10
179.8704502
20
23.2573303
40
0.5
50
273.0000026
51
3.0000026
0
ARC
8
0
10
161.9474546
20
21.3166535
40
0.5
50
93.0000026
51
183.0000026
0
ARC
8
0
10
162.8921186
20
3.2913905
40
0.5
50
183.0000026
51
273.0000026
0
ARC
8
0
10
180.9197861
20
3.2348081
40
0.5
50
3.0000026
51
93.0000026
0
ARC
8
0
10
182.5464472
20
-8.6964103
40
0.5
50
183.0000026
51
273.0000026
0
ARC
8
0
10
200.5717102
20
-7.7517463
40
0.5
50
273.0000026
51
3.0000026
0
ARC
8
0
10
219.4933354
20
-5.7587336
40
0.5
50
273.0000026
51
3.0000026
0
ARC
8
0
10
220.295051
20
-1.9490541
40
0.5
50
93.0000026
51
183.0000026
0
ARC
8
0
10
238.2180465
20
-0.0083773
40
0.5
50
273.0000026
51
3.0000026
0
ARC
8
0
10
46.9880321
20
-0.0034763
40
0.5
50
356.9999974
51
86.9999974
0
ARC
8
0
10
65.9121432
20
-1.9490541
40
0.5
50
356.9999974
51
86.9999974
0
ARC
8
0
10
66.7138588
20
-5.7587336
40
0.5
50
176.9999974
51
266.9999974
0
ARC
8
0
10
84.6368544
20
-7.6994104
40
0.5
50
356.9999974
51
86.9999974
0
ARC
8
0
10
103.660747
20
-8.6964103
40
0.5
50
266.9999974
51
356.9999974
0
ARC
8
0
10
105.2874081
20
3.2348081
40
0.5
50
86.9999974
51
176.9999974
0
ARC
8
0
10
123.3150756
20
3.2913905
40
0.5
50
266.9999974
51
356.9999974
0
ARC
8
0
10
124.2597396
20
21.3166535
40
0.5
50
356.9999974
51
86.9999974
0
ARC
8
0
10
106.336744
20
23.2573303
40
0.5
50
176.9999974
51
266.9999974
0
ARC
8
0
10
107.5885606
20
66.2507363
40
0.5
50
356.9999974
51
86.9999974
0
ARC
8
0
10
89.665565
20
68.1914131
40
0.5
50
176.9999974
51
266.9999974
0
ARC
8
0
10
70.7439399
20
70.1844258
40
0.5
50
176.9999974
51
266.9999974
0
ARC
8
0
10
69.9422243
20
73.9941053
40
0.5
50
356.9999974
51
86.9999974
0
ARC
8
0
10
52.0192287
20
75.9347821
40
0.5
50
176.9999974
51
266.9999974
0
ARC
8
0
10
32.9928501
20
76.8843471
40
0.5
50
86.9999974
51
176.9999974
0
ARC
8
0
10
29.0650365
20
1.9372005
40
0.5
50
176.9999974
51
266.9999974
0
ARC
8
0
10
295.2321942
20
-9.025
40
0.5
50
270
51
0
0
ARC
8
0
10
295.2321942
20
66.025
40
0.5
50
0
51
90
0
ARC
8
0
10
277.2321942
20
67.025
40
0.5
50
180
51
270
0
ARC
8
0
10
276.2321942
20
71.74
40
0.5
50
0
51
90
0
ARC
8
0
10
258.1821942
20
71.74
40
0.5
50
90
51
180
0
ARC
8
0
10
258.1821942
20
-3.31
40
0.5
50
180
51
270
0
ARC
8
0
10
276.1821942
20
-4.31
40
0.5
50
0
51
90
0
ARC
8
0
10
277.1821942
20
-9.025
40
0.5
50
180
51
270
0
ARC
8
0
10
9.025
20
-9.025
40
0.5
50
270
51
0
0
ARC
8
0
10
10.025
20
-4.31
40
0.5
50
90
51
180
0
ARC
8
0
10
28.025
20
-3.31
40
0.5
50
270
51
0
0
ARC
8
0
10
28.025
20
71.74
40
0.5
50
0
51
90
0
ARC
8
0
10
9.975
20
71.74
40
0.5
50
90
51
180
0
ARC
8
0
10
8.975
20
67.025
40
0.5
50
270
51
0
0
ARC
8
0
10
-9.025
20
66.025
40
0.5
50
90
51
180
0
ARC
8
0
10
-9.025
20
-9.025
40
0.5
50
180
51
270
0
ARC
8
0
10
74.2863755
20
-26.7435349
40
0.5
50
258.9999999
51
348.9999999
0
ARC
8
0
10
75.3157049
20
-26.6889371
40
0.5
50
78.9999999
51
168.9999999
0
ARC
8
0
10
93.1758032
20
-29.1418719
40
0.5
50
258.9999999
51
348.9999999
0
ARC
8
0
10
96.6199056
20
-11.4235013
40
0.5
50
348.9999999
51
78.9999999
0
ARC
8
0
10
78.901535
20
-7.9793989
40
0.5
50
78.9999999
51
168.9999999
0
ARC
8
0
10
77.8722056
20
-8.0339967
40
0.5
50
258.9999999
51
348.9999999
0
ARC
8
0
10
41.3611908
20
-1.955691
40
0.5
50
78.9999999
51
168.9999999
0
ARC
8
0
10
37.9170884
20
-19.6740616
40
0.5
50
168.9999999
51
258.9999999
0
ARC
8
0
10
248.2901058
20
-19.6740616
40
0.5
50
281.0000001
51
11.0000001
0
ARC
8
0
10
244.8460034
20
-1.955691
40
0.5
50
11.0000001
51
101.0000001
0
ARC
8
0
10
208.3349886
20
-8.0339967
40
0.5
50
191.0000001
51
281.0000001
0
ARC
8
0
10
207.3056592
20
-7.9793989
40
0.5
50
11.0000001
51
101.0000001
0
ARC
8
0
10
189.5872886
20
-11.4235013
40
0.5
50
101.0000001
51
191.0000001
0
ARC
8
0
10
193.031391
20
-29.1418719
40
0.5
50
191.0000001
51
281.0000001
0
ARC
8
0
10
210.8914893
20
-26.6889371
40
0.5
50
11.0000001
51
101.0000001
0
ARC
8
0
10
211.9208187
20
-26.7435349
40
0.5
50
191.0000001
51
281.0000001
0
ARC
8
0
10
186.5707763
20
-17.2531899
40
0.5
50
307.9999995
51
37.9999995
0
ARC
8
0
10
175.4580867
20
-3.0295957
40
0.5
50
37.9999995
51
127.9999995
0
ARC
8
0
10
161.2344925
20
-14.1422853
40
0.5
50
127.9999995
51
217.9999995
0
ARC
8
0
10
172.3471821
20
-28.3658795
40
0.5
50
217.9999995
51
307.9999995
0
ARC
8
0
10
113.8600121
20
-28.3658795
40
0.5
50
232.0000005
51
322.0000005
0
ARC
8
0
10
124.9727017
20
-14.1422853
40
0.5
50
322.0000005
51
52.0000005
0
ARC
8
0
10
110.7491075
20
-3.0295957
40
0.5
50
52.0000005
51
142.0000005
0
ARC
8
0
10
99.6364179
20
-17.2531899
40
0.5
50
142.0000005
51
232.0000005
0
ENDSEC
0
EOF