0
SECTION
2
HEADER
9
$INSUNITS
70
4
0
ENDSEC
0
SECTION
2
TABLES
0
TABLE
2
LTYPE
0
LTYPE
72
65
70
64
2
CONTINUOUS
3
______
73
0
40
0
0
ENDTAB
0
TABLE
2
LAYER
0
ENDTAB
0
ENDSEC
0
SECTION
2
ENTITIES
0
LINE
8
0
10
-9.5
20
-9.5
11
9.5
21
-9.5
0
LINE
8
0
10
10
20
-9
11
10
21
-4.5420535
0
LINE
8
0
10
-10
20
-9
11
-10
21
66
0
LINE
8
0
10
10
20
14.8024282
11
10
21
66
0
LINE
8
0
10
9.5
20
66.5
11
-9.5
21
66.5
0
LINE
8
0
10
10.526168
20
-4.0427387
11
28.489789
21
-4.9841721
0
LINE
8
0
10
29.0152718
20
-4.5110253
11
29.2769515
21
0.4821223
0
LINE
8
0
10
10.0108962
20
15.0103401
11
10
21
14.8024282
0
LINE
8
0
10
11.0052794
20
33.9843013
11
10.0108963
21
15.0103402
0
LINE
8
0
10
11.9996626
20
52.9582625
11
11.0052795
21
33.9843014
0
LINE
8
0
10
31.4686922
20
70.9640085
11
13.4933606
21
71.9060557
0
LINE
8
0
10
12.9678778
20
71.4329089
11
11.9996627
21
52.9582626
0
LINE
8
0
10
29.8024343
20
0.9552691
11
38.7901
21
0.4842454
0
LINE
8
0
10
48.3032487
20
0.4863687
11
48.3555846
21
1.4849982
0
LINE
8
0
10
50.7566691
20
75.9614025
11
32.7813375
21
76.9034497
0
LINE
8
0
10
32.2558547
20
76.4303029
11
31.994175
21
71.4371553
0
LINE
8
0
10
48.8810674
20
1.958145
11
65.8577694
21
1.0684337
0
LINE
8
0
10
71.2547426
20
75.3878303
11
71.3070785
21
76.3864597
0
LINE
8
0
10
70.8339317
20
76.9119425
11
51.8599706
21
77.9063256
0
LINE
8
0
10
51.3344878
20
77.4331788
11
51.2821519
21
76.4345493
0
LINE
8
0
10
78.2359667
20
-1.5830249
11
84.7270586
21
-1.9232085
0
LINE
8
0
10
66.3309162
20
0.5429509
11
66.2785803
21
-0.4556785
0
LINE
8
0
10
90.1763677
20
73.3948176
11
90.2025357
21
73.8941323
0
LINE
8
0
10
90.2025357
20
73.8941323
11
71.7278894
21
74.8623475
0
LINE
8
0
10
97.6569067
20
-3.6022056
11
104.6473134
21
-3.9685571
0
LINE
8
0
10
105.1727962
20
-3.4954103
11
105.7484917
21
7.4895146
0
LINE
8
0
10
85.2002055
20
-2.4486913
11
85.1740375
21
-2.948006
0
LINE
8
0
10
106.7952108
20
27.4621053
11
107.1353945
21
33.9531972
0
LINE
8
0
10
107.1353946
20
33.9531973
11
108.1297777
21
52.9271584
0
LINE
8
0
10
108.1297778
20
52.9271585
11
109.0979929
21
71.4018048
0
LINE
8
0
10
108.6248461
20
71.9272876
11
90.6495145
21
72.8693348
0
LINE
8
0
10
38.7943465
20
-18.5420517
11
75.7436393
21
-20.4784821
0
LINE
8
0
10
48.7763955
20
-0.0391141
11
65.7530975
21
-0.9288253
0
LINE
8
0
10
39.2632468
20
-0.0412374
11
38.3211997
21
-18.0165689
0
LINE
8
0
10
78.2097987
20
-2.0823396
11
78.2359667
21
-1.5830249
0
LINE
8
0
10
76.1906181
20
-21.5032796
11
95.663894
21
-22.5238307
0
LINE
8
0
10
96.1893768
20
-22.0506839
11
97.1314239
21
-4.0753524
0
LINE
8
0
10
85.1740375
20
-2.948006
11
78.6829456
21
-2.6078224
0
LINE
8
0
10
76.2167861
20
-21.0039649
11
76.1906181
21
-21.5032796
0
LINE
8
0
10
100.7647068
20
-17.698223
11
118.2542991
21
-25.1221144
0
LINE
8
0
10
118.9099171
20
-24.8572276
11
125.9430774
21
-8.2881402
0
LINE
8
0
10
125.6781906
20
-7.6325222
11
108.1885983
21
-0.2086308
0
LINE
8
0
10
107.5329803
20
-0.4735176
11
100.49982
21
-17.042605
0
LINE
8
0
10
106.2739745
20
7.9626614
11
124.2493061
21
7.0206142
0
LINE
8
0
10
124.7747889
20
7.493761
11
125.716836
21
25.4690925
0
LINE
8
0
10
125.2436892
20
25.9945753
11
107.2683576
21
26.9366225
0
ARC
8
0
10
9.5
20
-9
40
0.5
50
270
51
0
0
ARC
8
0
10
10.5
20
-4.5420535
40
0.5
50
86.9999974
51
180
0
ARC
8
0
10
28.515957
20
-4.4848573
40
0.5
50
266.9999974
51
356.9999974
0
ARC
8
0
10
29.7762663
20
0.4559543
40
0.5
50
86.9999974
51
176.9999974
0
ARC
8
0
10
38.763932
20
-0.0150694
40
0.5
50
356.9999974
51
86.9999974
0
ARC
8
0
10
38.8205145
20
-18.0427369
40
0.5
50
176.9999974
51
266.9999974
0
ARC
8
0
10
75.7174713
20
-20.9777969
40
0.5
50
356.9999974
51
86.9999974
0
ARC
8
0
10
95.690062
20
-22.0245159
40
0.5
50
266.9999974
51
356.9999974
0
ARC
8
0
10
97.6307387
20
-4.1015204
40
0.5
50
87.0000031
51
176.9999974
0
ARC
8
0
10
104.6734814
20
-3.4692423
40
0.5
50
267.0000031
51
356.9999974
0
ARC
8
0
10
106.2478065
20
7.4633466
40
0.5
50
86.9999974
51
176.9999974
0
ARC
8
0
10
124.2754741
20
7.519929
40
0.5
50
266.9999974
51
356.9999974
0
ARC
8
0
10
125.2175212
20
25.4952605
40
0.5
50
356.9999974
51
86.9999974
0
ARC
8
0
10
107.2945256
20
27.4359373
40
0.5
50
176.9999974
51
266.9999974
0
ARC
8
0
10
108.5986781
20
71.4279728
40
0.5
50
356.9999974
51
86.9999974
0
ARC
8
0
10
90.6756825
20
73.3686496
40
0.5
50
176.9999974
51
266.9999974
0
ARC
8
0
10
71.7540574
20
75.3616623
40
0.5
50
176.9999974
51
266.9999974
0
ARC
8
0
10
70.8077637
20
76.4126277
40
0.5
50
356.9999974
51
86.9999974
0
ARC
8
0
10
51.8338026
20
77.4070108
40
0.5
50
86.9999974
51
176.9999974
0
ARC
8
0
10
50.7828371
20
76.4607173
40
0.5
50
266.9999974
51
356.9999974
0
ARC
8
0
10
32.7551695
20
76.4041349
40
0.5
50
86.9999974
51
176.9999974
0
ARC
8
0
10
31.4948602
20
71.4633233
40
0.5
50
266.9999974
51
356.9999974
0
ARC
8
0
10
13.4671926
20
71.4067409
40
0.5
50
86.9999974
51
176.9999974
0
ARC
8
0
10
9.5
20
66
40
0.5
50
0
51
90
0
ARC
8
0
10
-9.5
20
66
40
0.5
50
90
51
180
0
ARC
8
0
10
-9.5
20
-9
40
0.5
50
180
51
270
0
ARC
8
0
10
118.4496646
20
-24.661862
40
0.5
50
247.0000025
51
337.0000025
0
ARC
8
0
10
125.482825
20
-8.0927747
40
0.5
50
337.0000025
51
67.0000025
0
ARC
8
0
10
107.9932328
20
-0.6688832
40
0.5
50
67.0000025
51
157.0000025
0
ARC
8
0
10
100.9600724
20
-17.2379705
40
0.5
50
157.0000025
51
247.0000025
0
ARC
8
0
10
48.8548994
20
1.4588302
40
0.5
50
86.9999974
51
176.9999974
0
ARC
8
0
10
65.8316014
20
0.5691189
40
0.5
50
356.9999974
51
86.9999974
0
ARC
8
0
10
65.7792655
20
-0.4295105
40
0.5
50
267.0000031
51
356.9999974
0
ARC
8
0
10
48.8025635
20
0.4602007
40
0.5
50
176.9999974
51
266.9999974
0
ARC
8
0
10
84.7008907
20
-2.4225233
40
0.5
50
356.9999974
51
87.0000031
0
ARC
8
0
10
78.7091135
20
-2.1085076
40
0.5
50
176.9999974
51
267.0000031
0
ENDSEC
0
EOF