0
SECTION
2
HEADER
9
$INSUNITS
70
4
0
ENDSEC
0
SECTION
2
TABLES
0
TABLE
2
LTYPE
0
LTYPE
72
65
70
64
2
CONTINUOUS
3
______
73
0
40
0
0
ENDTAB
0
TABLE
2
LAYER
0
ENDTAB
0
ENDSEC
0
SECTION
2
ENTITIES
0
LINE
8
0
10
299.2321942
20
-11.4047842
11
299.2321942
21
68.5380634
0
LINE
8
0
10
297.808277
20
70.4532993
11
280.2953439
21
75.7210052
0
LINE
8
0
10
280.1679305
20
75.7547936
11
257.2938457
21
81.0204544
0
LINE
8
0
10
256.698309
20
81.0660303
11
212.2859042
21
77.795832
0
LINE
8
0
10
211.8456347
20
77.7131079
11
193.521482
21
72.0857631
0
LINE
8
0
10
193.1438459
20
72.008642
11
174.4670777
21
70.0414201
0
LINE
8
0
10
174.3622489
20
70.0331581
11
156.9773095
21
69.122052
0
LINE
8
0
10
155.0854781
20
67.0065805
11
159.0872383
21
-0.5796558
0
LINE
8
0
10
159.0176244
20
-1.2336824
11
155.8901095
21
-12.4808174
0
LINE
8
0
10
156.2409774
20
-14.2479545
11
171.0509827
21
-33.2038967
0
LINE
8
0
10
172.6433626
20
-33.9725068
11
189.7034599
21
-33.8329634
0
LINE
8
0
10
190.0303393
20
-33.8033571
11
252.9438119
21
-22.8436125
0
LINE
8
0
10
253.0156323
20
-22.8297434
11
297.6472524
21
-13.361242
0
ARC
8
0
10
297.2321942
20
68.5380634
40
2
50
0
51
73.2592669
0
ARC
8
0
10
279.7192611
20
73.8057693
40
2
50
73.2592669
51
77.0362413
0
ARC
8
0
10
256.8451764
20
79.0714301
40
2
50
77.0362413
51
94.2112317
0
ARC
8
0
10
212.4327716
20
75.8012318
40
2
50
94.2112317
51
107.0717172
0
ARC
8
0
10
192.9343451
20
73.9976391
40
2
50
276.0127865
51
287.0717172
0
ARC
8
0
10
174.2575769
20
72.0304172
40
2
50
273.0000026
51
276.0127865
0
ARC
8
0
10
157.0819815
20
67.1247929
40
2
50
93.0000026
51
183.3885107
0
ARC
8
0
10
157.0907349
20
-0.6978682
40
2
50
344.4602343
51
3.3885107
0
ARC
8
0
10
157.816999
20
-13.0166316
40
2
50
164.4602343
51
217.9999995
0
ARC
8
0
10
172.6270042
20
-31.9725737
40
2
50
217.9999995
51
270.4686389
0
ARC
8
0
10
189.6871015
20
-31.8330303
40
2
50
270.4686389
51
279.8819588
0
ARC
8
0
10
252.6005741
20
-20.8732857
40
2
50
279.8819588
51
281.9775909
0
ARC
8
0
10
297.2321942
20
-11.4047842
40
2
50
281.9775909
51
0
0
LINE
8
0
10
279.7071942
20
-7
11
292.7071942
21
-7
0
LINE
8
0
10
293.2071942
20
-6.5
11
293.2071942
21
6.5
0
LINE
8
0
10
292.7071942
20
7
11
279.7071942
21
7
0
LINE
8
0
10
279.2071942
20
6.5
11
279.2071942
21
-6.5
0
LINE
8
0
10
279.7071942
20
12
11
292.7071942
21
12
0
LINE
8
0
10
293.2071942
20
12.5
11
293.2071942
21
25.5
0
LINE
8
0
10
292.7071942
20
26
11
279.7071942
21
26
0
LINE
8
0
10
279.2071942
20
25.5
11
279.2071942
21
12.5
0
LINE
8
0
10
279.7071942
20
31
11
292.7071942
21
31
0
LINE
8
0
10
293.2071942
20
31.5
11
293.2071942
21
44.5
0
LINE
8
0
10
292.7071942
20
45
11
279.7071942
21
45
0
LINE
8
0
10
279.2071942
20
44.5
11
279.2071942
21
31.5
0
LINE
8
0
10
279.7071942
20
50
11
292.7071942
21
50
0
LINE
8
0
10
293.2071942
20
50.5
11
293.2071942
21
63.5
0
LINE
8
0
10
292.7071942
20
64
11
279.7071942
21
64
0
LINE
8
0
10
279.2071942
20
63.5
11
279.2071942
21
50.5
0
LINE
8
0
10
260.7071942
20
-1.285
11
273.7071942
21
-1.285
0
LINE
8
0
10
274.2071942
20
-0.785
11
274.2071942
21
12.215
0
LINE
8
0
10
273.7071942
20
12.715
11
260.7071942
21
12.715
0
LINE
8
0
10
260.2071942
20
12.215
11
260.2071942
21
-0.785
0
LINE
8
0
10
260.7071942
20
17.715
11
273.7071942
21
17.715
0
LINE
8
0
10
274.2071942
20
18.215
11
274.2071942
21
31.215
0
LINE
8
0
10
273.7071942
20
31.715
11
260.7071942
21
31.715
0
LINE
8
0
10
260.2071942
20
31.215
11
260.2071942
21
18.215
0
LINE
8
0
10
260.7071942
20
36.715
11
273.7071942
21
36.715
0
LINE
8
0
10
274.2071942
20
37.215
11
274.2071942
21
50.215
0
LINE
8
0
10
273.7071942
20
50.715
11
260.7071942
21
50.715
0
LINE
8
0
10
260.2071942
20
50.215
11
260.2071942
21
37.215
0
LINE
8
0
10
260.7071942
20
55.715
11
273.7071942
21
55.715
0
LINE
8
0
10
274.2071942
20
56.215
11
274.2071942
21
69.215
0
LINE
8
0
10
273.7071942
20
69.715
11
260.7071942
21
69.715
0
LINE
8
0
10
260.2071942
20
69.215
11
260.2071942
21
56.215
0
LINE
8
0
10
241.532454
20
3.1469096
11
254.5146378
21
3.827277
0
LINE
8
0
10
254.9877846
20
4.3527598
11
254.3074172
21
17.3349436
0
LINE
8
0
10
253.7819344
20
17.8080904
11
240.7997506
21
17.127723
0
LINE
8
0
10
240.3266038
20
16.6022402
11
241.0069712
21
3.6200564
0
LINE
8
0
10
240.5380708
20
22.1208708
11
253.5202546
21
22.8012382
0
LINE
8
0
10
253.9934014
20
23.326721
11
253.313034
21
36.3089048
0
LINE
8
0
10
252.7875512
20
36.7820516
11
239.8053674
21
36.1016842
0
LINE
8
0
10
239.3322206
20
35.5762014
11
240.012588
21
22.5940176
0
LINE
8
0
10
239.5436876
20
41.094832
11
252.5258714
21
41.7751994
0
LINE
8
0
10
252.9990182
20
42.3006822
11
252.3186508
21
55.282866
0
LINE
8
0
10
251.793168
20
55.7560128
11
238.8109842
21
55.0756454
0
LINE
8
0
10
238.3378374
20
54.5501626
11
239.0182048
21
41.5679788
0
LINE
8
0
10
238.5493044
20
60.0687932
11
251.5314882
21
60.7491606
0
LINE
8
0
10
252.004635
20
61.2746434
11
251.3242676
21
74.2568272
0
LINE
8
0
10
250.7987848
20
74.729974
11
237.816601
21
74.0496066
0
LINE
8
0
10
237.3434542
20
73.5241238
11
238.0238216
21
60.54194
0
LINE
8
0
10
222.6083428
20
1.2013318
11
235.5905266
21
1.8816992
0
LINE
8
0
10
236.0636734
20
2.407182
11
235.383306
21
15.3893658
0
LINE
8
0
10
234.8578232
20
15.8625126
11
221.8756394
21
15.1821452
0
LINE
8
0
10
221.4024926
20
14.6566624
11
222.08286
21
1.6744786
0
LINE
8
0
10
221.6139596
20
20.175293
11
234.5961434
21
20.8556604
0
LINE
8
0
10
235.0692902
20
21.3811432
11
234.3889228
21
34.363327
0
LINE
8
0
10
233.86344
20
34.8364738
11
220.8812562
21
34.1561064
0
LINE
8
0
10
220.4081094
20
33.6306236
11
221.0884768
21
20.6484398
0
LINE
8
0
10
220.6195764
20
39.1492542
11
233.6017602
21
39.8296216
0
LINE
8
0
10
234.074907
20
40.3551044
11
233.3945396
21
53.3372882
0
LINE
8
0
10
232.8690568
20
53.810435
11
219.886873
21
53.1300676
0
LINE
8
0
10
219.4137262
20
52.6045848
11
220.0940936
21
39.622401
0
LINE
8
0
10
219.6251932
20
58.1232154
11
232.607377
21
58.8035828
0
LINE
8
0
10
233.0805238
20
59.3290656
11
232.4001564
21
72.3112494
0
LINE
8
0
10
231.8746736
20
72.7843962
11
218.8924898
21
72.1040288
0
LINE
8
0
10
218.419343
20
71.578546
11
219.0997104
21
58.5963622
0
LINE
8
0
10
203.8836317
20
-4.5490245
11
216.8658155
21
-3.8686571
0
LINE
8
0
10
217.3389623
20
-3.3431743
11
216.6585949
21
9.6390095
0
LINE
8
0
10
216.1331121
20
10.1121563
11
203.1509283
21
9.4317889
0
LINE
8
0
10
202.6777815
20
8.9063061
11
203.3581489
21
-4.0758777
0
LINE
8
0
10
202.8892485
20
14.4249367
11
215.8714323
21
15.1053041
0
LINE
8
0
10
216.3445791
20
15.6307869
11
215.6642117
21
28.6129707
0
LINE
8
0
10
215.1387289
20
29.0861175
11
202.1565451
21
28.4057501
0
LINE
8
0
10
201.6833983
20
27.8802673
11
202.3637657
21
14.8980835
0
LINE
8
0
10
201.8948653
20
33.3988979
11
214.8770491
21
34.0792653
0
LINE
8
0
10
215.3501959
20
34.6047481
11
214.6698285
21
47.5869319
0
LINE
8
0
10
214.1443457
20
48.0600787
11
201.1621619
21
47.3797113
0
LINE
8
0
10
200.6890151
20
46.8542285
11
201.3693825
21
33.8720447
0
LINE
8
0
10
200.9004821
20
52.3728591
11
213.8826659
21
53.0532265
0
LINE
8
0
10
214.3558127
20
53.5787093
11
213.6754453
21
66.5608931
0
LINE
8
0
10
213.1499625
20
67.0340399
11
200.1677787
21
66.3536725
0
LINE
8
0
10
199.6946319
20
65.8281897
11
200.3749993
21
52.8460059
0
LINE
8
0
10
184.9620065
20
-6.5420372
11
197.9441903
21
-5.8616698
0
LINE
8
0
10
198.4173371
20
-5.336187
11
197.7369697
21
7.6459968
0
LINE
8
0
10
197.2114869
20
8.1191436
11
184.2293031
21
7.4387762
0
LINE
8
0
10
183.7561563
20
6.9132934
11
184.4365237
21
-6.0688904
0
LINE
8
0
10
183.9676233
20
12.431924
11
196.9498071
21
13.1122914
0
LINE
8
0
10
197.4229539
20
13.6377742
11
196.7425865
21
26.619958
0
LINE
8
0
10
196.2171037
20
27.0931048
11
183.2349199
21
26.4127374
0
LINE
8
0
10
182.7617731
20
25.8872546
11
183.4421405
21
12.9050708
0
LINE
8
0
10
182.9732401
20
31.4058852
11
195.9554239
21
32.0862526
0
LINE
8
0
10
196.4285707
20
32.6117354
11
195.7482033
21
45.5939192
0
LINE
8
0
10
195.2227205
20
46.067066
11
182.2405367
21
45.3866986
0
LINE
8
0
10
181.7673899
20
44.8612158
11
182.4477573
21
31.879032
0
LINE
8
0
10
181.9788569
20
50.3798464
11
194.9610407
21
51.0602138
0
LINE
8
0
10
195.4341875
20
51.5856966
11
194.7538201
21
64.5678804
0
LINE
8
0
10
194.2283373
20
65.0410272
11
181.2461535
21
64.3606598
0
LINE
8
0
10
180.7730067
20
63.835177
11
181.4533741
21
50.8529932
0
LINE
8
0
10
232.6639556
20
-20.6485763
11
245.425109
21
-18.1680593
0
LINE
8
0
10
245.8205181
20
-17.5818412
11
243.3400011
21
-4.8206878
0
LINE
8
0
10
242.753783
20
-4.4252787
11
229.9926296
21
-6.9057957
0
LINE
8
0
10
229.5972205
20
-7.4920138
11
232.0777375
21
-20.2531672
0
LINE
8
0
10
214.0130391
20
-24.2739472
11
226.7741925
21
-21.7934302
0
LINE
8
0
10
227.1696016
20
-21.2072121
11
224.6890846
21
-8.4460587
0
LINE
8
0
10
224.1028665
20
-8.0506496
11
211.3417131
21
-10.5311666
0
LINE
8
0
10
210.946304
20
-11.1173847
11
213.426821
21
-23.8785381
0
LINE
8
0
10
195.1236114
20
-26.6722842
11
207.8847648
21
-24.1917672
0
LINE
8
0
10
208.2801739
20
-23.6055491
11
205.7996569
21
-10.8443957
0
LINE
8
0
10
205.2134388
20
-10.4489866
11
192.4522854
21
-12.9295036
0
LINE
8
0
10
192.0568763
20
-13.5157217
11
194.5373933
21
-26.2768751
0
LINE
8
0
10
173.0901949
20
-25.2156125
11
183.3343346
21
-17.2120132
0
LINE
8
0
10
183.4205093
20
-16.5101771
11
175.41691
21
-6.2660374
0
LINE
8
0
10
174.7150739
20
-6.1798627
11
164.4709342
21
-14.183462
0
LINE
8
0
10
164.3847595
20
-14.8852981
11
172.3883588
21
-25.1294378
0
LINE
8
0
10
165.3076779
20
5.4457636
11
178.2898617
21
6.126131
0
LINE
8
0
10
178.7630085
20
6.6516138
11
178.0826411
21
19.6337976
0
LINE
8
0
10
177.5571583
20
20.1069444
11
164.5749745
21
19.426577
0
LINE
8
0
10
164.1018277
20
18.9010942
11
164.7821951
21
5.9189104
0
ARC
8
0
10
245.3297045
20
-17.6772457
40
0.5
50
281.0000001
51
11.0000001
0
ARC
8
0
10
242.8491875
20
-4.9160923
40
0.5
50
11.0000001
51
101.0000001
0
ARC
8
0
10
230.0880341
20
-7.3966093
40
0.5
50
101.0000001
51
191.0000001
0
ARC
8
0
10
232.5685511
20
-20.1577627
40
0.5
50
191.0000001
51
281.0000001
0
ARC
8
0
10
226.678788
20
-21.3026166
40
0.5
50
281.0000001
51
11.0000001
0
ARC
8
0
10
224.198271
20
-8.5414632
40
0.5
50
11.0000001
51
101.0000001
0
ARC
8
0
10
211.4371176
20
-11.0219802
40
0.5
50
101.0000001
51
191.0000001
0
ARC
8
0
10
213.9176346
20
-23.7831336
40
0.5
50
191.0000001
51
281.0000001
0
ARC
8
0
10
207.7893603
20
-23.7009536
40
0.5
50
281.0000001
51
11.0000001
0
ARC
8
0
10
205.3088433
20
-10.9398002
40
0.5
50
11.0000001
51
101.0000001
0
ARC
8
0
10
192.5476899
20
-13.4203172
40
0.5
50
101.0000001
51
191.0000001
0
ARC
8
0
10
195.0282069
20
-26.1814706
40
0.5
50
191.0000001
51
281.0000001
0
ARC
8
0
10
292.7071942
20
-6.5
40
0.5
50
270
51
0
0
ARC
8
0
10
292.7071942
20
6.5
40
0.5
50
0
51
90
0
ARC
8
0
10
279.7071942
20
6.5
40
0.5
50
90
51
180
0
ARC
8
0
10
279.7071942
20
-6.5
40
0.5
50
180
51
270
0
ARC
8
0
10
292.7071942
20
12.5
40
0.5
50
270
51
0
0
ARC
8
0
10
292.7071942
20
25.5
40
0.5
50
0
51
90
0
ARC
8
0
10
279.7071942
20
25.5
40
0.5
50
90
51
180
0
ARC
8
0
10
279.7071942
20
12.5
40
0.5
50
180
51
270
0
ARC
8
0
10
292.7071942
20
31.5
40
0.5
50
270
51
0
0
ARC
8
0
10
292.7071942
20
44.5
40
0.5
50
0
51
90
0
ARC
8
0
10
279.7071942
20
44.5
40
0.5
50
90
51
180
0
ARC
8
0
10
279.7071942
20
31.5
40
0.5
50
180
51
270
0
ARC
8
0
10
292.7071942
20
50.5
40
0.5
50
270
51
0
0
ARC
8
0
10
292.7071942
20
63.5
40
0.5
50
0
51
90
0
ARC
8
0
10
279.7071942
20
63.5
40
0.5
50
90
51
180
0
ARC
8
0
10
279.7071942
20
50.5
40
0.5
50
180
51
270
0
ARC
8
0
10
273.7071942
20
-0.785
40
0.5
50
270
51
0
0
ARC
8
0
10
273.7071942
20
12.215
40
0.5
50
0
51
90
0
ARC
8
0
10
260.7071942
20
12.215
40
0.5
50
90
51
180
0
ARC
8
0
10
260.7071942
20
-0.785
40
0.5
50
180
51
270
0
ARC
8
0
10
273.7071942
20
18.215
40
0.5
50
270
51
0
0
ARC
8
0
10
273.7071942
20
31.215
40
0.5
50
0
51
90
0
ARC
8
0
10
260.7071942
20
31.215
40
0.5
50
90
51
180
0
ARC
8
0
10
260.7071942
20
18.215
40
0.5
50
180
51
270
0
ARC
8
0
10
273.7071942
20
37.215
40
0.5
50
270
51
0
0
ARC
8
0
10
273.7071942
20
50.215
40
0.5
50
0
51
90
0
ARC
8
0
10
260.7071942
20
50.215
40
0.5
50
90
51
180
0
ARC
8
0
10
260.7071942
20
37.215
40
0.5
50
180
51
270
0
ARC
8
0
10
273.7071942
20
56.215
40
0.5
50
270
51
0
0
ARC
8
0
10
273.7071942
20
69.215
40
0.5
50
0
51
90
0
ARC
8
0
10
260.7071942
20
69.215
40
0.5
50
90
51
180
0
ARC
8
0
10
260.7071942
20
56.215
40
0.5
50
180
51
270
0
ARC
8
0
10
183.0265039
20
-16.8180079
40
0.5
50
307.9999995
51
37.9999995
0
ARC
8
0
10
175.0229047
20
-6.5738681
40
0.5
50
37.9999995
51
127.9999995
0
ARC
8
0
10
164.7787649
20
-14.5774673
40
0.5
50
127.9999995
51
217.9999995
0
ARC
8
0
10
172.7823641
20
-24.8216071
40
0.5
50
217.9999995
51
307.9999995
0
ARC
8
0
10
253.4940866
20
23.300553
40
0.5
50
273.0000026
51
3.0000026
0
ARC
8
0
10
252.8137192
20
36.2827368
40
0.5
50
3.0000026
51
93.0000026
0
ARC
8
0
10
239.8315354
20
35.6023694
40
0.5
50
93.0000026
51
183.0000026
0
ARC
8
0
10
240.5119028
20
22.6201856
40
0.5
50
183.0000026
51
273.0000026
0
ARC
8
0
10
252.4997034
20
42.2745142
40
0.5
50
273.0000026
51
3.0000026
0
ARC
8
0
10
251.819336
20
55.256698
40
0.5
50
3.0000026
51
93.0000026
0
ARC
8
0
10
238.8371522
20
54.5763306
40
0.5
50
93.0000026
51
183.0000026
0
ARC
8
0
10
239.5175196
20
41.5941468
40
0.5
50
183.0000026
51
273.0000026
0
ARC
8
0
10
251.5053202
20
61.2484754
40
0.5
50
273.0000026
51
3.0000026
0
ARC
8
0
10
250.8249528
20
74.2306592
40
0.5
50
3.0000026
51
93.0000026
0
ARC
8
0
10
237.842769
20
73.5502918
40
0.5
50
93.0000026
51
183.0000026
0
ARC
8
0
10
238.5231364
20
60.568108
40
0.5
50
183.0000026
51
273.0000026
0
ARC
8
0
10
233.5755922
20
40.3289364
40
0.5
50
273.0000026
51
3.0000026
0
ARC
8
0
10
232.8952248
20
53.3111202
40
0.5
50
3.0000026
51
93.0000026
0
ARC
8
0
10
219.913041
20
52.6307528
40
0.5
50
93.0000026
51
183.0000026
0
ARC
8
0
10
220.5934084
20
39.648569
40
0.5
50
183.0000026
51
273.0000026
0
ARC
8
0
10
232.581209
20
59.3028976
40
0.5
50
273.0000026
51
3.0000026
0
ARC
8
0
10
231.9008416
20
72.2850814
40
0.5
50
3.0000026
51
93.0000026
0
ARC
8
0
10
218.9186578
20
71.604714
40
0.5
50
93.0000026
51
183.0000026
0
ARC
8
0
10
219.5990252
20
58.6225302
40
0.5
50
183.0000026
51
273.0000026
0
ARC
8
0
10
214.8508811
20
34.5785801
40
0.5
50
273.0000026
51
3.0000026
0
ARC
8
0
10
214.1705137
20
47.5607639
40
0.5
50
3.0000026
51
93.0000026
0
ARC
8
0
10
201.1883299
20
46.8803965
40
0.5
50
93.0000026
51
183.0000026
0
ARC
8
0
10
201.8686973
20
33.8982127
40
0.5
50
183.0000026
51
273.0000026
0
ARC
8
0
10
213.8564979
20
53.5525413
40
0.5
50
273.0000026
51
3.0000026
0
ARC
8
0
10
213.1761305
20
66.5347251
40
0.5
50
3.0000026
51
93.0000026
0
ARC
8
0
10
200.1939467
20
65.8543577
40
0.5
50
93.0000026
51
183.0000026
0
ARC
8
0
10
200.8743141
20
52.8721739
40
0.5
50
183.0000026
51
273.0000026
0
ARC
8
0
10
194.9348727
20
51.5595286
40
0.5
50
273.0000026
51
3.0000026
0
ARC
8
0
10
194.2545053
20
64.5417124
40
0.5
50
3.0000026
51
93.0000026
0
ARC
8
0
10
181.2723215
20
63.861345
40
0.5
50
93.0000026
51
183.0000026
0
ARC
8
0
10
181.9526889
20
50.8791612
40
0.5
50
183.0000026
51
273.0000026
0
ARC
8
0
10
178.2636937
20
6.6254458
40
0.5
50
273.0000026
51
3.0000026
0
ARC
8
0
10
177.5833263
20
19.6076296
40
0.5
50
3.0000026
51
93.0000026
0
ARC
8
0
10
164.6011425
20
18.9272622
40
0.5
50
93.0000026
51
183.0000026
0
ARC
8
0
10
165.2815099
20
5.9450784
40
0.5
50
183.0000026
51
273.0000026
0
ARC
8
0
10
254.4884698
20
4.3265918
40
0.5
50
273.0000026
51
3.0000026
0
ARC
8
0
10
253.8081024
20
17.3087756
40
0.5
50
3.0000026
51
93.0000026
0
ARC
8
0
10
240.8259186
20
16.6284082
40
0.5
50
93.0000026
51
183.0000026
0
ARC
8
0
10
241.506286
20
3.6462244
40
0.5
50
183.0000026
51
273.0000026
0
ARC
8
0
10
235.5643586
20
2.381014
40
0.5
50
273.0000026
51
3.0000026
0
ARC
8
0
10
234.8839912
20
15.3631978
40
0.5
50
3.0000026
51
93.0000026
0
ARC
8
0
10
221.9018074
20
14.6828304
40
0.5
50
93.0000026
51
183.0000026
0
ARC
8
0
10
222.5821748
20
1.7006466
40
0.5
50
183.0000026
51
273.0000026
0
ARC
8
0
10
234.5699754
20
21.3549752
40
0.5
50
273.0000026
51
3.0000026
0
ARC
8
0
10
233.889608
20
34.337159
40
0.5
50
3.0000026
51
93.0000026
0
ARC
8
0
10
220.9074242
20
33.6567916
40
0.5
50
93.0000026
51
183.0000026
0
ARC
8
0
10
221.5877916
20
20.6746078
40
0.5
50
183.0000026
51
273.0000026
0
ARC
8
0
10
216.8396475
20
-3.3693423
40
0.5
50
273.0000026
51
3.0000026
0
ARC
8
0
10
216.1592801
20
9.6128415
40
0.5
50
3.0000026
51
93.0000026
0
ARC
8
0
10
203.1770963
20
8.9324741
40
0.5
50
93.0000026
51
183.0000026
0
ARC
8
0
10
203.8574637
20
-4.0497097
40
0.5
50
183.0000026
51
273.0000026
0
ARC
8
0
10
215.8452643
20
15.6046189
40
0.5
50
273.0000026
51
3.0000026
0
ARC
8
0
10
215.1648969
20
28.5868027
40
0.5
50
3.0000026
51
93.0000026
0
ARC
8
0
10
202.1827131
20
27.9064353
40
0.5
50
93.0000026
51
183.0000026
0
ARC
8
0
10
202.8630805
20
14.9242515
40
0.5
50
183.0000026
51
273.0000026
0
ARC
8
0
10
197.9180223
20
-5.362355
40
0.5
50
273.0000026
51
3.0000026
0
ARC
8
0
10
197.2376549
20
7.6198288
40
0.5
50
3.0000026
51
93.0000026
0
ARC
8
0
10
184.2554711
20
6.9394614
40
0.5
50
93.0000026
51
183.0000026
0
ARC
8
0
10
184.9358385
20
-6.0427224
40
0.5
50
183.0000026
51
273.0000026
0
ARC
8
0
10
196.9236391
20
13.6116062
40
0.5
50
273.0000026
51
3.0000026
0
ARC
8
0
10
196.2432717
20
26.59379
40
0.5
50
3.0000026
51
93.0000026
0
ARC
8
0
10
183.2610879
20
25.9134226
40
0.5
50
93.0000026
51
183.0000026
0
ARC
8
0
10
183.9414553
20
12.9312388
40
0.5
50
183.0000026
51
273.0000026
0
ARC
8
0
10
195.9292559
20
32.5855674
40
0.5
50
273.0000026
51
3.0000026
0
ARC
8
0
10
195.2488885
20
45.5677512
40
0.5
50
3.0000026
51
93.0000026
0
ARC
8
0
10
182.2667047
20
44.8873838
40
0.5
50
93.0000026
51
183.0000026
0
ARC
8
0
10
182.9470721
20
31.9052
40
0.5
50
183.0000026
51
273.0000026
0
CIRCLE
8
0
10
183.4872921
20
-26.1711188
40
1.2
0
CIRCLE
8
0
10
284.2071942
20
-11.525
40
1.2
0
CIRCLE
8
0
10
284.2071942
20
68.525
40
1.2
0
CIRCLE
8
0
10
167.9216626
20
60.6582358
40
1.2
0
CIRCLE
8
0
10
236.706246
20
37.9144731
40
1.2
0
ENDSEC
0
EOF