M48
; DRILL file {KiCad 8.0.4} date 2024-09-09T08:47:27-0600
; FORMAT={-:-/ absolute / inch / decimal}
; #@! TF.CreationDate,2024-09-09T08:47:27-06:00
; #@! TF.GenerationSoftware,Kicad,Pcbnew,8.0.4
; #@! TF.FileFunction,Plated,1,2,PTH
FMAT,2
INCH
; #@! TA.AperFunction,Plated,PTH,ComponentDrill
T1C0.0295
; #@! TA.AperFunction,Plated,PTH,ComponentDrill
T2C0.0390
; #@! TA.AperFunction,Plated,PTH,ComponentDrill
T3C0.0430
%
G90
G05
T1
X6.6557Y-6.1674
X6.6598Y-6.0887
T2
X2.5864Y-4.1057
X2.5864Y-4.4057
X2.5864Y-4.8537
X2.5864Y-5.1537
X2.5864Y-5.6018
X2.5864Y-5.9018
X2.5864Y-6.3498
X2.5864Y-6.6498
X3.3344Y-3.8807
X3.3344Y-4.1807
X3.3344Y-4.6287
X3.3344Y-4.9287
X3.3344Y-5.3768
X3.3344Y-5.6768
X3.3344Y-6.1248
X3.3344Y-6.4248
X4.0886Y-6.2534
X4.1043Y-5.9538
X4.1278Y-5.5064
X4.1435Y-5.2068
X4.1669Y-4.7594
X4.1826Y-4.4598
X4.206Y-4.0124
X4.2217Y-3.7128
X4.4351Y-7.1982
X4.4923Y-6.9037
X4.8336Y-6.33
X4.8493Y-6.0304
X4.8728Y-5.583
X4.8885Y-5.2834
X4.9119Y-4.836
X4.9276Y-4.5364
X4.9511Y-4.089
X4.9668Y-3.7894
X5.1693Y-7.3409
X5.2266Y-7.0464
X5.5708Y-6.5564
X5.5865Y-6.2568
X5.61Y-5.8094
X5.6257Y-5.5098
X5.6491Y-5.0624
X5.6648Y-4.7628
X5.6883Y-4.3154
X5.704Y-4.0158
X5.913Y-7.4354
X5.9703Y-7.1409
X6.3158Y-6.6349
X6.3315Y-6.3353
X6.3549Y-5.8878
X6.3706Y-5.5883
X6.3941Y-5.1408
X6.4098Y-4.8412
X6.4332Y-4.3938
X6.4489Y-4.0942
X6.7639Y-7.4007
X6.9486Y-7.1643
X7.0896Y-6.1629
X7.1053Y-5.8633
T3
X6.6176Y-4.9223
X6.6229Y-4.8225
X6.6281Y-4.7226
X6.6333Y-4.6227
X6.6386Y-4.5229
X6.6438Y-4.423
X6.649Y-4.3231
X6.6543Y-4.2233
X6.6595Y-4.1234
X6.6647Y-4.0236
X6.67Y-3.9237
X6.6752Y-3.8238
X6.728Y-4.7278
X6.8278Y-4.7331
X6.9277Y-4.7383
X7.2168Y-4.9537
X7.222Y-4.8539
X7.2273Y-4.754
X7.2325Y-4.6541
X7.2377Y-4.5543
X7.243Y-4.4544
X7.2482Y-4.3545
X7.2534Y-4.2547
X7.2587Y-4.1548
X7.2639Y-4.055
X7.2692Y-3.9551
X7.2744Y-3.8552
M30
