M48
; DRILL file {KiCad 8.0.4} date 2024-09-09T08:47:27-0600
; FORMAT={-:-/ absolute / inch / decimal}
; #@! TF.CreationDate,2024-09-09T08:47:27-06:00
; #@! TF.GenerationSoftware,Kicad,Pcbnew,8.0.4
; #@! TF.FileFunction,NonPlated,1,2,NPTH
FMAT,2
INCH
; #@! TA.AperFunction,NonPlated,NPTH,ComponentDrill
T1C0.0354
; #@! TA.AperFunction,NonPlated,NPTH,ComponentDrill
T2C0.0670
; #@! TA.AperFunction,NonPlated,NPTH,ComponentDrill
T3C0.0945
; #@! TA.AperFunction,NonPlated,NPTH,ComponentDrill
T4C0.1181
; #@! TA.AperFunction,NonPlated,NPTH,ComponentDrill
T5C0.1570
%
G90
G05
T1
X7.2457Y-6.4825
X7.2662Y-6.5988
T2
X2.0714Y-4.1179
X2.0714Y-4.8659
X2.0714Y-5.614
X2.0714Y-6.362
X2.4714Y-4.1179
X2.4714Y-4.8659
X2.4714Y-5.614
X2.4714Y-6.362
X2.8194Y-3.8929
X2.8194Y-4.6409
X2.8194Y-5.389
X2.8194Y-6.137
X3.2194Y-3.8929
X3.2194Y-4.6409
X3.2194Y-5.389
X3.2194Y-6.137
X3.5894Y-5.939
X3.6286Y-5.192
X3.6677Y-4.445
X3.7069Y-3.698
X3.9845Y-6.8174
X3.9889Y-5.96
X4.028Y-5.213
X4.0672Y-4.466
X4.1063Y-3.719
X4.3345Y-6.0156
X4.3736Y-5.2686
X4.3771Y-6.8938
X4.4128Y-4.5216
X4.4519Y-3.7746
X4.7188Y-6.9602
X4.7339Y-6.0366
X4.7731Y-5.2896
X4.8122Y-4.5426
X4.8514Y-3.7956
X5.0716Y-6.242
X5.1108Y-5.495
X5.1114Y-7.0365
X5.1499Y-4.748
X5.1891Y-4.001
X5.4624Y-7.0546
X5.4711Y-6.263
X5.5102Y-5.516
X5.5494Y-4.769
X5.5885Y-4.022
X5.8166Y-6.3205
X5.8551Y-7.1309
X5.8557Y-5.5735
X5.8949Y-4.8265
X5.934Y-4.0795
X6.216Y-6.3414
X6.2552Y-5.5944
X6.2943Y-4.8474
X6.3335Y-4.1004
X6.5353Y-6.8569
X6.5904Y-5.8485
X6.8505Y-7.1032
X6.9898Y-5.8695
T3
X2.3502Y-3.6642
X2.3502Y-6.8158
X4.2203Y-4.8693
X6.3155Y-7.3924
X6.9676Y-3.976
T4
X2.1214Y-4.0179
X2.1214Y-4.7659
X2.1214Y-5.514
X2.1214Y-6.262
X2.3714Y-3.9179
X2.3714Y-4.6659
X2.3714Y-5.414
X2.3714Y-6.162
X2.8694Y-3.7929
X2.8694Y-4.5409
X2.8694Y-5.289
X2.8694Y-6.037
X3.1194Y-3.6929
X3.1194Y-4.4409
X3.1194Y-5.189
X3.1194Y-5.937
X3.6446Y-5.8418
X3.6837Y-5.0948
X3.7229Y-4.3478
X3.762Y-3.6008
X3.8995Y-5.755
X3.9386Y-5.008
X3.9778Y-4.261
X4.0169Y-3.514
X4.0526Y-6.7288
X4.3171Y-6.6783
X4.3896Y-5.9184
X4.4288Y-5.1714
X4.4679Y-4.4244
X4.5071Y-3.6774
X4.6445Y-5.8316
X4.6837Y-5.0846
X4.7228Y-4.3376
X4.762Y-3.5906
X4.7869Y-6.8715
X5.0514Y-6.8211
X5.1268Y-6.1448
X5.166Y-5.3978
X5.2051Y-4.6508
X5.2443Y-3.9038
X5.3817Y-6.058
X5.4209Y-5.311
X5.46Y-4.564
X5.4991Y-3.817
X5.5306Y-6.966
X5.7951Y-6.9155
X5.8718Y-6.2233
X5.9109Y-5.4762
X5.9501Y-4.7292
X5.9892Y-3.9822
X6.1266Y-6.1365
X6.1658Y-5.3895
X6.2049Y-4.6425
X6.2441Y-3.8955
X6.6362Y-6.8089
X6.6455Y-5.7513
X6.8948Y-6.884
X6.9004Y-5.6645
T5
X2.2714Y-4.1179
X2.2714Y-4.8659
X2.2714Y-5.614
X2.2714Y-6.362
X3.0194Y-3.8929
X3.0194Y-4.6409
X3.0194Y-5.389
X3.0194Y-6.137
X3.7891Y-5.9495
X3.8283Y-5.2025
X3.8674Y-4.4555
X3.9066Y-3.7085
X4.1808Y-6.8556
X4.5342Y-6.0261
X4.5733Y-5.2791
X4.6125Y-4.5321
X4.6516Y-3.7851
X4.9151Y-6.9983
X5.2714Y-6.2525
X5.3105Y-5.5055
X5.3497Y-4.7585
X5.3888Y-4.0115
X5.6588Y-7.0927
X6.0163Y-6.331
X6.0555Y-5.584
X6.0946Y-4.837
X6.1338Y-4.0899
X6.6929Y-6.98
X6.7901Y-5.859
M30
