M48
; DRILL file {KiCad 8.0.4} date 2024-09-09T08:48:08-0600
; FORMAT={-:-/ absolute / inch / decimal}
; #@! TF.CreationDate,2024-09-09T08:48:08-06:00
; #@! TF.GenerationSoftware,Kicad,Pcbnew,8.0.4
; #@! TF.FileFunction,Plated,1,2,PTH
FMAT,2
INCH
; #@! TA.AperFunction,Plated,PTH,ViaDrill
T1C0.0157
; #@! TA.AperFunction,Plated,PTH,ComponentDrill
T2C0.0295
; #@! TA.AperFunction,Plated,PTH,ComponentDrill
T3C0.0390
; #@! TA.AperFunction,Plated,PTH,ComponentDrill
T4C0.0430
%
G90
G05
T1
X10.1081Y-6.6826
T2
X10.5114Y-6.2026
X10.5155Y-6.2812
T3
X10.6949Y-5.9442
X10.7106Y-6.2438
X10.719Y-6.8904
X10.9037Y-7.1268
X11.3513Y-4.1752
X11.367Y-4.4748
X11.3904Y-4.9222
X11.4061Y-5.2218
X11.4296Y-5.6692
X11.4453Y-5.9688
X11.4687Y-6.4162
X11.4844Y-6.7158
X11.8192Y-7.1346
X11.8765Y-7.429
X12.0962Y-4.0967
X12.1119Y-4.3963
X12.1354Y-4.8437
X12.1511Y-5.1433
X12.1745Y-5.5907
X12.1902Y-5.8903
X12.2137Y-6.3377
X12.2294Y-6.6373
X12.5629Y-7.0401
X12.6202Y-7.3346
X12.8334Y-3.8703
X12.8491Y-4.1699
X12.8726Y-4.6173
X12.8883Y-4.9169
X12.9117Y-5.3643
X12.9274Y-5.6639
X12.9509Y-6.1113
X12.9666Y-6.4109
X13.2972Y-6.8974
X13.3544Y-7.1919
X13.5785Y-3.7937
X13.5942Y-4.0933
X13.6176Y-4.5407
X13.6333Y-4.8403
X13.6568Y-5.2877
X13.6725Y-5.5873
X13.6959Y-6.0347
X13.7116Y-6.3343
X14.4667Y-3.9946
X14.4667Y-4.2946
X14.4667Y-4.7426
X14.4667Y-5.0426
X14.4667Y-5.4907
X14.4667Y-5.7907
X14.4667Y-6.2387
X14.4667Y-6.5387
X15.2147Y-4.2196
X15.2147Y-4.5196
X15.2147Y-4.9676
X15.2147Y-5.2676
X15.2147Y-5.7157
X15.2147Y-6.0157
X15.2147Y-6.4637
X15.2147Y-6.7637
T4
X9.8968Y-3.9691
X9.902Y-4.069
X9.9072Y-4.1688
X9.9125Y-4.2687
X9.9177Y-4.3686
X9.9229Y-4.4684
X9.9282Y-4.5683
X9.9334Y-4.6682
X9.9386Y-4.768
X9.9439Y-4.8679
X9.9491Y-4.9677
X9.9543Y-5.0676
X10.0437Y-4.8626
X10.1436Y-4.8574
X10.2435Y-4.8522
X10.496Y-3.9377
X10.5012Y-4.0376
X10.5064Y-4.1374
X10.5117Y-4.2373
X10.5169Y-4.3372
X10.5221Y-4.437
X10.5274Y-4.5369
X10.5326Y-4.6368
X10.5378Y-4.7366
X10.5431Y-4.8365
X10.5483Y-4.9363
X10.5535Y-5.0362
M30
