M48
; DRILL file {KiCad 8.0.4} date 2024-09-09T08:48:08-0600
; FORMAT={-:-/ absolute / inch / decimal}
; #@! TF.CreationDate,2024-09-09T08:48:08-06:00
; #@! TF.GenerationSoftware,Kicad,Pcbnew,8.0.4
; #@! TF.FileFunction,NonPlated,1,2,NPTH
FMAT,2
INCH
; #@! TA.AperFunction,NonPlated,NPTH,ComponentDrill
T1C0.0354
; #@! TA.AperFunction,NonPlated,NPTH,ComponentDrill
T2C0.0670
; #@! TA.AperFunction,NonPlated,NPTH,ComponentDrill
T3C0.0945
; #@! TA.AperFunction,NonPlated,NPTH,ComponentDrill
T4C0.1181
; #@! TA.AperFunction,NonPlated,NPTH,ComponentDrill
T5C0.1570
%
G90
G05
T1
X9.9049Y-6.7127
X9.9255Y-6.5964
T2
X10.1813Y-5.9834
X10.3207Y-7.2171
X10.5808Y-5.9624
X10.6359Y-6.9708
X10.8377Y-4.2143
X10.8768Y-4.9613
X10.916Y-5.7083
X10.9551Y-6.4553
X11.2371Y-4.1934
X11.2763Y-4.9404
X11.3154Y-5.6874
X11.3161Y-7.2448
X11.3546Y-6.4344
X11.5826Y-4.1358
X11.6218Y-4.8828
X11.6609Y-5.6299
X11.7001Y-6.3769
X11.7087Y-7.1685
X11.9821Y-4.1149
X12.0212Y-4.8619
X12.0597Y-7.1504
X12.0604Y-5.6089
X12.0995Y-6.3559
X12.3198Y-3.9094
X12.359Y-4.6565
X12.3981Y-5.4035
X12.4373Y-6.1505
X12.4524Y-7.0741
X12.7193Y-3.8885
X12.7584Y-4.6355
X12.794Y-7.0076
X12.7976Y-5.3825
X12.8367Y-6.1295
X13.0649Y-3.8328
X13.104Y-4.5799
X13.1432Y-5.3269
X13.1823Y-6.0739
X13.1867Y-6.9313
X13.4643Y-3.8119
X13.5035Y-4.5589
X13.5426Y-5.3059
X13.5818Y-6.0529
X13.9517Y-4.0068
X13.9517Y-4.7548
X13.9517Y-5.5029
X13.9517Y-6.2509
X14.3517Y-4.0068
X14.3517Y-4.7548
X14.3517Y-5.5029
X14.3517Y-6.2509
X14.6997Y-4.2318
X14.6997Y-4.9798
X14.6997Y-5.7279
X14.6997Y-6.4759
X15.0997Y-4.2318
X15.0997Y-4.9798
X15.0997Y-5.7279
X15.0997Y-6.4759
T3
X10.2035Y-4.0898
X10.8557Y-7.5063
X12.9509Y-4.9832
X14.821Y-3.7781
X14.821Y-6.9296
T4
X10.226Y-5.8809
X10.2985Y-7.1075
X10.434Y-6.8748
X10.4704Y-5.7679
X10.8824Y-4.1118
X10.9215Y-4.8588
X10.9607Y-5.6058
X10.9998Y-6.3528
X11.1268Y-3.9989
X11.1659Y-4.7459
X11.2051Y-5.4929
X11.2442Y-6.2399
X11.3461Y-7.1371
X11.5724Y-6.9912
X11.6273Y-4.0334
X11.6665Y-4.7804
X11.7056Y-5.5274
X11.7448Y-6.2744
X11.8717Y-3.9204
X11.9109Y-4.6674
X11.95Y-5.4144
X11.9892Y-6.1614
X12.0897Y-7.0427
X12.3161Y-6.8968
X12.3645Y-3.807
X12.4037Y-4.554
X12.4428Y-5.301
X12.482Y-6.048
X12.6089Y-3.694
X12.6481Y-4.441
X12.6872Y-5.188
X12.7264Y-5.935
X12.824Y-6.8999
X13.0504Y-6.7541
X13.1096Y-3.7304
X13.1487Y-4.4774
X13.1878Y-5.2244
X13.227Y-5.9714
X13.354Y-3.6174
X13.3931Y-4.3644
X13.4323Y-5.1114
X13.4714Y-5.8584
X14.0017Y-3.9068
X14.0017Y-4.6548
X14.0017Y-5.4029
X14.0017Y-6.1509
X14.2517Y-3.8068
X14.2517Y-4.5548
X14.2517Y-5.3029
X14.2517Y-6.0509
X14.7497Y-4.1318
X14.7497Y-4.8798
X14.7497Y-5.6279
X14.7497Y-6.3759
X14.9997Y-4.0318
X14.9997Y-4.7798
X14.9997Y-5.5279
X14.9997Y-6.2759
T5
X10.3811Y-5.9729
X10.4783Y-7.0939
X11.0374Y-4.2038
X11.0765Y-4.9508
X11.1157Y-5.6978
X11.1548Y-6.4449
X11.5124Y-7.2066
X11.7823Y-4.1254
X11.8215Y-4.8724
X11.8606Y-5.6194
X11.8998Y-6.3664
X12.2561Y-7.1122
X12.5195Y-3.899
X12.5587Y-4.646
X12.5978Y-5.393
X12.637Y-6.14
X12.9904Y-6.9695
X13.2646Y-3.8224
X13.3037Y-4.5694
X13.3429Y-5.3164
X13.382Y-6.0634
X14.1517Y-4.0068
X14.1517Y-4.7548
X14.1517Y-5.5029
X14.1517Y-6.2509
X14.8997Y-4.2318
X14.8997Y-4.9798
X14.8997Y-5.7279
X14.8997Y-6.4759
M30
