0
SECTION
2
HEADER
9
$INSUNITS
70
4
0
ENDSEC
0
SECTION
2
TABLES
0
TABLE
2
LTYPE
0
LTYPE
72
65
70
64
2
CONTINUOUS
3
______
73
0
40
0
0
ENDTAB
0
TABLE
2
LAYER
0
ENDTAB
0
ENDSEC
0
SECTION
2
ENTITIES
0
LINE
8
0
10
296.6321942
20
-9.9176736
11
296.6321942
21
67.0380634
0
LINE
8
0
10
295.208277
20
68.9532993
11
277.6925784
21
74.2218371
0
LINE
8
0
10
277.570786
20
74.254323
11
255.3285855
21
79.4421365
0
LINE
8
0
10
254.7244205
20
79.4887912
11
213.3108047
21
76.3766161
0
LINE
8
0
10
212.8735423
20
76.2941157
11
194.5479302
21
70.6663227
0
LINE
8
0
10
194.1702941
20
70.5892016
11
175.4935259
21
68.6219797
0
LINE
8
0
10
175.3886971
20
68.6137177
11
156.0071088
21
67.5979717
0
LINE
8
0
10
154.1153134
20
65.4818946
11
157.9654699
21
0.7887568
0
LINE
8
0
10
157.9403715
20
0.332738
11
156.0610596
21
-10.654238
0
LINE
8
0
10
156.4564071
20
-12.2227617
11
172.5108362
21
-32.7714939
0
LINE
8
0
10
174.2658556
20
-33.5321448
11
190.4227323
21
-32.0802961
0
LINE
8
0
10
190.5850833
20
-32.0589773
11
250.6265129
21
-21.658847
0
LINE
8
0
10
250.7154829
20
-21.6413499
11
295.062513
21
-11.8708315
0
ARC
8
0
10
294.6321942
20
67.0380634
40
2
50
0
51
73.2592669
0
ARC
8
0
10
277.1164956
20
72.3066012
40
2
50
73.2592669
51
76.8709442
0
ARC
8
0
10
254.8742951
20
77.4944147
40
2
50
76.8709442
51
94.2976199
0
ARC
8
0
10
213.4606793
20
74.3822396
40
2
50
94.2976199
51
107.0717172
0
ARC
8
0
10
193.9607933
20
72.5781987
40
2
50
276.0127865
51
287.0717172
0
ARC
8
0
10
175.2840251
20
70.6109768
40
2
50
273.0000026
51
276.0127865
0
ARC
8
0
10
156.1117808
20
65.6007126
40
2
50
93.0000026
51
183.4058905
0
ARC
8
0
10
155.9690025
20
0.6699388
40
2
50
350.2935468
51
3.4058905
0
ARC
8
0
10
158.0324286
20
-10.9914388
40
2
50
170.2935468
51
217.9999995
0
ARC
8
0
10
174.0868578
20
-31.540171
40
2
50
217.9999995
51
275.1347799
0
ARC
8
0
10
190.2437345
20
-30.0883223
40
2
50
275.1347799
51
279.8270322
0
ARC
8
0
10
250.2851641
20
-19.688192
40
2
50
279.8270322
51
282.4248797
0
ARC
8
0
10
294.6321942
20
-9.9176736
40
2
50
282.4248797
51
0
0
LINE
8
0
10
278.6071942
20
-7
11
291.6071942
21
-7
0
LINE
8
0
10
292.1071942
20
-6.5
11
292.1071942
21
6.5
0
LINE
8
0
10
291.6071942
20
7
11
278.6071942
21
7
0
LINE
8
0
10
278.1071942
20
6.5
11
278.1071942
21
-6.5
0
LINE
8
0
10
278.6071942
20
12
11
291.6071942
21
12
0
LINE
8
0
10
292.1071942
20
12.5
11
292.1071942
21
25.5
0
LINE
8
0
10
291.6071942
20
26
11
278.6071942
21
26
0
LINE
8
0
10
278.1071942
20
25.5
11
278.1071942
21
12.5
0
LINE
8
0
10
278.6071942
20
31
11
291.6071942
21
31
0
LINE
8
0
10
292.1071942
20
31.5
11
292.1071942
21
44.5
0
LINE
8
0
10
291.6071942
20
45
11
278.6071942
21
45
0
LINE
8
0
10
278.1071942
20
44.5
11
278.1071942
21
31.5
0
LINE
8
0
10
278.6071942
20
50
11
291.6071942
21
50
0
LINE
8
0
10
292.1071942
20
50.5
11
292.1071942
21
63.5
0
LINE
8
0
10
291.6071942
20
64
11
278.6071942
21
64
0
LINE
8
0
10
278.1071942
20
63.5
11
278.1071942
21
50.5
0
LINE
8
0
10
259.6071942
20
-1.285
11
272.6071942
21
-1.285
0
LINE
8
0
10
273.1071942
20
-0.785
11
273.1071942
21
12.215
0
LINE
8
0
10
272.6071942
20
12.715
11
259.6071942
21
12.715
0
LINE
8
0
10
259.1071942
20
12.215
11
259.1071942
21
-0.785
0
LINE
8
0
10
259.6071942
20
17.715
11
272.6071942
21
17.715
0
LINE
8
0
10
273.1071942
20
18.215
11
273.1071942
21
31.215
0
LINE
8
0
10
272.6071942
20
31.715
11
259.6071942
21
31.715
0
LINE
8
0
10
259.1071942
20
31.215
11
259.1071942
21
18.215
0
LINE
8
0
10
259.6071942
20
36.715
11
272.6071942
21
36.715
0
LINE
8
0
10
273.1071942
20
37.215
11
273.1071942
21
50.215
0
LINE
8
0
10
272.6071942
20
50.715
11
259.6071942
21
50.715
0
LINE
8
0
10
259.1071942
20
50.215
11
259.1071942
21
37.215
0
LINE
8
0
10
259.6071942
20
55.715
11
272.6071942
21
55.715
0
LINE
8
0
10
273.1071942
20
56.215
11
273.1071942
21
69.215
0
LINE
8
0
10
272.6071942
20
69.715
11
259.6071942
21
69.715
0
LINE
8
0
10
259.1071942
20
69.215
11
259.1071942
21
56.215
0
LINE
8
0
10
240.982454
20
3.1469096
11
253.9646378
21
3.827277
0
LINE
8
0
10
254.4377846
20
4.3527598
11
253.7574172
21
17.3349436
0
LINE
8
0
10
253.2319344
20
17.8080904
11
240.2497506
21
17.127723
0
LINE
8
0
10
239.7766038
20
16.6022402
11
240.4569712
21
3.6200564
0
LINE
8
0
10
239.9880708
20
22.1208708
11
252.9702546
21
22.8012382
0
LINE
8
0
10
253.4434014
20
23.326721
11
252.763034
21
36.3089048
0
LINE
8
0
10
252.2375512
20
36.7820516
11
239.2553674
21
36.1016842
0
LINE
8
0
10
238.7822206
20
35.5762014
11
239.462588
21
22.5940176
0
LINE
8
0
10
238.9936876
20
41.094832
11
251.9758714
21
41.7751994
0
LINE
8
0
10
252.4490182
20
42.3006822
11
251.7686508
21
55.282866
0
LINE
8
0
10
251.243168
20
55.7560128
11
238.2609842
21
55.0756454
0
LINE
8
0
10
237.7878374
20
54.5501626
11
238.4682048
21
41.5679788
0
LINE
8
0
10
237.9993044
20
60.0687932
11
250.9814882
21
60.7491606
0
LINE
8
0
10
251.454635
20
61.2746434
11
250.7742676
21
74.2568272
0
LINE
8
0
10
250.2487848
20
74.729974
11
237.266601
21
74.0496066
0
LINE
8
0
10
236.7934542
20
73.5241238
11
237.4738216
21
60.54194
0
LINE
8
0
10
222.0583428
20
1.2013318
11
235.0405266
21
1.8816992
0
LINE
8
0
10
235.5136734
20
2.407182
11
234.833306
21
15.3893658
0
LINE
8
0
10
234.3078232
20
15.8625126
11
221.3256394
21
15.1821452
0
LINE
8
0
10
220.8524926
20
14.6566624
11
221.53286
21
1.6744786
0
LINE
8
0
10
221.0639596
20
20.175293
11
234.0461434
21
20.8556604
0
LINE
8
0
10
234.5192902
20
21.3811432
11
233.8389228
21
34.363327
0
LINE
8
0
10
233.31344
20
34.8364738
11
220.3312562
21
34.1561064
0
LINE
8
0
10
219.8581094
20
33.6306236
11
220.5384768
21
20.6484398
0
LINE
8
0
10
220.0695764
20
39.1492542
11
233.0517602
21
39.8296216
0
LINE
8
0
10
233.524907
20
40.3551044
11
232.8445396
21
53.3372882
0
LINE
8
0
10
232.3190568
20
53.810435
11
219.336873
21
53.1300676
0
LINE
8
0
10
218.8637262
20
52.6045848
11
219.5440936
21
39.622401
0
LINE
8
0
10
219.0751932
20
58.1232154
11
232.057377
21
58.8035828
0
LINE
8
0
10
232.5305238
20
59.3290656
11
231.8501564
21
72.3112494
0
LINE
8
0
10
231.3246736
20
72.7843962
11
218.3424898
21
72.1040288
0
LINE
8
0
10
217.869343
20
71.578546
11
218.5497104
21
58.5963622
0
LINE
8
0
10
203.3336317
20
-4.5490245
11
216.3158155
21
-3.8686571
0
LINE
8
0
10
216.7889623
20
-3.3431743
11
216.1085949
21
9.6390095
0
LINE
8
0
10
215.5831121
20
10.1121563
11
202.6009283
21
9.4317889
0
LINE
8
0
10
202.1277815
20
8.9063061
11
202.8081489
21
-4.0758777
0
LINE
8
0
10
202.3392485
20
14.4249367
11
215.3214323
21
15.1053041
0
LINE
8
0
10
215.7945791
20
15.6307869
11
215.1142117
21
28.6129707
0
LINE
8
0
10
214.5887289
20
29.0861175
11
201.6065451
21
28.4057501
0
LINE
8
0
10
201.1333983
20
27.8802673
11
201.8137657
21
14.8980835
0
LINE
8
0
10
201.3448653
20
33.3988979
11
214.3270491
21
34.0792653
0
LINE
8
0
10
214.8001959
20
34.6047481
11
214.1198285
21
47.5869319
0
LINE
8
0
10
213.5943457
20
48.0600787
11
200.6121619
21
47.3797113
0
LINE
8
0
10
200.1390151
20
46.8542285
11
200.8193825
21
33.8720447
0
LINE
8
0
10
200.3504821
20
52.3728591
11
213.3326659
21
53.0532265
0
LINE
8
0
10
213.8058127
20
53.5787093
11
213.1254453
21
66.5608931
0
LINE
8
0
10
212.5999625
20
67.0340399
11
199.6177787
21
66.3536725
0
LINE
8
0
10
199.1446319
20
65.8281897
11
199.8249993
21
52.8460059
0
LINE
8
0
10
184.4120065
20
-6.5420372
11
197.3941903
21
-5.8616698
0
LINE
8
0
10
197.8673371
20
-5.336187
11
197.1869697
21
7.6459968
0
LINE
8
0
10
196.6614869
20
8.1191436
11
183.6793031
21
7.4387762
0
LINE
8
0
10
183.2061563
20
6.9132934
11
183.8865237
21
-6.0688904
0
LINE
8
0
10
183.4176233
20
12.431924
11
196.3998071
21
13.1122914
0
LINE
8
0
10
196.8729539
20
13.6377742
11
196.1925865
21
26.619958
0
LINE
8
0
10
195.6671037
20
27.0931048
11
182.6849199
21
26.4127374
0
LINE
8
0
10
182.2117731
20
25.8872546
11
182.8921405
21
12.9050708
0
LINE
8
0
10
182.4232401
20
31.4058852
11
195.4054239
21
32.0862526
0
LINE
8
0
10
195.8785707
20
32.6117354
11
195.1982033
21
45.5939192
0
LINE
8
0
10
194.6727205
20
46.067066
11
181.6905367
21
45.3866986
0
LINE
8
0
10
181.2173899
20
44.8612158
11
181.8977573
21
31.879032
0
LINE
8
0
10
181.4288569
20
50.3798464
11
194.4110407
21
51.0602138
0
LINE
8
0
10
194.8841875
20
51.5856966
11
194.2038201
21
64.5678804
0
LINE
8
0
10
193.6783373
20
65.0410272
11
180.6961535
21
64.3606598
0
LINE
8
0
10
180.2230067
20
63.835177
11
180.9033741
21
50.8529932
0
LINE
8
0
10
232.1139556
20
-20.6485763
11
244.875109
21
-18.1680593
0
LINE
8
0
10
245.2705181
20
-17.5818412
11
242.7900011
21
-4.8206878
0
LINE
8
0
10
242.203783
20
-4.4252787
11
229.4426296
21
-6.9057957
0
LINE
8
0
10
229.0472205
20
-7.4920138
11
231.5277375
21
-20.2531672
0
LINE
8
0
10
213.4630391
20
-24.2739472
11
226.2241925
21
-21.7934302
0
LINE
8
0
10
226.6196016
20
-21.2072121
11
224.1390846
21
-8.4460587
0
LINE
8
0
10
223.5528665
20
-8.0506496
11
210.7917131
21
-10.5311666
0
LINE
8
0
10
210.396304
20
-11.1173847
11
212.876821
21
-23.8785381
0
LINE
8
0
10
194.5736114
20
-26.6722842
11
207.3347648
21
-24.1917672
0
LINE
8
0
10
207.7301739
20
-23.6055491
11
205.2496569
21
-10.8443957
0
LINE
8
0
10
204.6634388
20
-10.4489866
11
191.9022854
21
-12.9295036
0
LINE
8
0
10
191.5068763
20
-13.5157217
11
193.9873933
21
-26.2768751
0
LINE
8
0
10
172.5401949
20
-25.2156125
11
182.7843346
21
-17.2120132
0
LINE
8
0
10
182.8705093
20
-16.5101771
11
174.86691
21
-6.2660374
0
LINE
8
0
10
174.1650739
20
-6.1798627
11
163.9209342
21
-14.183462
0
LINE
8
0
10
163.8347595
20
-14.8852981
11
171.8383588
21
-25.1294378
0
LINE
8
0
10
164.7576779
20
5.4457636
11
177.7398617
21
6.126131
0
LINE
8
0
10
178.2130085
20
6.6516138
11
177.5326411
21
19.6337976
0
LINE
8
0
10
177.0071583
20
20.1069444
11
164.0249745
21
19.426577
0
LINE
8
0
10
163.5518277
20
18.9010942
11
164.2321951
21
5.9189104
0
ARC
8
0
10
244.7797045
20
-17.6772457
40
0.5
50
281.0000001
51
11.0000001
0
ARC
8
0
10
242.2991875
20
-4.9160923
40
0.5
50
11.0000001
51
101.0000001
0
ARC
8
0
10
229.5380341
20
-7.3966093
40
0.5
50
101.0000001
51
191.0000001
0
ARC
8
0
10
232.0185511
20
-20.1577627
40
0.5
50
191.0000001
51
281.0000001
0
ARC
8
0
10
226.128788
20
-21.3026166
40
0.5
50
281.0000001
51
11.0000001
0
ARC
8
0
10
223.648271
20
-8.5414632
40
0.5
50
11.0000001
51
101.0000001
0
ARC
8
0
10
210.8871176
20
-11.0219802
40
0.5
50
101.0000001
51
191.0000001
0
ARC
8
0
10
213.3676346
20
-23.7831336
40
0.5
50
191.0000001
51
281.0000001
0
ARC
8
0
10
207.2393603
20
-23.7009536
40
0.5
50
281.0000001
51
11.0000001
0
ARC
8
0
10
204.7588433
20
-10.9398002
40
0.5
50
11.0000001
51
101.0000001
0
ARC
8
0
10
191.9976899
20
-13.4203172
40
0.5
50
101.0000001
51
191.0000001
0
ARC
8
0
10
194.4782069
20
-26.1814706
40
0.5
50
191.0000001
51
281.0000001
0
ARC
8
0
10
291.6071942
20
-6.5
40
0.5
50
270
51
0
0
ARC
8
0
10
291.6071942
20
6.5
40
0.5
50
0
51
90
0
ARC
8
0
10
278.6071942
20
6.5
40
0.5
50
90
51
180
0
ARC
8
0
10
278.6071942
20
-6.5
40
0.5
50
180
51
270
0
ARC
8
0
10
291.6071942
20
12.5
40
0.5
50
270
51
0
0
ARC
8
0
10
291.6071942
20
25.5
40
0.5
50
0
51
90
0
ARC
8
0
10
278.6071942
20
25.5
40
0.5
50
90
51
180
0
ARC
8
0
10
278.6071942
20
12.5
40
0.5
50
180
51
270
0
ARC
8
0
10
291.6071942
20
31.5
40
0.5
50
270
51
0
0
ARC
8
0
10
291.6071942
20
44.5
40
0.5
50
0
51
90
0
ARC
8
0
10
278.6071942
20
44.5
40
0.5
50
90
51
180
0
ARC
8
0
10
278.6071942
20
31.5
40
0.5
50
180
51
270
0
ARC
8
0
10
291.6071942
20
50.5
40
0.5
50
270
51
0
0
ARC
8
0
10
291.6071942
20
63.5
40
0.5
50
0
51
90
0
ARC
8
0
10
278.6071942
20
63.5
40
0.5
50
90
51
180
0
ARC
8
0
10
278.6071942
20
50.5
40
0.5
50
180
51
270
0
ARC
8
0
10
272.6071942
20
-0.785
40
0.5
50
270
51
0
0
ARC
8
0
10
272.6071942
20
12.215
40
0.5
50
0
51
90
0
ARC
8
0
10
259.6071942
20
12.215
40
0.5
50
90
51
180
0
ARC
8
0
10
259.6071942
20
-0.785
40
0.5
50
180
51
270
0
ARC
8
0
10
272.6071942
20
18.215
40
0.5
50
270
51
0
0
ARC
8
0
10
272.6071942
20
31.215
40
0.5
50
0
51
90
0
ARC
8
0
10
259.6071942
20
31.215
40
0.5
50
90
51
180
0
ARC
8
0
10
259.6071942
20
18.215
40
0.5
50
180
51
270
0
ARC
8
0
10
272.6071942
20
37.215
40
0.5
50
270
51
0
0
ARC
8
0
10
272.6071942
20
50.215
40
0.5
50
0
51
90
0
ARC
8
0
10
259.6071942
20
50.215
40
0.5
50
90
51
180
0
ARC
8
0
10
259.6071942
20
37.215
40
0.5
50
180
51
270
0
ARC
8
0
10
272.6071942
20
56.215
40
0.5
50
270
51
0
0
ARC
8
0
10
272.6071942
20
69.215
40
0.5
50
0
51
90
0
ARC
8
0
10
259.6071942
20
69.215
40
0.5
50
90
51
180
0
ARC
8
0
10
259.6071942
20
56.215
40
0.5
50
180
51
270
0
ARC
8
0
10
182.4765039
20
-16.8180079
40
0.5
50
307.9999995
51
37.9999995
0
ARC
8
0
10
174.4729047
20
-6.5738681
40
0.5
50
37.9999995
51
127.9999995
0
ARC
8
0
10
164.2287649
20
-14.5774673
40
0.5
50
127.9999995
51
217.9999995
0
ARC
8
0
10
172.2323641
20
-24.8216071
40
0.5
50
217.9999995
51
307.9999995
0
ARC
8
0
10
252.9440866
20
23.300553
40
0.5
50
273.0000026
51
3.0000026
0
ARC
8
0
10
252.2637192
20
36.2827368
40
0.5
50
3.0000026
51
93.0000026
0
ARC
8
0
10
239.2815354
20
35.6023694
40
0.5
50
93.0000026
51
183.0000026
0
ARC
8
0
10
239.9619028
20
22.6201856
40
0.5
50
183.0000026
51
273.0000026
0
ARC
8
0
10
251.9497034
20
42.2745142
40
0.5
50
273.0000026
51
3.0000026
0
ARC
8
0
10
251.269336
20
55.256698
40
0.5
50
3.0000026
51
93.0000026
0
ARC
8
0
10
238.2871522
20
54.5763306
40
0.5
50
93.0000026
51
183.0000026
0
ARC
8
0
10
238.9675196
20
41.5941468
40
0.5
50
183.0000026
51
273.0000026
0
ARC
8
0
10
250.9553202
20
61.2484754
40
0.5
50
273.0000026
51
3.0000026
0
ARC
8
0
10
250.2749528
20
74.2306592
40
0.5
50
3.0000026
51
93.0000026
0
ARC
8
0
10
237.292769
20
73.5502918
40
0.5
50
93.0000026
51
183.0000026
0
ARC
8
0
10
237.9731364
20
60.568108
40
0.5
50
183.0000026
51
273.0000026
0
ARC
8
0
10
233.0255922
20
40.3289364
40
0.5
50
273.0000026
51
3.0000026
0
ARC
8
0
10
232.3452248
20
53.3111202
40
0.5
50
3.0000026
51
93.0000026
0
ARC
8
0
10
219.363041
20
52.6307528
40
0.5
50
93.0000026
51
183.0000026
0
ARC
8
0
10
220.0434084
20
39.648569
40
0.5
50
183.0000026
51
273.0000026
0
ARC
8
0
10
232.031209
20
59.3028976
40
0.5
50
273.0000026
51
3.0000026
0
ARC
8
0
10
231.3508416
20
72.2850814
40
0.5
50
3.0000026
51
93.0000026
0
ARC
8
0
10
218.3686578
20
71.604714
40
0.5
50
93.0000026
51
183.0000026
0
ARC
8
0
10
219.0490252
20
58.6225302
40
0.5
50
183.0000026
51
273.0000026
0
ARC
8
0
10
214.3008811
20
34.5785801
40
0.5
50
273.0000026
51
3.0000026
0
ARC
8
0
10
213.6205137
20
47.5607639
40
0.5
50
3.0000026
51
93.0000026
0
ARC
8
0
10
200.6383299
20
46.8803965
40
0.5
50
93.0000026
51
183.0000026
0
ARC
8
0
10
201.3186973
20
33.8982127
40
0.5
50
183.0000026
51
273.0000026
0
ARC
8
0
10
213.3064979
20
53.5525413
40
0.5
50
273.0000026
51
3.0000026
0
ARC
8
0
10
212.6261305
20
66.5347251
40
0.5
50
3.0000026
51
93.0000026
0
ARC
8
0
10
199.6439467
20
65.8543577
40
0.5
50
93.0000026
51
183.0000026
0
ARC
8
0
10
200.3243141
20
52.8721739
40
0.5
50
183.0000026
51
273.0000026
0
ARC
8
0
10
194.3848727
20
51.5595286
40
0.5
50
273.0000026
51
3.0000026
0
ARC
8
0
10
193.7045053
20
64.5417124
40
0.5
50
3.0000026
51
93.0000026
0
ARC
8
0
10
180.7223215
20
63.861345
40
0.5
50
93.0000026
51
183.0000026
0
ARC
8
0
10
181.4026889
20
50.8791612
40
0.5
50
183.0000026
51
273.0000026
0
ARC
8
0
10
177.7136937
20
6.6254458
40
0.5
50
273.0000026
51
3.0000026
0
ARC
8
0
10
177.0333263
20
19.6076296
40
0.5
50
3.0000026
51
93.0000026
0
ARC
8
0
10
164.0511425
20
18.9272622
40
0.5
50
93.0000026
51
183.0000026
0
ARC
8
0
10
164.7315099
20
5.9450784
40
0.5
50
183.0000026
51
273.0000026
0
ARC
8
0
10
253.9384698
20
4.3265918
40
0.5
50
273.0000026
51
3.0000026
0
ARC
8
0
10
253.2581024
20
17.3087756
40
0.5
50
3.0000026
51
93.0000026
0
ARC
8
0
10
240.2759186
20
16.6284082
40
0.5
50
93.0000026
51
183.0000026
0
ARC
8
0
10
240.956286
20
3.6462244
40
0.5
50
183.0000026
51
273.0000026
0
ARC
8
0
10
235.0143586
20
2.381014
40
0.5
50
273.0000026
51
3.0000026
0
ARC
8
0
10
234.3339912
20
15.3631978
40
0.5
50
3.0000026
51
93.0000026
0
ARC
8
0
10
221.3518074
20
14.6828304
40
0.5
50
93.0000026
51
183.0000026
0
ARC
8
0
10
222.0321748
20
1.7006466
40
0.5
50
183.0000026
51
273.0000026
0
ARC
8
0
10
234.0199754
20
21.3549752
40
0.5
50
273.0000026
51
3.0000026
0
ARC
8
0
10
233.339608
20
34.337159
40
0.5
50
3.0000026
51
93.0000026
0
ARC
8
0
10
220.3574242
20
33.6567916
40
0.5
50
93.0000026
51
183.0000026
0
ARC
8
0
10
221.0377916
20
20.6746078
40
0.5
50
183.0000026
51
273.0000026
0
ARC
8
0
10
216.2896475
20
-3.3693423
40
0.5
50
273.0000026
51
3.0000026
0
ARC
8
0
10
215.6092801
20
9.6128415
40
0.5
50
3.0000026
51
93.0000026
0
ARC
8
0
10
202.6270963
20
8.9324741
40
0.5
50
93.0000026
51
183.0000026
0
ARC
8
0
10
203.3074637
20
-4.0497097
40
0.5
50
183.0000026
51
273.0000026
0
ARC
8
0
10
215.2952643
20
15.6046189
40
0.5
50
273.0000026
51
3.0000026
0
ARC
8
0
10
214.6148969
20
28.5868027
40
0.5
50
3.0000026
51
93.0000026
0
ARC
8
0
10
201.6327131
20
27.9064353
40
0.5
50
93.0000026
51
183.0000026
0
ARC
8
0
10
202.3130805
20
14.9242515
40
0.5
50
183.0000026
51
273.0000026
0
ARC
8
0
10
197.3680223
20
-5.362355
40
0.5
50
273.0000026
51
3.0000026
0
ARC
8
0
10
196.6876549
20
7.6198288
40
0.5
50
3.0000026
51
93.0000026
0
ARC
8
0
10
183.7054711
20
6.9394614
40
0.5
50
93.0000026
51
183.0000026
0
ARC
8
0
10
184.3858385
20
-6.0427224
40
0.5
50
183.0000026
51
273.0000026
0
ARC
8
0
10
196.3736391
20
13.6116062
40
0.5
50
273.0000026
51
3.0000026
0
ARC
8
0
10
195.6932717
20
26.59379
40
0.5
50
3.0000026
51
93.0000026
0
ARC
8
0
10
182.7110879
20
25.9134226
40
0.5
50
93.0000026
51
183.0000026
0
ARC
8
0
10
183.3914553
20
12.9312388
40
0.5
50
183.0000026
51
273.0000026
0
ARC
8
0
10
195.3792559
20
32.5855674
40
0.5
50
273.0000026
51
3.0000026
0
ARC
8
0
10
194.6988885
20
45.5677512
40
0.5
50
3.0000026
51
93.0000026
0
ARC
8
0
10
181.7167047
20
44.8873838
40
0.5
50
93.0000026
51
183.0000026
0
ARC
8
0
10
182.3970721
20
31.9052
40
0.5
50
183.0000026
51
273.0000026
0
ENDSEC
0
EOF