0
SECTION
2
HEADER
9
$INSUNITS
70
4
0
ENDSEC
0
SECTION
2
TABLES
0
TABLE
2
LTYPE
0
LTYPE
72
65
70
64
2
CONTINUOUS
3
______
73
0
40
0
0
ENDTAB
0
TABLE
2
LAYER
0
ENDTAB
0
ENDSEC
0
SECTION
2
ENTITIES
0
LINE
8
0
10
-9.025
20
-9.525
11
9.025
21
-9.525
0
LINE
8
0
10
9.525
20
-9.025
11
9.525
21
-4.31
0
LINE
8
0
10
-9.525
20
-9.025
11
-9.525
21
66.025
0
LINE
8
0
10
8.975
20
66.525
11
-9.025
21
66.525
0
LINE
8
0
10
10.025
20
-3.81
11
28.025
21
-3.81
0
LINE
8
0
10
28.525
20
-3.31
11
28.525
21
0.9091021
0
LINE
8
0
10
28.525
20
11.6809774
11
28.525
21
71.74
0
LINE
8
0
10
28.025
20
72.24
11
9.975
21
72.24
0
LINE
8
0
10
9.475
20
71.74
11
9.475
21
67.025
0
LINE
8
0
10
29.051168
20
1.4084168
11
46.4642001
21
0.4958385
0
LINE
8
0
10
28.9865537
20
20.4879463
11
28.9839369
21
20.4380149
0
LINE
8
0
10
28.9839369
20
20.4380149
11
28.525
21
11.6809774
0
LINE
8
0
10
29.9809369
20
39.4619075
11
29.9783201
21
39.4119761
0
LINE
8
0
10
29.9783201
20
39.4119761
11
28.9865537
21
20.4879463
0
LINE
8
0
10
30.9753201
20
58.4358687
11
30.9727033
21
58.3859373
0
LINE
8
0
10
30.9727033
20
58.3859373
11
29.9809369
21
39.4619075
0
LINE
8
0
10
50.9699139
20
75.9609501
11
50.9935959
21
76.4128299
0
LINE
8
0
10
50.9935959
20
76.4128299
11
32.4690181
21
77.3836619
0
LINE
8
0
10
31.9435353
20
76.9105151
11
30.9753201
21
58.4358687
0
LINE
8
0
10
46.9136649
20
-0.4815241
11
65.3883112
21
-1.4497393
0
LINE
8
0
10
46.9373469
20
-0.0296443
11
46.9136649
21
-0.4815241
0
LINE
8
0
10
69.6946251
20
70.2105938
11
69.8915391
21
73.9679373
0
LINE
8
0
10
69.4183923
20
74.4934201
11
51.4430607
21
75.4354673
0
LINE
8
0
10
66.1376908
20
-6.2580484
11
84.1130224
21
-7.2000956
0
LINE
8
0
10
65.861458
20
-1.9752221
11
65.664544
21
-5.7325656
0
LINE
8
0
10
88.6162502
20
68.2175811
11
88.6424182
21
68.7168958
0
LINE
8
0
10
88.6424182
20
68.7168958
11
70.1677719
21
69.685111
0
LINE
8
0
10
84.5600012
20
-8.2248931
11
103.084579
21
-9.1957251
0
LINE
8
0
10
103.6100618
20
-8.7225783
11
104.2380933
21
3.2609761
0
LINE
8
0
10
84.5861692
20
-7.7255784
11
84.5600012
21
-8.2248931
0
LINE
8
0
10
105.2874292
20
23.2834983
11
105.5726602
21
28.7260293
0
LINE
8
0
10
105.5726602
20
28.7260293
11
105.575277
21
28.7759607
0
LINE
8
0
10
105.575277
20
28.7759607
11
106.5670434
21
47.6999905
0
LINE
8
0
10
106.5670434
20
47.6999905
11
106.5696602
21
47.7499219
0
LINE
8
0
10
106.5696602
20
47.7499219
11
107.5378754
21
66.2245683
0
LINE
8
0
10
107.0647286
20
66.7500511
11
89.089397
21
67.6920983
0
LINE
8
0
10
37.2716839
20
-20.1648752
11
55.4317868
21
-23.6948416
0
LINE
8
0
10
55.4317868
20
-23.6948416
11
55.4808681
21
-23.7043821
0
LINE
8
0
10
59.1157795
20
-5.0043843
11
59.0666982
21
-4.9948438
0
LINE
8
0
10
59.0666982
20
-4.9948438
11
40.9065953
21
-1.4648774
0
LINE
8
0
10
40.3203772
20
-1.8602865
11
36.8762748
21
-19.5786571
0
LINE
8
0
10
55.4808681
20
-23.7043821
11
73.640971
21
-27.2343485
0
LINE
8
0
10
74.2271891
20
-26.8389394
11
74.2748913
21
-26.5935326
0
LINE
8
0
10
77.2268011
20
-8.5248103
11
59.1157795
21
-5.0043843
0
LINE
8
0
10
74.8611094
20
-26.1981235
11
92.5303987
21
-29.6326855
0
LINE
8
0
10
93.1166168
20
-29.2372764
11
96.5607192
21
-11.5189058
0
LINE
8
0
10
96.1653101
20
-10.9326877
11
78.4469395
21
-7.4885853
0
LINE
8
0
10
77.8607214
20
-7.8839944
11
77.8130192
21
-8.1294012
0
LINE
8
0
10
98.7785872
20
-17.6471952
11
113.0021813
21
-28.7598849
0
LINE
8
0
10
113.7040174
20
-28.6737102
11
124.8167071
21
-14.4501161
0
LINE
8
0
10
124.7305324
20
-13.74828
11
110.5069383
21
-2.6355903
0
LINE
8
0
10
109.8051022
20
-2.721765
11
98.6924125
21
-16.9453591
0
LINE
8
0
10
104.7635761
20
3.7341229
11
122.7389076
21
2.7920757
0
LINE
8
0
10
123.2643904
20
3.2652225
11
124.2090544
21
21.2904855
0
LINE
8
0
10
123.7359076
20
21.8159683
11
105.760576
21
22.7580155
0
LINE
8
0
10
276.0821942
20
-9.525
11
294.1321942
21
-9.525
0
LINE
8
0
10
294.6321942
20
-9.025
11
294.6321942
21
66.025
0
LINE
8
0
10
275.5821942
20
-4.31
11
275.5821942
21
-9.025
0
LINE
8
0
10
294.1321942
20
66.525
11
276.1321942
21
66.525
0
LINE
8
0
10
257.0821942
20
-3.81
11
275.0821942
21
-3.81
0
LINE
8
0
10
256.5821942
20
11.6809774
11
256.5821942
21
71.74
0
LINE
8
0
10
256.5821942
20
0.9091021
11
256.5821942
21
-3.31
0
LINE
8
0
10
275.6321942
20
67.025
11
275.6321942
21
71.74
0
LINE
8
0
10
275.1321942
20
72.24
11
257.0821942
21
72.24
0
LINE
8
0
10
238.1436793
20
0.4696705
11
256.0560262
21
1.4084168
0
LINE
8
0
10
256.5821942
20
11.6809774
11
256.1232573
21
20.4380149
0
LINE
8
0
10
256.1232573
20
20.4380149
11
256.1206405
21
20.4879463
0
LINE
8
0
10
256.1206405
20
20.4879463
11
255.1288741
21
39.4119761
0
LINE
8
0
10
255.1288741
20
39.4119761
11
255.1262573
21
39.4619075
0
LINE
8
0
10
255.1262573
20
39.4619075
11
254.1344909
21
58.3859373
0
LINE
8
0
10
254.1344909
20
58.3859373
11
254.1318741
21
58.4358687
0
LINE
8
0
10
254.1318741
20
58.4358687
11
253.1636589
21
76.9105151
0
LINE
8
0
10
252.6381761
20
77.3836619
11
234.6129131
21
76.4389979
0
LINE
8
0
10
234.1397663
20
75.9135151
11
234.1634483
21
75.4616353
0
LINE
8
0
10
219.718883
20
-1.4497393
11
237.6942145
21
-0.5076921
0
LINE
8
0
10
238.1673613
20
0.0177907
11
238.1436793
21
0.4696705
0
LINE
8
0
10
234.1634483
20
75.4616353
11
215.6888019
21
74.4934201
0
LINE
8
0
10
215.2156551
20
73.9679373
11
215.4125691
21
70.2105938
0
LINE
8
0
10
200.494857
20
-7.2262636
11
218.9695034
21
-6.2580484
0
LINE
8
0
10
219.4426502
20
-5.7325656
11
219.2457362
21
-1.9752221
0
LINE
8
0
10
214.9394223
20
69.685111
11
196.9640908
21
68.7430638
0
LINE
8
0
10
196.490944
20
68.217581
11
196.517112
21
67.7182663
0
LINE
8
0
10
182.0226152
20
-9.1957251
11
200.0478782
21
-8.2510611
0
LINE
8
0
10
200.521025
20
-7.7255783
11
200.494857
21
-7.2262636
0
LINE
8
0
10
180.8691009
20
3.2609761
11
181.4971324
21
-8.7225783
0
LINE
8
0
10
179.5319172
20
28.7759607
11
179.534534
21
28.7260293
0
LINE
8
0
10
179.534534
20
28.7260293
11
179.819765
21
23.2834983
0
LINE
8
0
10
178.537534
20
47.7499219
11
178.5401508
21
47.6999905
0
LINE
8
0
10
178.5401508
20
47.6999905
11
179.5319172
21
28.7759607
0
LINE
8
0
10
196.517112
20
67.7182663
11
178.0424656
21
66.7500511
0
LINE
8
0
10
177.5693188
20
66.2245683
11
178.537534
21
47.7499219
0
LINE
8
0
10
211.4662232
20
-27.2343485
11
247.8355103
21
-20.1648752
0
LINE
8
0
10
248.2309194
20
-19.5786571
11
244.786817
21
-1.8602865
0
LINE
8
0
10
244.2005989
20
-1.4648774
11
226.040496
21
-4.9948438
0
LINE
8
0
10
226.040496
20
-4.9948438
11
225.9914147
21
-5.0043843
0
LINE
8
0
10
225.9914147
20
-5.0043843
11
207.8803931
21
-8.5248103
0
LINE
8
0
10
210.8323029
20
-26.5935326
11
210.8800051
21
-26.8389394
0
LINE
8
0
10
192.5767955
20
-29.6326855
11
210.2460848
21
-26.1981235
0
LINE
8
0
10
207.294175
20
-8.1294012
11
207.2464728
21
-7.8839944
0
LINE
8
0
10
206.6602547
20
-7.4885853
11
188.9418841
21
-10.9326877
0
LINE
8
0
10
188.546475
20
-11.5189058
11
191.9905774
21
-29.2372764
0
LINE
8
0
10
172.1050129
20
-28.7598849
11
186.328607
21
-17.6471952
0
LINE
8
0
10
186.4147817
20
-16.9453591
11
175.302092
21
-2.721765
0
LINE
8
0
10
174.6002559
20
-2.6355903
11
160.3766618
21
-13.74828
0
LINE
8
0
10
160.2904871
20
-14.4501161
11
171.4031768
21
-28.6737102
0
LINE
8
0
10
162.3682866
20
2.7920757
11
180.3436181
21
3.7341229
0
LINE
8
0
10
179.3466182
20
22.7580155
11
161.3712866
21
21.8159683
0
LINE
8
0
10
160.8981398
20
21.2904855
11
161.8428038
21
3.2652225
0
ARC
8
0
10
294.1321942
20
-9.025
40
0.5
50
270
51
0
0
ARC
8
0
10
294.1321942
20
66.025
40
0.5
50
0
51
90
0
ARC
8
0
10
276.1321942
20
67.025
40
0.5
50
180
51
270
0
ARC
8
0
10
275.1321942
20
71.74
40
0.5
50
0
51
90
0
ARC
8
0
10
257.0821942
20
71.74
40
0.5
50
90
51
180
0
ARC
8
0
10
252.6643441
20
76.8843471
40
0.5
50
3.0000026
51
93.0000026
0
ARC
8
0
10
234.6390811
20
75.9396831
40
0.5
50
93.0000026
51
183.0000026
0
ARC
8
0
10
215.7149699
20
73.9941053
40
0.5
50
93.0000026
51
183.0000026
0
ARC
8
0
10
214.9132543
20
70.1844258
40
0.5
50
273.0000026
51
3.0000026
0
ARC
8
0
10
196.9902588
20
68.243749
40
0.5
50
93.0000026
51
183.0000026
0
ARC
8
0
10
178.0686336
20
66.2507363
40
0.5
50
93.0000026
51
183.0000026
0
ARC
8
0
10
179.3204502
20
23.2573303
40
0.5
50
273.0000026
51
3.0000026
0
ARC
8
0
10
161.3974546
20
21.3166535
40
0.5
50
93.0000026
51
183.0000026
0
ARC
8
0
10
162.3421186
20
3.2913905
40
0.5
50
183.0000026
51
273.0000026
0
ARC
8
0
10
180.3697861
20
3.2348081
40
0.5
50
3.0000026
51
93.0000026
0
ARC
8
0
10
181.9964472
20
-8.6964103
40
0.5
50
183.0000026
51
273.0000026
0
ARC
8
0
10
200.0217102
20
-7.7517463
40
0.5
50
273.0000026
51
3.0000026
0
ARC
8
0
10
218.9433354
20
-5.7587336
40
0.5
50
273.0000026
51
3.0000026
0
ARC
8
0
10
219.745051
20
-1.9490541
40
0.5
50
93.0000026
51
183.0000026
0
ARC
8
0
10
237.6680465
20
-0.0083773
40
0.5
50
273.0000026
51
3.0000026
0
ARC
8
0
10
256.0821942
20
0.9091021
40
0.5
50
0
51
93.0000026
0
ARC
8
0
10
257.0821942
20
-3.31
40
0.5
50
180
51
270
0
ARC
8
0
10
275.0821942
20
-4.31
40
0.5
50
0
51
90
0
ARC
8
0
10
276.0821942
20
-9.025
40
0.5
50
180
51
270
0
ARC
8
0
10
9.025
20
-9.025
40
0.5
50
270
51
0
0
ARC
8
0
10
10.025
20
-4.31
40
0.5
50
90
51
180
0
ARC
8
0
10
28.025
20
-3.31
40
0.5
50
270
51
0
0
ARC
8
0
10
29.025
20
0.9091021
40
0.5
50
86.9999974
51
180
0
ARC
8
0
10
46.4380321
20
-0.0034763
40
0.5
50
356.9999974
51
86.9999974
0
ARC
8
0
10
65.3621432
20
-1.9490541
40
0.5
50
356.9999974
51
86.9999974
0
ARC
8
0
10
66.1638588
20
-5.7587336
40
0.5
50
176.9999974
51
266.9999974
0
ARC
8
0
10
84.0868544
20
-7.6994104
40
0.5
50
356.9999974
51
86.9999974
0
ARC
8
0
10
103.110747
20
-8.6964103
40
0.5
50
266.9999974
51
356.9999974
0
ARC
8
0
10
104.7374081
20
3.2348081
40
0.5
50
86.9999974
51
176.9999974
0
ARC
8
0
10
122.7650756
20
3.2913905
40
0.5
50
266.9999974
51
356.9999974
0
ARC
8
0
10
123.7097396
20
21.3166535
40
0.5
50
356.9999974
51
86.9999974
0
ARC
8
0
10
105.786744
20
23.2573303
40
0.5
50
176.9999974
51
266.9999974
0
ARC
8
0
10
107.0385606
20
66.2507363
40
0.5
50
356.9999974
51
86.9999974
0
ARC
8
0
10
89.115565
20
68.1914131
40
0.5
50
176.9999974
51
266.9999974
0
ARC
8
0
10
70.1939399
20
70.1844258
40
0.5
50
176.9999974
51
266.9999974
0
ARC
8
0
10
69.3922243
20
73.9941053
40
0.5
50
356.9999974
51
86.9999974
0
ARC
8
0
10
51.4692287
20
75.9347821
40
0.5
50
176.9999974
51
266.9999974
0
ARC
8
0
10
32.4428501
20
76.8843471
40
0.5
50
86.9999974
51
176.9999974
0
ARC
8
0
10
28.025
20
71.74
40
0.5
50
0
51
90
0
ARC
8
0
10
9.975
20
71.74
40
0.5
50
90
51
180
0
ARC
8
0
10
8.975
20
67.025
40
0.5
50
270
51
0
0
ARC
8
0
10
-9.025
20
66.025
40
0.5
50
90
51
180
0
ARC
8
0
10
-9.025
20
-9.025
40
0.5
50
180
51
270
0
ARC
8
0
10
73.7363755
20
-26.7435349
40
0.5
50
258.9999999
51
348.9999999
0
ARC
8
0
10
74.7657049
20
-26.6889371
40
0.5
50
78.9999999
51
168.9999999
0
ARC
8
0
10
92.6258032
20
-29.1418719
40
0.5
50
258.9999999
51
348.9999999
0
ARC
8
0
10
96.0699056
20
-11.4235013
40
0.5
50
348.9999999
51
78.9999999
0
ARC
8
0
10
78.351535
20
-7.9793989
40
0.5
50
78.9999999
51
168.9999999
0
ARC
8
0
10
77.3222056
20
-8.0339967
40
0.5
50
258.9999999
51
348.9999999
0
ARC
8
0
10
40.8111908
20
-1.955691
40
0.5
50
78.9999999
51
168.9999999
0
ARC
8
0
10
37.3670884
20
-19.6740616
40
0.5
50
168.9999999
51
258.9999999
0
ARC
8
0
10
247.7401058
20
-19.6740616
40
0.5
50
281.0000001
51
11.0000001
0
ARC
8
0
10
244.2960034
20
-1.955691
40
0.5
50
11.0000001
51
101.0000001
0
ARC
8
0
10
207.7849886
20
-8.0339967
40
0.5
50
191.0000001
51
281.0000001
0
ARC
8
0
10
206.7556592
20
-7.9793989
40
0.5
50
11.0000001
51
101.0000001
0
ARC
8
0
10
189.0372886
20
-11.4235013
40
0.5
50
101.0000001
51
191.0000001
0
ARC
8
0
10
192.481391
20
-29.1418719
40
0.5
50
191.0000001
51
281.0000001
0
ARC
8
0
10
210.3414893
20
-26.6889371
40
0.5
50
11.0000001
51
101.0000001
0
ARC
8
0
10
211.3708187
20
-26.7435349
40
0.5
50
191.0000001
51
281.0000001
0
ARC
8
0
10
186.0207763
20
-17.2531899
40
0.5
50
307.9999995
51
37.9999995
0
ARC
8
0
10
174.9080867
20
-3.0295957
40
0.5
50
37.9999995
51
127.9999995
0
ARC
8
0
10
160.6844925
20
-14.1422853
40
0.5
50
127.9999995
51
217.9999995
0
ARC
8
0
10
171.7971821
20
-28.3658795
40
0.5
50
217.9999995
51
307.9999995
0
ARC
8
0
10
113.3100121
20
-28.3658795
40
0.5
50
232.0000005
51
322.0000005
0
ARC
8
0
10
124.4227017
20
-14.1422853
40
0.5
50
322.0000005
51
52.0000005
0
ARC
8
0
10
110.1991075
20
-3.0295957
40
0.5
50
52.0000005
51
142.0000005
0
ARC
8
0
10
99.0864179
20
-17.2531899
40
0.5
50
142.0000005
51
232.0000005
0
ENDSEC
0
EOF