0
SECTION
2
HEADER
9
$INSUNITS
70
4
0
ENDSEC
0
SECTION
2
TABLES
0
TABLE
2
LTYPE
0
LTYPE
72
65
70
64
2
CONTINUOUS
3
______
73
0
40
0
0
ENDTAB
0
TABLE
2
LAYER
0
ENDTAB
0
ENDSEC
0
SECTION
2
ENTITIES
0
LINE
8
0
10
-6.5
20
-7
11
6.5
21
-7
0
LINE
8
0
10
7
20
-6.5
11
7
21
6.5
0
LINE
8
0
10
6.5
20
7
11
-6.5
21
7
0
LINE
8
0
10
-7
20
6.5
11
-7
21
-6.5
0
LINE
8
0
10
-6.5
20
12
11
6.5
21
12
0
LINE
8
0
10
7
20
12.5
11
7
21
25.5
0
LINE
8
0
10
6.5
20
26
11
-6.5
21
26
0
LINE
8
0
10
-7
20
25.5
11
-7
21
12.5
0
LINE
8
0
10
-6.5
20
31
11
6.5
21
31
0
LINE
8
0
10
7
20
31.5
11
7
21
44.5
0
LINE
8
0
10
6.5
20
45
11
-6.5
21
45
0
LINE
8
0
10
-7
20
44.5
11
-7
21
31.5
0
LINE
8
0
10
-6.5
20
50
11
6.5
21
50
0
LINE
8
0
10
7
20
50.5
11
7
21
63.5
0
LINE
8
0
10
6.5
20
64
11
-6.5
21
64
0
LINE
8
0
10
-7
20
63.5
11
-7
21
50.5
0
LINE
8
0
10
12.5
20
-1.285
11
25.5
21
-1.285
0
LINE
8
0
10
26
20
-0.785
11
26
21
12.215
0
LINE
8
0
10
25.5
20
12.715
11
12.5
21
12.715
0
LINE
8
0
10
12
20
12.215
11
12
21
-0.785
0
LINE
8
0
10
12.5
20
17.715
11
25.5
21
17.715
0
LINE
8
0
10
26
20
18.215
11
26
21
31.215
0
LINE
8
0
10
25.5
20
31.715
11
12.5
21
31.715
0
LINE
8
0
10
12
20
31.215
11
12
21
18.215
0
LINE
8
0
10
12.5
20
36.715
11
25.5
21
36.715
0
LINE
8
0
10
26
20
37.215
11
26
21
50.215
0
LINE
8
0
10
25.5
20
50.715
11
12.5
21
50.715
0
LINE
8
0
10
12
20
50.215
11
12
21
37.215
0
LINE
8
0
10
12.5
20
55.715
11
25.5
21
55.715
0
LINE
8
0
10
26
20
56.215
11
26
21
69.215
0
LINE
8
0
10
25.5
20
69.715
11
12.5
21
69.715
0
LINE
8
0
10
12
20
69.215
11
12
21
56.215
0
LINE
8
0
10
31.1425564
20
3.827277
11
44.1247402
21
3.1469096
0
LINE
8
0
10
44.650223
20
3.6200564
11
45.3305904
21
16.6022402
0
LINE
8
0
10
44.8574436
20
17.127723
11
31.8752598
21
17.8080904
0
LINE
8
0
10
31.349777
20
17.3349436
11
30.6694096
21
4.3527598
0
LINE
8
0
10
32.1369396
20
22.8012382
11
45.1191234
21
22.1208708
0
LINE
8
0
10
45.6446062
20
22.5940176
11
46.3249736
21
35.5762014
0
LINE
8
0
10
45.8518268
20
36.1016842
11
32.869643
21
36.7820516
0
LINE
8
0
10
32.3441602
20
36.3089048
11
31.6637928
21
23.326721
0
LINE
8
0
10
33.1313228
20
41.7751994
11
46.1135066
21
41.094832
0
LINE
8
0
10
46.6389894
20
41.5679788
11
47.3193568
21
54.5501626
0
LINE
8
0
10
46.84621
20
55.0756454
11
33.8640262
21
55.7560128
0
LINE
8
0
10
33.3385434
20
55.282866
11
32.658176
21
42.3006822
0
LINE
8
0
10
34.125706
20
60.7491606
11
47.1078898
21
60.0687932
0
LINE
8
0
10
47.6333726
20
60.54194
11
48.31374
21
73.5241238
0
LINE
8
0
10
47.8405932
20
74.0496066
11
34.8584094
21
74.729974
0
LINE
8
0
10
34.3329266
20
74.2568272
11
33.6525592
21
61.2746434
0
LINE
8
0
10
50.0666676
20
1.8816992
11
63.0488514
21
1.2013318
0
LINE
8
0
10
63.5743342
20
1.6744786
11
64.2547016
21
14.6566624
0
LINE
8
0
10
63.7815548
20
15.1821452
11
50.799371
21
15.8625126
0
LINE
8
0
10
50.2738882
20
15.3893658
11
49.5935208
21
2.407182
0
LINE
8
0
10
51.0610508
20
20.8556604
11
64.0432346
21
20.175293
0
LINE
8
0
10
64.5687174
20
20.6484398
11
65.2490848
21
33.6306236
0
LINE
8
0
10
64.775938
20
34.1561064
11
51.7937542
21
34.8364738
0
LINE
8
0
10
51.2682714
20
34.363327
11
50.587904
21
21.3811432
0
LINE
8
0
10
52.055434
20
39.8296216
11
65.0376178
21
39.1492542
0
LINE
8
0
10
65.5631006
20
39.622401
11
66.243468
21
52.6045848
0
LINE
8
0
10
65.7703212
20
53.1300676
11
52.7881374
21
53.810435
0
LINE
8
0
10
52.2626546
20
53.3372882
11
51.5822872
21
40.3551044
0
LINE
8
0
10
53.0498172
20
58.8035828
11
66.032001
21
58.1232154
0
LINE
8
0
10
66.5574838
20
58.5963622
11
67.2378512
21
71.578546
0
LINE
8
0
10
66.7647044
20
72.1040288
11
53.7825206
21
72.7843962
0
LINE
8
0
10
53.2570378
20
72.3112494
11
52.5766704
21
59.3290656
0
LINE
8
0
10
68.7913787
20
-3.8686571
11
81.7735625
21
-4.5490245
0
LINE
8
0
10
82.2990453
20
-4.0758777
11
82.9794127
21
8.9063061
0
LINE
8
0
10
82.5062659
20
9.4317889
11
69.5240821
21
10.1121563
0
LINE
8
0
10
68.9985993
20
9.6390095
11
68.3182319
21
-3.3431743
0
LINE
8
0
10
69.7857619
20
15.1053041
11
82.7679457
21
14.4249367
0
LINE
8
0
10
83.2934285
20
14.8980835
11
83.9737959
21
27.8802673
0
LINE
8
0
10
83.5006491
20
28.4057501
11
70.5184653
21
29.0861175
0
LINE
8
0
10
69.9929825
20
28.6129707
11
69.3126151
21
15.6307869
0
LINE
8
0
10
70.7801451
20
34.0792653
11
83.7623289
21
33.3988979
0
LINE
8
0
10
84.2878117
20
33.8720447
11
84.9681791
21
46.8542285
0
LINE
8
0
10
84.4950323
20
47.3797113
11
71.5128485
21
48.0600787
0
LINE
8
0
10
70.9873657
20
47.5869319
11
70.3069983
21
34.6047481
0
LINE
8
0
10
71.7745283
20
53.0532265
11
84.7567121
21
52.3728591
0
LINE
8
0
10
85.2821949
20
52.8460059
11
85.9625623
21
65.8281897
0
LINE
8
0
10
85.4894155
20
66.3536725
11
72.5072317
21
67.0340399
0
LINE
8
0
10
71.9817489
20
66.5608931
11
71.3013815
21
53.5787093
0
LINE
8
0
10
87.7130039
20
-5.8616698
11
100.6951877
21
-6.5420372
0
LINE
8
0
10
101.2206705
20
-6.0688904
11
101.9010379
21
6.9132934
0
LINE
8
0
10
101.4278911
20
7.4387762
11
88.4457073
21
8.1191436
0
LINE
8
0
10
87.9202245
20
7.6459968
11
87.2398571
21
-5.336187
0
LINE
8
0
10
88.7073871
20
13.1122914
11
101.6895709
21
12.431924
0
LINE
8
0
10
102.2150537
20
12.9050708
11
102.8954211
21
25.8872546
0
LINE
8
0
10
102.4222743
20
26.4127374
11
89.4400905
21
27.0931048
0
LINE
8
0
10
88.9146077
20
26.619958
11
88.2342403
21
13.6377742
0
LINE
8
0
10
89.7017703
20
32.0862526
11
102.6839541
21
31.4058852
0
LINE
8
0
10
103.2094369
20
31.879032
11
103.8898043
21
44.8612158
0
LINE
8
0
10
103.4166575
20
45.3866986
11
90.4344737
21
46.067066
0
LINE
8
0
10
89.9089909
20
45.5939192
11
89.2286235
21
32.6117354
0
LINE
8
0
10
90.6961535
20
51.0602138
11
103.6783373
21
50.3798464
0
LINE
8
0
10
104.2038201
20
50.8529932
11
104.8841875
21
63.835177
0
LINE
8
0
10
104.4110407
20
64.3606598
11
91.4288569
21
65.0410272
0
LINE
8
0
10
90.9033741
20
64.5678804
11
90.2230067
21
51.5856966
0
LINE
8
0
10
40.2320852
20
-18.1680593
11
52.9932386
21
-20.6485763
0
LINE
8
0
10
53.5794567
20
-20.2531672
11
56.0599737
21
-7.4920138
0
LINE
8
0
10
55.6645646
20
-6.9057957
11
42.9034112
21
-4.4252787
0
LINE
8
0
10
42.3171931
20
-4.8206878
11
39.8366761
21
-17.5818412
0
LINE
8
0
10
58.8830017
20
-21.7934302
11
71.6441551
21
-24.2739472
0
LINE
8
0
10
72.2303732
20
-23.8785381
11
74.7108902
21
-11.1173847
0
LINE
8
0
10
74.3154811
20
-10.5311666
11
61.5543277
21
-8.0506496
0
LINE
8
0
10
60.9681096
20
-8.4460587
11
58.4875926
21
-21.2072121
0
LINE
8
0
10
77.7724294
20
-24.1917672
11
90.5335828
21
-26.6722842
0
LINE
8
0
10
91.1198009
20
-26.2768751
11
93.6003179
21
-13.5157217
0
LINE
8
0
10
93.2049088
20
-12.9295036
11
80.4437554
21
-10.4489866
0
LINE
8
0
10
79.8575373
20
-10.8443957
11
77.3770203
21
-23.6055491
0
LINE
8
0
10
102.3228596
20
-17.2120132
11
112.5669993
21
-25.2156125
0
LINE
8
0
10
113.2688354
20
-25.1294378
11
121.2724347
21
-14.8852981
0
LINE
8
0
10
121.18626
20
-14.183462
11
110.9421203
21
-6.1798627
0
LINE
8
0
10
110.2402842
20
-6.2660374
11
102.2366849
21
-16.5101771
0
LINE
8
0
10
107.3673325
20
6.126131
11
120.3495163
21
5.4457636
0
LINE
8
0
10
120.8749991
20
5.9189104
11
121.5553665
21
18.9010942
0
LINE
8
0
10
121.0822197
20
19.426577
11
108.1000359
21
20.1069444
0
LINE
8
0
10
107.5745531
20
19.6337976
11
106.8941857
21
6.6516138
0
LINE
8
0
10
278.6071942
20
-7
11
291.6071942
21
-7
0
LINE
8
0
10
292.1071942
20
-6.5
11
292.1071942
21
6.5
0
LINE
8
0
10
291.6071942
20
7
11
278.6071942
21
7
0
LINE
8
0
10
278.1071942
20
6.5
11
278.1071942
21
-6.5
0
LINE
8
0
10
278.6071942
20
12
11
291.6071942
21
12
0
LINE
8
0
10
292.1071942
20
12.5
11
292.1071942
21
25.5
0
LINE
8
0
10
291.6071942
20
26
11
278.6071942
21
26
0
LINE
8
0
10
278.1071942
20
25.5
11
278.1071942
21
12.5
0
LINE
8
0
10
278.6071942
20
31
11
291.6071942
21
31
0
LINE
8
0
10
292.1071942
20
31.5
11
292.1071942
21
44.5
0
LINE
8
0
10
291.6071942
20
45
11
278.6071942
21
45
0
LINE
8
0
10
278.1071942
20
44.5
11
278.1071942
21
31.5
0
LINE
8
0
10
278.6071942
20
50
11
291.6071942
21
50
0
LINE
8
0
10
292.1071942
20
50.5
11
292.1071942
21
63.5
0
LINE
8
0
10
291.6071942
20
64
11
278.6071942
21
64
0
LINE
8
0
10
278.1071942
20
63.5
11
278.1071942
21
50.5
0
LINE
8
0
10
259.6071942
20
-1.285
11
272.6071942
21
-1.285
0
LINE
8
0
10
273.1071942
20
-0.785
11
273.1071942
21
12.215
0
LINE
8
0
10
272.6071942
20
12.715
11
259.6071942
21
12.715
0
LINE
8
0
10
259.1071942
20
12.215
11
259.1071942
21
-0.785
0
LINE
8
0
10
259.6071942
20
17.715
11
272.6071942
21
17.715
0
LINE
8
0
10
273.1071942
20
18.215
11
273.1071942
21
31.215
0
LINE
8
0
10
272.6071942
20
31.715
11
259.6071942
21
31.715
0
LINE
8
0
10
259.1071942
20
31.215
11
259.1071942
21
18.215
0
LINE
8
0
10
259.6071942
20
36.715
11
272.6071942
21
36.715
0
LINE
8
0
10
273.1071942
20
37.215
11
273.1071942
21
50.215
0
LINE
8
0
10
272.6071942
20
50.715
11
259.6071942
21
50.715
0
LINE
8
0
10
259.1071942
20
50.215
11
259.1071942
21
37.215
0
LINE
8
0
10
259.6071942
20
55.715
11
272.6071942
21
55.715
0
LINE
8
0
10
273.1071942
20
56.215
11
273.1071942
21
69.215
0
LINE
8
0
10
272.6071942
20
69.715
11
259.6071942
21
69.715
0
LINE
8
0
10
259.1071942
20
69.215
11
259.1071942
21
56.215
0
LINE
8
0
10
240.982454
20
3.1469096
11
253.9646378
21
3.827277
0
LINE
8
0
10
254.4377846
20
4.3527598
11
253.7574172
21
17.3349436
0
LINE
8
0
10
253.2319344
20
17.8080904
11
240.2497506
21
17.127723
0
LINE
8
0
10
239.7766038
20
16.6022402
11
240.4569712
21
3.6200564
0
LINE
8
0
10
239.9880708
20
22.1208708
11
252.9702546
21
22.8012382
0
LINE
8
0
10
253.4434014
20
23.326721
11
252.763034
21
36.3089048
0
LINE
8
0
10
252.2375512
20
36.7820516
11
239.2553674
21
36.1016842
0
LINE
8
0
10
238.7822206
20
35.5762014
11
239.462588
21
22.5940176
0
LINE
8
0
10
238.9936876
20
41.094832
11
251.9758714
21
41.7751994
0
LINE
8
0
10
252.4490182
20
42.3006822
11
251.7686508
21
55.282866
0
LINE
8
0
10
251.243168
20
55.7560128
11
238.2609842
21
55.0756454
0
LINE
8
0
10
237.7878374
20
54.5501626
11
238.4682048
21
41.5679788
0
LINE
8
0
10
237.9993044
20
60.0687932
11
250.9814882
21
60.7491606
0
LINE
8
0
10
251.454635
20
61.2746434
11
250.7742676
21
74.2568272
0
LINE
8
0
10
250.2487848
20
74.729974
11
237.266601
21
74.0496066
0
LINE
8
0
10
236.7934542
20
73.5241238
11
237.4738216
21
60.54194
0
LINE
8
0
10
222.0583428
20
1.2013318
11
235.0405266
21
1.8816992
0
LINE
8
0
10
235.5136734
20
2.407182
11
234.833306
21
15.3893658
0
LINE
8
0
10
234.3078232
20
15.8625126
11
221.3256394
21
15.1821452
0
LINE
8
0
10
220.8524926
20
14.6566624
11
221.53286
21
1.6744786
0
LINE
8
0
10
221.0639596
20
20.175293
11
234.0461434
21
20.8556604
0
LINE
8
0
10
234.5192902
20
21.3811432
11
233.8389228
21
34.363327
0
LINE
8
0
10
233.31344
20
34.8364738
11
220.3312562
21
34.1561064
0
LINE
8
0
10
219.8581094
20
33.6306236
11
220.5384768
21
20.6484398
0
LINE
8
0
10
220.0695764
20
39.1492542
11
233.0517602
21
39.8296216
0
LINE
8
0
10
233.524907
20
40.3551044
11
232.8445396
21
53.3372882
0
LINE
8
0
10
232.3190568
20
53.810435
11
219.336873
21
53.1300676
0
LINE
8
0
10
218.8637262
20
52.6045848
11
219.5440936
21
39.622401
0
LINE
8
0
10
219.0751932
20
58.1232154
11
232.057377
21
58.8035828
0
LINE
8
0
10
232.5305238
20
59.3290656
11
231.8501564
21
72.3112494
0
LINE
8
0
10
231.3246736
20
72.7843962
11
218.3424898
21
72.1040288
0
LINE
8
0
10
217.869343
20
71.578546
11
218.5497104
21
58.5963622
0
LINE
8
0
10
203.3336317
20
-4.5490245
11
216.3158155
21
-3.8686571
0
LINE
8
0
10
216.7889623
20
-3.3431743
11
216.1085949
21
9.6390095
0
LINE
8
0
10
215.5831121
20
10.1121563
11
202.6009283
21
9.4317889
0
LINE
8
0
10
202.1277815
20
8.9063061
11
202.8081489
21
-4.0758777
0
LINE
8
0
10
202.3392485
20
14.4249367
11
215.3214323
21
15.1053041
0
LINE
8
0
10
215.7945791
20
15.6307869
11
215.1142117
21
28.6129707
0
LINE
8
0
10
214.5887289
20
29.0861175
11
201.6065451
21
28.4057501
0
LINE
8
0
10
201.1333983
20
27.8802673
11
201.8137657
21
14.8980835
0
LINE
8
0
10
201.3448653
20
33.3988979
11
214.3270491
21
34.0792653
0
LINE
8
0
10
214.8001959
20
34.6047481
11
214.1198285
21
47.5869319
0
LINE
8
0
10
213.5943457
20
48.0600787
11
200.6121619
21
47.3797113
0
LINE
8
0
10
200.1390151
20
46.8542285
11
200.8193825
21
33.8720447
0
LINE
8
0
10
200.3504821
20
52.3728591
11
213.3326659
21
53.0532265
0
LINE
8
0
10
213.8058127
20
53.5787093
11
213.1254453
21
66.5608931
0
LINE
8
0
10
212.5999625
20
67.0340399
11
199.6177787
21
66.3536725
0
LINE
8
0
10
199.1446319
20
65.8281897
11
199.8249993
21
52.8460059
0
LINE
8
0
10
184.4120065
20
-6.5420372
11
197.3941903
21
-5.8616698
0
LINE
8
0
10
197.8673371
20
-5.336187
11
197.1869697
21
7.6459968
0
LINE
8
0
10
196.6614869
20
8.1191436
11
183.6793031
21
7.4387762
0
LINE
8
0
10
183.2061563
20
6.9132934
11
183.8865237
21
-6.0688904
0
LINE
8
0
10
183.4176233
20
12.431924
11
196.3998071
21
13.1122914
0
LINE
8
0
10
196.8729539
20
13.6377742
11
196.1925865
21
26.619958
0
LINE
8
0
10
195.6671037
20
27.0931048
11
182.6849199
21
26.4127374
0
LINE
8
0
10
182.2117731
20
25.8872546
11
182.8921405
21
12.9050708
0
LINE
8
0
10
182.4232401
20
31.4058852
11
195.4054239
21
32.0862526
0
LINE
8
0
10
195.8785707
20
32.6117354
11
195.1982033
21
45.5939192
0
LINE
8
0
10
194.6727205
20
46.067066
11
181.6905367
21
45.3866986
0
LINE
8
0
10
181.2173899
20
44.8612158
11
181.8977573
21
31.879032
0
LINE
8
0
10
181.4288569
20
50.3798464
11
194.4110407
21
51.0602138
0
LINE
8
0
10
194.8841875
20
51.5856966
11
194.2038201
21
64.5678804
0
LINE
8
0
10
193.6783373
20
65.0410272
11
180.6961535
21
64.3606598
0
LINE
8
0
10
180.2230067
20
63.835177
11
180.9033741
21
50.8529932
0
LINE
8
0
10
232.1139556
20
-20.6485763
11
244.875109
21
-18.1680593
0
LINE
8
0
10
245.2705181
20
-17.5818412
11
242.7900011
21
-4.8206878
0
LINE
8
0
10
242.203783
20
-4.4252787
11
229.4426296
21
-6.9057957
0
LINE
8
0
10
229.0472205
20
-7.4920138
11
231.5277375
21
-20.2531672
0
LINE
8
0
10
213.4630391
20
-24.2739472
11
226.2241925
21
-21.7934302
0
LINE
8
0
10
226.6196016
20
-21.2072121
11
224.1390846
21
-8.4460587
0
LINE
8
0
10
223.5528665
20
-8.0506496
11
210.7917131
21
-10.5311666
0
LINE
8
0
10
210.396304
20
-11.1173847
11
212.876821
21
-23.8785381
0
LINE
8
0
10
194.5736114
20
-26.6722842
11
207.3347648
21
-24.1917672
0
LINE
8
0
10
207.7301739
20
-23.6055491
11
205.2496569
21
-10.8443957
0
LINE
8
0
10
204.6634388
20
-10.4489866
11
191.9022854
21
-12.9295036
0
LINE
8
0
10
191.5068763
20
-13.5157217
11
193.9873933
21
-26.2768751
0
LINE
8
0
10
172.5401949
20
-25.2156125
11
182.7843346
21
-17.2120132
0
LINE
8
0
10
182.8705093
20
-16.5101771
11
174.86691
21
-6.2660374
0
LINE
8
0
10
174.1650739
20
-6.1798627
11
163.9209342
21
-14.183462
0
LINE
8
0
10
163.8347595
20
-14.8852981
11
171.8383588
21
-25.1294378
0
LINE
8
0
10
164.7576779
20
5.4457636
11
177.7398617
21
6.126131
0
LINE
8
0
10
178.2130085
20
6.6516138
11
177.5326411
21
19.6337976
0
LINE
8
0
10
177.0071583
20
20.1069444
11
164.0249745
21
19.426577
0
LINE
8
0
10
163.5518277
20
18.9010942
11
164.2321951
21
5.9189104
0
ARC
8
0
10
244.7797045
20
-17.6772457
40
0.5
50
281.0000001
51
11.0000001
0
ARC
8
0
10
242.2991875
20
-4.9160923
40
0.5
50
11.0000001
51
101.0000001
0
ARC
8
0
10
229.5380341
20
-7.3966093
40
0.5
50
101.0000001
51
191.0000001
0
ARC
8
0
10
232.0185511
20
-20.1577627
40
0.5
50
191.0000001
51
281.0000001
0
ARC
8
0
10
226.128788
20
-21.3026166
40
0.5
50
281.0000001
51
11.0000001
0
ARC
8
0
10
223.648271
20
-8.5414632
40
0.5
50
11.0000001
51
101.0000001
0
ARC
8
0
10
210.8871176
20
-11.0219802
40
0.5
50
101.0000001
51
191.0000001
0
ARC
8
0
10
213.3676346
20
-23.7831336
40
0.5
50
191.0000001
51
281.0000001
0
ARC
8
0
10
207.2393603
20
-23.7009536
40
0.5
50
281.0000001
51
11.0000001
0
ARC
8
0
10
204.7588433
20
-10.9398002
40
0.5
50
11.0000001
51
101.0000001
0
ARC
8
0
10
191.9976899
20
-13.4203172
40
0.5
50
101.0000001
51
191.0000001
0
ARC
8
0
10
194.4782069
20
-26.1814706
40
0.5
50
191.0000001
51
281.0000001
0
ARC
8
0
10
90.6289873
20
-26.1814706
40
0.5
50
258.9999999
51
348.9999999
0
ARC
8
0
10
93.1095043
20
-13.4203172
40
0.5
50
348.9999999
51
78.9999999
0
ARC
8
0
10
80.3483509
20
-10.9398002
40
0.5
50
78.9999999
51
168.9999999
0
ARC
8
0
10
77.8678339
20
-23.7009536
40
0.5
50
168.9999999
51
258.9999999
0
ARC
8
0
10
53.0886431
20
-20.1577627
40
0.5
50
258.9999999
51
348.9999999
0
ARC
8
0
10
55.5691601
20
-7.3966093
40
0.5
50
348.9999999
51
78.9999999
0
ARC
8
0
10
42.8080067
20
-4.9160923
40
0.5
50
78.9999999
51
168.9999999
0
ARC
8
0
10
40.3274897
20
-17.6772457
40
0.5
50
168.9999999
51
258.9999999
0
ARC
8
0
10
71.7395596
20
-23.7831336
40
0.5
50
258.9999999
51
348.9999999
0
ARC
8
0
10
74.2200766
20
-11.0219802
40
0.5
50
348.9999999
51
78.9999999
0
ARC
8
0
10
61.4589232
20
-8.5414632
40
0.5
50
78.9999999
51
168.9999999
0
ARC
8
0
10
58.9784062
20
-21.3026166
40
0.5
50
168.9999999
51
258.9999999
0
ARC
8
0
10
6.5
20
-6.5
40
0.5
50
270
51
0
0
ARC
8
0
10
6.5
20
6.5
40
0.5
50
0
51
90
0
ARC
8
0
10
-6.5
20
6.5
40
0.5
50
90
51
180
0
ARC
8
0
10
-6.5
20
-6.5
40
0.5
50
180
51
270
0
ARC
8
0
10
6.5
20
12.5
40
0.5
50
270
51
0
0
ARC
8
0
10
6.5
20
25.5
40
0.5
50
0
51
90
0
ARC
8
0
10
-6.5
20
25.5
40
0.5
50
90
51
180
0
ARC
8
0
10
-6.5
20
12.5
40
0.5
50
180
51
270
0
ARC
8
0
10
6.5
20
31.5
40
0.5
50
270
51
0
0
ARC
8
0
10
6.5
20
44.5
40
0.5
50
0
51
90
0
ARC
8
0
10
-6.5
20
44.5
40
0.5
50
90
51
180
0
ARC
8
0
10
-6.5
20
31.5
40
0.5
50
180
51
270
0
ARC
8
0
10
6.5
20
50.5
40
0.5
50
270
51
0
0
ARC
8
0
10
6.5
20
63.5
40
0.5
50
0
51
90
0
ARC
8
0
10
-6.5
20
63.5
40
0.5
50
90
51
180
0
ARC
8
0
10
-6.5
20
50.5
40
0.5
50
180
51
270
0
ARC
8
0
10
25.5
20
-0.785
40
0.5
50
270
51
0
0
ARC
8
0
10
25.5
20
12.215
40
0.5
50
0
51
90
0
ARC
8
0
10
12.5
20
12.215
40
0.5
50
90
51
180
0
ARC
8
0
10
12.5
20
-0.785
40
0.5
50
180
51
270
0
ARC
8
0
10
25.5
20
18.215
40
0.5
50
270
51
0
0
ARC
8
0
10
25.5
20
31.215
40
0.5
50
0
51
90
0
ARC
8
0
10
12.5
20
31.215
40
0.5
50
90
51
180
0
ARC
8
0
10
12.5
20
18.215
40
0.5
50
180
51
270
0
ARC
8
0
10
25.5
20
37.215
40
0.5
50
270
51
0
0
ARC
8
0
10
25.5
20
50.215
40
0.5
50
0
51
90
0
ARC
8
0
10
12.5
20
50.215
40
0.5
50
90
51
180
0
ARC
8
0
10
12.5
20
37.215
40
0.5
50
180
51
270
0
ARC
8
0
10
25.5
20
56.215
40
0.5
50
270
51
0
0
ARC
8
0
10
25.5
20
69.215
40
0.5
50
0
51
90
0
ARC
8
0
10
12.5
20
69.215
40
0.5
50
90
51
180
0
ARC
8
0
10
12.5
20
56.215
40
0.5
50
180
51
270
0
ARC
8
0
10
291.6071942
20
-6.5
40
0.5
50
270
51
0
0
ARC
8
0
10
291.6071942
20
6.5
40
0.5
50
0
51
90
0
ARC
8
0
10
278.6071942
20
6.5
40
0.5
50
90
51
180
0
ARC
8
0
10
278.6071942
20
-6.5
40
0.5
50
180
51
270
0
ARC
8
0
10
291.6071942
20
12.5
40
0.5
50
270
51
0
0
ARC
8
0
10
291.6071942
20
25.5
40
0.5
50
0
51
90
0
ARC
8
0
10
278.6071942
20
25.5
40
0.5
50
90
51
180
0
ARC
8
0
10
278.6071942
20
12.5
40
0.5
50
180
51
270
0
ARC
8
0
10
291.6071942
20
31.5
40
0.5
50
270
51
0
0
ARC
8
0
10
291.6071942
20
44.5
40
0.5
50
0
51
90
0
ARC
8
0
10
278.6071942
20
44.5
40
0.5
50
90
51
180
0
ARC
8
0
10
278.6071942
20
31.5
40
0.5
50
180
51
270
0
ARC
8
0
10
291.6071942
20
50.5
40
0.5
50
270
51
0
0
ARC
8
0
10
291.6071942
20
63.5
40
0.5
50
0
51
90
0
ARC
8
0
10
278.6071942
20
63.5
40
0.5
50
90
51
180
0
ARC
8
0
10
278.6071942
20
50.5
40
0.5
50
180
51
270
0
ARC
8
0
10
272.6071942
20
-0.785
40
0.5
50
270
51
0
0
ARC
8
0
10
272.6071942
20
12.215
40
0.5
50
0
51
90
0
ARC
8
0
10
259.6071942
20
12.215
40
0.5
50
90
51
180
0
ARC
8
0
10
259.6071942
20
-0.785
40
0.5
50
180
51
270
0
ARC
8
0
10
272.6071942
20
18.215
40
0.5
50
270
51
0
0
ARC
8
0
10
272.6071942
20
31.215
40
0.5
50
0
51
90
0
ARC
8
0
10
259.6071942
20
31.215
40
0.5
50
90
51
180
0
ARC
8
0
10
259.6071942
20
18.215
40
0.5
50
180
51
270
0
ARC
8
0
10
272.6071942
20
37.215
40
0.5
50
270
51
0
0
ARC
8
0
10
272.6071942
20
50.215
40
0.5
50
0
51
90
0
ARC
8
0
10
259.6071942
20
50.215
40
0.5
50
90
51
180
0
ARC
8
0
10
259.6071942
20
37.215
40
0.5
50
180
51
270
0
ARC
8
0
10
272.6071942
20
56.215
40
0.5
50
270
51
0
0
ARC
8
0
10
272.6071942
20
69.215
40
0.5
50
0
51
90
0
ARC
8
0
10
259.6071942
20
69.215
40
0.5
50
90
51
180
0
ARC
8
0
10
259.6071942
20
56.215
40
0.5
50
180
51
270
0
ARC
8
0
10
112.8748301
20
-24.8216071
40
0.5
50
232.0000005
51
322.0000005
0
ARC
8
0
10
120.8784293
20
-14.5774673
40
0.5
50
322.0000005
51
52.0000005
0
ARC
8
0
10
110.6342895
20
-6.5738681
40
0.5
50
52.0000005
51
142.0000005
0
ARC
8
0
10
102.6306903
20
-16.8180079
40
0.5
50
142.0000005
51
232.0000005
0
ARC
8
0
10
182.4765039
20
-16.8180079
40
0.5
50
307.9999995
51
37.9999995
0
ARC
8
0
10
174.4729047
20
-6.5738681
40
0.5
50
37.9999995
51
127.9999995
0
ARC
8
0
10
164.2287649
20
-14.5774673
40
0.5
50
127.9999995
51
217.9999995
0
ARC
8
0
10
172.2323641
20
-24.8216071
40
0.5
50
217.9999995
51
307.9999995
0
ARC
8
0
10
45.1452914
20
22.6201856
40
0.5
50
266.9999974
51
356.9999974
0
ARC
8
0
10
45.8256588
20
35.6023694
40
0.5
50
356.9999974
51
86.9999974
0
ARC
8
0
10
32.843475
20
36.2827368
40
0.5
50
86.9999974
51
176.9999974
0
ARC
8
0
10
32.1631076
20
23.300553
40
0.5
50
176.9999974
51
266.9999974
0
ARC
8
0
10
46.1396746
20
41.5941468
40
0.5
50
266.9999974
51
356.9999974
0
ARC
8
0
10
46.820042
20
54.5763306
40
0.5
50
356.9999974
51
86.9999974
0
ARC
8
0
10
33.8378582
20
55.256698
40
0.5
50
86.9999974
51
176.9999974
0
ARC
8
0
10
33.1574908
20
42.2745142
40
0.5
50
176.9999974
51
266.9999974
0
ARC
8
0
10
47.1340578
20
60.568108
40
0.5
50
266.9999974
51
356.9999974
0
ARC
8
0
10
47.8144252
20
73.5502918
40
0.5
50
356.9999974
51
86.9999974
0
ARC
8
0
10
34.8322414
20
74.2306592
40
0.5
50
86.9999974
51
176.9999974
0
ARC
8
0
10
34.151874
20
61.2484754
40
0.5
50
176.9999974
51
266.9999974
0
ARC
8
0
10
64.0694026
20
20.6746078
40
0.5
50
266.9999974
51
356.9999974
0
ARC
8
0
10
64.74977
20
33.6567916
40
0.5
50
356.9999974
51
86.9999974
0
ARC
8
0
10
51.7675862
20
34.337159
40
0.5
50
86.9999974
51
176.9999974
0
ARC
8
0
10
51.0872188
20
21.3549752
40
0.5
50
176.9999974
51
266.9999974
0
ARC
8
0
10
65.0637858
20
39.648569
40
0.5
50
266.9999974
51
356.9999974
0
ARC
8
0
10
65.7441532
20
52.6307528
40
0.5
50
356.9999974
51
86.9999974
0
ARC
8
0
10
52.7619694
20
53.3111202
40
0.5
50
86.9999974
51
176.9999974
0
ARC
8
0
10
52.081602
20
40.3289364
40
0.5
50
176.9999974
51
266.9999974
0
ARC
8
0
10
66.058169
20
58.6225302
40
0.5
50
266.9999974
51
356.9999974
0
ARC
8
0
10
66.7385364
20
71.604714
40
0.5
50
356.9999974
51
86.9999974
0
ARC
8
0
10
53.7563526
20
72.2850814
40
0.5
50
86.9999974
51
176.9999974
0
ARC
8
0
10
53.0759852
20
59.3028976
40
0.5
50
176.9999974
51
266.9999974
0
ARC
8
0
10
83.7884969
20
33.8982127
40
0.5
50
266.9999974
51
356.9999974
0
ARC
8
0
10
84.4688643
20
46.8803965
40
0.5
50
356.9999974
51
86.9999974
0
ARC
8
0
10
71.4866805
20
47.5607639
40
0.5
50
86.9999974
51
176.9999974
0
ARC
8
0
10
70.8063131
20
34.5785801
40
0.5
50
176.9999974
51
266.9999974
0
ARC
8
0
10
84.7828801
20
52.8721739
40
0.5
50
266.9999974
51
356.9999974
0
ARC
8
0
10
85.4632475
20
65.8543577
40
0.5
50
356.9999974
51
86.9999974
0
ARC
8
0
10
72.4810637
20
66.5347251
40
0.5
50
86.9999974
51
176.9999974
0
ARC
8
0
10
71.8006963
20
53.5525413
40
0.5
50
176.9999974
51
266.9999974
0
ARC
8
0
10
102.7101221
20
31.9052
40
0.5
50
266.9999974
51
356.9999974
0
ARC
8
0
10
103.3904895
20
44.8873838
40
0.5
50
356.9999974
51
86.9999974
0
ARC
8
0
10
90.4083057
20
45.5677512
40
0.5
50
86.9999974
51
176.9999974
0
ARC
8
0
10
89.7279383
20
32.5855674
40
0.5
50
176.9999974
51
266.9999974
0
ARC
8
0
10
103.7045053
20
50.8791612
40
0.5
50
266.9999974
51
356.9999974
0
ARC
8
0
10
104.3848727
20
63.861345
40
0.5
50
356.9999974
51
86.9999974
0
ARC
8
0
10
91.4026889
20
64.5417124
40
0.5
50
86.9999974
51
176.9999974
0
ARC
8
0
10
90.7223215
20
51.5595286
40
0.5
50
176.9999974
51
266.9999974
0
ARC
8
0
10
44.1509082
20
3.6462244
40
0.5
50
266.9999974
51
356.9999974
0
ARC
8
0
10
44.8312756
20
16.6284082
40
0.5
50
356.9999974
51
86.9999974
0
ARC
8
0
10
31.8490918
20
17.3087756
40
0.5
50
86.9999974
51
176.9999974
0
ARC
8
0
10
31.1687244
20
4.3265918
40
0.5
50
176.9999974
51
266.9999974
0
ARC
8
0
10
63.0750194
20
1.7006466
40
0.5
50
266.9999974
51
356.9999974
0
ARC
8
0
10
63.7553868
20
14.6828304
40
0.5
50
356.9999974
51
86.9999974
0
ARC
8
0
10
50.773203
20
15.3631978
40
0.5
50
86.9999974
51
176.9999974
0
ARC
8
0
10
50.0928356
20
2.381014
40
0.5
50
176.9999974
51
266.9999974
0
ARC
8
0
10
81.7997305
20
-4.0497097
40
0.5
50
266.9999974
51
356.9999974
0
ARC
8
0
10
82.4800979
20
8.9324741
40
0.5
50
356.9999974
51
86.9999974
0
ARC
8
0
10
69.4979141
20
9.6128415
40
0.5
50
86.9999974
51
176.9999974
0
ARC
8
0
10
68.8175467
20
-3.3693423
40
0.5
50
176.9999974
51
266.9999974
0
ARC
8
0
10
82.7941137
20
14.9242515
40
0.5
50
266.9999974
51
356.9999974
0
ARC
8
0
10
83.4744811
20
27.9064353
40
0.5
50
356.9999974
51
86.9999974
0
ARC
8
0
10
70.4922973
20
28.5868027
40
0.5
50
86.9999974
51
176.9999974
0
ARC
8
0
10
69.8119299
20
15.6046189
40
0.5
50
176.9999974
51
266.9999974
0
ARC
8
0
10
100.7213557
20
-6.0427224
40
0.5
50
266.9999974
51
356.9999974
0
ARC
8
0
10
101.4017231
20
6.9394614
40
0.5
50
356.9999974
51
86.9999974
0
ARC
8
0
10
88.4195393
20
7.6198288
40
0.5
50
86.9999974
51
176.9999974
0
ARC
8
0
10
87.7391719
20
-5.362355
40
0.5
50
176.9999974
51
266.9999974
0
ARC
8
0
10
101.7157389
20
12.9312388
40
0.5
50
266.9999974
51
356.9999974
0
ARC
8
0
10
102.3961063
20
25.9134226
40
0.5
50
356.9999974
51
86.9999974
0
ARC
8
0
10
89.4139225
20
26.59379
40
0.5
50
86.9999974
51
176.9999974
0
ARC
8
0
10
88.7335551
20
13.6116062
40
0.5
50
176.9999974
51
266.9999974
0
ARC
8
0
10
120.3756843
20
5.9450784
40
0.5
50
266.9999974
51
356.9999974
0
ARC
8
0
10
121.0560517
20
18.9272622
40
0.5
50
356.9999974
51
86.9999974
0
ARC
8
0
10
108.0738679
20
19.6076296
40
0.5
50
86.9999974
51
176.9999974
0
ARC
8
0
10
107.3935005
20
6.6254458
40
0.5
50
176.9999974
51
266.9999974
0
ARC
8
0
10
252.9440866
20
23.300553
40
0.5
50
273.0000026
51
3.0000026
0
ARC
8
0
10
252.2637192
20
36.2827368
40
0.5
50
3.0000026
51
93.0000026
0
ARC
8
0
10
239.2815354
20
35.6023694
40
0.5
50
93.0000026
51
183.0000026
0
ARC
8
0
10
239.9619028
20
22.6201856
40
0.5
50
183.0000026
51
273.0000026
0
ARC
8
0
10
251.9497034
20
42.2745142
40
0.5
50
273.0000026
51
3.0000026
0
ARC
8
0
10
251.269336
20
55.256698
40
0.5
50
3.0000026
51
93.0000026
0
ARC
8
0
10
238.2871522
20
54.5763306
40
0.5
50
93.0000026
51
183.0000026
0
ARC
8
0
10
238.9675196
20
41.5941468
40
0.5
50
183.0000026
51
273.0000026
0
ARC
8
0
10
250.9553202
20
61.2484754
40
0.5
50
273.0000026
51
3.0000026
0
ARC
8
0
10
250.2749528
20
74.2306592
40
0.5
50
3.0000026
51
93.0000026
0
ARC
8
0
10
237.292769
20
73.5502918
40
0.5
50
93.0000026
51
183.0000026
0
ARC
8
0
10
237.9731364
20
60.568108
40
0.5
50
183.0000026
51
273.0000026
0
ARC
8
0
10
233.0255922
20
40.3289364
40
0.5
50
273.0000026
51
3.0000026
0
ARC
8
0
10
232.3452248
20
53.3111202
40
0.5
50
3.0000026
51
93.0000026
0
ARC
8
0
10
219.363041
20
52.6307528
40
0.5
50
93.0000026
51
183.0000026
0
ARC
8
0
10
220.0434084
20
39.648569
40
0.5
50
183.0000026
51
273.0000026
0
ARC
8
0
10
232.031209
20
59.3028976
40
0.5
50
273.0000026
51
3.0000026
0
ARC
8
0
10
231.3508416
20
72.2850814
40
0.5
50
3.0000026
51
93.0000026
0
ARC
8
0
10
218.3686578
20
71.604714
40
0.5
50
93.0000026
51
183.0000026
0
ARC
8
0
10
219.0490252
20
58.6225302
40
0.5
50
183.0000026
51
273.0000026
0
ARC
8
0
10
214.3008811
20
34.5785801
40
0.5
50
273.0000026
51
3.0000026
0
ARC
8
0
10
213.6205137
20
47.5607639
40
0.5
50
3.0000026
51
93.0000026
0
ARC
8
0
10
200.6383299
20
46.8803965
40
0.5
50
93.0000026
51
183.0000026
0
ARC
8
0
10
201.3186973
20
33.8982127
40
0.5
50
183.0000026
51
273.0000026
0
ARC
8
0
10
213.3064979
20
53.5525413
40
0.5
50
273.0000026
51
3.0000026
0
ARC
8
0
10
212.6261305
20
66.5347251
40
0.5
50
3.0000026
51
93.0000026
0
ARC
8
0
10
199.6439467
20
65.8543577
40
0.5
50
93.0000026
51
183.0000026
0
ARC
8
0
10
200.3243141
20
52.8721739
40
0.5
50
183.0000026
51
273.0000026
0
ARC
8
0
10
194.3848727
20
51.5595286
40
0.5
50
273.0000026
51
3.0000026
0
ARC
8
0
10
193.7045053
20
64.5417124
40
0.5
50
3.0000026
51
93.0000026
0
ARC
8
0
10
180.7223215
20
63.861345
40
0.5
50
93.0000026
51
183.0000026
0
ARC
8
0
10
181.4026889
20
50.8791612
40
0.5
50
183.0000026
51
273.0000026
0
ARC
8
0
10
177.7136937
20
6.6254458
40
0.5
50
273.0000026
51
3.0000026
0
ARC
8
0
10
177.0333263
20
19.6076296
40
0.5
50
3.0000026
51
93.0000026
0
ARC
8
0
10
164.0511425
20
18.9272622
40
0.5
50
93.0000026
51
183.0000026
0
ARC
8
0
10
164.7315099
20
5.9450784
40
0.5
50
183.0000026
51
273.0000026
0
ARC
8
0
10
253.9384698
20
4.3265918
40
0.5
50
273.0000026
51
3.0000026
0
ARC
8
0
10
253.2581024
20
17.3087756
40
0.5
50
3.0000026
51
93.0000026
0
ARC
8
0
10
240.2759186
20
16.6284082
40
0.5
50
93.0000026
51
183.0000026
0
ARC
8
0
10
240.956286
20
3.6462244
40
0.5
50
183.0000026
51
273.0000026
0
ARC
8
0
10
235.0143586
20
2.381014
40
0.5
50
273.0000026
51
3.0000026
0
ARC
8
0
10
234.3339912
20
15.3631978
40
0.5
50
3.0000026
51
93.0000026
0
ARC
8
0
10
221.3518074
20
14.6828304
40
0.5
50
93.0000026
51
183.0000026
0
ARC
8
0
10
222.0321748
20
1.7006466
40
0.5
50
183.0000026
51
273.0000026
0
ARC
8
0
10
234.0199754
20
21.3549752
40
0.5
50
273.0000026
51
3.0000026
0
ARC
8
0
10
233.339608
20
34.337159
40
0.5
50
3.0000026
51
93.0000026
0
ARC
8
0
10
220.3574242
20
33.6567916
40
0.5
50
93.0000026
51
183.0000026
0
ARC
8
0
10
221.0377916
20
20.6746078
40
0.5
50
183.0000026
51
273.0000026
0
ARC
8
0
10
216.2896475
20
-3.3693423
40
0.5
50
273.0000026
51
3.0000026
0
ARC
8
0
10
215.6092801
20
9.6128415
40
0.5
50
3.0000026
51
93.0000026
0
ARC
8
0
10
202.6270963
20
8.9324741
40
0.5
50
93.0000026
51
183.0000026
0
ARC
8
0
10
203.3074637
20
-4.0497097
40
0.5
50
183.0000026
51
273.0000026
0
ARC
8
0
10
215.2952643
20
15.6046189
40
0.5
50
273.0000026
51
3.0000026
0
ARC
8
0
10
214.6148969
20
28.5868027
40
0.5
50
3.0000026
51
93.0000026
0
ARC
8
0
10
201.6327131
20
27.9064353
40
0.5
50
93.0000026
51
183.0000026
0
ARC
8
0
10
202.3130805
20
14.9242515
40
0.5
50
183.0000026
51
273.0000026
0
ARC
8
0
10
197.3680223
20
-5.362355
40
0.5
50
273.0000026
51
3.0000026
0
ARC
8
0
10
196.6876549
20
7.6198288
40
0.5
50
3.0000026
51
93.0000026
0
ARC
8
0
10
183.7054711
20
6.9394614
40
0.5
50
93.0000026
51
183.0000026
0
ARC
8
0
10
184.3858385
20
-6.0427224
40
0.5
50
183.0000026
51
273.0000026
0
ARC
8
0
10
196.3736391
20
13.6116062
40
0.5
50
273.0000026
51
3.0000026
0
ARC
8
0
10
195.6932717
20
26.59379
40
0.5
50
3.0000026
51
93.0000026
0
ARC
8
0
10
182.7110879
20
25.9134226
40
0.5
50
93.0000026
51
183.0000026
0
ARC
8
0
10
183.3914553
20
12.9312388
40
0.5
50
183.0000026
51
273.0000026
0
ARC
8
0
10
195.3792559
20
32.5855674
40
0.5
50
273.0000026
51
3.0000026
0
ARC
8
0
10
194.6988885
20
45.5677512
40
0.5
50
3.0000026
51
93.0000026
0
ARC
8
0
10
181.7167047
20
44.8873838
40
0.5
50
93.0000026
51
183.0000026
0
ARC
8
0
10
182.3970721
20
31.9052
40
0.5
50
183.0000026
51
273.0000026
0
ENDSEC
0
EOF