0
SECTION
2
HEADER
9
$INSUNITS
70
4
0
ENDSEC
0
SECTION
2
TABLES
0
TABLE
2
LTYPE
0
LTYPE
72
65
70
64
2
CONTINUOUS
3
______
73
0
40
0
0
ENDTAB
0
TABLE
2
LAYER
0
ENDTAB
0
ENDSEC
0
SECTION
2
ENTITIES
0
LINE
8
0
10
-13.025
20
-11.4088247
11
-13.025
21
68.5380634
0
LINE
8
0
10
-11.6010828
20
70.4532993
11
5.9169247
21
75.7225316
0
LINE
8
0
10
6.0340255
20
75.7539173
11
28.3584387
21
81.0176538
0
LINE
8
0
10
28.9642881
20
81.0656324
11
73.37129
21
77.795832
0
LINE
8
0
10
73.8115595
20
77.7131079
11
92.1357122
21
72.0857631
0
LINE
8
0
10
92.5133483
20
72.008642
11
111.1901165
21
70.0414201
0
LINE
8
0
10
111.2949453
20
70.0331581
11
128.6798847
21
69.122052
0
LINE
8
0
10
130.5717161
20
67.0065805
11
126.5699559
21
-0.5796558
0
LINE
8
0
10
126.6395698
20
-1.2336824
11
129.7670847
21
-12.4808174
0
LINE
8
0
10
129.4162168
20
-14.2479545
11
114.6062115
21
-33.2038967
0
LINE
8
0
10
113.0138316
20
-33.9725068
11
95.9537343
21
-33.8329634
0
LINE
8
0
10
95.6268549
20
-33.8033571
11
32.7157871
21
-22.8440314
0
LINE
8
0
10
32.6391905
20
-22.8291429
11
-11.4448344
21
-13.364263
0
ARC
8
0
10
-11.025
20
68.5380634
40
2
50
106.7407331
51
180
0
ARC
8
0
10
6.4930075
20
73.8072957
40
2
50
103.2671064
51
106.7407331
0
ARC
8
0
10
28.8174207
20
79.0710322
40
2
50
85.7887683
51
103.2671064
0
ARC
8
0
10
73.2244226
20
75.8012318
40
2
50
72.9282828
51
85.7887683
0
ARC
8
0
10
92.7228491
20
73.9976391
40
2
50
252.9282828
51
263.9872135
0
ARC
8
0
10
111.3996173
20
72.0304172
40
2
50
263.9872135
51
266.9999974
0
ARC
8
0
10
128.5752127
20
67.1247929
40
2
50
356.6114893
51
86.9999974
0
ARC
8
0
10
128.5664593
20
-0.6978682
40
2
50
176.6114893
51
195.5397657
0
ARC
8
0
10
127.8401952
20
-13.0166316
40
2
50
322.0000005
51
15.5397657
0
ARC
8
0
10
113.03019
20
-31.9725737
40
2
50
269.5313611
51
322.0000005
0
ARC
8
0
10
95.9700927
20
-31.8330303
40
2
50
260.1180412
51
269.5313611
0
ARC
8
0
10
33.0590249
20
-20.8737046
40
2
50
257.8825004
51
260.1180412
0
ARC
8
0
10
-11.025
20
-11.4088247
40
2
50
180
51
257.8825004
0
LINE
8
0
10
-6.5
20
-7
11
6.5
21
-7
0
LINE
8
0
10
7
20
-6.5
11
7
21
6.5
0
LINE
8
0
10
6.5
20
7
11
-6.5
21
7
0
LINE
8
0
10
-7
20
6.5
11
-7
21
-6.5
0
LINE
8
0
10
-6.5
20
12
11
6.5
21
12
0
LINE
8
0
10
7
20
12.5
11
7
21
25.5
0
LINE
8
0
10
6.5
20
26
11
-6.5
21
26
0
LINE
8
0
10
-7
20
25.5
11
-7
21
12.5
0
LINE
8
0
10
-6.5
20
31
11
6.5
21
31
0
LINE
8
0
10
7
20
31.5
11
7
21
44.5
0
LINE
8
0
10
6.5
20
45
11
-6.5
21
45
0
LINE
8
0
10
-7
20
44.5
11
-7
21
31.5
0
LINE
8
0
10
-6.5
20
50
11
6.5
21
50
0
LINE
8
0
10
7
20
50.5
11
7
21
63.5
0
LINE
8
0
10
6.5
20
64
11
-6.5
21
64
0
LINE
8
0
10
-7
20
63.5
11
-7
21
50.5
0
LINE
8
0
10
12.5
20
-1.285
11
25.5
21
-1.285
0
LINE
8
0
10
26
20
-0.785
11
26
21
12.215
0
LINE
8
0
10
25.5
20
12.715
11
12.5
21
12.715
0
LINE
8
0
10
12
20
12.215
11
12
21
-0.785
0
LINE
8
0
10
12.5
20
17.715
11
25.5
21
17.715
0
LINE
8
0
10
26
20
18.215
11
26
21
31.215
0
LINE
8
0
10
25.5
20
31.715
11
12.5
21
31.715
0
LINE
8
0
10
12
20
31.215
11
12
21
18.215
0
LINE
8
0
10
12.5
20
36.715
11
25.5
21
36.715
0
LINE
8
0
10
26
20
37.215
11
26
21
50.215
0
LINE
8
0
10
25.5
20
50.715
11
12.5
21
50.715
0
LINE
8
0
10
12
20
50.215
11
12
21
37.215
0
LINE
8
0
10
12.5
20
55.715
11
25.5
21
55.715
0
LINE
8
0
10
26
20
56.215
11
26
21
69.215
0
LINE
8
0
10
25.5
20
69.715
11
12.5
21
69.715
0
LINE
8
0
10
12
20
69.215
11
12
21
56.215
0
LINE
8
0
10
31.1425564
20
3.827277
11
44.1247402
21
3.1469096
0
LINE
8
0
10
44.650223
20
3.6200564
11
45.3305904
21
16.6022402
0
LINE
8
0
10
44.8574436
20
17.127723
11
31.8752598
21
17.8080904
0
LINE
8
0
10
31.349777
20
17.3349436
11
30.6694096
21
4.3527598
0
LINE
8
0
10
32.1369396
20
22.8012382
11
45.1191234
21
22.1208708
0
LINE
8
0
10
45.6446062
20
22.5940176
11
46.3249736
21
35.5762014
0
LINE
8
0
10
45.8518268
20
36.1016842
11
32.869643
21
36.7820516
0
LINE
8
0
10
32.3441602
20
36.3089048
11
31.6637928
21
23.326721
0
LINE
8
0
10
33.1313228
20
41.7751994
11
46.1135066
21
41.094832
0
LINE
8
0
10
46.6389894
20
41.5679788
11
47.3193568
21
54.5501626
0
LINE
8
0
10
46.84621
20
55.0756454
11
33.8640262
21
55.7560128
0
LINE
8
0
10
33.3385434
20
55.282866
11
32.658176
21
42.3006822
0
LINE
8
0
10
34.125706
20
60.7491606
11
47.1078898
21
60.0687932
0
LINE
8
0
10
47.6333726
20
60.54194
11
48.31374
21
73.5241238
0
LINE
8
0
10
47.8405932
20
74.0496066
11
34.8584094
21
74.729974
0
LINE
8
0
10
34.3329266
20
74.2568272
11
33.6525592
21
61.2746434
0
LINE
8
0
10
50.0666676
20
1.8816992
11
63.0488514
21
1.2013318
0
LINE
8
0
10
63.5743342
20
1.6744786
11
64.2547016
21
14.6566624
0
LINE
8
0
10
63.7815548
20
15.1821452
11
50.799371
21
15.8625126
0
LINE
8
0
10
50.2738882
20
15.3893658
11
49.5935208
21
2.407182
0
LINE
8
0
10
51.0610508
20
20.8556604
11
64.0432346
21
20.175293
0
LINE
8
0
10
64.5687174
20
20.6484398
11
65.2490848
21
33.6306236
0
LINE
8
0
10
64.775938
20
34.1561064
11
51.7937542
21
34.8364738
0
LINE
8
0
10
51.2682714
20
34.363327
11
50.587904
21
21.3811432
0
LINE
8
0
10
52.055434
20
39.8296216
11
65.0376178
21
39.1492542
0
LINE
8
0
10
65.5631006
20
39.622401
11
66.243468
21
52.6045848
0
LINE
8
0
10
65.7703212
20
53.1300676
11
52.7881374
21
53.810435
0
LINE
8
0
10
52.2626546
20
53.3372882
11
51.5822872
21
40.3551044
0
LINE
8
0
10
53.0498172
20
58.8035828
11
66.032001
21
58.1232154
0
LINE
8
0
10
66.5574838
20
58.5963622
11
67.2378512
21
71.578546
0
LINE
8
0
10
66.7647044
20
72.1040288
11
53.7825206
21
72.7843962
0
LINE
8
0
10
53.2570378
20
72.3112494
11
52.5766704
21
59.3290656
0
LINE
8
0
10
68.7913787
20
-3.8686571
11
81.7735625
21
-4.5490245
0
LINE
8
0
10
82.2990453
20
-4.0758777
11
82.9794127
21
8.9063061
0
LINE
8
0
10
82.5062659
20
9.4317889
11
69.5240821
21
10.1121563
0
LINE
8
0
10
68.9985993
20
9.6390095
11
68.3182319
21
-3.3431743
0
LINE
8
0
10
69.7857619
20
15.1053041
11
82.7679457
21
14.4249367
0
LINE
8
0
10
83.2934285
20
14.8980835
11
83.9737959
21
27.8802673
0
LINE
8
0
10
83.5006491
20
28.4057501
11
70.5184653
21
29.0861175
0
LINE
8
0
10
69.9929825
20
28.6129707
11
69.3126151
21
15.6307869
0
LINE
8
0
10
70.7801451
20
34.0792653
11
83.7623289
21
33.3988979
0
LINE
8
0
10
84.2878117
20
33.8720447
11
84.9681791
21
46.8542285
0
LINE
8
0
10
84.4950323
20
47.3797113
11
71.5128485
21
48.0600787
0
LINE
8
0
10
70.9873657
20
47.5869319
11
70.3069983
21
34.6047481
0
LINE
8
0
10
71.7745283
20
53.0532265
11
84.7567121
21
52.3728591
0
LINE
8
0
10
85.2821949
20
52.8460059
11
85.9625623
21
65.8281897
0
LINE
8
0
10
85.4894155
20
66.3536725
11
72.5072317
21
67.0340399
0
LINE
8
0
10
71.9817489
20
66.5608931
11
71.3013815
21
53.5787093
0
LINE
8
0
10
87.7130039
20
-5.8616698
11
100.6951877
21
-6.5420372
0
LINE
8
0
10
101.2206705
20
-6.0688904
11
101.9010379
21
6.9132934
0
LINE
8
0
10
101.4278911
20
7.4387762
11
88.4457073
21
8.1191436
0
LINE
8
0
10
87.9202245
20
7.6459968
11
87.2398571
21
-5.336187
0
LINE
8
0
10
88.7073871
20
13.1122914
11
101.6895709
21
12.431924
0
LINE
8
0
10
102.2150537
20
12.9050708
11
102.8954211
21
25.8872546
0
LINE
8
0
10
102.4222743
20
26.4127374
11
89.4400905
21
27.0931048
0
LINE
8
0
10
88.9146077
20
26.619958
11
88.2342403
21
13.6377742
0
LINE
8
0
10
89.7017703
20
32.0862526
11
102.6839541
21
31.4058852
0
LINE
8
0
10
103.2094369
20
31.879032
11
103.8898043
21
44.8612158
0
LINE
8
0
10
103.4166575
20
45.3866986
11
90.4344737
21
46.067066
0
LINE
8
0
10
89.9089909
20
45.5939192
11
89.2286235
21
32.6117354
0
LINE
8
0
10
90.6961535
20
51.0602138
11
103.6783373
21
50.3798464
0
LINE
8
0
10
104.2038201
20
50.8529932
11
104.8841875
21
63.835177
0
LINE
8
0
10
104.4110407
20
64.3606598
11
91.4288569
21
65.0410272
0
LINE
8
0
10
90.9033741
20
64.5678804
11
90.2230067
21
51.5856966
0
LINE
8
0
10
40.2320852
20
-18.1680593
11
52.9932386
21
-20.6485763
0
LINE
8
0
10
53.5794567
20
-20.2531672
11
56.0599737
21
-7.4920138
0
LINE
8
0
10
55.6645646
20
-6.9057957
11
42.9034112
21
-4.4252787
0
LINE
8
0
10
42.3171931
20
-4.8206878
11
39.8366761
21
-17.5818412
0
LINE
8
0
10
58.8830017
20
-21.7934302
11
71.6441551
21
-24.2739472
0
LINE
8
0
10
72.2303732
20
-23.8785381
11
74.7108902
21
-11.1173847
0
LINE
8
0
10
74.3154811
20
-10.5311666
11
61.5543277
21
-8.0506496
0
LINE
8
0
10
60.9681096
20
-8.4460587
11
58.4875926
21
-21.2072121
0
LINE
8
0
10
77.7724294
20
-24.1917672
11
90.5335828
21
-26.6722842
0
LINE
8
0
10
91.1198009
20
-26.2768751
11
93.6003179
21
-13.5157217
0
LINE
8
0
10
93.2049088
20
-12.9295036
11
80.4437554
21
-10.4489866
0
LINE
8
0
10
79.8575373
20
-10.8443957
11
77.3770203
21
-23.6055491
0
LINE
8
0
10
102.3228596
20
-17.2120132
11
112.5669993
21
-25.2156125
0
LINE
8
0
10
113.2688354
20
-25.1294378
11
121.2724347
21
-14.8852981
0
LINE
8
0
10
121.18626
20
-14.183462
11
110.9421203
21
-6.1798627
0
LINE
8
0
10
110.2402842
20
-6.2660374
11
102.2366849
21
-16.5101771
0
LINE
8
0
10
107.3673325
20
6.126131
11
120.3495163
21
5.4457636
0
LINE
8
0
10
120.8749991
20
5.9189104
11
121.5553665
21
18.9010942
0
LINE
8
0
10
121.0822197
20
19.426577
11
108.1000359
21
20.1069444
0
LINE
8
0
10
107.5745531
20
19.6337976
11
106.8941857
21
6.6516138
0
ARC
8
0
10
90.6289873
20
-26.1814706
40
0.5
50
258.9999999
51
348.9999999
0
ARC
8
0
10
93.1095043
20
-13.4203172
40
0.5
50
348.9999999
51
78.9999999
0
ARC
8
0
10
80.3483509
20
-10.9398002
40
0.5
50
78.9999999
51
168.9999999
0
ARC
8
0
10
77.8678339
20
-23.7009536
40
0.5
50
168.9999999
51
258.9999999
0
ARC
8
0
10
53.0886431
20
-20.1577627
40
0.5
50
258.9999999
51
348.9999999
0
ARC
8
0
10
55.5691601
20
-7.3966093
40
0.5
50
348.9999999
51
78.9999999
0
ARC
8
0
10
42.8080067
20
-4.9160923
40
0.5
50
78.9999999
51
168.9999999
0
ARC
8
0
10
40.3274897
20
-17.6772457
40
0.5
50
168.9999999
51
258.9999999
0
ARC
8
0
10
71.7395596
20
-23.7831336
40
0.5
50
258.9999999
51
348.9999999
0
ARC
8
0
10
74.2200766
20
-11.0219802
40
0.5
50
348.9999999
51
78.9999999
0
ARC
8
0
10
61.4589232
20
-8.5414632
40
0.5
50
78.9999999
51
168.9999999
0
ARC
8
0
10
58.9784062
20
-21.3026166
40
0.5
50
168.9999999
51
258.9999999
0
ARC
8
0
10
6.5
20
-6.5
40
0.5
50
270
51
0
0
ARC
8
0
10
6.5
20
6.5
40
0.5
50
0
51
90
0
ARC
8
0
10
-6.5
20
6.5
40
0.5
50
90
51
180
0
ARC
8
0
10
-6.5
20
-6.5
40
0.5
50
180
51
270
0
ARC
8
0
10
6.5
20
12.5
40
0.5
50
270
51
0
0
ARC
8
0
10
6.5
20
25.5
40
0.5
50
0
51
90
0
ARC
8
0
10
-6.5
20
25.5
40
0.5
50
90
51
180
0
ARC
8
0
10
-6.5
20
12.5
40
0.5
50
180
51
270
0
ARC
8
0
10
6.5
20
31.5
40
0.5
50
270
51
0
0
ARC
8
0
10
6.5
20
44.5
40
0.5
50
0
51
90
0
ARC
8
0
10
-6.5
20
44.5
40
0.5
50
90
51
180
0
ARC
8
0
10
-6.5
20
31.5
40
0.5
50
180
51
270
0
ARC
8
0
10
6.5
20
50.5
40
0.5
50
270
51
0
0
ARC
8
0
10
6.5
20
63.5
40
0.5
50
0
51
90
0
ARC
8
0
10
-6.5
20
63.5
40
0.5
50
90
51
180
0
ARC
8
0
10
-6.5
20
50.5
40
0.5
50
180
51
270
0
ARC
8
0
10
25.5
20
-0.785
40
0.5
50
270
51
0
0
ARC
8
0
10
25.5
20
12.215
40
0.5
50
0
51
90
0
ARC
8
0
10
12.5
20
12.215
40
0.5
50
90
51
180
0
ARC
8
0
10
12.5
20
-0.785
40
0.5
50
180
51
270
0
ARC
8
0
10
25.5
20
18.215
40
0.5
50
270
51
0
0
ARC
8
0
10
25.5
20
31.215
40
0.5
50
0
51
90
0
ARC
8
0
10
12.5
20
31.215
40
0.5
50
90
51
180
0
ARC
8
0
10
12.5
20
18.215
40
0.5
50
180
51
270
0
ARC
8
0
10
25.5
20
37.215
40
0.5
50
270
51
0
0
ARC
8
0
10
25.5
20
50.215
40
0.5
50
0
51
90
0
ARC
8
0
10
12.5
20
50.215
40
0.5
50
90
51
180
0
ARC
8
0
10
12.5
20
37.215
40
0.5
50
180
51
270
0
ARC
8
0
10
25.5
20
56.215
40
0.5
50
270
51
0
0
ARC
8
0
10
25.5
20
69.215
40
0.5
50
0
51
90
0
ARC
8
0
10
12.5
20
69.215
40
0.5
50
90
51
180
0
ARC
8
0
10
12.5
20
56.215
40
0.5
50
180
51
270
0
ARC
8
0
10
112.8748301
20
-24.8216071
40
0.5
50
232.0000005
51
322.0000005
0
ARC
8
0
10
120.8784293
20
-14.5774673
40
0.5
50
322.0000005
51
52.0000005
0
ARC
8
0
10
110.6342895
20
-6.5738681
40
0.5
50
52.0000005
51
142.0000005
0
ARC
8
0
10
102.6306903
20
-16.8180079
40
0.5
50
142.0000005
51
232.0000005
0
ARC
8
0
10
45.1452914
20
22.6201856
40
0.5
50
266.9999974
51
356.9999974
0
ARC
8
0
10
45.8256588
20
35.6023694
40
0.5
50
356.9999974
51
86.9999974
0
ARC
8
0
10
32.843475
20
36.2827368
40
0.5
50
86.9999974
51
176.9999974
0
ARC
8
0
10
32.1631076
20
23.300553
40
0.5
50
176.9999974
51
266.9999974
0
ARC
8
0
10
46.1396746
20
41.5941468
40
0.5
50
266.9999974
51
356.9999974
0
ARC
8
0
10
46.820042
20
54.5763306
40
0.5
50
356.9999974
51
86.9999974
0
ARC
8
0
10
33.8378582
20
55.256698
40
0.5
50
86.9999974
51
176.9999974
0
ARC
8
0
10
33.1574908
20
42.2745142
40
0.5
50
176.9999974
51
266.9999974
0
ARC
8
0
10
47.1340578
20
60.568108
40
0.5
50
266.9999974
51
356.9999974
0
ARC
8
0
10
47.8144252
20
73.5502918
40
0.5
50
356.9999974
51
86.9999974
0
ARC
8
0
10
34.8322414
20
74.2306592
40
0.5
50
86.9999974
51
176.9999974
0
ARC
8
0
10
34.151874
20
61.2484754
40
0.5
50
176.9999974
51
266.9999974
0
ARC
8
0
10
64.0694026
20
20.6746078
40
0.5
50
266.9999974
51
356.9999974
0
ARC
8
0
10
64.74977
20
33.6567916
40
0.5
50
356.9999974
51
86.9999974
0
ARC
8
0
10
51.7675862
20
34.337159
40
0.5
50
86.9999974
51
176.9999974
0
ARC
8
0
10
51.0872188
20
21.3549752
40
0.5
50
176.9999974
51
266.9999974
0
ARC
8
0
10
65.0637858
20
39.648569
40
0.5
50
266.9999974
51
356.9999974
0
ARC
8
0
10
65.7441532
20
52.6307528
40
0.5
50
356.9999974
51
86.9999974
0
ARC
8
0
10
52.7619694
20
53.3111202
40
0.5
50
86.9999974
51
176.9999974
0
ARC
8
0
10
52.081602
20
40.3289364
40
0.5
50
176.9999974
51
266.9999974
0
ARC
8
0
10
66.058169
20
58.6225302
40
0.5
50
266.9999974
51
356.9999974
0
ARC
8
0
10
66.7385364
20
71.604714
40
0.5
50
356.9999974
51
86.9999974
0
ARC
8
0
10
53.7563526
20
72.2850814
40
0.5
50
86.9999974
51
176.9999974
0
ARC
8
0
10
53.0759852
20
59.3028976
40
0.5
50
176.9999974
51
266.9999974
0
ARC
8
0
10
83.7884969
20
33.8982127
40
0.5
50
266.9999974
51
356.9999974
0
ARC
8
0
10
84.4688643
20
46.8803965
40
0.5
50
356.9999974
51
86.9999974
0
ARC
8
0
10
71.4866805
20
47.5607639
40
0.5
50
86.9999974
51
176.9999974
0
ARC
8
0
10
70.8063131
20
34.5785801
40
0.5
50
176.9999974
51
266.9999974
0
ARC
8
0
10
84.7828801
20
52.8721739
40
0.5
50
266.9999974
51
356.9999974
0
ARC
8
0
10
85.4632475
20
65.8543577
40
0.5
50
356.9999974
51
86.9999974
0
ARC
8
0
10
72.4810637
20
66.5347251
40
0.5
50
86.9999974
51
176.9999974
0
ARC
8
0
10
71.8006963
20
53.5525413
40
0.5
50
176.9999974
51
266.9999974
0
ARC
8
0
10
102.7101221
20
31.9052
40
0.5
50
266.9999974
51
356.9999974
0
ARC
8
0
10
103.3904895
20
44.8873838
40
0.5
50
356.9999974
51
86.9999974
0
ARC
8
0
10
90.4083057
20
45.5677512
40
0.5
50
86.9999974
51
176.9999974
0
ARC
8
0
10
89.7279383
20
32.5855674
40
0.5
50
176.9999974
51
266.9999974
0
ARC
8
0
10
103.7045053
20
50.8791612
40
0.5
50
266.9999974
51
356.9999974
0
ARC
8
0
10
104.3848727
20
63.861345
40
0.5
50
356.9999974
51
86.9999974
0
ARC
8
0
10
91.4026889
20
64.5417124
40
0.5
50
86.9999974
51
176.9999974
0
ARC
8
0
10
90.7223215
20
51.5595286
40
0.5
50
176.9999974
51
266.9999974
0
ARC
8
0
10
44.1509082
20
3.6462244
40
0.5
50
266.9999974
51
356.9999974
0
ARC
8
0
10
44.8312756
20
16.6284082
40
0.5
50
356.9999974
51
86.9999974
0
ARC
8
0
10
31.8490918
20
17.3087756
40
0.5
50
86.9999974
51
176.9999974
0
ARC
8
0
10
31.1687244
20
4.3265918
40
0.5
50
176.9999974
51
266.9999974
0
ARC
8
0
10
63.0750194
20
1.7006466
40
0.5
50
266.9999974
51
356.9999974
0
ARC
8
0
10
63.7553868
20
14.6828304
40
0.5
50
356.9999974
51
86.9999974
0
ARC
8
0
10
50.773203
20
15.3631978
40
0.5
50
86.9999974
51
176.9999974
0
ARC
8
0
10
50.0928356
20
2.381014
40
0.5
50
176.9999974
51
266.9999974
0
ARC
8
0
10
81.7997305
20
-4.0497097
40
0.5
50
266.9999974
51
356.9999974
0
ARC
8
0
10
82.4800979
20
8.9324741
40
0.5
50
356.9999974
51
86.9999974
0
ARC
8
0
10
69.4979141
20
9.6128415
40
0.5
50
86.9999974
51
176.9999974
0
ARC
8
0
10
68.8175467
20
-3.3693423
40
0.5
50
176.9999974
51
266.9999974
0
ARC
8
0
10
82.7941137
20
14.9242515
40
0.5
50
266.9999974
51
356.9999974
0
ARC
8
0
10
83.4744811
20
27.9064353
40
0.5
50
356.9999974
51
86.9999974
0
ARC
8
0
10
70.4922973
20
28.5868027
40
0.5
50
86.9999974
51
176.9999974
0
ARC
8
0
10
69.8119299
20
15.6046189
40
0.5
50
176.9999974
51
266.9999974
0
ARC
8
0
10
100.7213557
20
-6.0427224
40
0.5
50
266.9999974
51
356.9999974
0
ARC
8
0
10
101.4017231
20
6.9394614
40
0.5
50
356.9999974
51
86.9999974
0
ARC
8
0
10
88.4195393
20
7.6198288
40
0.5
50
86.9999974
51
176.9999974
0
ARC
8
0
10
87.7391719
20
-5.362355
40
0.5
50
176.9999974
51
266.9999974
0
ARC
8
0
10
101.7157389
20
12.9312388
40
0.5
50
266.9999974
51
356.9999974
0
ARC
8
0
10
102.3961063
20
25.9134226
40
0.5
50
356.9999974
51
86.9999974
0
ARC
8
0
10
89.4139225
20
26.59379
40
0.5
50
86.9999974
51
176.9999974
0
ARC
8
0
10
88.7335551
20
13.6116062
40
0.5
50
176.9999974
51
266.9999974
0
ARC
8
0
10
120.3756843
20
5.9450784
40
0.5
50
266.9999974
51
356.9999974
0
ARC
8
0
10
121.0560517
20
18.9272622
40
0.5
50
356.9999974
51
86.9999974
0
ARC
8
0
10
108.0738679
20
19.6076296
40
0.5
50
86.9999974
51
176.9999974
0
ARC
8
0
10
107.3935005
20
6.6254458
40
0.5
50
176.9999974
51
266.9999974
0
ENDSEC
0
EOF